<?xml version="1.0" encoding="utf-8"?>
<!-- Generator: Adobe Illustrator 16.0.3, SVG Export Plug-In . SVG Version: 6.00 Build 0)  -->
<!DOCTYPE svg PUBLIC "-//W3C//DTD SVG 1.1//EN" "http://www.w3.org/Graphics/SVG/1.1/DTD/svg11.dtd">
<svg version="1.1" id="Слой_2" xmlns="http://www.w3.org/2000/svg" xmlns:xlink="http://www.w3.org/1999/xlink" x="0px" y="0px"
	 width="161px" height="161px" viewBox="0 0 161 161" enable-background="new 0 0 161 161" xml:space="preserve">
<rect fill="#E6355F" width="161" height="161"/>
<g>
	<path fill="#FFFFFF" d="M81,108.001c-14.888,0-27-12.112-27-27.001c0-14.888,12.112-27,27-27s27,12.112,27,27
		C108,95.889,95.888,108.001,81,108.001z M81,57c-13.234,0-24,10.766-24,24c0,13.233,10.766,24.001,24,24.001
		c13.233,0,24-10.768,24-24.001C105,67.766,94.233,57,81,57z"/>
	<polygon fill="#FFFFFF" points="83.5,68 76.5,68 86.5,78 66,78 66,84 86.5,84 76.5,94 83.5,94 96.5,81 	"/>
</g>
</svg>
