<?xml version="1.0" encoding="UTF-8" standalone="no"?>
<!-- Generator: Adobe Illustrator 16.0.0, SVG Export Plug-In . SVG Version: 6.00 Build 0)  -->

<svg
   xmlns:dc="http://purl.org/dc/elements/1.1/"
   xmlns:cc="http://creativecommons.org/ns#"
   xmlns:rdf="http://www.w3.org/1999/02/22-rdf-syntax-ns#"
   xmlns:svg="http://www.w3.org/2000/svg"
   xmlns="http://www.w3.org/2000/svg"
   xmlns:sodipodi="http://sodipodi.sourceforge.net/DTD/sodipodi-0.dtd"
   xmlns:inkscape="http://www.inkscape.org/namespaces/inkscape"
   version="1.1"
   id="Слой_2"
   x="0px"
   y="0px"
   width="200px"
   height="95px"
   viewBox="0 0 200 95"
   enable-background="new 0 0 200 95"
   xml:space="preserve"
   inkscape:version="0.48.4 r9939"
   sodipodi:docname="gray_z.svg"><metadata
   id="metadata9"><rdf:RDF><cc:Work
       rdf:about=""><dc:format>image/svg+xml</dc:format><dc:type
         rdf:resource="http://purl.org/dc/dcmitype/StillImage" /></cc:Work></rdf:RDF></metadata><defs
   id="defs7" /><sodipodi:namedview
   pagecolor="#ffffff"
   bordercolor="#666666"
   borderopacity="1"
   objecttolerance="10"
   gridtolerance="10"
   guidetolerance="10"
   inkscape:pageopacity="0"
   inkscape:pageshadow="2"
   inkscape:window-width="1920"
   inkscape:window-height="1137"
   id="namedview5"
   showgrid="false"
   inkscape:zoom="1"
   inkscape:cx="100"
   inkscape:cy="47.5"
   inkscape:window-x="-9"
   inkscape:window-y="-9"
   inkscape:window-maximized="1"
   inkscape:current-layer="Слой_2" />
<rect
   fill="#CDD0D5"
   width="200"
   height="95"
   id="rect3" />
<path
   inkscape:connector-curvature="0"
   style="fill:#ffffff;fill-opacity:1;fill-rule:evenodd;stroke:none"
   d="M 32.14567,60.521653 45.078741,47.553149 32.14567,34.620079 l 0,6.980314 -12.047244,0 0,11.940945 12.047244,0 0,6.980315 z m 17.751968,13.818897 18.531496,-7.228346 0,-39.082676 -18.531496,-7.228347 c 0,2.090551 0,4.216536 0,6.307087 l -12.897637,0 0,8.503937 2.586614,2.622047 0,-8.433071 10.311023,0 c -0.03543,11.834645 0,23.669291 0,35.539369 l -10.311023,0 0,-8.43307 -2.586614,2.586614 0,8.503937 12.897637,0 0,6.342519 z"
   id="path2994" /><path
   style="fill:#ffffff;fill-rule:nonzero"
   inkscape:connector-curvature="0"
   id="path14"
   d="m 87.013347,39.434765 1.725409,-0.449038 c 0.130344,0.665691 0.47744,1.331651 1.04717,1.99761 0.569995,0.665949 1.324328,1.000475 2.263518,1.000475 0.955134,0 1.71281,-0.24524 2.26353,-0.739029 0.553788,-0.490729 0.830946,-1.08335 0.830946,-1.781205 0,-0.751895 -0.293088,-1.35096 -0.875684,-1.797163 -0.585685,-0.445946 -1.381413,-0.669042 -2.387452,-0.669042 l -0.868999,0 0,-1.577148 c 0.834035,0 1.470614,-0.0479 1.91309,-0.143315 0.442464,-0.09579 0.830946,-0.34096 1.171611,-0.739287 0.33731,-0.39501 0.506235,-0.844295 0.506235,-1.347867 0,-0.595715 -0.229343,-1.114987 -0.694182,-1.557851 -0.461497,-0.443121 -1.088565,-0.662856 -1.878127,-0.662856 -0.690827,0 -1.279843,0.17215 -1.766791,0.51619 -0.490294,0.347382 -0.82787,0.802853 -1.012474,1.373341 -0.187681,0.57023 -0.279981,0.994032 -0.279981,1.274529 l -1.735174,-0.391905 c 0.429864,-2.905954 2.034188,-4.358808 4.813464,-4.358808 1.333839,0 2.393862,0.372596 3.180356,1.114987 0.783118,0.742627 1.174688,1.612395 1.174688,2.60952 0,1.274529 -0.604956,2.265479 -1.811531,2.966437 0.69726,0.19453 1.279854,0.586436 1.751111,1.182129 0.46794,0.595714 0.70343,1.306434 0.70343,2.131689 0,1.178789 -0.45533,2.163316 -1.365722,2.956632 -0.910395,0.793596 -2.120057,1.188584 -3.625912,1.188584 -2.584896,0 -4.265821,-1.363815 -5.042529,-4.097609 z m 18.530863,2.641425 c -0.62398,0.529046 -1.22253,0.901653 -1.79534,1.121668 -0.57644,0.216674 -1.194,0.325001 -1.85296,0.325001 -1.08879,0 -1.92285,-0.264529 -2.50853,-0.796667 -0.5826,-0.532149 -0.87542,-1.213799 -0.87542,-2.039032 0,-0.487635 0.10823,-0.930488 0.33112,-1.331918 0.21958,-0.401422 0.50933,-0.72334 0.86593,-0.965477 0.35968,-0.242148 0.76076,-0.426905 1.20966,-0.5512 0.3278,-0.08602 0.82453,-0.17215 1.48991,-0.251652 1.35621,-0.162635 2.35582,-0.353825 2.9955,-0.580014 0.006,-0.229271 0.01,-0.375936 0.01,-0.436419 0,-0.68499 -0.15915,-1.169275 -0.47743,-1.446679 -0.42654,-0.382122 -1.06647,-0.57022 -1.91002,-0.57022 -0.78956,0 -1.37216,0.136893 -1.75085,0.414287 -0.37563,0.277135 -0.65278,0.767853 -0.83405,1.471883 l -1.63955,-0.226189 c 0.14964,-0.700926 0.39466,-1.271168 0.73533,-1.701424 0.34065,-0.433326 0.83712,-0.767842 1.48346,-1.000475 0.64637,-0.232621 1.39426,-0.350473 2.24759,-0.350473 0.84689,0 1.53131,0.101806 2.05964,0.299515 0.5286,0.200727 0.91683,0.449308 1.16826,0.751918 0.24837,0.302608 0.42038,0.681906 0.52218,1.1438 0.0542,0.286908 0.0828,0.803109 0.0828,1.548572 l 0,2.240005 c 0,1.564283 0.0349,2.552151 0.10825,2.963086 0.07,0.414308 0.21339,0.812636 0.42344,1.191676 l -1.7542,0 c -0.17174,-0.347392 -0.28642,-0.755245 -0.33424,-1.223572 z m -0.14013,-3.753319 c -0.61114,0.251651 -1.52486,0.461892 -2.74096,0.637125 -0.69084,0.0988 -1.18114,0.210488 -1.46446,0.334794 -0.28642,0.124285 -0.50933,0.305692 -0.66203,0.547828 -0.15606,0.239066 -0.23552,0.503595 -0.23552,0.796678 0,0.449285 0.17176,0.821893 0.50933,1.12142 0.3373,0.296434 0.83404,0.446203 1.48656,0.446203 0.64634,0 1.22251,-0.140233 1.7254,-0.423801 0.50316,-0.283601 0.87568,-0.672392 1.1112,-1.162863 0.18151,-0.379298 0.27047,-0.939992 0.27047,-1.67929 l 0,-0.618094 z m 4.2913,-4.935492 1.67783,0 0,4.282408 c 0.53477,0 0.9104,-0.102134 1.12354,-0.305959 0.21338,-0.20715 0.52861,-0.802864 0.94562,-1.793814 0.33115,-0.783811 0.59853,-1.29999 0.80216,-1.548572 0.20697,-0.24858 0.44247,-0.417378 0.71011,-0.503335 0.26738,-0.08935 0.69701,-0.130718 1.28602,-0.130718 l 0.33731,0 0,1.389288 -0.46792,-0.0086 c -0.43914,0 -0.72246,0.06701 -0.84663,0.197377 -0.1306,0.13715 -0.33115,0.545014 -0.59854,1.223571 -0.25478,0.646919 -0.48721,1.092854 -0.70033,1.341434 -0.21031,0.251663 -0.53813,0.477852 -0.97751,0.681908 0.71963,0.194282 1.42949,0.866664 2.12674,2.016919 l 1.83674,3.071413 -1.8465,0 -1.79226,-3.071413 c -0.36611,-0.615012 -0.68749,-1.022877 -0.95822,-1.217149 -0.27381,-0.197634 -0.60162,-0.293341 -0.98033,-0.293341 l 0,4.581903 -1.67783,0 0,-9.912384 z m 7.95241,4.954522 c 0,-1.835245 0.5093,-3.195709 1.53129,-4.078321 0.84998,-0.732855 1.88763,-1.10238 3.1135,-1.10238 1.36239,0 2.47668,0.445935 3.33951,1.341434 0.86565,0.892128 1.29552,2.125236 1.29552,3.699302 0,1.277612 -0.19103,2.281179 -0.57307,3.010951 -0.38206,0.732865 -0.93894,1.300003 -1.66808,1.704517 -0.73222,0.40476 -1.52794,0.605476 -2.39387,0.605476 -1.38499,0 -2.50546,-0.442853 -3.36185,-1.334991 -0.85642,-0.889056 -1.28294,-2.170018 -1.28294,-3.845967 z m 1.7254,0 c 0,1.271446 0.2769,2.220974 0.83095,2.851667 0.55379,0.634064 1.25105,0.949528 2.08843,0.949528 0.83404,0 1.52797,-0.318578 2.08201,-0.95261 0.5507,-0.634054 0.82762,-1.602612 0.82762,-2.902625 0,-1.226664 -0.27692,-2.157141 -0.83404,-2.788124 -0.55714,-0.630702 -1.24797,-0.946177 -2.07559,-0.946177 -0.83738,0 -1.53464,0.315475 -2.08843,0.943096 -0.55405,0.627598 -0.83095,1.577138 -0.83095,2.845223 z m 9.53127,-4.954522 1.68093,0 0,4.126185 4.65431,0 0,-4.126185 1.67758,0 0,9.912394 -1.67758,0 0,-4.3969 -4.65431,0 0,4.3969 -1.68093,0 0,-9.912394 z m 9.92285,0 1.68093,0 0,1.876665 c 0,0.806203 0.0479,1.395732 0.14321,1.758803 0.0957,0.36335 0.32805,0.681928 0.69391,0.95261 0.36611,0.270983 0.82787,0.404793 1.38167,0.404793 0.63349,0 1.45494,-0.16882 2.46097,-0.503336 l 0,-4.489535 1.68092,0 0,9.912394 -1.68092,0 0,-3.995479 c -1.03151,0.32499 -1.99614,0.484285 -2.8906,0.484285 -0.75124,0 -1.41663,-0.191179 -1.98971,-0.57357 -0.57616,-0.382391 -0.96773,-0.850717 -1.1716,-1.404989 -0.20698,-0.551459 -0.30878,-1.16311 -0.30878,-1.82907 l 0,-2.593571 z m 10.56919,0 1.67785,0 0,7.560948 4.65406,-7.560948 1.80845,0 0,9.912394 -1.67784,0 0,-7.513084 -4.65431,7.513084 -1.8082,0 0,-9.912394 z m 9.76371,0 8.05113,0 0,1.389287 -3.18986,0 0,8.523096 -1.6714,0 0,-8.523096 -3.18986,0 0,-1.389287 z m 9.62689,0 1.67758,0 0,3.871172 2.12675,0 c 1.38783,0 2.45431,0.270961 3.20247,0.809296 0.75124,0.538582 1.12378,1.280951 1.12378,2.227397 0,0.825244 -0.31212,1.535717 -0.93585,2.121884 -0.62398,0.58954 -1.6236,0.882634 -2.99881,0.882634 l -4.19591,0 0,-9.912394 z m 1.67758,8.529539 1.76372,0 c 1.06338,0 1.82106,-0.130729 2.27613,-0.391917 0.45225,-0.261177 0.67824,-0.669042 0.67824,-1.220221 0,-0.430255 -0.16558,-0.812636 -0.50315,-1.150254 -0.33424,-0.334516 -1.07905,-0.503572 -2.2283,-0.503572 l -1.98664,0 0,3.265964 z m -83.547,17.782384 c 0,-1.835233 0.509325,-3.195686 1.531296,-4.07831 0.849977,-0.732854 1.887636,-1.102389 3.113519,-1.102389 1.36238,0 2.476652,0.445945 3.339496,1.341434 0.865654,0.892149 1.295529,2.125234 1.295529,3.699312 0,1.277611 -0.19102,2.281169 -0.573082,3.010951 -0.382049,0.732854 -0.938937,1.299992 -1.668071,1.704516 -0.732224,0.404772 -1.527952,0.605477 -2.39386,0.605477 -1.385011,0 -2.505473,-0.442842 -3.361871,-1.334991 -0.856399,-0.889056 -1.282934,-2.170018 -1.282934,-3.845978 z m 1.725409,0 c 0,1.271458 0.276906,2.220976 0.830957,2.851679 0.553787,0.634042 1.25106,0.949539 2.088438,0.949539 0.834034,0 1.527951,-0.318589 2.082002,-0.952621 0.55071,-0.634054 0.827615,-1.602623 0.827615,-2.902636 0,-1.226653 -0.276905,-2.157152 -0.834046,-2.788124 -0.557131,-0.630691 -1.247968,-0.946167 -2.075571,-0.946167 -0.837378,0 -1.534651,0.315476 -2.088438,0.943097 -0.554064,0.627609 -0.830957,1.577127 -0.830957,2.845212 z m 16.779981,-9.051894 1.48349,0.01589 c -0.07,0.665703 -0.21647,1.130936 -0.44556,1.392392 -0.22601,0.261168 -0.51882,0.429966 -0.87544,0.503326 -0.3566,0.07635 -1.05692,0.111451 -2.10436,0.111451 -1.38474,0 -2.33038,0.13381 -2.83328,0.401421 -0.50289,0.267867 -0.86592,0.697865 -1.08547,1.284043 -0.22292,0.589529 -0.344,1.344786 -0.36946,2.271912 0.42344,-0.6276 0.91683,-1.099287 1.48347,-1.411432 0.56358,-0.315465 1.2035,-0.471667 1.91027,-0.471667 1.29887,0 2.37484,0.446193 3.2279,1.338352 0.84999,0.892149 1.27678,2.102855 1.27678,3.625696 0,1.160017 -0.21339,2.106216 -0.64327,2.848585 -0.42961,0.739287 -0.93585,1.312857 -1.52486,1.717381 -0.58569,0.404782 -1.38784,0.605488 -2.40031,0.605488 -1.1747,0 -2.09151,-0.267621 -2.74403,-0.806192 -0.65278,-0.538593 -1.15259,-1.226675 -1.49942,-2.067866 -0.35017,-0.841192 -0.52217,-2.30356 -0.52217,-4.387374 0,-2.619046 0.44248,-4.384292 1.32742,-5.292388 0.8852,-0.908097 2.25092,-1.363815 4.09074,-1.363815 1.14309,0 1.79252,-0.01911 1.94832,-0.05391 0.15606,-0.03823 0.25479,-0.127367 0.29927,-0.261189 z m -0.0859,9.016896 c 0,-1.035485 -0.24193,-1.879759 -0.73222,-2.539275 -0.48694,-0.659774 -1.1747,-0.99095 -2.06298,-0.99095 -0.92635,0 -1.64263,0.350475 -2.14551,1.045001 -0.50315,0.697865 -0.75768,1.628073 -0.75768,2.791173 0,1.153336 0.28024,2.032878 0.83713,2.641447 0.55405,0.611652 1.24152,0.914283 2.05655,0.914283 0.83094,0 1.50893,-0.350496 2.02802,-1.057877 0.51882,-0.707134 0.7767,-1.640704 0.7767,-2.803802 z m 3.27599,8.810014 -0.18768,-1.577138 c 0.3692,0.0988 0.68747,0.149748 0.96129,0.149748 0.37255,0 0.67182,-0.06379 0.89448,-0.188087 0.22624,-0.124295 0.4075,-0.296187 0.55096,-0.522623 0.10824,-0.16547 0.2769,-0.583107 0.51239,-1.248808 0.032,-0.09579 0.0828,-0.22952 0.14964,-0.411205 l -3.75651,-9.931424 1.80819,0 2.06298,5.738323 c 0.26431,0.729761 0.50624,1.494543 0.71629,2.297395 0.19411,-0.771214 0.42344,-1.523109 0.69083,-2.259056 l 2.11698,-5.776695 1.67758,0 -3.76604,10.081194 c -0.40415,1.089771 -0.71936,1.838574 -0.94227,2.249541 -0.29926,0.554519 -0.63992,0.959033 -1.02505,1.217128 -0.38848,0.258084 -0.84689,0.388813 -1.38167,0.388813 -0.32472,0 -0.68441,-0.07034 -1.0824,-0.207148 z m 9.0091,-13.729526 1.68094,0 0,1.876654 c 0,0.806203 0.0479,1.395732 0.14319,1.758825 0.0957,0.363339 0.32808,0.681906 0.69391,0.952609 0.36611,0.270972 0.82788,0.404773 1.38168,0.404773 0.63351,0 1.45493,-0.1688 2.46096,-0.503315 l 0,-4.489557 1.68093,0 0,9.912405 -1.68093,0 0,-3.995479 c -1.03148,0.325001 -1.99612,0.484285 -2.89059,0.484285 -0.75124,0 -1.41663,-0.191201 -1.9897,-0.57357 -0.57617,-0.38238 -0.96774,-0.850728 -1.17161,-1.405 -0.20698,-0.551448 -0.30879,-1.163099 -0.30879,-1.829059 l 0,-2.593571 z m 17.34689,6.719767 1.73492,0.213571 c -0.27382,1.016434 -0.77978,1.803316 -1.51844,2.364032 -0.74174,0.557634 -1.68735,0.83811 -2.83658,0.83811 -1.44826,0 -2.59752,-0.446204 -3.4444,-1.338341 -0.84998,-0.892139 -1.27342,-2.144287 -1.27342,-3.756414 0,-1.669774 0.42988,-2.963355 1.28602,-3.88407 0.85976,-0.920962 1.97068,-1.382855 3.3395,-1.382855 1.32432,0 2.40674,0.452368 3.24411,1.354031 0.84047,0.901932 1.26058,2.17311 1.26058,3.807628 0,0.101912 -0.003,0.251674 -0.01,0.449286 l -7.38575,0 c 0.0607,1.089782 0.36946,1.924529 0.92325,2.501204 0.55405,0.579745 1.24155,0.869757 2.06942,0.869757 0.6142,0 1.13946,-0.162376 1.57577,-0.487377 0.43604,-0.321907 0.77979,-0.838099 1.03458,-1.548562 z m -5.51072,-2.717877 5.52974,0 c -0.0734,-0.831666 -0.28642,-1.459287 -0.6335,-1.873584 -0.53478,-0.64665 -1.22868,-0.971651 -2.07865,-0.971651 -0.77055,0 -1.42,0.258095 -1.94526,0.774297 -0.52524,0.516179 -0.81499,1.207612 -0.87233,2.070938 z m 9.36262,-4.001923 1.68093,0 0,4.126196 4.6543,0 0,-4.126196 1.67759,0 0,9.912405 -1.67759,0 0,-4.39691 -4.6543,0 0,4.39691 -1.68093,0 0,-9.912405 z m 10.54037,0 1.67786,0 0,7.560959 4.65406,-7.560959 1.80844,0 0,9.912405 -1.67784,0 0,-7.513094 -4.65428,7.513094 -1.80821,0 0,-9.912405 z m 17.44872,6.719779 1.73493,0.213571 c -0.27382,1.016433 -0.7798,1.803316 -1.51844,2.364032 -0.74175,0.557622 -1.68736,0.838109 -2.83659,0.838109 -1.44827,0 -2.59752,-0.446203 -3.44439,-1.338342 -0.84999,-0.892148 -1.27343,-2.144286 -1.27343,-3.756412 0,-1.669786 0.42988,-2.963355 1.28603,-3.884071 0.85974,-0.920972 1.97069,-1.382866 3.33949,-1.382866 1.32433,0 2.40672,0.452378 3.2441,1.354043 0.84047,0.901932 1.26058,2.17311 1.26058,3.807628 0,0.101911 -0.003,0.251674 -0.01,0.449285 l -7.38575,0 c 0.0607,1.089782 0.36947,1.92453 0.92327,2.501193 0.55405,0.579757 1.24154,0.869769 2.06939,0.869769 0.61423,0 1.13949,-0.162377 1.5758,-0.487378 0.43604,-0.321918 0.77978,-0.838098 1.03457,-1.548561 z m -5.51071,-2.717878 5.52974,0 c -0.0734,-0.831677 -0.28642,-1.459297 -0.63352,-1.873583 -0.53477,-0.646651 -1.22868,-0.971652 -2.07865,-0.971652 -0.77052,0 -1.41999,0.258085 -1.94524,0.774298 -0.52525,0.516179 -0.815,1.207612 -0.87233,2.070937 z"
   class="fil2" /></svg>