<?xml version="1.0" encoding="UTF-8" standalone="no"?>
<!-- Generator: Adobe Illustrator 16.0.0, SVG Export Plug-In . SVG Version: 6.00 Build 0)  -->

<svg
   xmlns:dc="http://purl.org/dc/elements/1.1/"
   xmlns:cc="http://creativecommons.org/ns#"
   xmlns:rdf="http://www.w3.org/1999/02/22-rdf-syntax-ns#"
   xmlns:svg="http://www.w3.org/2000/svg"
   xmlns="http://www.w3.org/2000/svg"
   xmlns:sodipodi="http://sodipodi.sourceforge.net/DTD/sodipodi-0.dtd"
   xmlns:inkscape="http://www.inkscape.org/namespaces/inkscape"
   version="1.1"
   id="Слой_2"
   x="0px"
   y="0px"
   width="200px"
   height="95px"
   viewBox="0 0 200 95"
   enable-background="new 0 0 200 95"
   xml:space="preserve"
   inkscape:version="0.48.4 r9939"
   sodipodi:docname="blue_z.svg"><metadata
   id="metadata9"><rdf:RDF><cc:Work
       rdf:about=""><dc:format>image/svg+xml</dc:format><dc:type
         rdf:resource="http://purl.org/dc/dcmitype/StillImage" /></cc:Work></rdf:RDF></metadata><defs
   id="defs7" /><sodipodi:namedview
   pagecolor="#ffffff"
   bordercolor="#666666"
   borderopacity="1"
   objecttolerance="10"
   gridtolerance="10"
   guidetolerance="10"
   inkscape:pageopacity="0"
   inkscape:pageshadow="2"
   inkscape:window-width="1920"
   inkscape:window-height="1137"
   id="namedview5"
   showgrid="false"
   inkscape:zoom="1"
   inkscape:cx="100"
   inkscape:cy="47.5"
   inkscape:window-x="-9"
   inkscape:window-y="-9"
   inkscape:window-maximized="1"
   inkscape:current-layer="Слой_2" />
<rect
   fill="#1A87CA"
   width="200"
   height="95"
   id="rect3" />
<path
   inkscape:connector-curvature="0"
   style="fill:#ffffff;fill-opacity:1;fill-rule:evenodd;stroke:none"
   d="M 32.14567,60.521653 45.078741,47.553149 32.14567,34.620079 l 0,6.980314 -12.047244,0 0,11.940945 12.047244,0 0,6.980315 z m 17.751968,13.818897 18.531496,-7.228346 0,-39.082676 -18.531496,-7.228347 c 0,2.090551 0,4.216536 0,6.307087 l -12.897637,0 0,8.503937 2.586614,2.622047 0,-8.433071 10.311023,0 c -0.03543,11.834645 0,23.669291 0,35.539369 l -10.311023,0 0,-8.43307 -2.586614,2.586614 0,8.503937 12.897637,0 0,6.342519 z"
   id="path2994" /><path
   style="fill:#ffffff;fill-rule:nonzero"
   inkscape:connector-curvature="0"
   id="path14"
   d="m 87.01335,39.43476 1.72541,-0.44903 c 0.13034,0.66569 0.47744,1.33165 1.04717,1.99761 0.56999,0.66595 1.32432,1.00047 2.26351,1.00047 0.95514,0 1.71281,-0.24524 2.26353,-0.73903 0.55379,-0.49073 0.83095,-1.08335 0.83095,-1.7812 0,-0.7519 -0.29309,-1.35096 -0.87568,-1.79716 -0.58569,-0.44595 -1.38142,-0.66905 -2.38746,-0.66905 l -0.869,0 0,-1.57714 c 0.83404,0 1.47062,-0.0479 1.91309,-0.14332 0.44247,-0.0958 0.83095,-0.34096 1.17162,-0.73929 0.33731,-0.39501 0.50623,-0.84429 0.50623,-1.34786 0,-0.59572 -0.22934,-1.11499 -0.69418,-1.55785 -0.4615,-0.44313 -1.08857,-0.66286 -1.87813,-0.66286 -0.69083,0 -1.27984,0.17215 -1.76679,0.51619 -0.49029,0.34738 -0.82787,0.80285 -1.01247,1.37334 -0.18768,0.57023 -0.27998,0.99403 -0.27998,1.27453 L 87.23599,33.7412 c 0.42987,-2.90595 2.03419,-4.3588 4.81347,-4.3588 1.33383,0 2.39386,0.37259 3.18035,1.11498 0.78312,0.74263 1.17469,1.6124 1.17469,2.60952 0,1.27453 -0.60496,2.26548 -1.81153,2.96644 0.69726,0.19453 1.27985,0.58644 1.75111,1.18213 0.46794,0.59571 0.70343,1.30643 0.70343,2.13169 0,1.17879 -0.45533,2.16331 -1.36572,2.95663 -0.9104,0.7936 -2.12006,1.18858 -3.62591,1.18858 -2.5849,0 -4.26583,-1.36381 -5.04253,-4.0976 z m 18.53086,2.64143 c -0.62398,0.52905 -1.22253,0.90165 -1.79534,1.12167 -0.57644,0.21667 -1.194,0.325 -1.85296,0.325 -1.08879,0 -1.92285,-0.26453 -2.50853,-0.79667 -0.5826,-0.53215 -0.87542,-1.2138 -0.87542,-2.03903 0,-0.48764 0.10823,-0.93049 0.33112,-1.33192 0.21958,-0.40142 0.50933,-0.72334 0.86593,-0.96548 0.35968,-0.24214 0.76076,-0.4269 1.20966,-0.55119 0.3278,-0.086 0.82453,-0.17216 1.48991,-0.25166 1.35621,-0.16263 2.35582,-0.35382 2.9955,-0.58001 0.006,-0.22927 0.01,-0.37594 0.01,-0.43642 0,-0.68499 -0.15915,-1.16928 -0.47743,-1.44668 -0.42654,-0.38212 -1.06647,-0.57022 -1.91002,-0.57022 -0.78956,0 -1.37216,0.13689 -1.75085,0.41429 -0.37563,0.27713 -0.65278,0.76785 -0.83405,1.47188 l -1.63955,-0.22619 c 0.14964,-0.70092 0.39466,-1.27117 0.73533,-1.70142 0.34065,-0.43333 0.83712,-0.76784 1.48346,-1.00048 0.64637,-0.23262 1.39426,-0.35047 2.24759,-0.35047 0.84689,0 1.53131,0.10181 2.05964,0.29951 0.5286,0.20073 0.91683,0.44931 1.16826,0.75192 0.24837,0.30261 0.42038,0.68191 0.52218,1.1438 0.0542,0.28691 0.0828,0.80311 0.0828,1.54857 l 0,2.24001 c 0,1.56428 0.0349,2.55215 0.10825,2.96309 0.07,0.4143 0.21339,0.81263 0.42344,1.19167 l -1.7542,0 c -0.17174,-0.34739 -0.28642,-0.75524 -0.33424,-1.22357 z m -0.14013,-3.75332 c -0.61114,0.25165 -1.52486,0.46189 -2.74096,0.63713 -0.69084,0.0988 -1.18114,0.21048 -1.46446,0.33479 -0.28642,0.12429 -0.50933,0.30569 -0.66203,0.54783 -0.15606,0.23906 -0.23552,0.50359 -0.23552,0.79668 0,0.44928 0.17176,0.82189 0.50933,1.12142 0.3373,0.29643 0.83404,0.4462 1.48656,0.4462 0.64634,0 1.22251,-0.14023 1.7254,-0.4238 0.50316,-0.2836 0.87568,-0.67239 1.1112,-1.16287 0.18151,-0.37929 0.27047,-0.93999 0.27047,-1.67929 l 0,-0.61809 z m 4.2913,-4.93549 1.67783,0 0,4.28241 c 0.53477,0 0.9104,-0.10214 1.12354,-0.30596 0.21338,-0.20715 0.52861,-0.80287 0.94562,-1.79382 0.33115,-0.78381 0.59853,-1.29999 0.80216,-1.54857 0.20697,-0.24858 0.44247,-0.41738 0.71011,-0.50333 0.26738,-0.0893 0.69701,-0.13072 1.28602,-0.13072 l 0.33731,0 0,1.38929 -0.46792,-0.009 c -0.43914,0 -0.72246,0.067 -0.84663,0.19737 -0.1306,0.13715 -0.33115,0.54502 -0.59854,1.22358 -0.25478,0.64691 -0.48721,1.09285 -0.70033,1.34143 -0.21031,0.25166 -0.53813,0.47785 -0.97751,0.68191 0.71963,0.19428 1.42949,0.86666 2.12674,2.01692 l 1.83674,3.07141 -1.8465,0 -1.79226,-3.07141 c -0.36611,-0.61502 -0.68749,-1.02288 -0.95822,-1.21715 -0.27381,-0.19764 -0.60162,-0.29334 -0.98033,-0.29334 l 0,4.5819 -1.67783,0 0,-9.91238 z m 7.95241,4.95452 c 0,-1.83524 0.5093,-3.19571 1.53129,-4.07832 0.84998,-0.73286 1.88763,-1.10238 3.1135,-1.10238 1.36239,0 2.47668,0.44593 3.33951,1.34143 0.86565,0.89213 1.29552,2.12524 1.29552,3.69931 0,1.27761 -0.19103,2.28117 -0.57307,3.01095 -0.38206,0.73286 -0.93894,1.3 -1.66808,1.70451 -0.73222,0.40476 -1.52794,0.60548 -2.39387,0.60548 -1.38499,0 -2.50546,-0.44285 -3.36185,-1.33499 -0.85642,-0.88906 -1.28294,-2.17002 -1.28294,-3.84597 z m 1.7254,0 c 0,1.27145 0.2769,2.22097 0.83095,2.85167 0.55379,0.63406 1.25105,0.94953 2.08843,0.94953 0.83404,0 1.52797,-0.31858 2.08201,-0.95261 0.5507,-0.63406 0.82762,-1.60262 0.82762,-2.90263 0,-1.22666 -0.27692,-2.15714 -0.83404,-2.78812 -0.55714,-0.63071 -1.24797,-0.94618 -2.07559,-0.94618 -0.83738,0 -1.53464,0.31547 -2.08843,0.9431 -0.55405,0.62759 -0.83095,1.57713 -0.83095,2.84522 z m 9.53127,-4.95452 1.68093,0 0,4.12618 4.65431,0 0,-4.12618 1.67758,0 0,9.91239 -1.67758,0 0,-4.3969 -4.65431,0 0,4.3969 -1.68093,0 0,-9.91239 z m 9.92285,0 1.68093,0 0,1.87666 c 0,0.80621 0.0479,1.39574 0.14321,1.75881 0.0957,0.36335 0.32805,0.68192 0.69391,0.95261 0.36611,0.27098 0.82787,0.40479 1.38167,0.40479 0.63349,0 1.45494,-0.16882 2.46097,-0.50334 l 0,-4.48953 1.68092,0 0,9.91239 -1.68092,0 0,-3.99548 c -1.03151,0.32499 -1.99614,0.48429 -2.8906,0.48429 -0.75124,0 -1.41663,-0.19118 -1.98971,-0.57357 -0.57616,-0.38239 -0.96773,-0.85072 -1.1716,-1.40499 -0.20698,-0.55146 -0.30878,-1.16311 -0.30878,-1.82907 l 0,-2.59357 z m 10.56919,0 1.67785,0 0,7.56095 4.65406,-7.56095 1.80845,0 0,9.91239 -1.67784,0 0,-7.51308 -4.65431,7.51308 -1.8082,0 0,-9.91239 z m 9.76371,0 8.05113,0 0,1.38929 -3.18986,0 0,8.52309 -1.6714,0 0,-8.52309 -3.18986,0 0,-1.38929 z m 9.62689,0 1.67758,0 0,3.87117 2.12675,0 c 1.38783,0 2.45431,0.27096 3.20247,0.8093 0.75124,0.53858 1.12378,1.28095 1.12378,2.22739 0,0.82525 -0.31212,1.53572 -0.93585,2.12189 -0.62398,0.58954 -1.6236,0.88263 -2.99881,0.88263 l -4.19591,0 0,-9.91239 z m 1.67758,8.52954 1.76372,0 c 1.06338,0 1.82106,-0.13073 2.27613,-0.39192 0.45225,-0.26118 0.67824,-0.66904 0.67824,-1.22022 0,-0.43026 -0.16558,-0.81264 -0.50315,-1.15025 -0.33424,-0.33452 -1.07905,-0.50358 -2.2283,-0.50358 l -1.98664,0 0,3.26597 z m -83.547,17.78238 c 0,-1.83523 0.50932,-3.19568 1.5313,-4.07831 0.84997,-0.73285 1.88763,-1.10239 3.11352,-1.10239 1.36238,0 2.47665,0.44595 3.33949,1.34144 0.86566,0.89215 1.29553,2.12523 1.29553,3.69931 0,1.27761 -0.19102,2.28117 -0.57308,3.01095 -0.38205,0.73285 -0.93894,1.29999 -1.66807,1.70452 -0.73223,0.40477 -1.52795,0.60547 -2.39386,0.60547 -1.38501,0 -2.50548,-0.44284 -3.36187,-1.33499 -0.8564,-0.88905 -1.28294,-2.17002 -1.28294,-3.84598 z m 1.72541,0 c 0,1.27146 0.27691,2.22098 0.83096,2.85168 0.55378,0.63404 1.25106,0.94954 2.08843,0.94954 0.83404,0 1.52796,-0.31859 2.08201,-0.95262 0.55071,-0.63406 0.82761,-1.60262 0.82761,-2.90264 0,-1.22665 -0.2769,-2.15715 -0.83405,-2.78812 -0.55713,-0.63069 -1.24796,-0.94617 -2.07557,-0.94617 -0.83737,0 -1.53465,0.31548 -2.08843,0.9431 -0.55407,0.62761 -0.83096,1.57713 -0.83096,2.84521 z m 16.77998,-9.05189 1.48349,0.0159 c -0.07,0.6657 -0.21647,1.13093 -0.44556,1.39239 -0.22601,0.26117 -0.51882,0.42997 -0.87544,0.50333 -0.3566,0.0764 -1.05692,0.11145 -2.10436,0.11145 -1.38474,0 -2.33038,0.13381 -2.83328,0.40142 -0.50289,0.26787 -0.86592,0.69786 -1.08547,1.28404 -0.22292,0.58953 -0.344,1.34479 -0.36946,2.27191 0.42344,-0.6276 0.91683,-1.09928 1.48347,-1.41143 0.56358,-0.31546 1.2035,-0.47167 1.91027,-0.47167 1.29887,0 2.37484,0.4462 3.2279,1.33836 0.84999,0.89215 1.27678,2.10285 1.27678,3.62569 0,1.16002 -0.21339,2.10622 -0.64327,2.84859 -0.42961,0.73928 -0.93585,1.31285 -1.52486,1.71738 -0.58569,0.40478 -1.38784,0.60549 -2.40031,0.60549 -1.1747,0 -2.09151,-0.26763 -2.74403,-0.8062 -0.65278,-0.53859 -1.15259,-1.22667 -1.49942,-2.06786 -0.35017,-0.84119 -0.52217,-2.30356 -0.52217,-4.38738 0,-2.61904 0.44248,-4.38429 1.32742,-5.29238 0.8852,-0.9081 2.25092,-1.36382 4.09074,-1.36382 1.14309,0 1.79252,-0.0191 1.94832,-0.0539 0.15606,-0.0382 0.25479,-0.12737 0.29927,-0.26119 z m -0.0859,9.01689 c 0,-1.03548 -0.24193,-1.87976 -0.73222,-2.53927 -0.48694,-0.65977 -1.1747,-0.99095 -2.06298,-0.99095 -0.92635,0 -1.64263,0.35047 -2.14551,1.045 -0.50315,0.69786 -0.75768,1.62807 -0.75768,2.79117 0,1.15334 0.28024,2.03288 0.83713,2.64145 0.55405,0.61165 1.24152,0.91428 2.05655,0.91428 0.83094,0 1.50893,-0.35049 2.02802,-1.05787 0.51882,-0.70714 0.7767,-1.64071 0.7767,-2.80381 z m 3.27599,8.81002 -0.18768,-1.57714 c 0.3692,0.0988 0.68747,0.14975 0.96129,0.14975 0.37255,0 0.67182,-0.0638 0.89448,-0.18809 0.22624,-0.12429 0.4075,-0.29619 0.55096,-0.52262 0.10824,-0.16547 0.2769,-0.58311 0.51239,-1.24881 0.032,-0.0958 0.0828,-0.22952 0.14964,-0.41121 l -3.75651,-9.93142 1.80819,0 2.06298,5.73832 c 0.26431,0.72977 0.50624,1.49455 0.71629,2.2974 0.19411,-0.77121 0.42344,-1.52311 0.69083,-2.25906 l 2.11698,-5.77669 1.67758,0 -3.76604,10.08119 c -0.40415,1.08977 -0.71936,1.83858 -0.94227,2.24954 -0.29926,0.55452 -0.63992,0.95904 -1.02505,1.21713 -0.38848,0.25809 -0.84689,0.38881 -1.38167,0.38881 -0.32472,0 -0.68441,-0.0703 -1.0824,-0.20714 z m 9.0091,-13.72953 1.68094,0 0,1.87666 c 0,0.8062 0.0479,1.39573 0.14319,1.75882 0.0957,0.36334 0.32808,0.68191 0.69391,0.95261 0.36611,0.27097 0.82788,0.40477 1.38168,0.40477 0.63351,0 1.45493,-0.1688 2.46096,-0.50331 l 0,-4.48956 1.68093,0 0,9.91241 -1.68093,0 0,-3.99548 c -1.03148,0.325 -1.99612,0.48428 -2.89059,0.48428 -0.75124,0 -1.41663,-0.1912 -1.9897,-0.57357 -0.57617,-0.38238 -0.96774,-0.85073 -1.17161,-1.405 -0.20698,-0.55145 -0.30879,-1.1631 -0.30879,-1.82906 l 0,-2.59357 z m 17.34689,6.71977 1.73492,0.21357 c -0.27382,1.01643 -0.77978,1.80332 -1.51844,2.36403 -0.74174,0.55764 -1.68735,0.83811 -2.83658,0.83811 -1.44826,0 -2.59752,-0.4462 -3.4444,-1.33834 -0.84998,-0.89214 -1.27342,-2.14429 -1.27342,-3.75641 0,-1.66978 0.42988,-2.96336 1.28602,-3.88407 0.85976,-0.92097 1.97068,-1.38286 3.3395,-1.38286 1.32432,0 2.40674,0.45237 3.24411,1.35403 0.84047,0.90193 1.26058,2.17311 1.26058,3.80763 0,0.10191 -0.003,0.25167 -0.01,0.44929 l -7.38575,0 c 0.0607,1.08978 0.36946,1.92453 0.92325,2.5012 0.55405,0.57975 1.24155,0.86976 2.06942,0.86976 0.6142,0 1.13946,-0.16238 1.57577,-0.48738 0.43604,-0.32191 0.77979,-0.8381 1.03458,-1.54856 z m -5.51072,-2.71788 5.52974,0 c -0.0734,-0.83166 -0.28642,-1.45929 -0.6335,-1.87358 -0.53478,-0.64665 -1.22868,-0.97165 -2.07865,-0.97165 -0.77055,0 -1.42,0.25809 -1.94526,0.77429 -0.52524,0.51618 -0.81499,1.20762 -0.87233,2.07094 z m 9.36262,-4.00192 1.68093,0 0,4.12619 4.6543,0 0,-4.12619 1.67759,0 0,9.9124 -1.67759,0 0,-4.39691 -4.6543,0 0,4.39691 -1.68093,0 0,-9.9124 z m 10.54037,0 1.67786,0 0,7.56096 4.65406,-7.56096 1.80844,0 0,9.9124 -1.67784,0 0,-7.51309 -4.65428,7.51309 -1.80821,0 0,-9.9124 z m 17.44872,6.71978 1.73493,0.21357 c -0.27382,1.01643 -0.7798,1.80331 -1.51844,2.36403 -0.74175,0.55762 -1.68736,0.83811 -2.83659,0.83811 -1.44827,0 -2.59752,-0.4462 -3.44439,-1.33834 -0.84999,-0.89215 -1.27343,-2.14429 -1.27343,-3.75641 0,-1.66979 0.42988,-2.96336 1.28603,-3.88407 0.85974,-0.92098 1.97069,-1.38287 3.33949,-1.38287 1.32433,0 2.40672,0.45238 3.2441,1.35404 0.84047,0.90193 1.26058,2.17311 1.26058,3.80763 0,0.10191 -0.003,0.25167 -0.01,0.44929 l -7.38575,0 c 0.0607,1.08978 0.36947,1.92453 0.92327,2.50119 0.55405,0.57975 1.24154,0.86977 2.06939,0.86977 0.61423,0 1.13949,-0.16238 1.5758,-0.48738 0.43604,-0.32192 0.77978,-0.8381 1.03457,-1.54856 z m -5.51071,-2.71788 5.52974,0 c -0.0734,-0.83168 -0.28642,-1.4593 -0.63352,-1.87358 -0.53477,-0.64665 -1.22868,-0.97165 -2.07865,-0.97165 -0.77052,0 -1.41999,0.25808 -1.94524,0.77429 -0.52525,0.51618 -0.815,1.20761 -0.87233,2.07094 z"
   class="fil2" /></svg>