<?xml version="1.0" encoding="utf-8"?>
<!-- Generator: Adobe Illustrator 16.0.3, SVG Export Plug-In . SVG Version: 6.00 Build 0)  -->
<!DOCTYPE svg PUBLIC "-//W3C//DTD SVG 1.1//EN" "http://www.w3.org/Graphics/SVG/1.1/DTD/svg11.dtd">
<svg version="1.1" id="Слой_1" xmlns="http://www.w3.org/2000/svg" xmlns:xlink="http://www.w3.org/1999/xlink" x="0px" y="0px"
	 width="75px" height="75px" viewBox="0 0 75 75" enable-background="new 0 0 75 75" xml:space="preserve">
<path fill="none" stroke="#000000" stroke-width="2" stroke-miterlimit="10" d="M74.785,73.642"/>
<g>
	<path fill="#02C1A2" d="M37.5,0C16.822,0,0,16.822,0,37.5S16.822,75,37.5,75S75,58.178,75,37.5S58.178,0,37.5,0z"/>
	<path fill="#FFFFFF" stroke="#FFFFFF" stroke-width="0.8823" stroke-linejoin="round" stroke-miterlimit="10" d="M38.603,38.733
		h-2.205V11.492c-2.427,0-3.86-1.544-3.86-1.544l-8.934,6.396v18.639h4.467V19.322h1.819l1.324,15.661L25.258,67.52h7.279
		l4.963-22.94l4.963,22.94h7.279l-5.956-32.536l1.324-15.661h1.819v15.661h4.467V16.345l-8.934-6.396c0,0-1.434,1.544-3.86,1.544
		V38.733z"/>
	
		<rect x="40.396" y="19.213" fill="#02C1A2" stroke="#02C1A2" stroke-width="0.8823" stroke-linejoin="round" stroke-miterlimit="10" width="3.03" height="1.213"/>
</g>
</svg>
