<?xml version="1.0" encoding="utf-8"?>
<!-- Generator: Adobe Illustrator 16.0.3, SVG Export Plug-In . SVG Version: 6.00 Build 0)  -->
<!DOCTYPE svg PUBLIC "-//W3C//DTD SVG 1.1//EN" "http://www.w3.org/Graphics/SVG/1.1/DTD/svg11.dtd">
<svg version="1.1" id="Слой_1" xmlns="http://www.w3.org/2000/svg" xmlns:xlink="http://www.w3.org/1999/xlink" x="0px" y="0px"
	 width="75px" height="75px" viewBox="0 0 75 75" enable-background="new 0 0 75 75" xml:space="preserve">
<path fill="none" stroke="#000000" stroke-width="2" stroke-miterlimit="10" d="M74.785,73.642"/>
<g>
	<path fill="#02C1A2" d="M37.5,0C16.822,0,0,16.823,0,37.5C0,58.178,16.822,75,37.5,75S75,58.178,75,37.5C75,16.823,58.178,0,37.5,0
		z"/>
	<g>
		<path fill="#FFFFFF" d="M63.618,42.963c-0.396-1.803-2.354-5.215-6.928-5.215c-3.395,0-4.85,0.05-5.463,0.086
			c-7.153-5.577-14.976-11.95-15.573-12.918c-0.514-1.114-0.873-4.329-1.023-6.744c-0.107-1.702-0.108-2.365-0.108-2.372
			c0-0.262-0.117-0.511-0.32-0.679c-0.202-0.167-0.467-0.237-0.726-0.188l-16.323,3.088c-0.395,0.075-0.688,0.405-0.717,0.805
			c-0.251,3.6-0.897,9.806-1.563,11.137c-1.034,2.069-1.703,5.487-1.731,5.631c-0.012,0.063-0.018,0.127-0.016,0.191l0.441,16.323
			c0.014,0.478,0.404,0.858,0.882,0.858h1.654v-0.661c0-0.488,0.396-0.883,0.883-0.883s0.882,0.395,0.882,0.883v0.661h1.765v-0.661
			c0-0.488,0.395-0.883,0.883-0.883c0.487,0,0.882,0.395,0.882,0.883v0.661h1.765v-0.661c0-0.488,0.395-0.883,0.883-0.883
			c0.487,0,0.882,0.395,0.882,0.883v0.661h2.537c0.487,0,0.882-0.395,0.882-0.882v-3.95l7.421,3.218
			c0.001,0.002,0.002,0.002,0.002,0.002l3.807,1.65c0.11,0.049,0.23,0.072,0.352,0.072h1.765v-0.771
			c0-0.488,0.395-0.883,0.882-0.883s0.883,0.395,0.883,0.883v0.771h1.765v-0.771c0-0.488,0.395-0.883,0.882-0.883
			s0.883,0.395,0.883,0.883v0.771h1.764v-0.771c0-0.488,0.396-0.883,0.883-0.883s0.882,0.395,0.882,0.883v0.771h1.765v-0.771
			c0-0.488,0.396-0.883,0.883-0.883s0.882,0.395,0.882,0.883v0.771h1.765v-0.771c0-0.488,0.395-0.883,0.883-0.883
			c0.487,0,0.882,0.395,0.882,0.883v0.771h1.765v-0.771c0-0.488,0.395-0.883,0.883-0.883c0.487,0,0.882,0.395,0.882,0.883v0.771
			h1.654c0.488,0,0.883-0.395,0.883-0.882v-9.044C63.639,43.089,63.632,43.024,63.618,42.963z M16.452,30.753
			c0.914-1.829,1.516-8.787,1.695-11.124l14.645-2.771c0.016,0.364,0.041,0.833,0.077,1.423c0.105,1.673,0.43,5.741,1.183,7.373
			c0.679,1.47,11.668,10.127,16.361,13.781c0.186,0.146,0.437,0.207,0.666,0.178c0.033-0.003,0.858-0.102,5.611-0.102
			c3.979,0,5.028,3.185,5.184,3.748v6.398H36.295l-8.479-3.678c-0.002,0-0.004,0-0.005,0c-0.006-0.003-0.011-0.003-0.017-0.005
			c-0.095-0.038-0.194-0.055-0.294-0.061c-0.013,0-0.023-0.007-0.036-0.007H15.165l-0.272-10.07
			C15.005,35.291,15.611,32.435,16.452,30.753z M15.267,49.659l-0.054-1.985h11.368v1.985H15.267z"/>
		<circle fill="#FFFFFF" cx="30.276" cy="22.252" r="1.765"/>
		<circle fill="#FFFFFF" cx="32.592" cy="28.263" r="1.765"/>
		<circle fill="#FFFFFF" cx="37.445" cy="32.564" r="1.765"/>
		<circle fill="#FFFFFF" cx="41.471" cy="36.259" r="1.764"/>
		<circle fill="#FFFFFF" cx="45.938" cy="40.009" r="1.765"/>
	</g>
</g>
</svg>
