<?xml version="1.0" encoding="utf-8"?>
<!-- Generator: Adobe Illustrator 16.0.3, SVG Export Plug-In . SVG Version: 6.00 Build 0)  -->
<!DOCTYPE svg PUBLIC "-//W3C//DTD SVG 1.1//EN" "http://www.w3.org/Graphics/SVG/1.1/DTD/svg11.dtd">
<svg version="1.1" id="Слой_1" xmlns="http://www.w3.org/2000/svg" xmlns:xlink="http://www.w3.org/1999/xlink" x="0px" y="0px"
	 width="75px" height="75px" viewBox="0 0 75 75" enable-background="new 0 0 75 75" xml:space="preserve">
<g>
	<path fill="#02C1A2" d="M37.5,0C16.822,0,0,16.822,0,37.5S16.822,75,37.5,75S75,58.177,75,37.5S58.178,0,37.5,0z"/>
	<g>
		<g id="XMLID_2_">
			<g>
				<path fill="#FFFFFF" d="M21.244,46.399l0.044,0.009c-0.009-0.009-0.018-0.009-0.027-0.009H21.244z M20.574,32.768v-0.009
					l-0.009-0.009c0,0-0.009,0-0.018-0.009c-0.009-0.009-0.018-0.018-0.026-0.026c0.009,0.009,0.018,0.018,0.026,0.026
					C20.556,32.75,20.565,32.759,20.574,32.768z M53.625,46.355c-0.018,0-0.044,0.009-0.07,0.009
					c0.114-0.194,0.265-0.653,0.37-1.041l0.379-1.412c0.071-0.247,0.133-0.494,0.229-0.759c0.063-0.185,0.133-0.459,0.194-0.688
					l0.389-1.412c0.247-0.944,0.556-1.888,0.75-2.832l0.635-2.824l0.159-0.706l0.018-0.088c-0.009-0.009-0.009-0.018-0.009-0.026
					c-0.062-0.062-0.062-0.124-0.044-0.186c0.018-0.079,0-0.079,0-0.088s0.018-0.018,0.009-0.036
					c-0.009-0.176-0.177-0.406-0.503-0.564c-0.159-0.08-0.336-0.124-0.503-0.141c-0.159-0.044-0.362,0.044-0.256-0.044
					c0.009-0.009,0.018-0.018,0.018-0.036c-0.08,0.097-0.044,0.044-0.062,0.08L55.31,33.58c-0.035,0.026-0.07,0.062-0.105,0.088
					c-0.07,0.053-0.15,0.097-0.3,0.124c-0.142,0.018-0.265-0.009-0.389-0.071c-0.132-0.07-0.141-0.106-0.202-0.167
					c-0.01-0.009-0.019-0.018-0.019-0.026v-0.009l0.627-0.539h0.009l0.097-0.265c0.009,0,0.009,0.009,0.018,0.009
					c0.098,0.071,0.089,0.071,0.133,0.115c-0.009-0.044-0.018-0.097-0.035-0.15c-0.018-0.097-0.026-0.194-0.044-0.3
					c0.211-0.062,0.396-0.044,0.582-0.062c0.317,0,0.626,0.053,0.927,0.159c0.291,0.106,0.591,0.247,0.864,0.494
					c0.265,0.238,0.494,0.574,0.591,0.962c0.044,0.176,0.071,0.503,0.063,0.6c0,0.062-0.009,0.124-0.08,0.176
					c-0.009,0.009-0.009,0.018-0.018,0.026c0,0-0.009,0.018-0.018,0.08l-0.009,0.053l-0.026,0.088l-0.177,0.724l-0.724,2.885
					c-0.476,1.906-1.05,3.812-1.544,5.646l-0.291,1.438c-0.141,0.503-0.167,0.962-0.608,1.633l-0.115,0.132
					c-0.07,0.07-0.176,0.15-0.273,0.203c-0.053,0.026-0.105,0.053-0.158,0.07l-0.063,0.018l-0.044,0.009l-0.018,0.009
					c-0.053,0.009-0.159,0.018-0.177,0.018c-0.062,0.018-0.105,0-0.185,0.036c-0.142,0.035-0.31,0.105-0.45,0.211
					c-0.079,0.045-0.142,0.098-0.203,0.159c-0.062,0.053-0.123,0.114-0.168,0.186c-0.044,0.062-0.105,0.132-0.123,0.176
					c-0.018,0.071-0.062,0.045-0.088,0.203l-0.318,1.43c-0.097,0.521-0.256,0.979-0.388,1.456l-0.433,1.429l-0.494,1.43
					c-0.177,0.468-0.317,0.971-0.529,1.402l-0.617,1.377c-0.538,0.926-1.209,1.685-1.897,2.417c-1.402,1.43-2.911,2.727-4.553,3.865
					c-0.414,0.291-0.838,0.564-1.279,0.82c-0.221,0.132-0.459,0.256-0.697,0.37c-0.193,0.115-0.6,0.247-0.855,0.3l-0.177,0.036
					l-0.079,0.009c0,0-0.123,0.009-0.114,0.009h-0.018h-0.054l-0.361,0.009l-0.732,0.018l-1.474,0.026h-1.464h-0.732h-0.371
					c-0.106,0.009-0.335-0.035-0.494-0.062c-0.618-0.159-1.076-0.389-1.526-0.653c-0.45-0.247-0.874-0.521-1.288-0.812
					c-1.659-1.147-3.167-2.444-4.562-3.882c-0.353-0.371-0.688-0.741-1.015-1.139c-0.159-0.203-0.326-0.433-0.485-0.644
					c-0.15-0.212-0.265-0.415-0.397-0.627c-0.441-0.997-0.856-1.905-1.138-2.858l-0.477-1.412l-0.415-1.455
					C23,51.094,22.841,50.6,22.762,50.123l-0.291-1.377c-0.08-0.309-0.3-0.591-0.591-0.794c-0.124-0.105-0.353-0.194-0.423-0.221
					c-0.018-0.026-0.194-0.035-0.3-0.044c0-0.009,0.009-0.009,0.018-0.009l-0.08-0.009c-0.053-0.009-0.106-0.018-0.15-0.035
					c-0.115-0.026-0.186-0.07-0.238-0.115c-0.062-0.044-0.132-0.088-0.185-0.141l-0.097-0.124c-0.433-0.652-0.477-1.103-0.626-1.605
					l-0.344-1.43l-0.785-2.806c-0.238-0.961-0.529-1.932-0.724-2.885L17.3,35.671l-0.176-0.715
					c-0.071-0.247-0.115-0.644-0.044-0.979c0.168-0.75,0.768-1.235,1.333-1.447c0.291-0.124,0.591-0.186,0.909-0.203
					c0.141-0.009,0.291-0.009,0.45,0.018c-0.009,0.115-0.018,0.221-0.027,0.327c-0.009,0.062-0.026,0.15-0.026,0.185
					c0.009-0.018,0.026-0.035,0.044-0.062c0.053-0.053,0.044-0.053,0.159-0.132c0.106-0.053,0.229-0.071,0.344-0.053
					c0.141,0.027,0.185,0.062,0.22,0.08h0.009l-0.018-0.026c-0.035-0.026-0.026-0.026-0.088-0.071
					c-0.07-0.053-0.15-0.097-0.22-0.132c-0.186-0.088-0.221-0.07-0.335-0.106c-0.018-0.009-0.044-0.009-0.062-0.009
					c0.009-0.115,0.009-0.22,0.009-0.335c-0.009-0.909-0.071-1.897-0.273-2.735c-0.088-0.282-0.186-0.582-0.274-0.874l0.274-0.018
					c0.062,0.159,0.203,0.273,0.379,0.282c0.088,0,0.176-0.018,0.256-0.053c0.07-0.035,0.088-0.053,0.132-0.088
					c0.079-0.07,0.088-0.097,0.124-0.141c0.053-0.08,0.088-0.15,0.114-0.212c0.027-0.062,0.044-0.114,0.071-0.167
					c0.097,0.3,0.185,0.6,0.273,0.909v0.026l0.009,0.009c0.212,1.059,0.238,2.02,0.212,3.044c0,0.018,0,0.035,0,0.053
					c-0.009,0.256-0.026,0.512-0.062,0.803c-0.026,0.15-0.044,0.283-0.132,0.512c-0.009,0.036-0.035,0.088-0.079,0.15
					c-0.018,0.026-0.036,0.053-0.062,0.088c-0.07,0.071-0.079,0.106-0.22,0.186c-0.142,0.07-0.283,0.097-0.433,0.07
					c-0.176-0.026-0.247-0.079-0.309-0.115c-0.08-0.053-0.115-0.097-0.141-0.124v-0.009c-0.009-0.009-0.009-0.009-0.009-0.018
					h-0.009l-0.009-0.009l-0.009-0.009l-0.009-0.009c0-0.009-0.009-0.018-0.009-0.018h-0.009c-0.009-0.009-0.009,0-0.009,0
					c0,0.009,0.009,0.009,0.009,0.009c0.009,0.009,0.018,0.026,0.026,0.026h-0.018c-0.053-0.018-0.132-0.026-0.212-0.018
					c-0.167,0-0.353,0.035-0.521,0.097c-0.344,0.124-0.573,0.335-0.635,0.573c-0.018,0.141-0.035,0.247,0.018,0.468l0.159,0.715
					l0.714,2.85c0.229,0.962,0.53,1.861,0.786,2.788l0.803,2.85l0.344,1.43c0.088,0.405,0.238,0.891,0.361,1.085
					c-0.035,0-0.07,0-0.105-0.009c0.009,0,0.018,0.009,0.026,0.009c0.053,0.018,0.07,0.026,0.079,0.035
					c0.018,0,0.027,0.018,0.036,0.026l-0.009-0.018c-0.009-0.009-0.018-0.026-0.027-0.044c0.08,0.018,0.159,0.018,0.309,0.062
					c0.185,0.045,0.362,0.115,0.494,0.186c0.141,0.062,0.273,0.142,0.397,0.229c0.512,0.353,0.926,0.883,1.103,1.518l0.317,1.5
					c0.08,0.485,0.229,0.927,0.353,1.385l0.388,1.368l0.459,1.367c0.273,0.936,0.688,1.8,1.015,2.603
					c0.132,0.203,0.256,0.424,0.388,0.609c0.141,0.177,0.256,0.353,0.406,0.529c0.3,0.361,0.618,0.715,0.944,1.059
					c1.324,1.358,2.806,2.62,4.368,3.706c0.397,0.265,0.794,0.521,1.2,0.741c0.388,0.238,0.821,0.423,1.156,0.512
					c0.08,0,0.088,0.035,0.229,0.035h0.371l0.732-0.009l1.464,0.009l1.474,0.026l0.732,0.009l0.361,0.009h0.044
					c0.027,0,0.036,0,0.027,0l0.035-0.009l0.185-0.018c0.221-0.07,0.283-0.088,0.53-0.194c0.202-0.088,0.405-0.186,0.608-0.3
					c0.406-0.221,0.812-0.477,1.2-0.75c1.57-1.085,3.053-2.347,4.385-3.715c0.653-0.688,1.288-1.42,1.729-2.188l0.538-1.315
					c0.212-0.458,0.317-0.908,0.468-1.358l0.432-1.358l0.38-1.395c0.114-0.468,0.273-0.943,0.335-1.385l0.282-1.438
					c0.063-0.265,0.256-0.715,0.441-0.927c0.088-0.141,0.194-0.256,0.317-0.361c0.106-0.114,0.229-0.221,0.362-0.309
					c0.256-0.186,0.538-0.326,0.864-0.415c0.098-0.035,0.212-0.053,0.327-0.07c-0.01,0.026-0.027,0.044-0.036,0.062v0.009
					c0.018-0.026,0.063-0.053,0.106-0.07V46.355z M53.66,46.347l-0.018,0.009l0.123-0.018C53.73,46.347,53.695,46.347,53.66,46.347z
					"/>
				<path fill="#FFFFFF" d="M54.657,31.568c-0.062,0-0.273,0.141-0.582,0.379c0.018-0.485,0.053-0.944,0.097-1.42
					c0.053-0.485,0.062-0.971,0.159-1.482l0.009-0.053c0.07-1.235,0.202-2.479,0.247-3.697l0.088-1.871l0.044-0.935l0.009-0.229
					l0.009-0.115v-0.062c-0.035-0.141-0.062-0.309-0.105-0.335c-0.053-0.106-0.229-0.397-0.389-0.618
					c-0.176-0.238-0.344-0.468-0.547-0.706c-0.379-0.458-0.803-0.909-1.235-1.358c-0.282-0.292-0.564-0.583-0.864-0.865
					c0.079-0.247,0.132-0.494,0.194-0.732l0.088-0.882c0-0.009,0-0.026,0-0.035c0.009-0.212-0.07-0.406-0.203-0.547l0.026-0.026
					c0.653,0.662,1.279,1.341,1.897,2.047c0.423,0.485,0.838,0.979,1.235,1.509c0.202,0.256,0.388,0.539,0.573,0.821
					c0.186,0.309,0.353,0.547,0.529,1.041c0.097,0.256,0.079,0.362,0.114,0.529l0.009,0.018l0.009,0.115l-0.009,0.026v0.062
					l-0.018,0.124l-0.018,0.238l-0.097,0.961l-0.177,1.906c-0.114,1.279-0.309,2.523-0.45,3.785l-0.009,0.044l-0.009,0.018
					c-0.265,0.855-0.291,1.861-0.221,2.797c0.01,0.124,0.019,0.247,0.036,0.371c-0.159,0.053-0.345,0.141-0.557,0.326l-0.062,0.071
					c0,0,0,0,0,0.009c0.009-0.009,0.026-0.026,0.044-0.035c0.045-0.036,0.098-0.062,0.221-0.088
					c0.089-0.009,0.194,0.009,0.282,0.044l-0.097,0.265h-0.009c-0.07,0-0.317,0.186-0.671,0.477
					c-0.035-0.053-0.053-0.097-0.062-0.132c-0.079-0.212-0.079-0.344-0.097-0.494c-0.026-0.273-0.026-0.529-0.018-0.776
					L54.657,31.568z"/>
				<path fill="#FFFFFF" d="M55.143,32.688c0.018,0.053,0.026,0.106,0.035,0.15c-0.044-0.044-0.035-0.044-0.133-0.115
					c-0.009,0-0.009-0.009-0.018-0.009c-0.088-0.035-0.193-0.053-0.282-0.044c-0.123,0.026-0.176,0.053-0.221,0.088
					c-0.018,0.009-0.035,0.026-0.044,0.035c0-0.009,0-0.009,0-0.009l0.062-0.071c0.212-0.185,0.397-0.273,0.557-0.326
					C55.116,32.495,55.125,32.591,55.143,32.688z"/>
				<path fill="#FFFFFF" d="M54.922,32.979l-0.627,0.539c-0.026-0.027-0.035-0.044-0.044-0.062
					C54.604,33.165,54.852,32.979,54.922,32.979z"/>
				<path fill="#FFFFFF" d="M54.657,31.568l-0.582,0.485c0-0.009,0-0.009,0-0.018c0-0.026,0-0.062,0-0.088
					C54.384,31.709,54.596,31.568,54.657,31.568z"/>
				<path fill="#FFFFFF" d="M54.295,33.518v0.009l-3.608,3.088c0.848-0.768,2.594-2.365,3.564-3.159
					C54.26,33.474,54.269,33.491,54.295,33.518z"/>
				<path fill="#FFFFFF" d="M54.189,33.324c0.009,0.035,0.026,0.08,0.062,0.132c-0.971,0.794-2.717,2.391-3.564,3.159l-0.388,0.335
					l-0.071,0.026c-0.167-0.503-0.396-0.9-0.67-1.218V35.75l0.212-0.176l4.306-3.521c-0.009,0.247-0.009,0.503,0.018,0.776
					C54.11,32.979,54.11,33.112,54.189,33.324z"/>
				<path fill="#FFFFFF" d="M54.075,31.947c0,0.026,0,0.062,0,0.088c0,0.009,0,0.009,0,0.018l-4.306,3.521
					C50.669,34.797,52.98,32.786,54.075,31.947z"/>
				<path fill="#FFFFFF" d="M53.766,46.338l-0.123,0.018c0.009,0,0.018-0.009,0.018-0.009C53.695,46.347,53.73,46.347,53.766,46.338
					z"/>
				<path fill="#FFFFFF" d="M53.66,46.347c0,0-0.009,0.009-0.018,0.009L53.66,46.347z"/>
				<path fill="#FFFFFF" d="M53.625,46.355v0.009C53.59,46.364,53.59,46.364,53.625,46.355z"/>
				<path fill="#FFFFFF" d="M53.625,46.355c-0.035,0.009-0.035,0.009,0,0.009c-0.044,0.018-0.089,0.044-0.106,0.07v-0.009
					c0.009-0.018,0.026-0.035,0.036-0.062C53.581,46.364,53.607,46.355,53.625,46.355z"/>
				<path fill="#FFFFFF" d="M51.878,16.551c0,0.009,0,0.026,0,0.035l-0.088,0.882c-0.063,0.238-0.115,0.485-0.194,0.732
					c-0.397-0.406-0.812-0.794-1.227-1.173l0.026-0.441V16.48c0.018-0.406,0.371-0.723,0.776-0.706
					c0.194,0.009,0.371,0.097,0.503,0.229C51.808,16.146,51.887,16.339,51.878,16.551z"/>
				<path fill="#FFFFFF" d="M47.572,14.522h-0.009l-0.194-0.124c-0.149-0.106-0.247-0.132-0.353-0.168l-0.318-0.132l-0.414-0.15
					c-0.273-0.097-0.564-0.185-0.856-0.273c-0.582-0.176-1.182-0.317-1.782-0.477c-2.399-0.564-4.861-1.023-7.296-1.297
					c-1.208-0.167-2.435-0.379-3.582-0.379c-0.291-0.009-0.529,0.035-0.803,0.053c-0.115,0.018-0.186,0.053-0.282,0.07
					c-0.044,0.018-0.097,0.018-0.142,0.044l-0.211,0.115c-0.556,0.3-1.112,0.6-1.624,0.918c-1.032,0.617-2.064,1.306-2.903,2.091
					c-0.15,0.132-0.282,0.273-0.406,0.406c-0.167-0.194-0.344-0.379-0.512-0.547l-0.009-0.009c-0.009-0.009-0.009-0.018-0.018-0.018
					c-0.274-0.247-0.68-0.265-0.962-0.062c0,0,0,0-0.009,0s-0.018,0-0.018,0.009c-0.009,0-0.018,0-0.026,0h-0.088l0.132-0.203
					c0.238-0.292,0.477-0.574,0.724-0.803c0.997-0.961,2.064-1.694,3.176-2.391c0.564-0.362,1.111-0.671,1.659-0.979l0.211-0.115
					c0.088-0.053,0.194-0.088,0.3-0.132c0.203-0.08,0.423-0.167,0.618-0.212c0.353-0.062,0.732-0.159,1.067-0.176
					c1.385-0.141,2.682-0.124,3.979,0.009c1.297,0.15,2.559,0.397,3.82,0.653c1.253,0.265,2.506,0.564,3.75,0.926
					c0.617,0.194,1.234,0.371,1.853,0.6c0.309,0.097,0.617,0.212,0.936,0.344l0.467,0.185c0.168,0.08,0.362,0.186,0.539,0.273
					c0.185,0.097,0.37,0.194,0.484,0.283l0.186,0.132l0.053,0.035l0.027,0.018l0.097,0.08l0.009,0.009l0.088,0.088l0.688,0.662
					l1.35,1.341c0.247,0.247,0.494,0.503,0.732,0.759l-0.026,0.026c-0.132-0.132-0.309-0.22-0.503-0.229
					c-0.405-0.018-0.759,0.3-0.776,0.706v0.106l-0.026,0.441c-0.194-0.186-0.397-0.371-0.6-0.556l-1.395-1.253l-0.706-0.618
					l-0.018-0.018c0,0-0.009-0.009-0.026-0.026h-0.009l-0.035-0.035H47.572z"/>
				<path fill="#FFFFFF" d="M43.426,20.989l0.044-0.018l0.079-0.027c-0.009,0.018-0.018,0.044-0.018,0.062
					c-0.079,0.397-0.07,0.935-0.044,1.412l0.009,0.026c0.018,0.238-0.15,0.45-0.389,0.468c-0.088,0.009-0.176-0.009-0.256-0.053
					l-3.009-1.747c-0.062-0.115-0.114-0.229-0.167-0.344c-0.062-0.132-0.115-0.265-0.168-0.388
					c-0.062-0.141-0.053-0.212-0.097-0.327l-0.671,0.415l-0.123,0.026c-0.036-0.115-0.063-0.256-0.089-0.371
					c-0.044-0.221,0.089-0.441,0.309-0.494c0.106-0.018,0.212,0,0.301,0.044l0.062,0.044l3.353,1.941c0,0.009,0,0.026,0,0.035
					c0.009,0.274,0.026,0.539,0.062,0.812l0.627-0.441l-0.688-0.406c-0.009-0.273-0.009-0.529,0.044-0.838
					c0.035-0.159,0.035-0.335,0.273-0.617l0.054-0.044l0.009-0.009l0.009-0.009l0.114-0.062h0.009v-0.009l0.053-0.018l0.089-0.035
					c0.079-0.018,0.247-0.044,0.37-0.044c0.415,0.026,0.645,0.106,0.918,0.185l0.732,0.238c0.238,0.08,0.379,0.062,0.6,0.062
					c0.468-0.018,0.953-0.088,1.421-0.203c0.221-0.062,0.458-0.115,0.67-0.212c0.221-0.07,0.433-0.176,0.636-0.282
					c0.203-0.097,0.388-0.229,0.564-0.353c0.168-0.15,0.353-0.273,0.477-0.441c0.159-0.159,0.265-0.335,0.37-0.512
					c0.124-0.177,0.168-0.388,0.256-0.583c0.063-0.203,0.098-0.415,0.142-0.626l0.009-0.22c0.415,0.379,0.829,0.768,1.227,1.173
					c-0.009,0.053-0.026,0.097-0.044,0.15c-0.142,0.273-0.229,0.564-0.415,0.812c-0.168,0.265-0.353,0.512-0.573,0.715
					c-0.203,0.238-0.45,0.406-0.688,0.583c-0.247,0.159-0.503,0.317-0.768,0.432c-0.256,0.124-0.521,0.229-0.794,0.309
					c-0.273,0.097-0.547,0.15-0.82,0.212c-0.548,0.106-1.095,0.159-1.668,0.15c-0.291,0-0.671-0.035-0.927-0.15l-0.731-0.265
					c-0.212-0.088-0.485-0.159-0.592-0.176c0,0.009,0.035-0.036-0.009-0.036l-0.018,0.009c0.009-0.026,0.018-0.044,0.018-0.053
					c0.009-0.009,0.009-0.009,0.009-0.009s0,0-0.009,0.009s-0.009,0.009-0.018,0.018l-0.009,0.009c0,0.009-0.009,0.009-0.009,0.009
					L43.426,20.989z"/>
				<path fill="#FFFFFF" d="M50.228,36.977c0.212,0.626,0.327,1.402,0.327,2.373c0,4.738-3.397,6.494-6.062,6.494
					c-2.665,0-5.7-1.668-5.7-6.494c0-0.812,0.08-1.482,0.238-2.038c0.406,0.062,0.75,0.159,0.971,0.265
					c-0.168,0.502-0.256,1.129-0.256,1.906c0,4.041,2.541,5.443,4.773,5.443c2.241,0,5.082-1.474,5.082-5.443
					c0-4.262-2.7-4.041-4.933-4.041c-1.288,0-2.734-0.053-3.723,0.723c-0.221-0.211-0.582-0.379-1.023-0.512
					c1.173-1.2,3.07-1.129,4.746-1.129c1.738,0,3.715-0.115,4.889,1.226c-0.026,0.026-0.053,0.044-0.071,0.062l0.071-0.053
					C49.831,36.077,50.061,36.474,50.228,36.977z"/>
				<path fill="#FFFFFF" d="M49.558,35.75v0.009l-0.071,0.053C49.505,35.794,49.531,35.776,49.558,35.75z"/>
				<path fill="#FFFFFF" d="M40.002,37.577c0.212-0.653,0.538-1.103,0.944-1.412c0.988-0.776,2.435-0.723,3.723-0.723
					c2.232,0,4.933-0.221,4.933,4.041c0,3.97-2.841,5.443-5.082,5.443c-2.232,0-4.773-1.402-4.773-5.443
					C39.746,38.706,39.834,38.079,40.002,37.577z"/>
				<polygon fill="#FFFFFF" points="47.616,14.557 47.572,14.522 47.581,14.522 				"/>
				<path fill="#FFFFFF" d="M43.575,20.883c0,0,0,0-0.009,0.009C43.575,20.883,43.575,20.883,43.575,20.883z"/>
				<path fill="#FFFFFF" d="M43.531,20.927c0,0,0.009,0,0.009-0.009l0.009-0.009c0.009-0.009,0.009-0.009,0.018-0.018
					c0,0.009-0.009,0.026-0.018,0.053l-0.079,0.027l-0.044,0.018L43.531,20.927z"/>
				<path fill="#FFFFFF" d="M42.552,21.66l0.688,0.406l-0.627,0.441c-0.035-0.273-0.053-0.538-0.062-0.812
					C42.552,21.686,42.552,21.668,42.552,21.66z"/>
				<path fill="#FFFFFF" d="M40.973,23.133c0.123,0.203,0.062,0.476-0.142,0.6c-0.088,0.053-0.193,0.071-0.291,0.053
					c-0.741-0.097-1.491-0.15-2.232-0.291l-1.111-0.203c-0.371-0.062-0.732-0.176-1.103-0.265c-0.741-0.167-1.456-0.433-2.17-0.67
					l-1.059-0.433c-0.353-0.141-0.688-0.326-1.032-0.494c-0.353-0.159-0.68-0.362-1.006-0.547c-0.344-0.186-0.662-0.397-0.979-0.609
					c-0.644-0.415-1.244-0.891-1.835-1.385c-0.115-0.097-0.229-0.194-0.344-0.309c0.018-0.035,0.026-0.08,0.035-0.115
					c0.062-0.212,0.106-0.433,0.15-0.662c0.018-0.15,0.044-0.203,0.053-0.424c0.009-0.141-0.009-0.3-0.036-0.441
					c-0.018-0.062-0.018-0.097-0.035-0.115l0.018-0.009c0.335,0.362,0.697,0.715,1.068,1.059c0.521,0.477,1.076,0.936,1.659,1.35
					c0.291,0.212,0.582,0.415,0.891,0.6c0.3,0.185,0.6,0.388,0.917,0.547c0.318,0.159,0.626,0.353,0.953,0.494l0.988,0.441
					c0.68,0.256,1.341,0.529,2.047,0.715c0.344,0.097,0.688,0.221,1.041,0.291l1.067,0.238c0.406,0.088,0.829,0.159,1.244,0.221
					c0.159,0.273,0.317,0.538,0.485,0.812l0.424-0.67c-0.301-0.053-0.609-0.097-0.909-0.141c-0.142-0.265-0.291-0.529-0.433-0.794
					c-0.149-0.274-0.291-0.556-0.423-0.838c-0.071-0.15-0.124-0.309-0.194-0.459c-0.026-0.053-0.044-0.115-0.062-0.185l0.123-0.026
					l1.103,0.644c0.071,0.15,0.15,0.3,0.229,0.45c0.282,0.521,0.583,1.05,0.892,1.562L40.973,23.133z"/>
				<path fill="#FFFFFF" d="M40.638,22.913l-0.424,0.67c-0.168-0.273-0.326-0.538-0.485-0.812
					C40.028,22.815,40.337,22.86,40.638,22.913z"/>
				<path fill="#FFFFFF" d="M39.923,35.653c0.441,0.132,0.803,0.3,1.023,0.512c-0.406,0.309-0.732,0.759-0.944,1.412
					c-0.221-0.106-0.564-0.203-0.971-0.265C39.226,36.58,39.534,36.05,39.923,35.653z"/>
				<path fill="#FFFFFF" d="M39.676,20.769c0.053,0.115,0.105,0.229,0.167,0.344l-1.103-0.644l0.671-0.415
					c0.044,0.115,0.035,0.186,0.097,0.327C39.561,20.504,39.614,20.636,39.676,20.769z"/>
				<path fill="#FFFFFF" d="M39.923,35.653c-0.389,0.397-0.697,0.927-0.892,1.659c-1.085-0.185-2.646-0.194-3.758-0.035
					c-0.203-0.776-0.547-1.341-0.971-1.738C35.837,35.229,38.396,35.203,39.923,35.653z"/>
				<path fill="#FFFFFF" d="M24.279,36.526c0.194-0.415,0.45-0.741,0.741-1.006c1.182-1.059,3-0.997,4.614-0.997
					c1.641,0,3.494-0.097,4.667,1.015c-0.564,0.105-0.997,0.256-1.182,0.432c-0.971-0.591-2.294-0.529-3.485-0.529
					c-2.232,0-4.923-0.15-4.923,4.041c0,4.041,2.541,5.443,4.773,5.443c2.232,0,5.073-1.474,5.073-5.443
					c0-0.794-0.097-1.438-0.265-1.95c0.238-0.115,0.574-0.194,0.979-0.256c0.15,0.565,0.238,1.253,0.238,2.073
					c0,4.738-3.388,6.494-6.053,6.494s-5.708-1.668-5.708-6.494C23.75,38.123,23.944,37.206,24.279,36.526z"/>
				<path fill="#FFFFFF" d="M35.273,37.276c-0.406,0.062-0.741,0.141-0.979,0.256c-0.247-0.768-0.662-1.253-1.173-1.562
					c0.185-0.176,0.618-0.327,1.182-0.432C34.726,35.936,35.07,36.5,35.273,37.276z"/>
				<path fill="#FFFFFF" d="M34.293,37.532c0.167,0.512,0.265,1.156,0.265,1.95c0,3.97-2.841,5.443-5.073,5.443
					c-2.232,0-4.773-1.402-4.773-5.443c0-4.191,2.691-4.041,4.923-4.041c1.191,0,2.515-0.062,3.485,0.529
					C33.632,36.279,34.046,36.765,34.293,37.532z"/>
				<path fill="#FFFFFF" d="M27.87,16.939c0.027,0.141,0.044,0.3,0.036,0.441c-0.009,0.221-0.036,0.273-0.053,0.424
					c-0.044,0.229-0.088,0.45-0.15,0.662c-0.009,0.035-0.018,0.08-0.035,0.115c-0.415-0.362-0.821-0.75-1.209-1.156
					c0.044-0.044,0.124-0.097,0.238-0.177l0.009-0.009c0.247-0.159,0.521-0.282,0.794-0.362c0.167-0.044,0.265-0.062,0.309-0.062
					c0.009,0,0.018,0,0.026,0.009C27.853,16.842,27.853,16.877,27.87,16.939z"/>
				<path fill="#FFFFFF" d="M27.853,16.816l-0.018,0.009c-0.009-0.009-0.018-0.009-0.026-0.009c-0.044,0-0.141,0.018-0.309,0.062
					c-0.274,0.08-0.547,0.203-0.794,0.362l-0.009,0.009c-0.115,0.08-0.194,0.132-0.238,0.177c-0.035-0.027-0.07-0.062-0.105-0.097
					l-0.768-0.812c-0.097-0.097-0.185-0.203-0.282-0.3c0.115-0.035,0.177-0.044,0.318-0.124c0.079-0.044,0.15-0.097,0.22-0.159
					l0.088-0.088l0.026-0.035l0.292-0.406c0.053-0.062,0.106-0.124,0.15-0.186c0.097,0.097,0.185,0.194,0.273,0.3l0.732,0.82
					C27.544,16.498,27.694,16.657,27.853,16.816z"/>
				<path fill="#FFFFFF" d="M27.667,18.581c-0.106,0.388-0.238,0.759-0.371,1.121c-0.318,0.794-0.67,1.579-1.112,2.312
					c-0.432,0.732-0.926,1.438-1.473,2.1c-0.292,0.318-0.574,0.635-0.9,0.918c-0.3,0.309-0.653,0.564-0.988,0.82
					c-0.08,0.071-0.186,0.106-0.283,0.106c-0.114,0-0.229-0.044-0.309-0.132l-0.009-0.009c-0.327-0.344-0.618-0.68-0.891-1.068
					c-0.009-0.018-0.018-0.026-0.026-0.044c0.07-0.432,0.141-0.874,0.203-1.314l-0.874,0.026h-0.026
					c0.009-0.053,0.018-0.097,0.026-0.15c0.036-0.238,0.256-0.406,0.494-0.371c0.159,0.018,0.292,0.132,0.344,0.273l0.026,0.071
					c0.026,0.07,0.053,0.15,0.08,0.229c0.035,0.08,0.088,0.168,0.132,0.247c0.097,0.177,0.212,0.353,0.335,0.521
					c0.15,0.212,0.317,0.424,0.503,0.626c-0.097,0.106-0.194,0.203-0.292,0.309l0.6,0.035c-0.106-0.115-0.212-0.229-0.309-0.344
					c0.167-0.185,0.344-0.371,0.494-0.564c0.256-0.291,0.477-0.618,0.706-0.936c0.441-0.644,0.847-1.314,1.191-2.02
					c0.335-0.715,0.662-1.43,0.918-2.171c0.124-0.361,0.247-0.741,0.344-1.103c0.053-0.186,0.08-0.362,0.115-0.538l0.026-0.186
					c0,0.044,0.018,0.097,0.053,0.132c0,0.009,0.009,0.018,0.018,0.018c0-0.009,0-0.018,0.018-0.044
					c0.009-0.009,0.018-0.018,0.026-0.026C26.847,17.831,27.253,18.219,27.667,18.581z"/>
				<path fill="#FFFFFF" d="M26.397,15.219c-0.044,0.062-0.097,0.124-0.15,0.186l-0.292,0.406l-0.026,0.035l-0.088,0.088
					c-0.07,0.062-0.141,0.115-0.22,0.159c-0.141,0.08-0.203,0.088-0.318,0.124c-0.15-0.15-0.309-0.3-0.477-0.458
					c-0.309-0.283-0.326-0.768-0.044-1.068c0.035-0.035,0.071-0.07,0.115-0.106c0.282-0.203,0.688-0.185,0.962,0.062
					c0.009,0,0.009,0.009,0.018,0.018l0.009,0.009C26.053,14.839,26.229,15.025,26.397,15.219z"/>
				<path fill="#FFFFFF" d="M24.624,16.26l-0.062,0.018l-0.467,0.097c-0.247,0.097-0.406,0.159-0.653,0.283
					c-0.979,0.521-1.897,1.306-2.594,2.206c-0.344,0.459-0.609,0.926-0.82,1.447c-0.238,0.609-0.415,1.129-0.547,1.712
					c-0.159,0.573-0.22,1.147-0.256,1.711c0.009,0.265,0.009,0.539,0.062,0.768c0.018,0.133,0.062,0.221,0.097,0.309l0.026,0.07
					l0.009,0.036l0.044,0.097l0.097,0.22c0.124,0.292,0.265,0.565,0.379,0.874l0.132,0.379c-0.026,0.167-0.071,0.327-0.106,0.494
					c-0.053,0.194-0.106,0.397-0.159,0.574c-0.035,0.097-0.062,0.185-0.097,0.256c-0.009,0.018-0.018,0.035-0.026,0.053v0.009
					c-0.115,0.053-0.203,0.186-0.212,0.327c0,0.062,0.009,0.132,0.036,0.185L19.232,28.4c-0.097-0.291-0.194-0.582-0.3-0.856
					l-0.3-0.829c-0.106-0.282-0.256-0.574-0.388-0.856l-0.194-0.45c-0.088-0.203-0.167-0.406-0.194-0.591
					c-0.097-0.388-0.097-0.741-0.115-1.103c0.026-0.706,0.105-1.394,0.265-2.038c0.132-0.653,0.362-1.332,0.573-1.906
					c0.247-0.653,0.6-1.297,1.006-1.853c0.838-1.112,1.853-2.029,3.088-2.718c0.317-0.167,0.75-0.335,1.085-0.458l0.468-0.097
					l0.115-0.026l0.105-0.018l0.027-0.009h0.053h0.097h0.132l-0.035,0.053l-0.027,0.044c-0.009,0.009-0.009,0.018-0.009,0.018
					l-0.009,0.009l-0.035,0.044c0,0-0.009,0.009-0.009,0.018v0.009l0.009-0.009l0.009-0.018c0.009-0.009,0.018-0.027,0.026-0.044
					h0.009v-0.009c0.036-0.035,0.062-0.062,0.106-0.079c0.062-0.027,0.062-0.036,0.08-0.036c0-0.009,0.009-0.009,0.018-0.009
					s0.009,0,0.009,0c-0.044,0.036-0.08,0.071-0.115,0.106c-0.282,0.3-0.265,0.785,0.044,1.068c0.168,0.159,0.327,0.309,0.477,0.458
					c-0.167,0.044-0.309,0.044-0.423,0.053l-0.247-0.009H24.624z"/>
				<path fill="#FFFFFF" d="M24.844,14.592c0.009,0,0.018,0,0.026,0c-0.018,0-0.018,0.009-0.08,0.036
					c-0.044,0.018-0.07,0.044-0.106,0.079c0,0,0-0.009,0.009-0.018l0.027-0.044l0.035-0.053H24.844z"/>
				<polygon fill="#FFFFFF" points="24.685,14.707 24.685,14.716 24.676,14.716 				"/>
				<path fill="#FFFFFF" d="M24.676,14.716c-0.009,0.018-0.018,0.036-0.026,0.044h-0.009L24.676,14.716z"/>
				<path fill="#FFFFFF" d="M24.65,14.76l-0.009,0.018h-0.009c0-0.009,0.009-0.018,0.009-0.018H24.65z"/>
				<path fill="#FFFFFF" d="M25.021,35.521c-0.291,0.265-0.547,0.591-0.741,1.006c-0.591-0.512-2.435-2.179-3.476-3.017
					c0.044-0.062,0.07-0.115,0.079-0.15c0.088-0.229,0.106-0.362,0.132-0.512c0.036-0.291,0.053-0.547,0.062-0.803
					c0-0.018,0-0.035,0-0.053C22.171,32.9,24.35,34.93,25.021,35.521z"/>
				<path fill="#FFFFFF" d="M22.859,25.207l-0.6-0.035c0.097-0.106,0.194-0.203,0.292-0.309
					C22.647,24.977,22.753,25.092,22.859,25.207z"/>
				<path fill="#FFFFFF" d="M20.635,23.416l0.874-0.026c-0.062,0.441-0.132,0.882-0.203,1.314c-0.132-0.167-0.247-0.353-0.362-0.556
					c-0.062-0.106-0.124-0.212-0.177-0.335L20.635,23.416z"/>
				<path fill="#FFFFFF" d="M21.43,46.461l0.009,0.018c-0.009-0.009-0.018-0.026-0.036-0.026c-0.009-0.009-0.026-0.018-0.079-0.035
					c-0.009,0-0.018-0.009-0.026-0.009c0.035,0.009,0.07,0.009,0.105,0.009C21.412,46.435,21.421,46.452,21.43,46.461z"/>
				<path fill="#FFFFFF" d="M21.306,24.704c-0.071,0.406-0.141,0.812-0.221,1.218c-0.08,0.415-0.159,0.838-0.265,1.262
					c-0.053,0.211-0.106,0.432-0.176,0.644c-0.018,0.062-0.036,0.115-0.062,0.176c-0.097-0.309-0.194-0.618-0.309-0.944
					l-0.203-0.574c0.053-0.238,0.106-0.485,0.15-0.732c0.15-0.768,0.273-1.562,0.388-2.338h0.026l0.132,0.397
					c0.053,0.124,0.115,0.229,0.177,0.335C21.059,24.351,21.174,24.536,21.306,24.704z"/>
				<path fill="#FFFFFF" d="M19.683,27.871c0.009-0.009,0.009-0.009,0.018-0.018c-0.009-0.009-0.009,0-0.018,0.009
					c0.009-0.018,0.018-0.035,0.026-0.053c0.035-0.071,0.062-0.159,0.097-0.256c0.053-0.177,0.106-0.379,0.159-0.574
					c0.035-0.167,0.08-0.327,0.106-0.494l0.203,0.574c0.114,0.326,0.211,0.635,0.309,0.944c-0.026,0.053-0.044,0.106-0.071,0.167
					c-0.026,0.062-0.062,0.132-0.114,0.212c-0.036,0.044-0.044,0.071-0.124,0.141c-0.044,0.035-0.062,0.053-0.132,0.088
					c-0.08,0.035-0.168,0.053-0.256,0.053c-0.177-0.009-0.318-0.124-0.379-0.282c-0.027-0.053-0.036-0.124-0.036-0.185
					C19.479,28.057,19.568,27.924,19.683,27.871z M19.78,27.81c0.044-0.018,0.079-0.027,0.124-0.027
					C19.859,27.783,19.815,27.8,19.78,27.81z"/>
				<path fill="#FFFFFF" d="M20.477,32.662l0.018,0.026h-0.009c-0.035-0.018-0.079-0.053-0.22-0.08
					c-0.115-0.018-0.238,0-0.344,0.053c-0.115,0.079-0.106,0.079-0.159,0.132c-0.018,0.026-0.036,0.044-0.044,0.062
					c0-0.035,0.018-0.124,0.026-0.185c0.009-0.106,0.018-0.212,0.027-0.327c0.018,0,0.044,0,0.062,0.009
					c0.115,0.036,0.15,0.018,0.335,0.106c0.07,0.036,0.15,0.08,0.22,0.132C20.45,32.636,20.441,32.636,20.477,32.662z"/>
				<path fill="#FFFFFF" d="M19.903,27.783c-0.044,0-0.08,0.009-0.124,0.027C19.815,27.8,19.859,27.783,19.903,27.783z"/>
				<path fill="#FFFFFF" d="M19.7,27.854c-0.009,0.009-0.009,0.009-0.018,0.018v-0.009C19.691,27.854,19.691,27.845,19.7,27.854z"/>
				<path fill="#FFFFFF" d="M19.63,33.588c0,0.009,0,0.009,0.009,0.018H19.63l-0.009-0.018H19.63z"/>
				<polygon fill="#FFFFFF" points="19.612,33.58 19.621,33.588 19.612,33.588 				"/>
				<polygon fill="#FFFFFF" points="19.612,33.58 19.612,33.588 19.603,33.58 				"/>
				<polygon fill="#FFFFFF" points="19.603,33.571 19.612,33.58 19.603,33.58 				"/>
				<path fill="#FFFFFF" d="M19.585,33.544c0,0,0.009,0.009,0.009,0.018c-0.009-0.009-0.018-0.009-0.018-0.009v-0.009H19.585z"/>
				<path fill="#FFFFFF" d="M19.577,33.544v0.009c0,0-0.009,0-0.009-0.009C19.568,33.544,19.568,33.536,19.577,33.544z"/>
			</g>
			<g>
				<path fill="none" stroke="#FFFFFF" stroke-width="0.8823" stroke-miterlimit="10" d="M35.273,37.276
					c1.112-0.159,2.673-0.15,3.758,0.035c0.406,0.062,0.75,0.159,0.971,0.265"/>
				<path fill="none" stroke="#FFFFFF" stroke-width="0.8823" stroke-miterlimit="10" d="M34.302,35.539
					c1.535-0.309,4.094-0.335,5.621,0.114c0.441,0.132,0.803,0.3,1.023,0.512"/>
				<path fill="none" stroke="#FFFFFF" stroke-width="0.8823" stroke-miterlimit="10" d="M35.273,37.276
					c0.15,0.565,0.238,1.253,0.238,2.073c0,4.738-3.388,6.494-6.053,6.494s-5.708-1.668-5.708-6.494
					c0-1.227,0.194-2.144,0.529-2.823c0.194-0.415,0.45-0.741,0.741-1.006c1.182-1.059,3-0.997,4.614-0.997
					c1.641,0,3.494-0.097,4.667,1.015C34.726,35.936,35.07,36.5,35.273,37.276z"/>
				<path fill="none" stroke="#02C1A2" stroke-width="0.8823" stroke-miterlimit="10" d="M34.293,37.532
					c0.167,0.512,0.265,1.156,0.265,1.95c0,3.97-2.841,5.443-5.073,5.443c-2.232,0-4.773-1.402-4.773-5.443
					c0-4.191,2.691-4.041,4.923-4.041c1.191,0,2.515-0.062,3.485,0.529C33.632,36.279,34.046,36.765,34.293,37.532z"/>
				<path fill="none" stroke="#FFFFFF" stroke-width="0.8823" stroke-miterlimit="10" d="M49.558,35.759
					c0.273,0.318,0.503,0.715,0.67,1.218c0.212,0.626,0.327,1.402,0.327,2.373c0,4.738-3.397,6.494-6.062,6.494
					c-2.665,0-5.7-1.668-5.7-6.494c0-0.812,0.08-1.482,0.238-2.038c0.194-0.732,0.503-1.261,0.892-1.659
					c1.173-1.2,3.07-1.129,4.746-1.129c1.738,0,3.715-0.115,4.889,1.226"/>
				<path fill="none" stroke="#FFFFFF" stroke-width="0.8823" stroke-miterlimit="10" d="M49.77,35.574
					c0.899-0.776,3.211-2.788,4.306-3.626c0.309-0.238,0.521-0.379,0.582-0.379"/>
				<path fill="none" stroke="#FFFFFF" stroke-width="0.8823" stroke-miterlimit="10" d="M49.486,35.812
					c0.019-0.018,0.045-0.036,0.071-0.062"/>
				
					<line fill="none" stroke="#FFFFFF" stroke-width="0.8823" stroke-miterlimit="10" x1="49.77" y1="35.574" x2="49.558" y2="35.75"/>
				
					<line fill="none" stroke="#FFFFFF" stroke-width="0.8823" stroke-miterlimit="10" x1="54.666" y1="31.568" x2="54.657" y2="31.568"/>
				<path fill="none" stroke="#FFFFFF" stroke-width="0.8823" stroke-miterlimit="10" d="M50.687,36.615
					c0.848-0.768,2.594-2.365,3.564-3.159c0.354-0.291,0.601-0.477,0.671-0.477"/>
				
					<line fill="none" stroke="#FFFFFF" stroke-width="0.8823" stroke-miterlimit="10" x1="50.687" y1="36.615" x2="50.299" y2="36.95"/>
				
					<line fill="none" stroke="#FFFFFF" stroke-width="0.8823" stroke-miterlimit="10" x1="54.931" y1="32.979" x2="54.922" y2="32.979"/>
				<path fill="none" stroke="#FFFFFF" stroke-width="0.8823" stroke-miterlimit="10" d="M25.109,35.591
					c-0.026-0.018-0.053-0.044-0.088-0.071c-0.67-0.591-2.85-2.62-3.944-3.529c-0.353-0.3-0.591-0.477-0.635-0.45"/>
				<path fill="none" stroke="#FFFFFF" stroke-width="0.8823" stroke-miterlimit="10" d="M24.341,36.58
					c-0.018-0.018-0.036-0.036-0.062-0.053c-0.591-0.512-2.435-2.179-3.476-3.017c-0.397-0.327-0.68-0.521-0.724-0.494"/>
				<path fill="none" stroke="#02C1A2" stroke-width="0.8823" stroke-miterlimit="10" d="M40.946,36.165
					c0.988-0.776,2.435-0.723,3.723-0.723c2.232,0,4.933-0.221,4.933,4.041c0,3.97-2.841,5.443-5.082,5.443
					c-2.232,0-4.773-1.402-4.773-5.443c0-0.776,0.088-1.403,0.256-1.906C40.214,36.923,40.54,36.474,40.946,36.165z"/>
			</g>
		</g>
	</g>
</g>
</svg>
