<?xml version="1.0" encoding="utf-8"?>
<!-- Generator: Adobe Illustrator 16.0.3, SVG Export Plug-In . SVG Version: 6.00 Build 0)  -->
<!DOCTYPE svg PUBLIC "-//W3C//DTD SVG 1.1//EN" "http://www.w3.org/Graphics/SVG/1.1/DTD/svg11.dtd">
<svg version="1.1" id="Слой_2" xmlns="http://www.w3.org/2000/svg" xmlns:xlink="http://www.w3.org/1999/xlink" x="0px" y="0px"
	 width="54px" height="54px" viewBox="0 0 54 54" enable-background="new 0 0 54 54" xml:space="preserve">
<path fill="#C5C5C5" d="M27,0C12.112,0,0,12.112,0,27c0,14.889,12.112,27.001,27,27.001S54,41.889,54,27C54,12.112,41.888,0,27,0z
	 M27,51.001C13.766,51.001,3,40.233,3,27C3,13.766,13.766,3,27,3c13.233,0,24,10.766,24,24C51,40.233,40.233,51.001,27,51.001z"/>
<polygon fill="#C5C5C5" points="41,31 38,28 31,28 28,28 28,30.999 28,37.999 31,40.999 31,33.828 38.898,41.727 41.728,38.898 
	33.828,31 "/>
<polygon fill="#C5C5C5" points="15.728,28 12.728,31 19.899,31 12,38.898 14.829,41.727 23,33.556 23,40.999 26,37.999 26,30.999 
	26,28 23,28 "/>
<polygon fill="#C5C5C5" points="38.898,11.999 31,19.897 31,12.727 28,15.727 28,22.999 28,26 31,26 38,26 41,23 33.556,23 
	41.728,14.828 "/>
<polygon fill="#C5C5C5" points="23,20.17 14.829,11.999 12,14.828 20.172,23 12.728,23 15.728,26 23,26 26,26 26,22.999 26,15.727 
	23,12.727 "/>
</svg>
