<?xml version="1.0" encoding="utf-8"?>
<!-- Generator: Adobe Illustrator 16.0.3, SVG Export Plug-In . SVG Version: 6.00 Build 0)  -->
<!DOCTYPE svg PUBLIC "-//W3C//DTD SVG 1.1//EN" "http://www.w3.org/Graphics/SVG/1.1/DTD/svg11.dtd">
<svg version="1.1" id="Слой_1" xmlns="http://www.w3.org/2000/svg" xmlns:xlink="http://www.w3.org/1999/xlink" x="0px" y="0px"
	 width="75px" height="75px" viewBox="0 0 75 75" enable-background="new 0 0 75 75" xml:space="preserve">
<g>
	<path fill="#02C1A2" d="M37.501,0c-20.677,0-37.5,16.823-37.5,37.5c0,20.678,16.823,37.5,37.5,37.5C58.178,75,75,58.178,75,37.5
		C75,16.822,58.178,0,37.501,0z"/>
	<path fill="#FFFFFF" d="M47.273,39.426c-0.043,0.068-2.609,2.213-2.969,2.824s-2.232,4.359-2.232,4.359l-0.268,0.09
		c0,0,0.51-4.92,0.213-4.939c-0.297-0.018-0.775,5.096-0.775,5.096l-0.451,0.197l-0.313,0.236c0,0-1.154,1.445-2.189,4.461
		c-1.033,3.014-3.991,7.602-6,9.318c-2.01,1.715-8.509,4.342-7.543,6.467s5.947,0.607,10.561-2.627
		c4.615-3.236,7.443-11.805,7.828-12.52c0.381-0.711-0.264-0.916-0.223-1.158c0.041-0.24,0.68-1.457,0.836-1.768
		c0.154-0.311-0.045-0.492,0.113-0.934c0.158-0.445,0.896-1.98,2.063-4.082c1.164-2.102,2.293-2.58,2.764-2.871
		c0.469-0.289,1.393-1.033,1.621-1.432c0.229-0.4,1.023-0.934,1.023-0.934s1.682-0.563,4.986-1.998
		c3.307-1.434,3.479-4.652,3.479-4.652l-5.477,2.041c0,0,0.041,0.278-0.305,0.49c-0.342,0.212-0.588-0.113-0.588-0.113l-0.578-0.938
		c0,0-0.18-0.364,0.164-0.576s0.572-0.052,0.572-0.052l4.283-3.98c0,0-2.955-1.288-5.719,1.022c-2.766,2.31-4.023,3.562-4.023,3.562
		s-0.834,0.471-1.293,0.496c-0.461,0.024-1.537,0.517-2.008,0.806c-0.469,0.291-1.404,1.083-3.807,1.183
		c-2.4,0.098-4.104,0.07-4.57,0.012c-0.466-0.058-0.539-0.316-0.887-0.317c-0.347-0.002-1.72,0.025-1.955-0.046
		c-0.234-0.072-0.13-0.74-0.937-0.719c-0.806,0.022-9.738-1.292-14.699,1.38c-4.96,2.67-8.553,6.442-7.086,8.258
		c1.467,1.816,6.73-2.813,9.165-3.84c2.434-1.025,7.863-1.611,11.021-1.182c3.157,0.428,4.969,0.045,4.969,0.045l0.351-0.174
		l0.252-0.246c0,0,5.137,2.33,5.375,2.086s-4.984-2.465-4.984-2.465l0.33-0.32c0,0,4.189,0.008,4.895-0.041
		c0.709-0.047,3.775-1.378,3.857-1.386C46.197,37.541,47.316,39.355,47.273,39.426z"/>
	<g>
		<g>
			<path fill="#FFFFFF" d="M37.31,27.506c-0.18,0-0.363-0.037-0.539-0.115c-0.667-0.298-0.966-1.082-0.667-1.749l3.68-8.23
				l-7.573,2.563L36.4,5.44l5.872-0.028l-5.022,10.063l7.425-2.511L38.52,26.723C38.299,27.215,37.816,27.506,37.31,27.506z"/>
		</g>
		<g>
			<g>
				<polygon fill="#FFFFFF" points="34.947,21.867 37.846,24.989 42.104,25.07 34.73,31.952 				"/>
			</g>
		</g>
	</g>
</g>
</svg>
