<?xml version="1.0" encoding="utf-8"?>
<!-- Generator: Adobe Illustrator 16.0.3, SVG Export Plug-In . SVG Version: 6.00 Build 0)  -->
<!DOCTYPE svg PUBLIC "-//W3C//DTD SVG 1.1//EN" "http://www.w3.org/Graphics/SVG/1.1/DTD/svg11.dtd">
<svg version="1.1" id="Слой_2" xmlns="http://www.w3.org/2000/svg" xmlns:xlink="http://www.w3.org/1999/xlink" x="0px" y="0px"
	 width="54px" height="54px" viewBox="0 0 54 54" enable-background="new 0 0 54 54" xml:space="preserve">
<rect fill="#E6E6E6" width="54" height="54"/>
<g>
	<path fill="#C5C5C5" d="M0,27C0,12.112,12.112,0,27,0s27,12.112,27,27c0,14.889-12.112,27.001-27,27.001S0,41.889,0,27z M3,27
		c0,13.233,10.766,24.001,24,24.001c13.233,0,24-10.768,24-24.001C51,13.766,40.233,3,27,3C13.766,3,3,13.766,3,27z"/>
	<polygon fill="#C5C5C5" points="42,24 21.5,24 31.5,14 24.5,14 11.5,27 24.5,40 31.5,40 21.5,30 42,30 	"/>
</g>
</svg>
