<?xml version="1.0" encoding="utf-8"?>
<!-- Generator: Adobe Illustrator 16.0.3, SVG Export Plug-In . SVG Version: 6.00 Build 0)  -->
<!DOCTYPE svg PUBLIC "-//W3C//DTD SVG 1.1//EN" "http://www.w3.org/Graphics/SVG/1.1/DTD/svg11.dtd">
<svg version="1.1" id="Слой_1" xmlns="http://www.w3.org/2000/svg" xmlns:xlink="http://www.w3.org/1999/xlink" x="0px" y="0px"
	 width="75px" height="75px" viewBox="0 0 75 75" enable-background="new 0 0 75 75" xml:space="preserve">
<path fill="#02C1A2" d="M37.5,0C16.822,0,0,16.822,0,37.5S16.822,75,37.5,75S75,58.178,75,37.5S58.178,0,37.5,0z"/>
<path fill="#FFFFFF" d="M20.604,34.88c0,0,0-0.009-0.009-0.009v-0.009h-0.009c0.009,0,0.009,0.009,0.009,0.009
	S20.604,34.872,20.604,34.88z M21.319,48.521c-0.009-0.009-0.026-0.009-0.035-0.009h-0.018L21.319,48.521z M53.709,48.45
	c-0.009,0-0.018,0-0.026,0.009h-0.009c0,0,0,0-0.009,0.009h0.009c0.009-0.009,0.009-0.009,0.009-0.009c0.009,0,0.018,0,0.026,0
	V48.45z M19.634,35.684c-0.009,0-0.018,0-0.018,0c-0.053-0.009-0.141-0.018-0.22-0.018c-0.177,0.009-0.353,0.035-0.521,0.105
	c-0.344,0.124-0.574,0.335-0.645,0.574c-0.018,0.132-0.026,0.238,0.036,0.468l0.159,0.714l0.715,2.85
	c0.22,0.962,0.521,1.862,0.785,2.788l0.794,2.851l0.344,1.429c0.097,0.406,0.247,0.892,0.362,1.086c-0.018,0-0.036,0-0.053,0
	c0.036,0.018,0.044,0.026,0.053,0.026c0.009,0.009,0.018,0.009,0.026,0.018c-0.009-0.009-0.018-0.026-0.026-0.044
	c0.079,0.009,0.15,0.018,0.3,0.062c0.203,0.044,0.379,0.105,0.503,0.177c0.141,0.062,0.273,0.141,0.406,0.238
	c0.503,0.344,0.917,0.882,1.103,1.509l0.3,1.499c0.097,0.494,0.238,0.936,0.371,1.395l0.379,1.358l0.468,1.377
	c0.265,0.935,0.679,1.791,1.006,2.603c0.132,0.194,0.265,0.424,0.397,0.608c0.124,0.177,0.256,0.345,0.397,0.53
	c0.291,0.361,0.618,0.705,0.944,1.05c1.323,1.367,2.806,2.629,4.367,3.705c0.397,0.273,0.785,0.529,1.2,0.75
	c0.397,0.238,0.82,0.424,1.156,0.512c0.088,0,0.097,0.035,0.238,0.026h0.362h0.732h1.474l1.465,0.027l0.724,0.018l0.37,0.009
	c0,0,0.009,0,0.026,0c0.009,0,0.018,0,0.026,0l0.054-0.009l0.185-0.026c0.221-0.063,0.291-0.08,0.529-0.186
	c0.203-0.089,0.406-0.194,0.601-0.309c0.414-0.221,0.829-0.468,1.209-0.741c1.57-1.086,3.044-2.356,4.394-3.724
	c0.652-0.68,1.279-1.412,1.721-2.18l0.547-1.323c0.194-0.45,0.309-0.9,0.459-1.358l0.432-1.351l0.38-1.402
	c0.123-0.459,0.273-0.936,0.344-1.377l0.282-1.446c0.054-0.256,0.247-0.706,0.433-0.927c0.088-0.133,0.203-0.247,0.317-0.361
	c0.098-0.115,0.229-0.212,0.354-0.301c0.256-0.185,0.547-0.326,0.873-0.423c0.088-0.035,0.212-0.054,0.345-0.071
	c-0.019,0.027-0.036,0.054-0.045,0.071c0.018-0.018,0.054-0.054,0.098-0.071c-0.018,0-0.035,0-0.053,0
	c0.097-0.202,0.256-0.661,0.353-1.032l0.388-1.42c0.054-0.247,0.133-0.494,0.229-0.75c0.054-0.194,0.124-0.459,0.194-0.688
	l0.38-1.412c0.247-0.943,0.556-1.888,0.741-2.832l0.644-2.823l0.15-0.706l0.026-0.088c0-0.009,0-0.018-0.018-0.026
	c-0.053-0.071-0.053-0.132-0.035-0.194c0.009-0.079,0-0.07,0-0.079c-0.009-0.018,0.009-0.018,0-0.044
	c-0.009-0.176-0.168-0.406-0.503-0.556c-0.142-0.08-0.327-0.124-0.503-0.15c-0.142-0.044-0.354,0.044-0.247-0.044
	c0.009-0.009,0.009-0.018,0.009-0.026c-0.063,0.088-0.035,0.044-0.054,0.071l-0.018,0.018c-0.026,0.035-0.062,0.062-0.105,0.088
	c-0.079,0.053-0.15,0.106-0.309,0.124c-0.124,0.027-0.265,0-0.38-0.07c-0.132-0.071-0.149-0.097-0.203-0.167
	c-0.07-0.097-0.105-0.177-0.123-0.221c-0.079-0.221-0.088-0.353-0.105-0.503c-0.01-0.273-0.01-0.529-0.01-0.785
	c0-0.512,0.054-1.015,0.106-1.518c0.044-0.485,0.062-0.962,0.15-1.474c0-0.009,0-0.009,0-0.018l0.009-0.044
	c0.018-0.397,0.044-0.803,0.088-1.2l0.715-0.212c0.123-0.026,0.247-0.053,0.37-0.079c-0.07,0.547-0.158,1.103-0.212,1.659
	l-0.009,0.044v0.026c-0.088,0.274-0.149,0.574-0.185,0.874c-0.089,0.626-0.089,1.288-0.045,1.915
	c0.009,0.132,0.018,0.265,0.036,0.388c-0.159,0.044-0.345,0.133-0.548,0.318l-0.07,0.071l-0.009,0.018
	c0.009-0.018,0.035-0.027,0.053-0.044c0.044-0.035,0.089-0.07,0.221-0.088c0.098-0.018,0.203,0,0.3,0.053
	c0.089,0.062,0.089,0.062,0.133,0.106c0.009,0.018,0.018,0.035,0.026,0.044c-0.018-0.035-0.044-0.124-0.062-0.194
	c-0.018-0.088-0.035-0.186-0.044-0.283c0.211-0.07,0.396-0.062,0.582-0.079c0.317,0.009,0.626,0.053,0.927,0.159
	c0.291,0.106,0.6,0.256,0.864,0.494c0.265,0.247,0.494,0.583,0.591,0.962c0.053,0.176,0.063,0.503,0.063,0.608
	c0,0.062,0,0.124-0.08,0.177c0,0.009-0.009,0.009-0.009,0.018c-0.009,0.035,0-0.044-0.018,0.088l-0.018,0.044l-0.018,0.088
	l-0.186,0.723l-0.715,2.895c-0.485,1.905-1.05,3.812-1.544,5.638l-0.3,1.438c-0.141,0.512-0.168,0.961-0.617,1.641l-0.098,0.133
	c-0.07,0.07-0.185,0.149-0.282,0.202c-0.053,0.027-0.114,0.054-0.168,0.071l-0.044,0.009l-0.044,0.018
	c0.026,0-0.238,0.026-0.203,0.026c-0.062,0.018-0.097,0-0.193,0.035c-0.133,0.035-0.301,0.097-0.433,0.203
	c-0.088,0.044-0.15,0.097-0.203,0.158c-0.07,0.054-0.141,0.115-0.177,0.186c-0.044,0.071-0.105,0.133-0.114,0.186
	c-0.018,0.07-0.079,0.044-0.097,0.194l-0.31,1.438c-0.105,0.521-0.265,0.971-0.405,1.456l-0.415,1.421l-0.503,1.429
	c-0.317,0.997-0.706,1.81-1.146,2.788c-0.539,0.927-1.218,1.686-1.897,2.409c-1.403,1.438-2.911,2.735-4.553,3.873
	c-0.415,0.282-0.838,0.565-1.279,0.821c-0.221,0.132-0.45,0.256-0.697,0.361c-0.194,0.114-0.6,0.247-0.847,0.309l-0.186,0.026
	l-0.07,0.018c0,0,0,0-0.009,0s-0.115,0.009-0.106,0.009h-0.026h-0.044l-0.379,0.009l-0.724,0.009l-1.465,0.027l-1.474,0.009
	l-0.732-0.009H34.96c-0.115,0.009-0.335-0.027-0.503-0.054c-0.609-0.158-1.085-0.396-1.526-0.652
	c-0.45-0.256-0.874-0.529-1.297-0.812c-1.641-1.156-3.15-2.444-4.562-3.892c-0.335-0.361-0.679-0.741-1.006-1.138
	c-0.159-0.194-0.317-0.424-0.476-0.636c-0.159-0.221-0.283-0.414-0.406-0.626c-0.441-0.997-0.847-1.915-1.147-2.859l-0.458-1.411
	l-0.415-1.465c-0.141-0.485-0.291-0.971-0.388-1.447l-0.282-1.376c-0.08-0.309-0.291-0.601-0.591-0.803
	c-0.132-0.106-0.344-0.186-0.423-0.212c-0.009-0.035-0.167-0.035-0.273-0.053c-0.009,0-0.018,0-0.026,0l-0.062-0.009
	c-0.044-0.009-0.106-0.018-0.159-0.036c-0.097-0.026-0.167-0.07-0.238-0.114c-0.053-0.044-0.115-0.097-0.167-0.142l-0.106-0.132
	c-0.441-0.645-0.485-1.103-0.626-1.605l-0.344-1.43l-0.785-2.797c-0.247-0.962-0.529-1.933-0.732-2.886l-0.635-2.867l-0.176-0.706
	c-0.071-0.256-0.115-0.644-0.044-0.988c0.168-0.741,0.777-1.227,1.333-1.447c0.282-0.114,0.591-0.176,0.909-0.203
	c0.132-0.009,0.282,0,0.45,0.026c0,0.106-0.009,0.221-0.026,0.318c-0.009,0.062-0.027,0.132-0.027,0.176
	c0.009-0.009,0.027-0.026,0.053-0.053c0.044-0.053,0.044-0.053,0.15-0.124c0.115-0.062,0.229-0.071,0.344-0.062
	c0.15,0.026,0.176,0.062,0.22,0.088c0.027,0.018,0.053,0.035,0.062,0.044c-0.009-0.009-0.018-0.026-0.035-0.044l-0.044-0.026
	c-0.026-0.027-0.026-0.036-0.079-0.08c-0.071-0.044-0.15-0.097-0.221-0.132c-0.186-0.08-0.221-0.071-0.335-0.106
	c-0.018,0-0.044-0.009-0.062,0c0.009-0.115,0.009-0.221,0.009-0.335c0-0.697-0.044-1.42-0.15-2.1
	c-0.036-0.221-0.08-0.433-0.124-0.635c-0.177-0.574-0.371-1.183-0.574-1.729l1.571,0.186c0.124,0.397,0.229,0.776,0.353,1.182
	l0.009,0.018v0.018c0.221,1.068,0.238,2.056,0.221,3.088c-0.009,0.256-0.026,0.521-0.07,0.803c-0.036,0.15-0.044,0.282-0.124,0.512
	c-0.027,0.053-0.062,0.141-0.15,0.238c-0.062,0.08-0.079,0.106-0.22,0.185c-0.141,0.071-0.292,0.106-0.433,0.08
	c-0.176-0.026-0.238-0.08-0.3-0.124c-0.035-0.018-0.08-0.044-0.106-0.071l-0.035-0.053l-0.009-0.009
	c-0.009-0.009-0.009-0.009-0.018-0.018L19.634,35.684z M19.625,35.675c-0.009-0.009-0.018-0.018-0.018-0.027h-0.009
	C19.607,35.666,19.616,35.675,19.625,35.675z"/>
<path fill="#FFFFFF" d="M57.988,29.075l0.009,0.062c-0.6,0.08-1.447,0.247-2.462,0.468c0-0.009,0-0.018,0-0.027l-0.37,0.106
	c-4.65,1.015-12.503,2.938-17.655,2.779c-4.915,0.15-12.273-1.588-16.984-2.629c-1.491-0.326-2.718-0.582-3.512-0.697l0.009-0.062
	c1.271-0.105,3.185-2.461,3.361-11.17C20.552,9.188,33.098,7.758,37.51,7.758c4.411,0,16.949,1.429,17.108,10.146
	C54.794,26.613,56.727,28.969,57.988,29.075z"/>
<path fill="#FFFFFF" d="M55.535,29.578c0,0.009,0,0.018,0,0.027c-0.123,0.026-0.247,0.053-0.37,0.079L55.535,29.578z"/>
<path fill="#FFFFFF" d="M55.227,34.986c-0.009-0.009-0.018-0.026-0.026-0.044c-0.044-0.044-0.044-0.044-0.133-0.106
	c-0.097-0.053-0.202-0.071-0.3-0.053c-0.132,0.018-0.177,0.053-0.221,0.088c-0.018,0.018-0.044,0.027-0.053,0.044l0.009-0.018
	l0.07-0.071c0.203-0.185,0.389-0.273,0.548-0.318c0.009,0.097,0.026,0.194,0.044,0.283C55.183,34.863,55.209,34.951,55.227,34.986z"
	/>
<path fill="#FFFFFF" d="M53.674,48.459v0.009h-0.009C53.674,48.459,53.674,48.459,53.674,48.459z"/>
<path fill="#FFFFFF" d="M53.595,48.468c0.018,0,0.035,0,0.053,0c-0.044,0.018-0.08,0.054-0.098,0.071
	C53.559,48.521,53.576,48.495,53.595,48.468z"/>
<path fill="#FFFFFF" d="M21.425,48.53c0.009,0.018,0.018,0.035,0.026,0.044c-0.009-0.009-0.018-0.009-0.026-0.018
	c-0.009,0-0.018-0.009-0.053-0.026C21.39,48.53,21.408,48.53,21.425,48.53z"/>
<path fill="#FFFFFF" d="M20.534,34.801c0.018,0.018,0.026,0.035,0.035,0.044c-0.009-0.009-0.035-0.026-0.062-0.044
	c-0.044-0.026-0.07-0.062-0.22-0.088c-0.115-0.009-0.229,0-0.344,0.062c-0.106,0.07-0.106,0.07-0.15,0.124
	c-0.026,0.026-0.044,0.044-0.053,0.053c0-0.044,0.018-0.115,0.027-0.176c0.018-0.097,0.026-0.212,0.026-0.318
	c0.018-0.009,0.044,0,0.062,0c0.115,0.035,0.15,0.026,0.335,0.106c0.07,0.035,0.15,0.088,0.221,0.132
	c0.053,0.044,0.053,0.053,0.079,0.08L20.534,34.801z"/>
<path fill="#FFFFFF" d="M19.634,35.684l0.009,0.009C19.643,35.692,19.634,35.692,19.634,35.684z"/>
<path fill="#FFFFFF" d="M19.607,35.648c0,0.009,0.009,0.018,0.018,0.027c-0.009,0-0.018-0.009-0.026-0.027H19.607z"/>
<g>
	<path fill="none" stroke="#FFFFFF" stroke-width="1.7646" stroke-miterlimit="10" d="M54.688,32.348
		c0.114-0.026,0.265-0.07,0.441-0.141c1.526-0.609,5.028-2.814,3.74-3.105c-0.158-0.036-0.458-0.018-0.873,0.035
		c-0.6,0.08-1.447,0.247-2.462,0.468c-0.123,0.026-0.247,0.053-0.37,0.079c-4.65,1.015-12.503,2.938-17.655,2.779
		c-4.915,0.15-12.273-1.588-16.984-2.629c-1.491-0.326-2.718-0.582-3.512-0.697c-0.415-0.053-0.715-0.071-0.874-0.035
		c-1.262,0.291,1.977,2.294,3.512,2.92c0.203,0.079,0.379,0.141,0.512,0.167"/>
	<path fill="none" stroke="#FFFFFF" stroke-width="1.7646" stroke-miterlimit="10" d="M57.988,29.075
		c-1.262-0.105-3.194-2.461-3.37-11.17C54.459,9.188,41.921,7.758,37.51,7.758c-4.412,0-16.958,1.429-17.126,10.146
		c-0.176,8.708-2.091,11.064-3.361,11.17"/>
</g>
</svg>
