<?xml version="1.0" encoding="utf-8"?>
<!-- Generator: Adobe Illustrator 16.0.3, SVG Export Plug-In . SVG Version: 6.00 Build 0)  -->
<!DOCTYPE svg PUBLIC "-//W3C//DTD SVG 1.1//EN" "http://www.w3.org/Graphics/SVG/1.1/DTD/svg11.dtd">
<svg version="1.1" id="Слой_1" xmlns="http://www.w3.org/2000/svg" xmlns:xlink="http://www.w3.org/1999/xlink" x="0px" y="0px"
	 width="75px" height="75px" viewBox="0 0 75 75" enable-background="new 0 0 75 75" xml:space="preserve">
<path fill="#02C1A2" d="M37.5,0C16.822,0,0,16.823,0,37.5C0,58.178,16.822,75,37.5,75S75,58.178,75,37.5C75,16.823,58.178,0,37.5,0z
	"/>
<g>
	<path fill="#FFFFFF" d="M21.878,31.094c0.203,1.011,0.224,1.927,0.201,2.897c-0.009,0.243-0.025,0.487-0.063,0.755
		c-0.024,0.142-0.038,0.267-0.123,0.489c-0.021,0.049-0.059,0.134-0.136,0.231c-0.069,0.072-0.084,0.106-0.218,0.184
		c-0.136,0.072-0.279,0.103-0.429,0.08c-0.07-0.008-0.157-0.035-0.2-0.057c-0.036-0.018-0.072-0.039-0.105-0.061
		c-0.034-0.023-0.066-0.048-0.097-0.075l-0.045-0.047l-0.042-0.048c0.021,0.022-0.103-0.121,0.036,0.038l-0.03-0.029
		c-0.015-0.012-0.056-0.058-0.048-0.042c0.016,0.024,0.038,0.044,0.062,0.056c0.079,0.025-0.01,0.002-0.005,0.001
		c-0.047-0.009-0.116-0.018-0.192-0.015c-0.151,0.005-0.322,0.032-0.474,0.089c-0.314,0.114-0.516,0.306-0.566,0.507
		c-0.019,0.122-0.032,0.213,0.017,0.421l0.148,0.668l0.671,2.659c0.21,0.898,0.49,1.733,0.732,2.6l0.75,2.662l0.316,1.335
		c0.095,0.402,0.25,0.899,0.355,1.038l0.006,0.013c-0.006-0.011-0.022-0.028-0.038-0.035c-0.015-0.005-0.033-0.014-0.083-0.037
		c-0.021-0.008-0.044-0.013-0.066-0.015h-0.033c-0.074-0.002,0.059,0.008,0.058,0.007c0.128,0.021,0.189,0.007,0.395,0.065
		c0.184,0.046,0.351,0.106,0.471,0.172c0.137,0.061,0.264,0.135,0.382,0.224c0.481,0.33,0.878,0.834,1.046,1.435l0.292,1.405
		c0.08,0.458,0.22,0.866,0.337,1.293l0.362,1.271l0.428,1.281c0.261,0.882,0.623,1.648,0.953,2.444
		c0.092,0.136,0.234,0.385,0.351,0.542c0.127,0.163,0.235,0.323,0.374,0.49c0.275,0.337,0.569,0.663,0.874,0.985
		c1.239,1.267,2.618,2.444,4.078,3.449c0.363,0.253,0.735,0.491,1.109,0.697c0.368,0.219,0.77,0.393,1.068,0.473
		c0.074,0,0.077,0.03,0.208,0.025h0.343l0.685-0.002l1.371,0.005l1.37,0.023l0.685,0.016l0.342,0.008l0.043,0.001l0.022,0.001
		c0.023-0.001-0.131,0.009-0.056,0.004l0.085-0.013l0.169-0.022c0.204-0.062,0.256-0.071,0.48-0.175
		c0.188-0.081,0.377-0.171,0.567-0.281c0.379-0.204,0.759-0.437,1.121-0.692c1.464-1.011,2.845-2.191,4.086-3.465
		c0.603-0.623,1.217-1.362,1.592-1.992c0.345-0.846,0.72-1.692,0.951-2.535l0.399-1.263l0.352-1.305
		c0.112-0.433,0.253-0.879,0.315-1.288l0.262-1.347c0.058-0.245,0.24-0.68,0.416-0.88c0.085-0.132,0.188-0.241,0.3-0.344
		c0.104-0.111,0.22-0.207,0.346-0.288c0.241-0.18,0.512-0.312,0.822-0.4c0.142-0.056,0.341-0.068,0.517-0.087
		c0.048-0.004-0.283,0.033-0.134,0.015l0.021-0.005l0.042-0.01c0.008-0.002,0.041-0.008,0.028-0.008
		c-0.029,0.001-0.059,0.007-0.088,0.018c-0.057,0.019-0.115,0.064-0.14,0.095l0.002-0.007c0.093-0.113,0.261-0.612,0.371-1.008
		l0.358-1.324c0.063-0.231,0.125-0.461,0.217-0.709c0.057-0.172,0.12-0.427,0.181-0.637l0.364-1.32
		c0.229-0.881,0.515-1.763,0.692-2.642l0.589-2.633l0.148-0.658l0.019-0.082l0.009-0.041c-0.019,0.119-0.007,0.021-0.011,0.041
		c-0.004-0.007-0.004-0.015-0.01-0.022c-0.059-0.064-0.062-0.122-0.043-0.177c0.017-0.078,0.004-0.07,0.004-0.074
		c-0.005-0.008,0.01-0.007,0.005-0.026c0-0.145-0.142-0.352-0.438-0.494c-0.141-0.071-0.306-0.115-0.456-0.136
		c-0.137-0.042-0.326,0.046-0.202-0.056c0.007-0.008,0.012-0.019,0.015-0.029c-0.077,0.093-0.039,0.043-0.063,0.073l-0.017,0.015
		c-0.03,0.032-0.065,0.063-0.104,0.091c-0.072,0.051-0.152,0.1-0.304,0.122c-0.136,0.02-0.265-0.01-0.386-0.075
		c-0.122-0.071-0.135-0.104-0.195-0.168c-0.069-0.09-0.103-0.17-0.119-0.217c-0.071-0.209-0.076-0.334-0.091-0.472
		c-0.019-0.263-0.018-0.503-0.014-0.744c0.009-0.478,0.056-0.945,0.099-1.413c0.046-0.47,0.053-0.936,0.153-1.441l-0.013,0.065
		c0.076-1.17,0.197-2.353,0.236-3.511l0.076-1.74l0.039-0.869l0.01-0.217l0.004-0.108l0.004-0.054l0.001-0.027
		c-0.007-0.097,0.011,0.117,0.008,0.091l-0.004-0.014c-0.032-0.129-0.053-0.334-0.106-0.355c-0.047-0.081-0.209-0.356-0.354-0.56
		c-0.163-0.219-0.324-0.437-0.511-0.652c-0.356-0.432-0.754-0.852-1.15-1.268c-0.803-0.829-1.652-1.629-2.515-2.415l-1.305-1.167
		l-0.663-0.577l-0.082-0.071l-0.011-0.009c-0.022-0.019,0.157,0.127,0.076,0.062l-0.023-0.015l-0.047-0.029l-0.187-0.119
		c-0.135-0.099-0.228-0.121-0.322-0.155l-0.288-0.117l-0.39-0.135c-0.254-0.094-0.523-0.175-0.798-0.252
		c-0.537-0.167-1.101-0.299-1.654-0.439c-2.242-0.523-4.534-0.953-6.806-1.204c-1.126-0.155-2.268-0.363-3.328-0.364
		c-0.274-0.016-0.49,0.027-0.743,0.038c-0.104,0.019-0.164,0.052-0.252,0.069c-0.041,0.014-0.087,0.009-0.125,0.034l-0.194,0.106
		c-0.52,0.281-1.044,0.562-1.515,0.852c-0.962,0.578-1.931,1.222-2.703,1.945c-0.202,0.179-0.361,0.367-0.512,0.545l-0.272,0.383
		l-0.025,0.029l-0.093,0.089c-0.065,0.058-0.138,0.11-0.212,0.154c-0.144,0.078-0.2,0.085-0.308,0.121
		c-0.169,0.041-0.304,0.048-0.412,0.05l-0.237-0.003l-0.015,0l-0.006,0l-0.003-0.001c0.184-0.027,0.043-0.005,0.08-0.01
		l-0.107,0.022l-0.434,0.089c-0.228,0.092-0.37,0.149-0.596,0.259c-0.906,0.479-1.763,1.211-2.403,2.044
		c-0.323,0.424-0.565,0.856-0.763,1.333c-0.221,0.573-0.384,1.054-0.511,1.593c-0.144,0.534-0.207,1.07-0.237,1.585
		c0.009,0.247,0.006,0.502,0.059,0.708c0.009,0.123,0.053,0.196,0.083,0.278l0.021,0.063l0.011,0.032l0.045,0.096l0.09,0.203
		c0.117,0.273,0.242,0.53,0.353,0.817l0.314,0.893c0.203,0.597,0.37,1.146,0.54,1.734l0.007,0.024L21.878,31.094z M20.522,31.424
		c-0.164-0.536-0.349-1.103-0.531-1.612L19.71,29.04c-0.104-0.261-0.241-0.533-0.361-0.799l-0.186-0.417
		c-0.084-0.19-0.163-0.386-0.185-0.561c-0.092-0.369-0.095-0.705-0.109-1.047c0.022-0.66,0.097-1.302,0.247-1.91
		c0.13-0.611,0.341-1.252,0.535-1.781c0.237-0.62,0.566-1.225,0.952-1.745c0.784-1.042,1.736-1.903,2.898-2.553
		c0.294-0.161,0.706-0.323,1.027-0.433l0.431-0.098l0.108-0.024l0.107-0.018l0.024,0l0.049-0.003l0.096-0.003l0.205,0
		c0.039-0.002,0.051-0.008,0.025-0.001c-0.039,0.008-0.021,0.002-0.102,0.041c-0.044,0.023-0.085,0.055-0.12,0.093
		c-0.017,0.018-0.033,0.039-0.046,0.06c-0.007,0.011,0.008-0.01,0.011-0.013l0.033-0.044l0.018-0.021
		c-0.152,0.226-0.037,0.054-0.068,0.1l0.01-0.015l0.078-0.122l0.16-0.241c0.219-0.28,0.443-0.542,0.678-0.76
		c0.935-0.907,1.936-1.586,2.977-2.244c0.527-0.338,1.037-0.623,1.549-0.914l0.192-0.109c0.088-0.052,0.19-0.083,0.286-0.125
		c0.192-0.072,0.405-0.159,0.587-0.203c0.333-0.055,0.696-0.15,1.012-0.171c1.296-0.135,2.514-0.122,3.726,0.001
		c1.209,0.138,2.39,0.375,3.568,0.613c1.175,0.251,2.344,0.53,3.502,0.871c0.58,0.179,1.157,0.346,1.737,0.558
		c0.289,0.098,0.578,0.203,0.871,0.328l0.438,0.178c0.164,0.074,0.346,0.168,0.515,0.255c0.173,0.09,0.352,0.185,0.452,0.267
		l0.18,0.128l0.046,0.032l0.021,0.016l0.099,0.079l0.01,0.009l0.081,0.078l0.64,0.621l1.266,1.26
		c0.836,0.849,1.659,1.713,2.449,2.621c0.393,0.459,0.784,0.918,1.151,1.416c0.188,0.241,0.363,0.506,0.538,0.77
		c0.169,0.295,0.333,0.515,0.495,0.987c0.095,0.24,0.08,0.339,0.112,0.496l0.003,0.014c-0.001-0.019,0.017,0.206,0.008,0.118
		L54.734,24.7l-0.006,0.056l-0.012,0.112l-0.021,0.224l-0.087,0.895l-0.175,1.787c-0.105,1.195-0.287,2.352-0.428,3.53l-0.005,0.045
		l-0.006,0.02c-0.249,0.786-0.273,1.733-0.205,2.595c0.015,0.217,0.039,0.433,0.08,0.623c0.018,0.088,0.05,0.19,0.061,0.194
		c0.001,0.007-0.001-0.022-0.038-0.067c-0.04-0.046-0.038-0.05-0.132-0.112c-0.096-0.054-0.197-0.069-0.305-0.061
		c-0.122,0.021-0.178,0.055-0.228,0.089c-0.025,0.019-0.05,0.041-0.068,0.065l0.012-0.017c-0.006,0.007,0.05-0.064-0.007,0.008
		l0.076-0.088c0.469-0.415,0.782-0.354,1.09-0.384c0.304,0.004,0.594,0.049,0.878,0.146c0.282,0.102,0.567,0.24,0.824,0.47
		c0.253,0.232,0.476,0.551,0.57,0.922c0.047,0.169,0.068,0.483,0.059,0.58c0.007,0.058-0.007,0.114-0.078,0.164l-0.062,0.231
		l-0.169,0.675l-0.678,2.699c-0.449,1.777-0.98,3.56-1.438,5.266l-0.276,1.342c-0.125,0.479-0.15,0.901-0.574,1.548l-0.105,0.127
		c-0.067,0.066-0.173,0.146-0.274,0.198c-0.052,0.027-0.105,0.05-0.157,0.069l-0.053,0.016l-0.042,0.01l-0.021,0.006
		c0.136-0.015-0.209,0.025-0.176,0.021c-0.05,0.017-0.084-0.004-0.157,0.027c-0.125,0.031-0.282,0.095-0.405,0.188
		c-0.07,0.04-0.131,0.087-0.184,0.145c-0.06,0.05-0.115,0.103-0.152,0.166c-0.044,0.059-0.101,0.121-0.108,0.16
		c-0.017,0.066-0.061,0.031-0.081,0.176l-0.037,0.167l-0.019,0.084l-0.01,0.042l-0.004,0.021c0.021-0.144,0.003-0.026,0.006-0.054
		l-0.075,0.359l-0.157,0.718c-0.095,0.492-0.243,0.915-0.37,1.364l-0.4,1.33l-0.469,1.337c-0.289,0.913-0.683,1.727-1.052,2.563
		c-0.55,0.948-1.144,1.599-1.798,2.299c-1.308,1.343-2.717,2.55-4.259,3.618c-0.386,0.266-0.775,0.529-1.195,0.768
		c-0.204,0.125-0.423,0.238-0.65,0.345c-0.183,0.104-0.573,0.232-0.807,0.285l-0.169,0.029l-0.086,0.014
		c0.063-0.004-0.106,0.008-0.097,0.007l-0.022,0.001h-0.043l-0.342,0.008l-0.685,0.017l-1.37,0.023l-1.371,0.004l-0.685-0.001
		h-0.343c-0.099,0.005-0.319-0.03-0.472-0.055c-0.582-0.15-1.017-0.373-1.437-0.614c-0.424-0.236-0.821-0.494-1.207-0.763
		c-1.546-1.074-2.956-2.285-4.267-3.634c-0.322-0.343-0.641-0.693-0.943-1.064c-0.153-0.184-0.305-0.4-0.455-0.601
		c-0.151-0.213-0.234-0.363-0.392-0.609c-0.384-0.886-0.791-1.779-1.05-2.653l-0.441-1.318l-0.388-1.365
		c-0.124-0.454-0.272-0.915-0.351-1.357l-0.265-1.279c-0.08-0.28-0.272-0.538-0.541-0.724c-0.113-0.097-0.319-0.173-0.376-0.193
		c-0.009-0.027-0.182-0.033-0.279-0.048c-0.015-0.001,0.104,0.005,0.017-0.001l-0.075-0.01c-0.051-0.008-0.101-0.02-0.15-0.034
		c-0.108-0.029-0.174-0.069-0.232-0.112c-0.061-0.042-0.125-0.091-0.174-0.139l-0.102-0.121c-0.41-0.621-0.449-1.044-0.59-1.517
		l-0.317-1.332l-0.733-2.614c-0.226-0.899-0.496-1.809-0.677-2.696l-0.596-2.675l-0.169-0.665c-0.067-0.233-0.107-0.607-0.038-0.934
		c0.156-0.71,0.736-1.174,1.267-1.378c0.274-0.111,0.557-0.171,0.86-0.192c0.151-0.01,0.313-0.004,0.489,0.027
		c0.113,0.034,0.144,0.016,0.321,0.101c0.075,0.037,0.149,0.082,0.216,0.13c0.058,0.044,0.053,0.045,0.082,0.07l0.031,0.029
		c0.149,0.169,0.035,0.036,0.064,0.07l-0.014-0.017c0,0-0.024-0.026-0.078-0.064c-0.021-0.015-0.046-0.028-0.07-0.037
		c-0.03-0.016-0.103-0.042-0.159-0.047c-0.121-0.012-0.237,0.005-0.347,0.065c-0.107,0.068-0.107,0.073-0.155,0.126
		c-0.045,0.052-0.053,0.088-0.055,0.083l0.029-0.178c0.02-0.186,0.028-0.398,0.029-0.612C20.771,33.114,20.708,32.197,20.522,31.424
		z"/>
	<path fill="#FFFFFF" d="M26.558,17.743c0.237,0.236,0.489,0.51,0.734,0.79l0.682,0.769c0.452,0.502,0.916,0.982,1.407,1.431
		c0.491,0.449,1.001,0.878,1.545,1.26c0.269,0.196,0.539,0.391,0.826,0.56c0.284,0.174,0.561,0.362,0.859,0.511
		c0.297,0.152,0.583,0.326,0.889,0.462l0.916,0.414c0.629,0.233,1.251,0.494,1.904,0.666c0.325,0.09,0.644,0.205,0.975,0.275
		l0.991,0.223c0.659,0.149,1.338,0.222,2.007,0.338l-0.422,0.669c-0.302-0.495-0.586-0.99-0.859-1.502
		c-0.139-0.253-0.268-0.519-0.396-0.784c-0.063-0.135-0.118-0.284-0.177-0.425c-0.063-0.128-0.103-0.354-0.143-0.527
		c-0.051-0.222,0.089-0.442,0.31-0.493c0.104-0.023,0.21-0.005,0.298,0.046l0.063,0.037l3.776,2.194l-0.637,0.44v-0.002
		c-0.053-0.519-0.104-0.99-0.021-1.583c0.039-0.152,0.034-0.32,0.271-0.589l0.05-0.047l0.025-0.022
		c-0.089,0.048,0.131-0.072,0.108-0.06l0.002-0.001l0.006-0.001l0.043-0.017l0.084-0.033c0.075-0.025,0.239-0.044,0.36-0.044
		c0.394,0.025,0.608,0.1,0.864,0.174l0.688,0.217c0.219,0.071,0.339,0.058,0.548,0.052c0.435-0.016,0.884-0.082,1.313-0.186
		c0.425-0.115,0.844-0.253,1.213-0.458c0.188-0.097,0.357-0.215,0.524-0.333c0.15-0.133,0.318-0.25,0.435-0.409
		c0.142-0.139,0.241-0.305,0.34-0.471c0.115-0.155,0.149-0.357,0.235-0.527c0.051-0.189,0.083-0.387,0.126-0.578l0.028-0.613
		l0.004-0.105c0.018-0.409,0.364-0.727,0.772-0.708c0.41,0.018,0.728,0.365,0.709,0.774c0,0.013-0.001,0.027-0.002,0.04
		l-0.082,0.833c-0.069,0.277-0.135,0.557-0.227,0.826c-0.131,0.259-0.217,0.54-0.395,0.774c-0.159,0.244-0.329,0.478-0.541,0.674
		c-0.191,0.218-0.426,0.375-0.649,0.547c-0.233,0.149-0.473,0.294-0.719,0.406c-0.493,0.236-1.007,0.376-1.521,0.487
		c-0.516,0.097-1.03,0.146-1.563,0.138c-0.274,0.001-0.642-0.042-0.879-0.143l-0.683-0.254c-0.201-0.08-0.454-0.142-0.541-0.159
		c0.001,0.005,0.041-0.036,0.001-0.033l-0.086,0.027l-0.044,0.015L42.9,23.705l-0.001,0c-0.024,0.013,0.193-0.105,0.103-0.056
		l0.011-0.006l0.019-0.015c0.071-0.091,0.001-0.013-0.006,0.069c-0.075,0.362-0.067,0.867-0.04,1.308v0.001l0.002,0.029
		c0.023,0.234-0.148,0.444-0.383,0.467c-0.093,0.009-0.182-0.013-0.255-0.056l-3.844-2.232l0.671-0.41
		c0.04,0.098,0.031,0.161,0.09,0.291c0.052,0.12,0.095,0.239,0.151,0.361c0.119,0.246,0.237,0.492,0.372,0.738
		c0.262,0.489,0.545,0.979,0.833,1.455l0.007,0.011c0.125,0.206,0.06,0.474-0.146,0.599c-0.089,0.053-0.188,0.072-0.284,0.059
		c-0.695-0.092-1.397-0.141-2.09-0.271l-1.041-0.192c-0.348-0.061-0.686-0.167-1.029-0.248c-0.691-0.156-1.358-0.403-2.033-0.625
		l-0.989-0.401c-0.331-0.133-0.645-0.306-0.968-0.458c-0.325-0.147-0.63-0.336-0.942-0.512c-0.315-0.171-0.613-0.369-0.911-0.568
		c-0.602-0.39-1.169-0.832-1.716-1.294c-0.548-0.461-1.064-0.958-1.556-1.464l-0.724-0.756c-0.221-0.232-0.443-0.458-0.705-0.701
		c-0.309-0.285-0.327-0.765-0.042-1.074c0.285-0.308,0.766-0.327,1.073-0.042c0.007,0.006,0.013,0.012,0.019,0.018L26.558,17.743z"
		/>
	<path fill="#FFFFFF" d="M28.054,19.826c0.166-0.05,0.263-0.069,0.308-0.063c0.046-0.006,0.033,0.037,0.06,0.119
		c0.031,0.137,0.046,0.286,0.042,0.428c-0.015,0.213-0.033,0.26-0.051,0.399c-0.045,0.215-0.088,0.426-0.146,0.623
		c-0.107,0.4-0.234,0.782-0.38,1.158c-0.298,0.747-0.63,1.475-1.04,2.162c-0.411,0.687-0.873,1.343-1.384,1.962
		c-0.275,0.294-0.543,0.594-0.847,0.861c-0.282,0.285-0.617,0.52-0.935,0.762H23.68c-0.171,0.154-0.435,0.143-0.592-0.026
		l-0.008-0.008c-0.302-0.322-0.573-0.641-0.832-0.999c-0.13-0.175-0.252-0.361-0.367-0.563c-0.055-0.106-0.111-0.206-0.162-0.317
		l-0.126-0.383l0.87-0.025c-0.114,0.793-0.241,1.577-0.39,2.365c-0.074,0.395-0.154,0.788-0.25,1.185
		c-0.05,0.199-0.102,0.399-0.168,0.605c-0.034,0.104-0.069,0.207-0.123,0.324c-0.027,0.059-0.055,0.119-0.108,0.198
		c-0.035,0.044-0.044,0.071-0.125,0.141c-0.042,0.032-0.054,0.05-0.124,0.084c-0.078,0.035-0.172,0.053-0.253,0.052
		c-0.243-0.015-0.429-0.223-0.414-0.466c0.014-0.244,0.223-0.429,0.466-0.415c-0.058-0.008-0.127,0.004-0.181,0.033
		c-0.047,0.027-0.044,0.022-0.065,0.041c-0.04,0.041-0.025,0.023-0.029,0.029c0.001-0.002,0.019-0.032,0.031-0.063
		c0.029-0.063,0.06-0.147,0.087-0.231c0.055-0.171,0.104-0.355,0.149-0.541c0.09-0.373,0.168-0.755,0.241-1.14
		c0.144-0.769,0.271-1.549,0.382-2.324c0.034-0.24,0.256-0.406,0.496-0.372c0.161,0.023,0.289,0.132,0.345,0.273l0.028,0.073
		c0.027,0.068,0.051,0.136,0.071,0.206c0.035,0.076,0.082,0.156,0.121,0.234c0.09,0.157,0.195,0.319,0.311,0.475
		c0.227,0.314,0.493,0.626,0.756,0.908l-0.601-0.034h0.001c0.242-0.277,0.503-0.527,0.727-0.818
		c0.238-0.274,0.442-0.578,0.652-0.874c0.413-0.601,0.785-1.23,1.107-1.887c0.309-0.663,0.611-1.329,0.843-2.017
		c0.121-0.341,0.233-0.687,0.318-1.026c0.049-0.172,0.077-0.336,0.109-0.495c0.006-0.052,0.025-0.193,0.024-0.17
		c-0.002,0.046,0.016,0.101,0.049,0.142c0.007,0.009,0.021,0.025,0.024,0.024c-0.005-0.011-0.006-0.024,0.014-0.046
		c0.03-0.04,0.113-0.104,0.266-0.2l0.013-0.008C27.512,20.029,27.787,19.908,28.054,19.826z"/>
	
		<path fill="#FFFFFF" stroke="#FFFFFF" stroke-width="0.8823" stroke-linecap="round" stroke-linejoin="round" stroke-miterlimit="10" d="
		M24.162,50.716c-5.715,0-6.873,0-7.976-3.971c-1.002-3.606-2.125-6.545-2.132-9.979c-0.004-2.026,7.059-4.928,7.059-4.928
		s0.146,3.969,1.028,9.439C23.024,46.745,24.162,50.716,24.162,50.716z"/>
	
		<path fill="#FFFFFF" stroke="#FFFFFF" stroke-width="0.8823" stroke-linecap="round" stroke-linejoin="round" stroke-miterlimit="10" d="
		M50.836,50.716c5.715,0,6.873,0,7.976-3.971c1.003-3.606,2.125-6.545,2.132-9.979c0.005-2.026-7.059-4.928-7.059-4.928
		s-0.146,3.969-1.028,9.439C51.974,46.745,50.836,50.716,50.836,50.716z"/>
	<path fill="#FFFFFF" d="M15.993,34.262c0,0-0.164-1.141-0.134-3.124c0.056-1.974,0.229-4.848,1.311-8.132
		c0.541-1.634,1.307-3.367,2.41-5.043c1.091-1.677,2.553-3.283,4.369-4.54c1.801-1.274,3.905-2.222,6.117-2.808
		c2.215-0.591,4.526-0.841,6.821-0.871c2.243,0.025,4.62,0.266,6.819,0.837c2.215,0.565,4.325,1.479,6.15,2.711
		c1.831,1.222,3.351,2.767,4.491,4.411c1.152,1.641,1.975,3.348,2.567,4.965c1.186,3.249,1.442,6.119,1.551,8.091
		c0.049,0.992,0.022,1.772,0,2.306c-0.024,0.532-0.056,0.827-0.056,0.827c-0.026,0.242-0.244,0.418-0.485,0.392
		c-0.23-0.025-0.401-0.228-0.395-0.456c0,0,0.009-0.262-0.006-0.773c-0.013-0.511-0.059-1.263-0.152-2.215
		c-0.19-1.898-0.657-4.624-1.859-7.632c-0.607-1.497-1.425-3.05-2.525-4.509c-1.091-1.466-2.509-2.785-4.151-3.876
		c-1.65-1.086-3.562-1.893-5.599-2.388c-2.055-0.501-4.14-0.698-6.349-0.704c-2.158,0.004-4.309,0.216-6.338,0.734
		c-2.029,0.514-3.926,1.346-5.549,2.466c-1.623,1.117-2.987,2.489-4.033,3.986c-1.055,1.49-1.822,3.069-2.382,4.584
		c-1.107,3.046-1.494,5.785-1.634,7.688c-0.144,1.915-0.082,2.997-0.082,2.998c0.014,0.243-0.172,0.452-0.416,0.465
		c-0.229,0.013-0.428-0.152-0.461-0.375L15.993,34.262z"/>
</g>
</svg>
