<?xml version="1.0" encoding="utf-8"?>
<!-- Generator: Adobe Illustrator 16.0.3, SVG Export Plug-In . SVG Version: 6.00 Build 0)  -->
<!DOCTYPE svg PUBLIC "-//W3C//DTD SVG 1.1//EN" "http://www.w3.org/Graphics/SVG/1.1/DTD/svg11.dtd">
<svg version="1.1" id="Слой_1" xmlns="http://www.w3.org/2000/svg" xmlns:xlink="http://www.w3.org/1999/xlink" x="0px" y="0px"
	 width="75px" height="75px" viewBox="0 0 75 75" enable-background="new 0 0 75 75" xml:space="preserve">
<path fill="#1A87CA" d="M37.5,0C16.822,0,0,16.822,0,37.5C0,58.178,16.822,75,37.5,75S75,58.178,75,37.5C75,16.822,58.178,0,37.5,0z
	"/>
<path fill="#FFFFFF" d="M50.452,37.066V8.021c0-0.488-0.395-0.882-0.883-0.882c-0.486,0-0.882,0.395-0.882,0.882v28.581
	c-0.959,0.354-2.105,1.301-2.664,2.358v-3.209c0-4.025-3.438-7.349-7.845-7.79c3.41-0.251,6.17-3.766,6.495-8.214h0.476
	c0.487,0,0.883-0.395,0.883-0.882c0-5.673-3.697-10.288-8.241-10.288c-4.301,0-7.843,4.145-8.201,9.406h-1.354
	c-0.487,0-0.883,0.395-0.883,0.882c0,0.487,0.396,0.882,0.883,0.882h2.681c0.311,4.256,2.846,7.662,6.047,8.169
	c-4.843,0.079-9.672,2.764-9.668,7.913l0.887,10.134c-0.461,0.029-0.829,0.402-0.829,0.871v5.488c0,0.488,0.396,0.883,0.883,0.883
	h0.114v2.746l-2.215,7.639c-0.352,1.207-0.212,2.479,0.393,3.58c0.604,1.1,1.603,1.9,2.812,2.252
	c0.427,0.123,0.867,0.186,1.309,0.186c1.696,0,3.23-0.904,4.072-2.357h10.42c0.488,0,0.883-0.395,0.883-0.881V53.193
	c0.42-0.068,0.741-0.432,0.741-0.871v-5.488c0-0.324-0.183-0.594-0.442-0.748l1.543-3.621c0.104,0.014,0.209,0.039,0.311,0.039l0,0
	c1.146,0,2.03-0.889,2.423-2.441C50.793,39.291,50.939,37.878,50.452,37.066z M46.284,41.674l-0.261,0.613v-0.936
	C46.099,41.465,46.185,41.572,46.284,41.674z M40.146,32.162c-0.429-0.125-0.871-0.188-1.314-0.188
	c-2.076,0-3.934,1.398-4.518,3.402l-2.592,8.943l-0.549-7.066c0-3.766,3.329-5.735,6.617-5.735c3.059,0,6.468,2.232,6.468,5.436v9
	h-3.21l2.312-7.963C44.074,35.5,42.632,32.886,40.146,32.162z M37.791,10.342c3.345,0,6.105,3.354,6.441,7.641H31.358
	C31.694,13.696,34.451,10.342,37.791,10.342z M32.688,19.748h10.216c-0.307,3.642-2.48,6.476-5.112,6.476
	C35.164,26.223,32.994,23.39,32.688,19.748z M37.183,29.673c0.456,0,0.901,0.041,1.334,0.112c-0.243-0.021-0.484-0.033-0.726-0.033
	c-4.165,0-8.382,2.577-8.379,7.568l0.667,8.632h-0.126l-0.896-10.201C29.057,31.761,33.145,29.673,37.183,29.673z M30.648,67.844
	c-0.275,0-0.55-0.039-0.816-0.117c-0.755-0.221-1.379-0.719-1.757-1.406s-0.465-1.482-0.245-2.238l8.179-28.215
	c0.365-1.253,1.526-2.129,2.823-2.129c0.275,0,0.553,0.04,0.821,0.118c1.555,0.453,2.456,2.089,2.011,3.645l-8.183,28.201
	c-0.037,0.117-0.073,0.227-0.111,0.322c0,0.002,0,0.002-0.001,0.004l0,0C32.907,67.131,31.84,67.844,30.648,67.844z M48.567,40.426
	c-0.047,0.074-0.095,0.119-0.142,0.168c-0.074-0.238-0.238-0.447-0.486-0.553c-0.148-0.063-0.3-0.07-0.448-0.051
	c0.2-0.625,0.996-1.318,1.527-1.623C49.046,38.922,48.936,39.846,48.567,40.426z"/>
</svg>
