<?xml version="1.0" encoding="utf-8"?>
<!-- Generator: Adobe Illustrator 16.0.3, SVG Export Plug-In . SVG Version: 6.00 Build 0)  -->
<!DOCTYPE svg PUBLIC "-//W3C//DTD SVG 1.1//EN" "http://www.w3.org/Graphics/SVG/1.1/DTD/svg11.dtd">
<svg version="1.1" id="Слой_1" xmlns="http://www.w3.org/2000/svg" xmlns:xlink="http://www.w3.org/1999/xlink" x="0px" y="0px"
	 width="75px" height="75px" viewBox="0 0 75 75" enable-background="new 0 0 75 75" xml:space="preserve">
<path fill="none" stroke="#000000" stroke-width="2" stroke-miterlimit="10" d="M74.785,73.642"/>
<g>
	<path fill="#02C1A2" d="M37.5,0C16.822,0,0,16.822,0,37.5S16.822,75,37.5,75S75,58.178,75,37.5S58.178,0,37.5,0z"/>
	<g>
		<path fill="#FFFFFF" d="M55.741,13.509c-0.287-1.083-1.033-1.783-1.996-1.873c-0.757-0.073-1.514,0.241-2.177,0.847
			c-0.143-1.442-0.75-2.178-1.393-2.546c-1.252-0.715-2.815-0.127-3.679,0.798c-0.176-0.616-0.45-1.122-0.835-1.497
			c-0.603-0.588-1.435-0.843-2.347-0.715C42.021,8.702,41.019,9.472,40.19,11c-0.674-0.694-1.508-1.028-2.394-0.912
			c-2.227,0.286-4.02,3.182-4.68,7.559c-0.21,1.382-0.532,3.785-0.832,6.075c-0.441-1.059-1.102-1.34-1.973-1.237
			c-1.25,0.147-1.029,1.838-0.956,4.853s1.186,8.4,0.552,8.428c-0.665,0.029-1.948-8.722-2.169-10.266
			c-0.221-1.545-0.858-1.98-1.985-1.691c-1.36,0.349-1.149,2.954-1.029,4.788c0.304,4.632,0.911,8.14,0.515,8.227
			c-0.46,0.101-0.606-1.452-0.9-3.07s-0.438-3.947-0.662-5.073c-0.441-2.206-3.474-1.324-3.584,1.268
			c-0.137,3.196-0.166,6.894,0.331,11.471c0.373,3.441,1.599,8.878,1.947,12.903c0.317,3.646-1.544,11.43-0.293,11.305
			c1.103-0.11,21.027-1.158,24.483-1.378c0,0-2.206-4.779-3.677-7.794c-0.33-0.676-0.612-1.475-0.865-2.367
			c1.79,0.521,6.741,1.875,7.088,1.945c0.054,0.01,0.109,0.016,0.166,0.016c0.222,0,0.454-0.081,0.618-0.221
			c1.031-0.879,0.717-9.831,0.713-9.937c-0.145-3.763-0.362-9.449,0.134-12.144c0.503-2.73,2.61-10.669,3.416-12.87l0.301-0.806
			C55.286,17.858,56.229,15.352,55.741,13.509z M52.804,19.45l-0.306,0.818c-0.826,2.255-2.982,10.371-3.495,13.158
			c-0.532,2.886-0.31,8.689-0.161,12.546c0.12,3.142-0.009,6.645-0.176,8.121c-1.849-0.498-6.254-1.709-6.659-1.854
			c-0.15-0.056-0.302-0.053-0.447-0.027c-0.606-2.846-1.024-6.39-1.532-10.272c-0.496-3.787-1.128-11.927-1.985-16.047
			c-0.368-1.765-1.461-3.281-2.923-3.005c-1.153,0.217-0.754,3.979-0.606,6.038s0.414,5.707-0.055,5.68
			c-0.305-0.018-0.768-2.554-1.148-5.02c0.166-1.304,1.112-8.771,1.552-11.677c0.6-3.971,2.059-5.931,3.161-6.072
			c0.642-0.08,1.108,0.563,1.362,1.042c-0.276,0.795-0.534,1.703-0.777,2.75c-1.221,5.242-1.42,6.011-1.428,6.041
			c-0.123,0.472,0.157,0.954,0.629,1.078c0.075,0.02,0.15,0.029,0.225,0.029c0.392,0,0.748-0.262,0.853-0.657
			c0.008-0.029,0.201-0.772,1.439-6.091c1.279-5.488,2.599-5.672,3.232-5.76c0.364-0.052,0.662,0.026,0.872,0.23
			c0.27,0.261,0.678,1.003,0.473,2.99c-1.205,2.744-2.308,6.521-2.831,8.429c-0.129,0.47,0.147,0.955,0.617,1.084
			c0.079,0.021,0.157,0.032,0.234,0.032c0.387-0.001,0.743-0.258,0.85-0.649c1.441-5.247,3.009-9.342,3.995-10.432
			c0.432-0.479,1.147-0.707,1.531-0.487c0.6,0.344,0.91,1.98-0.177,5.458c-1.185,2.703-2.775,6.377-2.874,6.604
			c-0.193,0.447,0.012,0.967,0.459,1.16c0.45,0.194,0.967-0.012,1.161-0.459c0.035-0.083,3.579-8.268,4.066-9.29
			c0.571-1.196,1.309-1.583,1.646-1.549c0.259,0.024,0.391,0.322,0.455,0.567C54.378,15.258,53.505,17.582,52.804,19.45z"/>
		<path fill="#FFFFFF" d="M46.535,24.961c-2.276,0.118-4.293,3.469-6.004,6.6c-0.224,0.406-0.475,0.867-0.557,0.975
			c-0.305,0.378-0.247,0.933,0.13,1.239c0.379,0.31,0.935,0.25,1.241-0.127c0.162-0.199,0.342-0.524,0.733-1.241
			c0.758-1.387,3.064-5.605,4.547-5.683c0.1-0.008,0.395-0.02,0.809,0.581c1.612,2.338-2.557,10.515-4.413,13.229
			c-0.275,0.401-0.173,0.951,0.229,1.226c0.153,0.104,0.326,0.154,0.497,0.154c0.282,0,0.559-0.134,0.729-0.384
			c0.074-0.108,7.201-11.179,4.41-15.227C48.082,25.135,47.152,24.922,46.535,24.961z"/>
	</g>
</g>
</svg>
