<?xml version="1.0" encoding="utf-8"?>
<!-- Generator: Adobe Illustrator 16.0.3, SVG Export Plug-In . SVG Version: 6.00 Build 0)  -->
<!DOCTYPE svg PUBLIC "-//W3C//DTD SVG 1.1//EN" "http://www.w3.org/Graphics/SVG/1.1/DTD/svg11.dtd">
<svg version="1.1" id="Слой_1" xmlns="http://www.w3.org/2000/svg" xmlns:xlink="http://www.w3.org/1999/xlink" x="0px" y="0px"
	 width="75px" height="75px" viewBox="0 0 75 75" enable-background="new 0 0 75 75" xml:space="preserve">
<path fill="none" stroke="#000000" stroke-width="2" stroke-miterlimit="10" d="M74.785,73.642"/>
<g>
	<path fill="#1A87CA" d="M37.5,0C16.822,0,0,16.823,0,37.5C0,58.178,16.822,75,37.5,75S75,58.178,75,37.5C75,16.823,58.178,0,37.5,0
		z"/>
	<path fill="#FFFFFF" d="M58.081,33.937c-0.098-0.388-0.318-0.732-0.583-0.987c-0.273-0.247-0.573-0.406-0.873-0.529
		c-0.3-0.106-0.608-0.168-0.944-0.186c-0.142,0-0.282,0.009-0.441,0.035c-0.009-0.088-0.009-0.168-0.018-0.256
		c-0.035-0.918,0-1.924,0.212-2.753l0.009-0.044l0.009-0.044c0.133-1.262,0.318-2.497,0.415-3.785l0.167-1.915l0.088-0.961
		l0.019-0.248l0.01-0.114l0.009-0.062v-0.009c0-0.009,0-0.009,0-0.018c0-0.044-0.009-0.133-0.009-0.133v-0.018
		c-0.036-0.168-0.028-0.273-0.133-0.538c-0.177-0.512-0.354-0.741-0.539-1.059c-0.193-0.282-0.389-0.565-0.591-0.82
		c-0.397-0.529-0.821-1.023-1.244-1.51c-0.618-0.696-1.262-1.367-1.914-2.029c-0.239-0.256-0.494-0.502-0.741-0.75l-1.367-1.332
		l-0.688-0.661l-0.089-0.08l-0.105-0.088l-0.026-0.018l-0.053-0.035l-0.187-0.142c-0.113-0.088-0.3-0.186-0.484-0.273
		c-0.177-0.097-0.371-0.193-0.539-0.273l-0.467-0.186c-0.317-0.132-0.627-0.247-0.936-0.344c-0.617-0.229-1.235-0.406-1.853-0.592
		c-1.244-0.361-2.497-0.661-3.75-0.935c-1.262-0.256-2.522-0.503-3.82-0.653c-1.297-0.132-2.594-0.158-3.979-0.018
		c-0.335,0.026-0.715,0.124-1.067,0.186c-0.193,0.044-0.414,0.132-0.618,0.212c-0.105,0.044-0.212,0.07-0.3,0.123l-0.212,0.124
		c-0.546,0.309-1.094,0.608-1.658,0.971c-1.111,0.705-2.179,1.429-3.177,2.399c-0.247,0.229-0.484,0.503-0.723,0.803l-0.124,0.194
		h-0.008h-0.133l-0.098,0.009h-0.053h-0.026l-0.106,0.018l-0.114,0.027l-0.459,0.105c-0.344,0.114-0.775,0.282-1.085,0.458
		c-1.244,0.688-2.259,1.606-3.088,2.718c-0.415,0.548-0.769,1.191-1.015,1.854c-0.212,0.564-0.433,1.253-0.573,1.896
		c-0.159,0.653-0.238,1.341-0.266,2.038c0.018,0.362,0.018,0.724,0.115,1.111c0.025,0.186,0.105,0.389,0.194,0.592l0.202,0.441
		c0.124,0.291,0.273,0.582,0.38,0.855l0.309,0.838c0.193,0.548,0.389,1.156,0.564,1.729c0.203,0.838,0.265,1.817,0.273,2.735
		c0,0.114,0,0.221-0.009,0.335c-0.158-0.026-0.308-0.035-0.449-0.026c-0.318,0.026-0.619,0.088-0.909,0.203
		c-0.556,0.221-1.165,0.706-1.333,1.447c-0.07,0.344-0.025,0.732,0.045,0.988l0.176,0.705l0.645,2.868
		c0.194,0.953,0.486,1.923,0.724,2.885l0.785,2.807l0.344,1.42c0.149,0.504,0.194,0.962,0.618,1.615l0.105,0.124
		c0.054,0.043,0.124,0.097,0.186,0.14c0.053,0.045,0.123,0.09,0.238,0.115c0.044,0.018,0.097,0.026,0.15,0.036l0.062,0.009
		c0.105,0.018,0.282,0.025,0.3,0.052c0.071,0.027,0.3,0.106,0.423,0.212c0.292,0.212,0.513,0.494,0.601,0.803l0.282,1.377
		c0.08,0.476,0.238,0.971,0.37,1.456l0.415,1.455l0.478,1.413c0.272,0.934,0.714,1.887,1.12,2.831
		c0.167,0.266,0.256,0.424,0.414,0.653c0.168,0.212,0.326,0.44,0.485,0.636c0.327,0.396,0.661,0.775,1.015,1.138
		c1.395,1.447,2.911,2.745,4.562,3.891c0.415,0.282,0.839,0.565,1.288,0.812c0.451,0.257,0.909,0.495,1.526,0.653
		c0.159,0.025,0.389,0.063,0.494,0.063H35.3h0.731l1.465-0.009l1.474-0.018l0.732-0.019l0.371-0.009h0.044h0.018
		c-0.009,0,0.114-0.009,0.114-0.009l0.08-0.018l0.176-0.027c0.256-0.061,0.662-0.193,0.856-0.3c0.247-0.113,0.477-0.237,0.696-0.37
		c0.441-0.255,0.865-0.538,1.28-0.82c1.641-1.138,3.148-2.436,4.552-3.874c0.698-0.741,1.333-1.446,1.914-2.452
		c0.398-0.892,0.821-1.765,1.131-2.744l0.494-1.43l0.432-1.42c0.132-0.476,0.291-0.936,0.388-1.456l0.318-1.438
		c0.026-0.15,0.07-0.124,0.097-0.194c0.009-0.054,0.07-0.116,0.115-0.185c0.044-0.071,0.105-0.124,0.167-0.187
		c0.063-0.062,0.133-0.115,0.203-0.158c0.142-0.097,0.309-0.167,0.45-0.203c0.079-0.035,0.124-0.018,0.186-0.035
		c0.018,0,0.123-0.01,0.177-0.019l0.017-0.009l0.045-0.009l0.062-0.017c0.053-0.018,0.105-0.045,0.159-0.071
		c0.105-0.053,0.211-0.141,0.273-0.203l0.114-0.133c0.441-0.67,0.477-1.129,0.608-1.641l0.291-1.438
		c0.495-1.825,1.068-3.731,1.544-5.637l0.724-2.896l0.186-0.723l0.019-0.089l0.008-0.044c0.013-0.063,0.016-0.076,0.016-0.079
		c0,0,0-0.001,0.002-0.009c0.009,0,0.009-0.009,0.019-0.018c0.07-0.054,0.079-0.115,0.079-0.177
		C58.143,34.44,58.125,34.113,58.081,33.937z M26.803,14.817c0.839-0.785,1.871-1.474,2.911-2.1c0.504-0.31,1.068-0.609,1.624-0.909
		l0.203-0.114c0.044-0.026,0.097-0.026,0.142-0.044c0.096-0.019,0.167-0.054,0.282-0.08c0.273-0.009,0.512-0.062,0.803-0.044
		c1.146,0,2.373,0.212,3.581,0.38c2.436,0.264,4.897,0.723,7.307,1.288c0.591,0.158,1.191,0.3,1.773,0.477
		c0.291,0.088,0.582,0.176,0.855,0.282l0.415,0.141l0.317,0.133c0.106,0.044,0.211,0.07,0.353,0.167l0.194,0.133l0.053,0.035
		l0.019,0.009l0.034,0.026l0.698,0.627l1.394,1.262c0.203,0.193,0.405,0.388,0.608,0.582l-0.009,0.186
		c-0.045,0.211-0.079,0.423-0.133,0.626c-0.096,0.186-0.132,0.406-0.264,0.573c-0.106,0.186-0.212,0.362-0.371,0.513
		c-0.123,0.176-0.31,0.3-0.468,0.44c-0.186,0.133-0.37,0.256-0.574,0.361c-0.202,0.106-0.404,0.203-0.634,0.283
		c-0.212,0.088-0.45,0.141-0.671,0.211c-0.468,0.115-0.953,0.177-1.421,0.194c-0.229,0.009-0.362,0.026-0.6-0.053l-0.732-0.238
		c-0.273-0.079-0.503-0.159-0.917-0.186c-0.124,0-0.291,0.019-0.371,0.044l-0.088,0.036l-0.044,0.018h-0.009l-0.133,0.079
		l-0.009,0.009l-0.053,0.044c-0.238,0.283-0.238,0.459-0.274,0.618c-0.053,0.309-0.053,0.573-0.043,0.838l-3.345-1.941l-0.071-0.044
		c-0.088-0.053-0.192-0.07-0.3-0.044c-0.221,0.053-0.353,0.273-0.3,0.494c0.027,0.124,0.054,0.256,0.088,0.38
		c0.019,0.062,0.036,0.123,0.063,0.176c0.062,0.15,0.115,0.309,0.186,0.45c0.132,0.291,0.273,0.573,0.424,0.838
		c0.14,0.273,0.291,0.539,0.44,0.803c-0.423-0.062-0.838-0.132-1.253-0.22l-1.067-0.238c-0.354-0.08-0.697-0.194-1.041-0.292
		c-0.706-0.185-1.368-0.467-2.047-0.715l-0.979-0.44c-0.335-0.15-0.644-0.335-0.962-0.494c-0.317-0.159-0.617-0.361-0.917-0.547
		c-0.309-0.186-0.601-0.397-0.892-0.601c-0.582-0.414-1.13-0.873-1.659-1.35c-0.529-0.485-1.032-0.997-1.517-1.535l-0.732-0.829
		c-0.089-0.098-0.178-0.194-0.257-0.291C26.529,15.091,26.653,14.949,26.803,14.817z M24.632,14.773c0,0,0-0.009,0.009-0.009v0.009
		l-0.009,0.009V14.773z M19.559,25.229l-0.096-0.212l-0.045-0.097l-0.009-0.035l-0.026-0.07c-0.036-0.098-0.08-0.177-0.088-0.31
		c-0.063-0.229-0.063-0.503-0.071-0.776c0.035-0.556,0.106-1.129,0.256-1.711c0.133-0.574,0.309-1.095,0.547-1.712
		c0.212-0.512,0.477-0.979,0.83-1.438c0.688-0.9,1.605-1.694,2.585-2.215c0.246-0.114,0.405-0.177,0.653-0.282l0.467-0.097
		l0.063-0.009h0.008h0.247c0.115,0,0.257-0.009,0.424-0.045c0.098,0.098,0.187,0.194,0.282,0.292l0.768,0.812
		c0.529,0.547,1.076,1.076,1.668,1.57c0.582,0.494,1.182,0.971,1.826,1.385c0.317,0.213,0.636,0.424,0.979,0.609
		c0.327,0.186,0.652,0.388,1.006,0.547c0.344,0.159,0.679,0.345,1.032,0.494l1.059,0.424c0.715,0.238,1.43,0.503,2.171,0.671
		c0.37,0.088,0.732,0.202,1.103,0.272l1.112,0.203c0.74,0.142,1.49,0.194,2.231,0.291c0.098,0.018,0.203-0.008,0.291-0.062
		c0.203-0.123,0.266-0.388,0.142-0.591l-0.009-0.018c-0.309-0.512-0.608-1.032-0.891-1.562c-0.08-0.142-0.159-0.292-0.221-0.441
		l3.009,1.747c0.07,0.035,0.158,0.062,0.256,0.053c0.229-0.026,0.405-0.229,0.379-0.468v-0.026v-0.009
		c-0.035-0.468-0.044-1.006,0.035-1.403c0-0.018,0.009-0.044,0.009-0.062l0.026-0.009c0.044,0,0.01,0.035,0.01,0.035
		c0.105,0.018,0.379,0.079,0.591,0.168l0.732,0.273c0.255,0.106,0.644,0.15,0.926,0.15c0.573,0.009,1.121-0.044,1.668-0.15
		c0.274-0.07,0.546-0.114,0.82-0.212c0.274-0.079,0.538-0.194,0.803-0.309c0.256-0.124,0.512-0.273,0.759-0.433
		c0.238-0.186,0.485-0.353,0.689-0.582c0.229-0.203,0.404-0.459,0.572-0.715c0.186-0.247,0.273-0.547,0.415-0.82
		c0.009-0.026,0.017-0.062,0.026-0.089c0.3,0.283,0.573,0.565,0.847,0.848c0.416,0.45,0.839,0.899,1.218,1.367
		c0.194,0.229,0.362,0.468,0.539,0.706c0.149,0.212,0.316,0.512,0.361,0.591c0.044,0.018,0.07,0.177,0.105,0.318v0.009l-0.009,0.053
		v0.114l-0.018,0.229l-0.053,0.927l-0.097,1.861c-0.054,1.235-0.195,2.506-0.291,3.759c-0.195,1.05-0.248,1.985-0.266,3
		c0,0.053,0,0.114,0,0.168l-7.868,10.401c-0.411-0.048-0.826-0.077-1.246-0.077H31.69c-0.786,0-1.684,0.119-2.577,0.331
		l-7.47-10.194l-0.519-0.708l-0.039,0.028c0.016-1.014-0.012-1.987-0.221-3.037v-0.018l-0.009-0.018
		c-0.186-0.636-0.361-1.218-0.582-1.854l-0.336-0.952C19.823,25.803,19.691,25.528,19.559,25.229z M21.244,46.404h0.018
		c0.009,0,0.018,0,0.026,0.009L21.244,46.404z M22.559,46.871c-0.111-0.081-0.227-0.148-0.353-0.21
		c-0.133-0.071-0.309-0.133-0.495-0.178c-0.158-0.043-0.229-0.052-0.308-0.062c-0.124-0.193-0.274-0.68-0.362-1.084l-0.344-1.431
		l-0.803-2.849c-0.256-0.927-0.556-1.826-0.776-2.788l-0.724-2.852l-0.159-0.714c-0.054-0.221-0.035-0.336-0.017-0.468
		c0.061-0.238,0.291-0.45,0.635-0.574c0.168-0.07,0.353-0.097,0.521-0.105c0.089,0,0.159,0.009,0.221,0.018c0,0,0,0.009,0.008,0
		c0,0,0,0.009,0.01,0.009c0,0.009,0.009,0,0.009,0v0.009h0.009v0.009l0.017,0.018l0.045,0.044c0.026,0.027,0.063,0.054,0.097,0.08
		c0.035,0.018,0.07,0.044,0.106,0.062c0.044,0.018,0.132,0.044,0.202,0.053c0.077,0.014,0.152,0.01,0.226-0.005l7.007,9.56
		C25.826,43.99,23.893,45.039,22.559,46.871z M56.678,34.607l-0.018,0.089l-0.158,0.705l-0.636,2.824
		c-0.194,0.944-0.503,1.889-0.74,2.833l-0.398,1.411c-0.062,0.229-0.132,0.493-0.193,0.688c-0.098,0.257-0.159,0.504-0.229,0.75
		l-0.38,1.422c-0.105,0.379-0.256,0.846-0.371,1.041c-0.113,0.008-0.229,0.025-0.325,0.062c-0.14,0.041-0.268,0.095-0.393,0.151
		c-0.003-0.005-0.006-0.01-0.009-0.015c-1.187-1.729-2.878-2.951-4.901-3.565l6.547-9.172c0.141,0.07,0.291,0.105,0.44,0.08
		c0.185-0.027,0.273-0.08,0.362-0.142c0.043-0.035,0.088-0.071,0.123-0.115c0.009,0,0.019,0,0.027,0
		c0.044-0.009,0.113-0.018,0.193-0.009c0.158,0.018,0.335,0.053,0.485,0.124c0.317,0.132,0.494,0.335,0.512,0.503
		c0.009,0.018,0,0.026,0,0.035c0.009,0.009,0.025,0,0.009,0.088c-0.018,0.054-0.018,0.115,0.045,0.186c0,0.009,0,0.009,0.008,0.018
		V34.607z"/>
</g>
</svg>
