<?xml version="1.0" encoding="utf-8"?>
<!-- Generator: Adobe Illustrator 16.0.3, SVG Export Plug-In . SVG Version: 6.00 Build 0)  -->
<!DOCTYPE svg PUBLIC "-//W3C//DTD SVG 1.1//EN" "http://www.w3.org/Graphics/SVG/1.1/DTD/svg11.dtd">
<svg version="1.1" id="Слой_2" xmlns="http://www.w3.org/2000/svg" xmlns:xlink="http://www.w3.org/1999/xlink" x="0px" y="0px"
	 width="54px" height="54px" viewBox="0 0 54 54" enable-background="new 0 0 54 54" xml:space="preserve">
<rect fill="#E6E6E6" width="54" height="54"/>
<g>
	<path fill="#5C5C5C" d="M27,54.001C12.112,54.001,0,41.889,0,27C0,12.112,12.112,0,27,0s27,12.112,27,27
		C54,41.889,41.888,54.001,27,54.001z M27,3C13.766,3,3,13.766,3,27c0,13.233,10.766,24.001,24,24.001c13.233,0,24-10.768,24-24.001
		C51,13.766,40.233,3,27,3z"/>
	<rect x="12" y="12" fill="#5C5C5C" width="6" height="6"/>
	<rect x="20" y="12" fill="#5C5C5C" width="6" height="6"/>
	<rect x="28" y="12" fill="#5C5C5C" width="6" height="6"/>
	<rect x="36" y="12" fill="#5C5C5C" width="6" height="6"/>
	<rect x="12" y="20" fill="#5C5C5C" width="6" height="6"/>
	<rect x="20" y="20" fill="#5C5C5C" width="6" height="6"/>
	<rect x="28" y="20" fill="#5C5C5C" width="6" height="6"/>
	<rect x="36" y="20" fill="#5C5C5C" width="6" height="6"/>
	<rect x="12" y="28" fill="#5C5C5C" width="6" height="6"/>
	<rect x="20" y="28" fill="#5C5C5C" width="6" height="6"/>
	<rect x="28" y="28" fill="#5C5C5C" width="6" height="6"/>
	<rect x="36" y="28" fill="#5C5C5C" width="6" height="6"/>
	<rect x="12" y="36" fill="#5C5C5C" width="6" height="6"/>
	<rect x="20" y="36" fill="#5C5C5C" width="6" height="6"/>
	<rect x="28" y="36" fill="#5C5C5C" width="6" height="6"/>
	<rect x="36" y="36" fill="#5C5C5C" width="6" height="6"/>
</g>
</svg>
