<?xml version="1.0" encoding="utf-8"?>
<!-- Generator: Adobe Illustrator 16.0.3, SVG Export Plug-In . SVG Version: 6.00 Build 0)  -->
<!DOCTYPE svg PUBLIC "-//W3C//DTD SVG 1.1//EN" "http://www.w3.org/Graphics/SVG/1.1/DTD/svg11.dtd">
<svg version="1.1" id="Слой_2" xmlns="http://www.w3.org/2000/svg" xmlns:xlink="http://www.w3.org/1999/xlink" x="0px" y="0px"
	 width="54px" height="54px" viewBox="0 0 54 54" enable-background="new 0 0 54 54" xml:space="preserve">
<g>
	<path fill="#5C5C5C" d="M27,0C12.112,0,0,12.112,0,27c0,14.889,12.112,27.001,27,27.001S54,41.889,54,27C54,12.112,41.888,0,27,0z
		 M27,51.001C13.766,51.001,3,40.233,3,27C3,13.766,13.766,3,27,3c13.233,0,24,10.766,24,24C51,40.233,40.233,51.001,27,51.001z"/>
	<polygon fill="#5C5C5C" points="25,15 22,12 15,12 12,12 12,15 12,22 15,25 15,17.829 22.898,25.728 25.728,22.899 17.828,15 	"/>
	<polygon fill="#5C5C5C" points="31.728,12 28.728,15 35.899,15 28,22.899 30.829,25.728 39,17.557 39,25 42,22 42,15 42,12 39,12 	
		"/>
	<polygon fill="#5C5C5C" points="22.898,28 15,35.898 15,28.728 12,31.728 12,39 12,42 15,42 22,42 25,39 17.556,39 25.728,30.828 	
		"/>
	<polygon fill="#5C5C5C" points="39,36.171 30.829,28 28,30.828 36.172,39 28.728,39 31.728,42 39,42 42,42 42,39 42,31.728 
		39,28.728 	"/>
</g>
</svg>
