<?xml version="1.0" encoding="utf-8"?>
<!-- Generator: Adobe Illustrator 16.0.3, SVG Export Plug-In . SVG Version: 6.00 Build 0)  -->
<!DOCTYPE svg PUBLIC "-//W3C//DTD SVG 1.1//EN" "http://www.w3.org/Graphics/SVG/1.1/DTD/svg11.dtd">
<svg version="1.1" id="Слой_1" xmlns="http://www.w3.org/2000/svg" xmlns:xlink="http://www.w3.org/1999/xlink" x="0px" y="0px"
	 width="95px" height="95px" viewBox="0 0 95 95" enable-background="new 0 0 95 95" xml:space="preserve">
<g>
	<rect y="0" fill="#CDD0D5" width="95" height="95"/>
	<g>
		<path fill="#FFFFFF" d="M18.284,39.101c-0.189,0-0.383,0.023-0.574,0.067c-1.242,0.286-1.886,1.51-2.209,2.486
			c-0.534,1.618-0.562,3.75-0.077,5.852c0.8,3.468,3.238,5.54,5.132,5.54c0.185,0,0.36-0.021,0.523-0.063
			c1.825-0.471,3.136-3.446,2.172-7.612C22.413,41.737,20.324,39.101,18.284,39.101z"/>
		<path fill="#FFFFFF" d="M86.115,42.021c-0.008-0.042-0.022-0.081-0.045-0.117c-0.098-0.163-10.136-16.31-33.671-19.29
			c-0.115-0.022-2.859-0.537-7.376-0.537c-3.927,0-7.914,0.388-11.851,1.155c-2.268,0.445-3.579,1.909-4.279,3.059
			c-0.75,1.232-1.047,2.52-0.99,3.299c-1.08,0.327-3.935,1.242-4.474,1.909c-0.15,0.192-0.678,0.544-1.237,0.917
			c-1.248,0.831-2.783,1.854-3.291,2.995l-2.709,0.436c-0.038,0.006-0.076,0.019-0.11,0.037c-0.068,0.037-6.749,3.78-3.679,13.337
			c0.092,0.267,2.322,6.542,8.245,7.616h7.23c0.057,0,0.113-0.013,0.163-0.04c0.235-0.125,2.017-1.076,2.93-1.943
			c0.475,0.956,1.852,2.794,5.525,3.241c0.041,1.45,0.64,7.272,7.44,10.669c0.036,0.019,0.074,0.03,0.114,0.034l2.783,0.334
			c0.197,0.225,0.626,0.645,1.082,0.645c0.046,0,0.198,0.008,0.438,0.018c0.88,0.04,2.939,0.132,5.122,0.132
			c3.4,0,5.671-0.222,6.753-0.66c2.479-1.006,9.142-6.053,9.953-6.671c0.436-0.069,2.262-0.408,3.68-1.371
			c1.355-0.925,1.32-2.528,1.238-3.196c1.989-0.776,11.235-4.554,11.57-7.759C87.022,46.976,86.152,42.221,86.115,42.021z
			 M21.555,54.82c-0.321,0.083-0.657,0.125-0.999,0.125c-2.729,0-5.962-2.586-6.983-7.012c-1.15-4.979,0.245-9.817,3.709-10.616
			c0.336-0.078,0.671-0.116,1.001-0.116c3.067,0,5.782,3.245,6.82,7.741C26.255,49.922,24.629,54.027,21.555,54.82z M46.497,66.964
			c-4.246,0-8.035-4.754-8.035-9.672s3.775-9.359,8.021-9.359c4.245,0,8.051,4.754,8.051,9.67
			C54.534,62.523,50.745,66.964,46.497,66.964z M73.563,50.623c-1.613,0.344-1.791,0.387-1.895,0.458
			c-0.156,0.098-0.472,0.298-0.205,2.759h-2.153c-5.926-7.458-12.788-9.03-17.513-9.03c-1.702,0-3.009,0.201-3.71,0.309
			c-0.219,0.034-0.375,0.06-0.456,0.063c-0.422,0.014-0.653,0.195-0.772,0.344c-0.099,0.122-0.15,0.257-0.176,0.381
			c-6.53,0.059-8.755,4.62-9.202,5.739c-2.617-0.033-3.486-2.063-3.661-2.563c2.632-6.737-2.653-12.567-3.208-13.153
			c-0.263-0.587-0.148-0.654,0.118-0.809c0.083-0.048,0.164-0.096,0.235-0.151c0.076-0.058,0.125-0.145,0.135-0.239l0.092-0.835
			c0.014-0.125-0.042-0.25-0.145-0.323c-0.702-0.497-1.045-1.014-1.019-1.535c0.055-1.073,1.574-1.95,1.568-1.95c0,0,0,0-0.001,0
			c0.931-0.383,9.006-1.792,17.15-1.792c2.955,0,5.584,0.189,7.815,0.563c14.675,2.459,27.421,16.971,27.889,18.406
			C83.788,48.445,76.359,50.027,73.563,50.623z"/>
		<path fill="#FFFFFF" d="M46.483,49.833c-3.146,0-6.121,3.625-6.121,7.459c0,3.923,3.038,7.772,6.135,7.772
			c3.154,0,6.137-3.626,6.137-7.462C52.634,53.681,49.587,49.833,46.483,49.833z"/>
	</g>
</g>
</svg>
