<?xml version="1.0" encoding="UTF-8" standalone="no"?>
<!-- Generator: Adobe Illustrator 16.0.3, SVG Export Plug-In . SVG Version: 6.00 Build 0)  -->

<svg
   xmlns:dc="http://purl.org/dc/elements/1.1/"
   xmlns:cc="http://creativecommons.org/ns#"
   xmlns:rdf="http://www.w3.org/1999/02/22-rdf-syntax-ns#"
   xmlns:svg="http://www.w3.org/2000/svg"
   xmlns="http://www.w3.org/2000/svg"
   xmlns:sodipodi="http://sodipodi.sourceforge.net/DTD/sodipodi-0.dtd"
   xmlns:inkscape="http://www.inkscape.org/namespaces/inkscape"
   version="1.1"
   id="Слой_1"
   x="0px"
   y="0px"
   width="95px"
   height="95px"
   viewBox="0 0 95 95"
   enable-background="new 0 0 95 95"
   xml:space="preserve"
   inkscape:version="0.48.4 r9939"
   sodipodi:docname="rule1_95_green.svg"><metadata
   id="metadata19"><rdf:RDF><cc:Work
       rdf:about=""><dc:format>image/svg+xml</dc:format><dc:type
         rdf:resource="http://purl.org/dc/dcmitype/StillImage" /></cc:Work></rdf:RDF></metadata><defs
   id="defs17">
	
	
</defs><sodipodi:namedview
   pagecolor="#ffffff"
   bordercolor="#666666"
   borderopacity="1"
   objecttolerance="10"
   gridtolerance="10"
   guidetolerance="10"
   inkscape:pageopacity="0"
   inkscape:pageshadow="2"
   inkscape:window-width="1920"
   inkscape:window-height="1137"
   id="namedview15"
   showgrid="false"
   inkscape:zoom="9.2284539"
   inkscape:cx="47.5"
   inkscape:cy="47.5"
   inkscape:window-x="-9"
   inkscape:window-y="-9"
   inkscape:window-maximized="1"
   inkscape:current-layer="Слой_1" />
<rect
   style="fill:#02c1a2"
   x="0"
   id="rect5"
   height="95"
   width="95"
   y="0" /><g
   id="g7">
		<path
   style="fill:#ffffff"
   inkscape:connector-curvature="0"
   id="path9"
   d="m 18.284,39.101 c -0.189,0 -0.383,0.023 -0.574,0.067 -1.242,0.286 -1.886,1.51 -2.209,2.486 -0.534,1.618 -0.562,3.75 -0.077,5.852 0.8,3.468 3.238,5.54 5.132,5.54 0.185,0 0.36,-0.021 0.523,-0.063 1.825,-0.471 3.136,-3.446 2.172,-7.612 -0.838,-3.634 -2.927,-6.27 -4.967,-6.27 z" />
		<path
   style="fill:#ffffff"
   inkscape:connector-curvature="0"
   id="path11"
   d="M 86.115,42.021 C 86.107,41.979 86.093,41.94 86.07,41.904 85.972,41.741 75.934,25.594 52.399,22.614 52.284,22.592 49.54,22.077 45.023,22.077 c -3.927,0 -7.914,0.388 -11.851,1.155 -2.268,0.445 -3.579,1.909 -4.279,3.059 -0.75,1.232 -1.047,2.52 -0.99,3.299 -1.08,0.327 -3.935,1.242 -4.474,1.909 -0.15,0.192 -0.678,0.544 -1.237,0.917 -1.248,0.831 -2.783,1.854 -3.291,2.995 l -2.709,0.436 c -0.038,0.006 -0.076,0.019 -0.11,0.037 -0.068,0.037 -6.749,3.78 -3.679,13.337 0.092,0.267 2.322,6.542 8.245,7.616 h 7.23 c 0.057,0 0.113,-0.013 0.163,-0.04 0.235,-0.125 2.017,-1.076 2.93,-1.943 0.475,0.956 1.852,2.794 5.525,3.241 0.041,1.45 0.64,7.272 7.44,10.669 0.036,0.019 0.074,0.03 0.114,0.034 l 2.783,0.334 c 0.197,0.225 0.626,0.645 1.082,0.645 0.046,0 0.198,0.008 0.438,0.018 0.88,0.04 2.939,0.132 5.122,0.132 3.4,0 5.671,-0.222 6.753,-0.66 2.479,-1.006 9.142,-6.053 9.953,-6.671 0.436,-0.069 2.262,-0.408 3.68,-1.371 1.355,-0.925 1.32,-2.528 1.238,-3.196 1.989,-0.776 11.235,-4.554 11.57,-7.759 0.353,-3.294 -0.517,-8.049 -0.554,-8.249 z M 21.555,54.82 c -0.321,0.083 -0.657,0.125 -0.999,0.125 -2.729,0 -5.962,-2.586 -6.983,-7.012 -1.15,-4.979 0.245,-9.817 3.709,-10.616 0.336,-0.078 0.671,-0.116 1.001,-0.116 3.067,0 5.782,3.245 6.82,7.741 1.152,4.98 -0.474,9.085 -3.548,9.878 z m 24.942,12.144 c -4.246,0 -8.035,-4.754 -8.035,-9.672 0,-4.918 3.775,-9.359 8.021,-9.359 4.245,0 8.051,4.754 8.051,9.67 0,4.92 -3.789,9.361 -8.037,9.361 z M 73.563,50.623 c -1.613,0.344 -1.791,0.387 -1.895,0.458 -0.156,0.098 -0.472,0.298 -0.205,2.759 H 69.31 c -5.926,-7.458 -12.788,-9.03 -17.513,-9.03 -1.702,0 -3.009,0.201 -3.71,0.309 -0.219,0.034 -0.375,0.06 -0.456,0.063 -0.422,0.014 -0.653,0.195 -0.772,0.344 -0.099,0.122 -0.15,0.257 -0.176,0.381 -6.53,0.059 -8.755,4.62 -9.202,5.739 -2.617,-0.033 -3.486,-2.063 -3.661,-2.563 2.632,-6.737 -2.653,-12.567 -3.208,-13.153 -0.263,-0.587 -0.148,-0.654 0.118,-0.809 0.083,-0.048 0.164,-0.096 0.235,-0.151 0.076,-0.058 0.125,-0.145 0.135,-0.239 l 0.092,-0.835 c 0.014,-0.125 -0.042,-0.25 -0.145,-0.323 -0.702,-0.497 -1.045,-1.014 -1.019,-1.535 0.055,-1.073 1.574,-1.95 1.568,-1.95 0,0 0,0 -0.001,0 0.931,-0.383 9.006,-1.792 17.15,-1.792 2.955,0 5.584,0.189 7.815,0.563 14.675,2.459 27.421,16.971 27.889,18.406 -0.661,1.18 -8.09,2.762 -10.886,3.358 z" />
		<path
   style="fill:#ffffff"
   inkscape:connector-curvature="0"
   id="path13"
   d="m 46.483,49.833 c -3.146,0 -6.121,3.625 -6.121,7.459 0,3.923 3.038,7.772 6.135,7.772 3.154,0 6.137,-3.626 6.137,-7.462 0,-3.921 -3.047,-7.769 -6.151,-7.769 z" />
	</g>
</svg>