<?xml version="1.0" encoding="UTF-8" standalone="no"?>
<!-- Generator: Adobe Illustrator 16.0.3, SVG Export Plug-In . SVG Version: 6.00 Build 0)  -->

<svg
   xmlns:dc="http://purl.org/dc/elements/1.1/"
   xmlns:cc="http://creativecommons.org/ns#"
   xmlns:rdf="http://www.w3.org/1999/02/22-rdf-syntax-ns#"
   xmlns:svg="http://www.w3.org/2000/svg"
   xmlns="http://www.w3.org/2000/svg"
   xmlns:sodipodi="http://sodipodi.sourceforge.net/DTD/sodipodi-0.dtd"
   xmlns:inkscape="http://www.inkscape.org/namespaces/inkscape"
   version="1.1"
   id="Слой_1"
   x="0px"
   y="0px"
   width="95px"
   height="95px"
   viewBox="0 0 95 95"
   enable-background="new 0 0 95 95"
   xml:space="preserve"
   inkscape:version="0.48.4 r9939"
   sodipodi:docname="rule9_95_green.svg"><metadata
   id="metadata87"><rdf:RDF><cc:Work
       rdf:about=""><dc:format>image/svg+xml</dc:format><dc:type
         rdf:resource="http://purl.org/dc/dcmitype/StillImage" /></cc:Work></rdf:RDF></metadata><defs
   id="defs85">
	
	
	
	
	
	
	
	
	
	
	
	
</defs><sodipodi:namedview
   pagecolor="#ffffff"
   bordercolor="#666666"
   borderopacity="1"
   objecttolerance="10"
   gridtolerance="10"
   guidetolerance="10"
   inkscape:pageopacity="0"
   inkscape:pageshadow="2"
   inkscape:window-width="1920"
   inkscape:window-height="1137"
   id="namedview83"
   showgrid="false"
   inkscape:zoom="1"
   inkscape:cx="47.5"
   inkscape:cy="47.5"
   inkscape:window-x="-9"
   inkscape:window-y="-9"
   inkscape:window-maximized="1"
   inkscape:current-layer="Слой_1" />
<rect
   style="fill:#02c1a2"
   y="0"
   x="0"
   id="rect5"
   height="95"
   width="95" /><g
   id="g7">
		<path
   style="fill:#ffffff"
   inkscape:connector-curvature="0"
   id="path9"
   d="M 87.399,27.55 V 7.6 H 7.601 V 87.399 H 87.4 V 41.8 H 83.6 V 83.599 H 18.646 L 16.34,84.63 c -0.649,0.292 -1.339,0.439 -2.05,0.439 -1.979,0 -3.782,-1.168 -4.589,-2.977 C 8.704,79.863 9.472,77.287 11.4,75.932 V 11.4 h 72.2 v 16.15 h 3.799 z" />
		<path
   style="fill:#ffffff"
   inkscape:connector-curvature="0"
   id="path11"
   d="m 11.231,81.408 c 0.049,0.111 0.108,0.213 0.169,0.316 v -3.362 c -0.521,0.901 -0.626,2.027 -0.169,3.046 z" />
	</g><path
   style="fill:#ffffff"
   inkscape:connector-curvature="0"
   id="path13"
   d="m 38.902,66.608 c 0.302,0.135 0.495,0.435 0.495,0.765 v 12.644 c 0,1.849 1.503,3.353 3.351,3.353 1.849,0 3.351,-1.504 3.351,-3.353 v -15.36 c 0,-1.319 -0.778,-2.521 -1.983,-3.06 L 33.87,57.015 c -0.115,-0.052 -0.209,-0.129 -0.286,-0.218 l -5.649,4.907 10.967,4.904 z" /><g
   id="g15">
		
			<path
   style="fill:none;stroke:#ffffff;stroke-width:0.98799998;stroke-linecap:round;stroke-linejoin:round;stroke-miterlimit:10"
   inkscape:connector-curvature="0"
   id="path17"
   d="m 75.165,37.105 4.61,-1.326 -4.912,-0.363 c 0,0 5.855,-3.028 12.259,-0.701 0,0 -7.858,3.929 -11.957,2.39 z"
   stroke-miterlimit="10" />
		<g
   id="g19">
			<g
   id="g21">
				<path
   style="fill:#ffffff"
   inkscape:connector-curvature="0"
   id="path23"
   d="m 72.579,37.206 c 0.014,0.102 0.108,0.174 0.211,0.16 l 0.203,-0.027 c 0.103,-0.014 0.174,-0.109 0.16,-0.21 l -0.106,-0.781 c -0.014,-0.102 -0.108,-0.174 -0.211,-0.16 l -0.204,0.028 c -0.103,0.014 -0.174,0.109 -0.16,0.21 l 0.107,0.78 z" />
			</g>
			<path
   style="fill:#ffffff"
   inkscape:connector-curvature="0"
   id="path25"
   d="m 72.671,36.791 c 0.044,0.322 0.235,0.561 0.428,0.534 0.191,-0.026 0.311,-0.308 0.266,-0.627 -0.044,-0.322 -0.234,-0.561 -0.425,-0.534 -0.195,0.027 -0.312,0.307 -0.269,0.627 z" />
		</g>
		
			<rect
   style="fill:#ffffff"
   id="rect27"
   height="1.7869999"
   width="1.706"
   transform="matrix(-0.9906,0.1365,-0.1365,-0.9906,147.8763,63.5832)"
   y="35.967999"
   x="70.904999" />
		
			<rect
   style="fill:#ffffff"
   id="rect29"
   height="1.701"
   width="1.021"
   transform="matrix(-0.9906,0.1367,-0.1367,-0.9906,146.538,64.6711)"
   y="36.518002"
   x="70.537003" />
		<g
   id="g31">
			<path
   style="fill:#ffffff"
   inkscape:connector-curvature="0"
   id="path33"
   d="m 69.677,48.921 c 0.187,-0.025 0.317,-0.196 0.291,-0.383 l -1.321,-9.641 c -0.025,-0.186 0.104,-0.357 0.289,-0.382 l 2.198,-0.302 c 0.185,-0.025 0.315,-0.198 0.29,-0.382 -0.025,-0.187 -0.196,-0.316 -0.382,-0.291 l -2.199,0.302 c -0.555,0.076 -0.945,0.591 -0.869,1.147 l 1.32,9.641 c 0.026,0.186 0.197,0.317 0.383,0.291 z" />
		</g>
		<g
   id="g35">
			<path
   style="fill:#ffffff"
   inkscape:connector-curvature="0"
   id="path37"
   d="m 67.871,49.181 c 0.186,-0.025 0.315,-0.196 0.289,-0.382 l -0.429,-3.124 0.478,-1.522 -0.7,-5.107 c -0.102,-0.742 0.377,-1.422 1.07,-1.517 l 2.579,-0.354 c 0.185,-0.026 0.314,-0.196 0.291,-0.383 -0.026,-0.185 -0.196,-0.315 -0.384,-0.289 l -2.58,0.354 c -1.062,0.146 -1.804,1.169 -1.649,2.283 l 0.699,5.105 -0.475,1.522 0.427,3.125 c 0.026,0.185 0.199,0.315 0.384,0.289 z" />
		</g>
		
			<rect
   style="fill:#ffffff"
   id="rect39"
   height="1.819"
   width="2.5020001"
   transform="matrix(-0.9908,0.135,-0.135,-0.9908,143.0687,86.0505)"
   y="46.966999"
   x="67.364998" />
		
			<rect
   style="fill:#ffffff"
   id="rect41"
   height="7.2199998"
   width="2.681"
   transform="matrix(-0.9908,0.1351,-0.1351,-0.9908,144.5227,93.0642)"
   y="47.827"
   x="67.762001" />
		
			<rect
   style="fill:#ffffff"
   id="rect43"
   height="2.391"
   width="1.393"
   transform="matrix(-0.9908,0.1353,-0.1353,-0.9908,146.214,101.1797)"
   y="54.363998"
   x="68.972" />
		<g
   id="g45">
			
				<line
   style="fill:none;stroke:#ffffff;stroke-width:0.67919999;stroke-miterlimit:10"
   id="line47"
   y2="43.194"
   x2="66.637001"
   y1="44.414001"
   x1="66.806"
   stroke-miterlimit="10" />
			
				<line
   style="fill:none;stroke:#ffffff;stroke-width:0.57730001;stroke-miterlimit:10"
   id="line49"
   y2="43.783001"
   x2="66.863998"
   y1="43.66"
   x1="67.767998"
   stroke-miterlimit="10" />
		</g>
		<g
   id="g51">
			
				<line
   style="fill:none;stroke:#ffffff;stroke-width:0.67919999;stroke-miterlimit:10"
   id="line53"
   y2="46.334999"
   x2="66.324997"
   y1="47.556999"
   x1="66.491997"
   stroke-miterlimit="10" />
			
				<line
   style="fill:none;stroke:#ffffff;stroke-width:0.57730001;stroke-miterlimit:10"
   id="line55"
   y2="46.926998"
   x2="66.553001"
   y1="46.803001"
   x1="67.455002"
   stroke-miterlimit="10" />
		</g>
	</g><path
   style="fill:none;stroke:#ffffff;stroke-width:0.94999999;stroke-miterlimit:10"
   inkscape:connector-curvature="0"
   id="path57"
   d="m 68.745,54.982 c 0.208,2.798 1.738,11.542 3.706,14.858 1.969,3.317 5.006,16.269 -3.828,12.883 -8.123,-3.113 -11.196,0.955 -12.544,1.68"
   stroke-miterlimit="10" /><path
   style="fill:none;stroke:#ffffff;stroke-width:0.94999999;stroke-miterlimit:10"
   inkscape:connector-curvature="0"
   id="path59"
   d="m 70.439,54.806 c 0.207,2.798 1.737,11.542 3.707,14.859 1.969,3.316 5.006,16.269 -3.828,12.882 -8.124,-3.113 -11.196,0.955 -12.543,1.68"
   stroke-miterlimit="10" /><path
   style="fill:#ffffff"
   inkscape:connector-curvature="0"
   id="path61"
   d="m 58.649,30.298 0.141,2.696 1.339,-0.068 c 0.062,-0.382 0.142,-0.994 0.115,-1.459 -0.026,-0.438 -0.15,-0.925 -0.242,-1.239 l -1.353,0.07 z" /><path
   style="fill:#ffffff"
   inkscape:connector-curvature="0"
   id="path63"
   d="m 61.635,31.346 c 0,0 0,0 0,0 l 0,0 c -0.04,-0.677 -0.307,-1.423 -0.318,-1.455 -0.07,-0.195 -0.288,-0.297 -0.479,-0.226 -0.196,0.071 -0.296,0.287 -0.228,0.481 0.004,0.006 0.242,0.676 0.275,1.242 l 0,0 c 0.035,0.573 -0.141,1.429 -0.142,1.438 -0.041,0.203 0.091,0.401 0.293,0.443 0.026,0.005 0.052,0.007 0.076,0.007 0.175,0 0.331,-0.123 0.367,-0.3 0.007,-0.038 0.194,-0.959 0.156,-1.63 z" /><g
   id="g65">
		<path
   style="fill:#ffffff"
   inkscape:connector-curvature="0"
   id="path67"
   d="m 45.587,30.647 c 0.739,0.761 2.53,1.426 4.875,1.208 2.91,-0.275 6.487,-0.518 7.288,-0.571 l -0.074,-1.412 c -0.006,-0.126 0.037,-0.249 0.122,-0.343 0.084,-0.094 0.202,-0.15 0.328,-0.156 l 1.266,-0.066 c -1.045,-2.87 -3.791,-4.923 -7.023,-4.923 -3.407,0 -6.276,2.279 -7.181,5.395 -0.005,0.358 0.203,0.668 0.399,0.868 z" />
		<path
   style="fill:#ffffff"
   inkscape:connector-curvature="0"
   id="path69"
   d="m 59.669,30.245 -1.02,0.054 0.141,2.696 0.975,-0.05 c 0.05,-0.353 0.086,-0.711 0.086,-1.079 0,-0.557 -0.068,-1.099 -0.182,-1.621 z" />
		<path
   style="fill:#ffffff"
   inkscape:connector-curvature="0"
   id="path71"
   d="m 58.339,33.968 c -0.251,0 -0.46,-0.197 -0.474,-0.45 l -0.066,-1.285 c -0.826,0.055 -4.368,0.297 -7.248,0.568 -0.328,0.031 -0.651,0.046 -0.971,0.046 -1.958,0 -3.722,-0.566 -4.665,-1.529 -0.013,0.182 -0.028,0.363 -0.028,0.547 0,4.132 3.351,7.481 7.481,7.481 3.424,0 6.304,-2.302 7.193,-5.441 l -1.198,0.061 c -0.008,0.002 -0.016,0.002 -0.024,0.002 z" />
	</g><g
   id="g73">
		<path
   style="fill:#ffffff"
   inkscape:connector-curvature="0"
   id="path75"
   d="m 29.453,61.906 c 0.649,0 1.28,-0.137 1.875,-0.379 v -2.726 c 0,-1.847 -1.503,-3.35 -3.351,-3.35 -1.7,0 -3.092,1.275 -3.309,2.916 0.145,0.459 0.331,0.907 0.608,1.318 0.935,1.39 2.495,2.221 4.177,2.221 z" />
		<path
   style="fill:#ffffff"
   inkscape:connector-curvature="0"
   id="path77"
   d="m 26.873,63.059 c -0.845,-0.351 -1.609,-0.875 -2.248,-1.542 v 10.231 l -11.704,5.233 c -1.687,0.755 -2.444,2.742 -1.689,4.427 0.537,1.207 1.739,1.985 3.059,1.985 0.473,0 0.933,-0.099 1.366,-0.292 l 13.688,-6.122 c 1.205,-0.54 1.984,-1.74 1.984,-3.059 v -8.864 l -4.434,-1.982 c -0.009,-0.003 -0.014,-0.011 -0.022,-0.015 z" />
	</g><path
   style="fill:#ffffff"
   inkscape:connector-curvature="0"
   id="path79"
   d="m 46.969,47.451 c -0.309,-0.345 -0.279,-0.875 0.064,-1.184 0.345,-0.308 0.874,-0.28 1.183,0.065 l 2.179,2.43 c 1.857,-1.643 2.276,-4.44 0.855,-6.554 -0.038,-0.056 -0.084,-0.106 -0.124,-0.16 l -0.405,-0.454 c -0.023,-0.025 -0.03,-0.057 -0.05,-0.083 -0.937,-0.962 -2.225,-1.523 -3.596,-1.523 -1,0 -1.968,0.296 -2.801,0.856 L 26.642,52.708 c -1.114,0.749 -1.871,1.888 -2.127,3.206 -0.259,1.317 0.014,2.656 0.763,3.771 0.934,1.391 2.494,2.221 4.176,2.221 0.999,0 1.968,-0.297 2.799,-0.857 L 49.038,49.757 46.969,47.451 z" /><path
   style="fill:#ffffff"
   inkscape:connector-curvature="0"
   id="path81"
   d="m 48.216,46.332 7.348,8.194 c 0.569,0.633 1.429,0.939 2.277,0.803 l 13.196,-2.164 c 0.661,-0.108 1.242,-0.468 1.634,-1.014 0.392,-0.545 0.548,-1.209 0.439,-1.872 -0.224,-1.367 -1.525,-2.3 -2.889,-2.074 L 58.84,50.071 c -0.287,0.046 -0.57,-0.055 -0.76,-0.268 l -7.204,-8.037 -2.839,4.432 c 0.063,0.04 0.128,0.076 0.179,0.134 z" />
</svg>