<?xml version="1.0" encoding="UTF-8" standalone="no"?>
<!-- Generator: Adobe Illustrator 16.0.3, SVG Export Plug-In . SVG Version: 6.00 Build 0)  -->

<svg
   xmlns:dc="http://purl.org/dc/elements/1.1/"
   xmlns:cc="http://creativecommons.org/ns#"
   xmlns:rdf="http://www.w3.org/1999/02/22-rdf-syntax-ns#"
   xmlns:svg="http://www.w3.org/2000/svg"
   xmlns="http://www.w3.org/2000/svg"
   xmlns:sodipodi="http://sodipodi.sourceforge.net/DTD/sodipodi-0.dtd"
   xmlns:inkscape="http://www.inkscape.org/namespaces/inkscape"
   version="1.1"
   id="Слой_1"
   x="0px"
   y="0px"
   width="95px"
   height="95px"
   viewBox="0 0 95 95"
   enable-background="new 0 0 95 95"
   xml:space="preserve"
   inkscape:version="0.48.4 r9939"
   sodipodi:docname="rule10_95_green.svg"><metadata
   id="metadata39"><rdf:RDF><cc:Work
       rdf:about=""><dc:format>image/svg+xml</dc:format><dc:type
         rdf:resource="http://purl.org/dc/dcmitype/StillImage" /></cc:Work></rdf:RDF></metadata><defs
   id="defs37">
	
	
</defs><sodipodi:namedview
   pagecolor="#ffffff"
   bordercolor="#666666"
   borderopacity="1"
   objecttolerance="10"
   gridtolerance="10"
   guidetolerance="10"
   inkscape:pageopacity="0"
   inkscape:pageshadow="2"
   inkscape:window-width="1920"
   inkscape:window-height="1137"
   id="namedview35"
   showgrid="false"
   inkscape:zoom="9.2284539"
   inkscape:cx="47.5"
   inkscape:cy="47.5"
   inkscape:window-x="-9"
   inkscape:window-y="-9"
   inkscape:window-maximized="1"
   inkscape:current-layer="Слой_1" />
<rect
   style="fill:#02c1a2"
   x="0"
   id="rect5"
   height="94.999001"
   width="95"
   y="0" /><g
   id="g7">
		<g
   id="g9">
			<g
   id="g11">
				<path
   style="fill:#ffffff"
   inkscape:connector-curvature="0"
   id="path13"
   d="m 31.514,79.198 c 0,4.44 -3.633,8.073 -8.073,8.073 H 22.33 c -4.44,0 -8.073,-3.633 -8.073,-8.073 V 27.404 c 0,-4.44 3.633,-8.073 8.073,-8.073 h 1.111 c 4.44,0 8.073,3.633 8.073,8.073 v 51.794 z" />
			</g>
			<g
   id="g15">
				<rect
   style="fill:#ffffff"
   id="rect17"
   height="1.868"
   width="4.1209998"
   y="14.64"
   x="24.533001" />
				<rect
   style="fill:#ffffff"
   id="rect19"
   height="5.3559999"
   width="2.0610001"
   y="12.896"
   x="27.566" />
			</g>
			<g
   id="g21">
				<path
   style="fill:#ffffff"
   inkscape:connector-curvature="0"
   id="path23"
   d="m 22.884,8.45 c -1.694,0 -3.081,1.462 -3.081,3.249 v 0.668 c 1.642,0.448 2.851,1.946 2.851,3.73 0,1.785 -1.209,3.283 -2.851,3.73 v 16.178 c 0,1.787 1.387,3.249 3.081,3.249 1.695,0 3.083,-1.461 3.083,-3.249 V 11.699 c 0,-1.787 -1.388,-3.249 -3.083,-3.249 z" />
				<path
   style="fill:#ffffff"
   inkscape:connector-curvature="0"
   id="path25"
   d="m 17.811,11.117 c -2.752,0 -4.981,2.229 -4.981,4.98 0,2.751 2.229,4.981 4.981,4.981 2.75,0 4.979,-2.229 4.979,-4.981 0,-2.75 -2.229,-4.98 -4.979,-4.98 z m 0,8.429 c -1.903,0 -3.446,-1.544 -3.446,-3.449 0,-1.904 1.543,-3.448 3.446,-3.448 1.904,0 3.447,1.544 3.447,3.448 0,1.905 -1.543,3.449 -3.447,3.449 z" />
				<path
   style="fill:#ffffff"
   inkscape:connector-curvature="0"
   id="path27"
   d="M 19.131,17.83 18.27,15.247 c -0.558,0.194 -1.006,0.551 -1.324,1.004 l 2.185,1.579 z" />
			</g>
		</g>
		<path
   style="fill:#ffffff"
   inkscape:connector-curvature="0"
   id="path29"
   d="m 53.433,64.319 v -5.982 l -1.973,0.219 v 0.675 H 40.711 V 58.556 L 38.74,58.337 v 5.981 c -1.349,0.675 -2.327,1.952 -2.327,3.449 v 14.984 c 0,1.497 0.979,2.773 2.327,3.23 v 1.513 H 53.432 V 85.98 c 1.348,-0.456 2.324,-1.732 2.324,-3.229 V 67.767 C 55.757,66.27 54.78,64.993 53.433,64.319 z M 40.711,60.509 H 51.46 V 61.88 H 40.711 v -1.371 z m 10.749,2.703 v 1.144 H 40.711 V 63.212 H 51.46 z" />
		<path
   style="fill:none;stroke:#ffffff;stroke-width:2.8499999;stroke-miterlimit:10"
   inkscape:connector-curvature="0"
   id="path31"
   d="m 46.25,59.299 c 0.186,-3.278 -1.056,-15.801 -1.294,-20.101 -0.286,-5.161 4.786,-9.553 9.195,-9.906 5.97,-0.478 14.882,5.858 10.686,15.992 -3.667,8.856 -10.844,22.008 6.572,30.875 7.336,3.623 17.472,3.551 17.472,3.551"
   stroke-miterlimit="10" />
		<path
   style="fill:none;stroke:#ffffff;stroke-width:2.8499999;stroke-miterlimit:10"
   inkscape:connector-curvature="0"
   id="path33"
   d="m 28.945,15.68 c 15.089,0 21.759,0.05 28.46,1.134 8.791,1.422 24.372,11.081 14.724,31.737 -11.566,24.758 16.542,22.591 16.542,22.591"
   stroke-miterlimit="10" />
	</g>
</svg>