<?xml version="1.0" encoding="UTF-8" standalone="no"?>
<!-- Generator: Adobe Illustrator 16.0.3, SVG Export Plug-In . SVG Version: 6.00 Build 0)  -->

<svg
   xmlns:dc="http://purl.org/dc/elements/1.1/"
   xmlns:cc="http://creativecommons.org/ns#"
   xmlns:rdf="http://www.w3.org/1999/02/22-rdf-syntax-ns#"
   xmlns:svg="http://www.w3.org/2000/svg"
   xmlns="http://www.w3.org/2000/svg"
   xmlns:sodipodi="http://sodipodi.sourceforge.net/DTD/sodipodi-0.dtd"
   xmlns:inkscape="http://www.inkscape.org/namespaces/inkscape"
   version="1.1"
   id="Слой_1"
   x="0px"
   y="0px"
   width="95px"
   height="95px"
   viewBox="0 0 95 95"
   enable-background="new 0 0 95 95"
   xml:space="preserve"
   inkscape:version="0.48.4 r9939"
   sodipodi:docname="rule6_95_green.svg"><metadata
   id="metadata75"><rdf:RDF><cc:Work
       rdf:about=""><dc:format>image/svg+xml</dc:format><dc:type
         rdf:resource="http://purl.org/dc/dcmitype/StillImage" /></cc:Work></rdf:RDF></metadata><defs
   id="defs73">
	
	
	
	
	
</defs><sodipodi:namedview
   pagecolor="#ffffff"
   bordercolor="#666666"
   borderopacity="1"
   objecttolerance="10"
   gridtolerance="10"
   guidetolerance="10"
   inkscape:pageopacity="0"
   inkscape:pageshadow="2"
   inkscape:window-width="1920"
   inkscape:window-height="1137"
   id="namedview71"
   showgrid="false"
   inkscape:zoom="9.2284539"
   inkscape:cx="47.5"
   inkscape:cy="47.5"
   inkscape:window-x="-9"
   inkscape:window-y="-9"
   inkscape:window-maximized="1"
   inkscape:current-layer="Слой_1" />
<rect
   style="fill:#02c1a2"
   x="0"
   id="rect5"
   height="94.999001"
   width="95"
   y="0" /><g
   id="g7">
		<g
   id="g9">
			<path
   style="fill:#ffffff"
   inkscape:connector-curvature="0"
   id="path11"
   d="m 28.399,79.544 c 0,4.44 -3.633,8.073 -8.073,8.073 h -1.11 c -4.44,0 -8.073,-3.633 -8.073,-8.073 V 27.75 c 0,-4.44 3.633,-8.073 8.073,-8.073 h 1.11 c 4.44,0 8.073,3.633 8.073,8.073 v 51.794 z" />
		</g>
		<g
   id="g13">
			<rect
   style="fill:#ffffff"
   id="rect15"
   height="1.867"
   width="4.119"
   y="14.987"
   x="21.419001" />
			<rect
   style="fill:#ffffff"
   id="rect17"
   height="5.3559999"
   width="2.0599999"
   y="13.242"
   x="24.452999" />
		</g>
		<g
   id="g19">
			<path
   style="fill:#ffffff"
   inkscape:connector-curvature="0"
   id="path21"
   d="m 16.042,18.09 -0.858,-2.583 c -0.558,0.193 -1.008,0.551 -1.326,1.003 l 2.184,1.58 z" />
			<path
   style="fill:#ffffff"
   inkscape:connector-curvature="0"
   id="path23"
   d="m 36.183,18.196 -0.858,-2.583 c -0.557,0.194 -1.008,0.551 -1.326,1.004 l 2.184,1.579 z" />
			<path
   style="fill:#ffffff"
   inkscape:connector-curvature="0"
   id="path25"
   d="m 19.771,8.796 c -1.696,0 -3.083,1.462 -3.083,3.249 v 0.668 c 1.644,0.449 2.851,1.947 2.851,3.73 0,1.785 -1.207,3.283 -2.851,3.73 v 16.179 c 0,1.786 1.387,3.249 3.083,3.249 1.693,0 3.081,-1.462 3.081,-3.249 V 12.045 C 22.853,10.258 21.465,8.796 19.771,8.796 z" />
			<path
   style="fill:#ffffff"
   inkscape:connector-curvature="0"
   id="path27"
   d="m 14.696,11.464 c -2.751,0 -4.981,2.229 -4.981,4.979 0,2.751 2.23,4.981 4.981,4.981 2.75,0 4.979,-2.229 4.979,-4.981 10e-4,-2.75 -2.229,-4.979 -4.979,-4.979 z m 0,8.428 c -1.903,0 -3.446,-1.544 -3.446,-3.449 0,-1.903 1.543,-3.448 3.446,-3.448 1.902,0 3.448,1.545 3.448,3.448 0.001,1.905 -1.545,3.449 -3.448,3.449 z" />
		</g>
	</g><g
   id="g29">
		<g
   id="g31">
			<path
   style="fill:none;stroke:#ffffff;stroke-width:3.03430009;stroke-miterlimit:10"
   inkscape:connector-curvature="0"
   id="path33"
   d="M 54.829,15.889 C 64.148,17.273 86.71,26.44 75.44,50.854 63.248,77.271 88.588,81.373 88.588,81.373"
   stroke-miterlimit="10" />
			<g
   id="g35">
				<path
   style="fill:none;stroke:#ffffff;stroke-width:1.01139998;stroke-linecap:round;stroke-miterlimit:10"
   inkscape:connector-curvature="0"
   id="path37"
   d="M 50.286,12.163"
   stroke-miterlimit="10" />
			</g>
		</g>
		
			<rect
   style="fill:#ffffff"
   id="rect39"
   height="5.8270001"
   width="4.9640002"
   transform="matrix(0.2245,-0.9745,0.9745,0.2245,26.9387,65.1417)"
   y="12.733"
   x="51.912998" />
	</g><g
   id="g41">
		<g
   id="g43">
			<path
   style="fill:none;stroke:#ffffff;stroke-width:3.03430009;stroke-miterlimit:10"
   inkscape:connector-curvature="0"
   id="path45"
   d="M 55.87,24.626 C 65.187,26.012 82.992,35.636 71.724,60.05 59.53,86.468 89.628,88.211 89.628,88.211"
   stroke-miterlimit="10" />
			<g
   id="g47">
				<path
   style="fill:none;stroke:#ffffff;stroke-width:1.01139998;stroke-linecap:round;stroke-miterlimit:10"
   inkscape:connector-curvature="0"
   id="path49"
   d="M 51.325,20.901"
   stroke-miterlimit="10" />
			</g>
		</g>
		
			<rect
   style="fill:#ffffff"
   id="rect51"
   height="5.8280001"
   width="4.9640002"
   transform="matrix(0.2245,-0.9745,0.9745,0.2245,19.2294,72.9333)"
   y="21.472"
   x="52.953999" />
	</g><g
   id="g53">
		<g
   id="g55">
			<path
   style="fill:#ffffff"
   inkscape:connector-curvature="0"
   id="path57"
   d="m 48.434,79.544 c 0,4.44 -3.633,8.073 -8.073,8.073 H 39.25 c -4.44,0 -8.073,-3.633 -8.073,-8.073 V 27.75 c 0,-4.44 3.633,-8.073 8.073,-8.073 h 1.111 c 4.44,0 8.073,3.633 8.073,8.073 v 51.794 z" />
		</g>
		<g
   id="g59">
			<rect
   style="fill:#ffffff"
   id="rect61"
   height="1.867"
   width="4.1199999"
   y="14.987"
   x="41.452999" />
			<rect
   style="fill:#ffffff"
   id="rect63"
   height="5.3559999"
   width="2.063"
   y="13.242"
   x="44.485001" />
		</g>
		<g
   id="g65">
			<path
   style="fill:#ffffff"
   inkscape:connector-curvature="0"
   id="path67"
   d="m 39.805,8.796 c -1.695,0 -3.081,1.462 -3.081,3.249 v 0.668 c 1.641,0.449 2.85,1.947 2.85,3.73 0,1.785 -1.209,3.283 -2.85,3.73 v 16.179 c 0,1.786 1.386,3.249 3.081,3.249 1.695,0 3.081,-1.462 3.081,-3.249 V 12.045 c 0,-1.787 -1.386,-3.249 -3.081,-3.249 z" />
			<path
   style="fill:#ffffff"
   inkscape:connector-curvature="0"
   id="path69"
   d="m 34.73,11.464 c -2.751,0 -4.98,2.229 -4.98,4.979 0,2.751 2.229,4.981 4.98,4.981 2.75,0 4.98,-2.229 4.98,-4.981 10e-4,-2.75 -2.23,-4.979 -4.98,-4.979 z m 0,8.428 c -1.903,0 -3.446,-1.544 -3.446,-3.449 0,-1.903 1.543,-3.448 3.446,-3.448 1.903,0 3.447,1.545 3.447,3.448 10e-4,1.905 -1.543,3.449 -3.447,3.449 z" />
		</g>
	</g>
</svg>