<?xml version="1.0" encoding="UTF-8" standalone="no"?>
<!-- Generator: Adobe Illustrator 16.0.3, SVG Export Plug-In . SVG Version: 6.00 Build 0)  -->

<svg
   xmlns:dc="http://purl.org/dc/elements/1.1/"
   xmlns:cc="http://creativecommons.org/ns#"
   xmlns:rdf="http://www.w3.org/1999/02/22-rdf-syntax-ns#"
   xmlns:svg="http://www.w3.org/2000/svg"
   xmlns="http://www.w3.org/2000/svg"
   xmlns:sodipodi="http://sodipodi.sourceforge.net/DTD/sodipodi-0.dtd"
   xmlns:inkscape="http://www.inkscape.org/namespaces/inkscape"
   version="1.1"
   id="Слой_1"
   x="0px"
   y="0px"
   width="150px"
   height="150px"
   viewBox="0 0 150 150"
   enable-background="new 0 0 150 150"
   xml:space="preserve"
   inkscape:version="0.48.4 r9939"
   sodipodi:docname="rule1_150.svg"><metadata
   id="metadata19"><rdf:RDF><cc:Work
       rdf:about=""><dc:format>image/svg+xml</dc:format><dc:type
         rdf:resource="http://purl.org/dc/dcmitype/StillImage" /></cc:Work></rdf:RDF></metadata><defs
   id="defs17">
	
	
</defs><sodipodi:namedview
   pagecolor="#ffffff"
   bordercolor="#666666"
   borderopacity="1"
   objecttolerance="10"
   gridtolerance="10"
   guidetolerance="10"
   inkscape:pageopacity="0"
   inkscape:pageshadow="2"
   inkscape:window-width="640"
   inkscape:window-height="480"
   id="namedview15"
   showgrid="false"
   inkscape:zoom="1.806875"
   inkscape:cx="75"
   inkscape:cy="75"
   inkscape:window-x="0"
   inkscape:window-y="0"
   inkscape:window-maximized="0"
   inkscape:current-layer="Слой_1" />
<g
   id="g7">
		<path
   style="fill:#ffffff"
   inkscape:connector-curvature="0"
   id="path9"
   d="m 28.869,61.738 c -0.299,0 -0.605,0.036 -0.907,0.105 -1.961,0.452 -2.978,2.383 -3.487,3.924 -0.844,2.555 -0.888,5.922 -0.122,9.24 1.264,5.475 5.112,8.747 8.104,8.747 0.291,0 0.569,-0.034 0.826,-0.101 2.881,-0.743 4.951,-5.441 3.43,-12.018 C 35.389,65.9 32.09,61.738 28.869,61.738 z" />
		<path
   style="fill:#ffffff"
   inkscape:connector-curvature="0"
   id="path11"
   d="m 135.971,66.348 c -0.013,-0.066 -0.036,-0.128 -0.07,-0.185 C 135.745,65.906 119.896,40.412 82.736,35.705 82.555,35.67 78.221,34.857 71.09,34.857 c -6.2,0 -12.496,0.614 -18.713,1.824 -3.581,0.703 -5.65,3.014 -6.755,4.829 -1.185,1.946 -1.654,3.979 -1.563,5.209 -1.704,0.517 -6.213,1.961 -7.064,3.015 -0.238,0.303 -1.071,0.859 -1.954,1.447 -1.97,1.312 -4.395,2.927 -5.196,4.728 l -4.276,0.688 c -0.061,0.01 -0.12,0.03 -0.174,0.059 -0.107,0.058 -10.655,5.968 -5.809,21.059 0.145,0.42 3.666,10.33 13.018,12.024 H 44.02 c 0.089,0 0.178,-0.021 0.257,-0.063 0.371,-0.196 3.184,-1.699 4.627,-3.068 0.749,1.51 2.924,4.412 8.724,5.118 0.064,2.29 1.01,11.483 11.748,16.846 0.057,0.029 0.118,0.047 0.18,0.054 l 4.395,0.527 c 0.312,0.355 0.988,1.019 1.708,1.019 0.072,0 0.313,0.012 0.691,0.028 1.389,0.063 4.641,0.208 8.086,0.208 5.368,0 8.955,-0.35 10.664,-1.042 3.914,-1.589 14.434,-9.557 15.715,-10.533 0.688,-0.11 3.572,-0.644 5.81,-2.165 2.139,-1.461 2.084,-3.992 1.954,-5.046 3.141,-1.226 17.739,-7.19 18.268,-12.25 0.556,-5.2 -0.817,-12.707 -0.876,-13.024 z M 34.034,86.559 c -0.507,0.131 -1.037,0.196 -1.577,0.196 -4.309,0 -9.414,-4.083 -11.026,-11.071 -1.816,-7.862 0.387,-15.501 5.856,-16.763 0.531,-0.124 1.06,-0.183 1.581,-0.183 4.842,0 9.129,5.123 10.768,12.222 1.819,7.864 -0.747,14.346 -5.602,15.599 z m 39.383,19.174 c -6.705,0 -12.687,-7.506 -12.687,-15.271 0,-7.766 5.96,-14.778 12.665,-14.778 6.703,0 12.712,7.506 12.712,15.268 -0.001,7.769 -5.983,14.781 -12.69,14.781 z m 42.734,-25.802 c -2.547,0.542 -2.828,0.611 -2.992,0.724 -0.246,0.155 -0.745,0.47 -0.324,4.357 h -3.4 C 100.078,73.236 89.243,70.754 81.783,70.754 c -2.688,0 -4.751,0.318 -5.859,0.488 -0.346,0.054 -0.591,0.094 -0.719,0.099 -0.667,0.022 -1.031,0.308 -1.22,0.543 -0.155,0.193 -0.237,0.406 -0.278,0.602 -10.311,0.093 -13.824,7.295 -14.53,9.062 -4.132,-0.052 -5.504,-3.258 -5.78,-4.046 4.156,-10.639 -4.19,-19.843 -5.066,-20.768 -0.416,-0.927 -0.235,-1.032 0.186,-1.277 0.129,-0.076 0.257,-0.151 0.371,-0.239 0.12,-0.092 0.197,-0.228 0.213,-0.378 l 0.145,-1.318 c 0.022,-0.199 -0.065,-0.394 -0.229,-0.51 -1.109,-0.785 -1.649,-1.6 -1.608,-2.423 0.087,-1.694 2.485,-3.078 2.476,-3.078 0,0 0,0 -10e-4,0 1.469,-0.605 14.219,-2.831 27.079,-2.831 4.666,0 8.818,0.299 12.34,0.888 23.171,3.883 43.297,26.796 44.036,29.062 -1.043,1.862 -12.772,4.36 -17.188,5.301 z" />
		<path
   style="fill:#ffffff"
   inkscape:connector-curvature="0"
   id="path13"
   d="m 73.395,78.683 c -4.968,0 -9.665,5.724 -9.665,11.778 0,6.193 4.798,12.271 9.687,12.271 4.98,0 9.69,-5.725 9.69,-11.782 -0.001,-6.19 -4.811,-12.267 -9.712,-12.267 z" />
	</g>
</svg>