<?xml version="1.0" encoding="UTF-8" standalone="no"?>
<!-- Generator: Adobe Illustrator 16.0.3, SVG Export Plug-In . SVG Version: 6.00 Build 0)  -->

<svg
   xmlns:dc="http://purl.org/dc/elements/1.1/"
   xmlns:cc="http://creativecommons.org/ns#"
   xmlns:rdf="http://www.w3.org/1999/02/22-rdf-syntax-ns#"
   xmlns:svg="http://www.w3.org/2000/svg"
   xmlns="http://www.w3.org/2000/svg"
   xmlns:sodipodi="http://sodipodi.sourceforge.net/DTD/sodipodi-0.dtd"
   xmlns:inkscape="http://www.inkscape.org/namespaces/inkscape"
   version="1.1"
   id="Слой_1"
   x="0px"
   y="0px"
   width="95px"
   height="95px"
   viewBox="0 0 95 95"
   enable-background="new 0 0 95 95"
   xml:space="preserve"
   inkscape:version="0.48.4 r9939"
   sodipodi:docname="rule7_95_green.svg"><metadata
   id="metadata32"><rdf:RDF><cc:Work
       rdf:about=""><dc:format>image/svg+xml</dc:format><dc:type
         rdf:resource="http://purl.org/dc/dcmitype/StillImage" /></cc:Work></rdf:RDF></metadata><defs
   id="defs30" /><sodipodi:namedview
   pagecolor="#ffffff"
   bordercolor="#666666"
   borderopacity="1"
   objecttolerance="10"
   gridtolerance="10"
   guidetolerance="10"
   inkscape:pageopacity="0"
   inkscape:pageshadow="2"
   inkscape:window-width="1920"
   inkscape:window-height="1137"
   id="namedview28"
   showgrid="false"
   inkscape:zoom="9.2697138"
   inkscape:cx="16.691772"
   inkscape:cy="47.5"
   inkscape:window-x="-9"
   inkscape:window-y="-9"
   inkscape:window-maximized="1"
   inkscape:current-layer="Слой_1" />
<g
   id="g3">
	<rect
   fill="#00A489"
   width="95"
   height="95"
   id="rect5"
   style="fill:#02c1a2" />
	<g
   id="g7">
		<path
   fill="#FFFFFF"
   stroke="#FFFFFF"
   stroke-width="0.95"
   stroke-miterlimit="10"
   d="M78.696,55.258    c-4.935,0-7.168,2.551-9.329,5.018c-1.893,2.164-3.853,4.401-7.514,4.401c-4.18,0-6.188-2.695-7.959-5.076    c-1.666-2.231-3.236-4.343-6.393-4.343s-4.727,2.112-6.393,4.343c-1.771,2.381-3.78,5.076-7.96,5.076    c-3.662,0-5.621-2.237-7.514-4.401c-2.161-2.467-4.394-5.018-9.329-5.018c-0.063,0-0.121-0.014-0.176-0.035l-0.061,19.279    l1.346,2.764l3.471,0.779l44.127,0.07c0,0,10.837,0.425,10.837,0.213c0-0.213,2.267-1.984,2.267-1.984l0.425-2.691l0.191-18.402    C78.719,55.252,78.708,55.258,78.696,55.258z"
   id="path9" />
		<g
   id="XMLID_1_">
			<g
   id="g12">
				<path
   fill="#FFFFFF"
   d="M57.462,17.395H37.535c-1.844,0-2.899,0.927-2.899,2.543v9.526h25.723v-9.526      C60.358,18.321,59.303,17.395,57.462,17.395z M33.646,29.962V19.938c0-2.177,1.488-3.533,3.889-3.533h19.927      c2.398,0,3.886,1.355,3.886,3.533v10.025c0,0.273-0.224,0.495-0.495,0.495H34.141C33.871,30.457,33.646,30.236,33.646,29.962z"
   id="path14" />
				<path
   fill="#FFFFFF"
   d="M56.473,38.163v-2.847H38.525v2.847c0,0.228-0.152,0.422-0.37,0.479      c-8.586,2.243-21.359,6.795-21.359,10.153v24.605c0,2.992,1.026,4.215,3.543,4.215h54.315c2.517,0,3.543-1.224,3.543-4.215      V48.794c0-3.358-12.772-7.91-21.359-10.153C56.621,38.585,56.473,38.39,56.473,38.163z M37.535,37.783v-2.962      c0-0.271,0.221-0.499,0.495-0.499h18.934c0.274,0,0.495,0.228,0.495,0.499v2.962c3.506,0.934,21.729,6.033,21.729,11.011v24.605      c0,3.549-1.442,5.205-4.533,5.205H20.339c-3.091,0-4.532-1.656-4.532-5.205V48.794C15.807,43.816,34.029,38.717,37.535,37.783z"
   id="path16" />
			</g>
			<g
   id="g18">
				<path
   fill="none"
   stroke="#FFFFFF"
   stroke-width="0.95"
   stroke-miterlimit="10"
   d="M38.525,35.316v2.847      c0,0.228-0.152,0.422-0.37,0.479c-8.586,2.243-21.359,6.795-21.359,10.153v24.605c0,2.992,1.026,4.215,3.543,4.215h54.315      c2.517,0,3.543-1.224,3.543-4.215V48.794c0-3.358-12.772-7.91-21.359-10.153c-0.218-0.056-0.366-0.251-0.366-0.479v-2.847      H38.525z"
   id="path20" />
				<path
   fill="none"
   stroke="#FFFFFF"
   stroke-width="0.95"
   stroke-miterlimit="10"
   d="M60.854,30.457H34.141      c-0.271,0-0.495-0.221-0.495-0.495V19.938c0-2.177,1.488-3.533,3.889-3.533h19.927c2.398,0,3.886,1.355,3.886,3.533v10.025      C61.348,30.236,61.124,30.457,60.854,30.457z"
   id="path22" />
				<path
   fill="none"
   stroke="#FFFFFF"
   stroke-width="0.95"
   stroke-miterlimit="10"
   d="M34.636,29.464h25.723v-9.526      c0-1.616-1.055-2.543-2.896-2.543H37.535c-1.844,0-2.899,0.927-2.899,2.543V29.464z"
   id="path24" />
				<path
   fill="none"
   stroke="#FFFFFF"
   stroke-width="0.95"
   stroke-miterlimit="10"
   d="M74.655,78.604H20.339      c-3.091,0-4.532-1.656-4.532-5.205V48.794c0-4.978,18.222-10.077,21.728-11.011v-2.962c0-0.271,0.221-0.499,0.495-0.499h18.934      c0.274,0,0.495,0.228,0.495,0.499v2.962c3.506,0.934,21.729,6.033,21.729,11.011v24.605      C79.188,76.948,77.746,78.604,74.655,78.604z"
   id="path26" />
			</g>
		</g>
	</g>
</g>
</svg>