<?xml version="1.0" encoding="UTF-8" standalone="no"?>
<!-- Generator: Adobe Illustrator 16.0.3, SVG Export Plug-In . SVG Version: 6.00 Build 0)  -->

<svg
   xmlns:dc="http://purl.org/dc/elements/1.1/"
   xmlns:cc="http://creativecommons.org/ns#"
   xmlns:rdf="http://www.w3.org/1999/02/22-rdf-syntax-ns#"
   xmlns:svg="http://www.w3.org/2000/svg"
   xmlns="http://www.w3.org/2000/svg"
   xmlns:sodipodi="http://sodipodi.sourceforge.net/DTD/sodipodi-0.dtd"
   xmlns:inkscape="http://www.inkscape.org/namespaces/inkscape"
   version="1.1"
   id="Слой_1"
   x="0px"
   y="0px"
   width="95px"
   height="95px"
   viewBox="0 0 95 95"
   enable-background="new 0 0 95 95"
   xml:space="preserve"
   inkscape:version="0.48.4 r9939"
   sodipodi:docname="rule12_95_green.svg"><metadata
   id="metadata51"><rdf:RDF><cc:Work
       rdf:about=""><dc:format>image/svg+xml</dc:format><dc:type
         rdf:resource="http://purl.org/dc/dcmitype/StillImage" /></cc:Work></rdf:RDF></metadata><defs
   id="defs49">
	
	
</defs><sodipodi:namedview
   pagecolor="#ffffff"
   bordercolor="#666666"
   borderopacity="1"
   objecttolerance="10"
   gridtolerance="10"
   guidetolerance="10"
   inkscape:pageopacity="0"
   inkscape:pageshadow="2"
   inkscape:window-width="1920"
   inkscape:window-height="1137"
   id="namedview47"
   showgrid="false"
   inkscape:zoom="9.2284539"
   inkscape:cx="15.871742"
   inkscape:cy="47.5"
   inkscape:window-x="-9"
   inkscape:window-y="-9"
   inkscape:window-maximized="1"
   inkscape:current-layer="Слой_1" />
<rect
   style="fill:#02c1a2"
   y="0"
   x="0"
   id="rect5"
   height="95.000999"
   width="95" /><g
   id="g7">
		
			<path
   style="fill:none;stroke:#ffffff;stroke-width:2.38910007;stroke-linecap:round;stroke-linejoin:round;stroke-miterlimit:10"
   inkscape:connector-curvature="0"
   id="path9"
   d="M 37.562,23.026 25.544,19.75 37.201,17.272 c 0,0 -14.051,-3.949 -25.198,1.63 0,0 17.307,8.157 25.559,4.124 z"
   stroke-miterlimit="10" />
		<g
   id="g11">
			<g
   id="g13">
				<path
   style="fill:#ffffff"
   inkscape:connector-curvature="0"
   id="path15"
   d="m 43.857,21.364 c 0,0.459 -0.376,0.835 -0.836,0.835 H 42.1 c -0.46,0 -0.836,-0.376 -0.836,-0.835 v -3.518 c 0,-0.459 0.376,-0.835 0.836,-0.835 h 0.922 c 0.46,0 0.836,0.376 0.836,0.835 v 3.518 z" />
			</g>
			<ellipse
   style="fill:#ffffff"
   sodipodi:ry="2.6229999"
   sodipodi:rx="1.5650001"
   sodipodi:cy="19.587"
   sodipodi:cx="41.633999"
   id="ellipse17"
   ry="2.6229999"
   rx="1.5650001"
   cy="19.587"
   cx="41.633999" />
		</g>
		<rect
   style="fill:#ffffff"
   id="rect19"
   height="7.9910002"
   width="7.6300001"
   y="15.343"
   x="43.467999" />
		<rect
   style="fill:#ffffff"
   id="rect21"
   height="7.6100001"
   width="4.5710001"
   y="17.348"
   x="48.459" />
		<g
   id="g23">
			<path
   style="fill:#ffffff"
   inkscape:connector-curvature="0"
   id="path25"
   d="m 63.832,71.518 c -0.84,0 -1.52,-0.68 -1.52,-1.519 V 26.471 c 0,-0.838 -0.682,-1.52 -1.518,-1.52 h -9.922 c -0.84,0 -1.519,-0.68 -1.519,-1.519 0,-0.839 0.679,-1.519 1.519,-1.519 h 9.922 c 2.512,0 4.556,2.044 4.556,4.557 v 43.528 c 0.001,0.84 -0.679,1.52 -1.518,1.52 z" />
		</g>
		<g
   id="g27">
			<path
   style="fill:#ffffff"
   inkscape:connector-curvature="0"
   id="path29"
   d="m 71.996,71.571 c -0.839,0 -1.52,-0.68 -1.52,-1.519 v -14.11 l -3.038,-6.453 v -23.05 c 0,-3.35 -2.536,-6.076 -5.658,-6.076 H 50.135 c -0.84,0 -1.52,-0.68 -1.52,-1.519 0,-0.838 0.68,-1.519 1.52,-1.519 H 61.78 c 4.795,0 8.696,4.088 8.696,9.114 v 23.05 l 3.039,6.453 v 14.11 c 0.001,0.839 -0.679,1.519 -1.519,1.519 z" />
		</g>
		<rect
   style="fill:#ffffff"
   id="rect31"
   height="8.1280003"
   width="11.191"
   y="62.185001"
   x="62.307999" />
		<rect
   style="fill:#ffffff"
   id="rect33"
   height="14.33"
   width="14.896"
   y="66.167"
   x="60.455002" />
		<g
   id="g35">
			
				<line
   style="fill:none;stroke:#ffffff;stroke-width:3.03800011;stroke-miterlimit:10"
   id="line37"
   y2="44.290001"
   x2="73.822998"
   y1="49.797001"
   x1="73.822998"
   stroke-miterlimit="10" />
			
				<line
   style="fill:none;stroke:#ffffff;stroke-width:2.58229995;stroke-miterlimit:10"
   id="line39"
   y2="47.042999"
   x2="73.174004"
   y1="47.042999"
   x1="69.098"
   stroke-miterlimit="10" />
		</g>
		<g
   id="g41">
			
				<line
   style="fill:none;stroke:#ffffff;stroke-width:3.03800011;stroke-miterlimit:10"
   id="line43"
   y2="58.026001"
   x2="77.112999"
   y1="63.533001"
   x1="77.112999"
   stroke-miterlimit="10" />
			
				<line
   style="fill:none;stroke:#ffffff;stroke-width:2.58229995;stroke-miterlimit:10"
   id="line45"
   y2="60.779999"
   x2="76.461998"
   y1="60.779999"
   x1="72.386002"
   stroke-miterlimit="10" />
		</g>
	</g>
</svg>