<?xml version="1.0" encoding="utf-8"?>
<!-- Generator: Adobe Illustrator 16.0.3, SVG Export Plug-In . SVG Version: 6.00 Build 0)  -->
<!DOCTYPE svg PUBLIC "-//W3C//DTD SVG 1.1//EN" "http://www.w3.org/Graphics/SVG/1.1/DTD/svg11.dtd">
<svg version="1.1" id="Слой_1" xmlns="http://www.w3.org/2000/svg" xmlns:xlink="http://www.w3.org/1999/xlink" x="0px" y="0px"
	 width="95px" height="95px" viewBox="0 0 95 95" enable-background="new 0 0 95 95" xml:space="preserve">
<g>
	<rect y="0" fill="#CDD0D5" width="95" height="94.999"/>
	<g>
		<g>
			<path fill="#FFFFFF" d="M28.399,79.544c0,4.44-3.633,8.073-8.073,8.073h-1.11c-4.44,0-8.073-3.633-8.073-8.073V27.75
				c0-4.44,3.633-8.073,8.073-8.073h1.11c4.44,0,8.073,3.633,8.073,8.073V79.544z"/>
		</g>
		<g>
			<rect x="21.419" y="14.987" fill="#FFFFFF" width="4.119" height="1.867"/>
			<rect x="24.453" y="13.242" fill="#FFFFFF" width="2.06" height="5.356"/>
		</g>
		<g>
			<path fill="#FFFFFF" d="M16.042,18.09l-0.858-2.583c-0.558,0.193-1.008,0.551-1.326,1.003L16.042,18.09z"/>
			<path fill="#FFFFFF" d="M36.183,18.196l-0.858-2.583c-0.557,0.194-1.008,0.551-1.326,1.004L36.183,18.196z"/>
			<path fill="#FFFFFF" d="M19.771,8.796c-1.696,0-3.083,1.462-3.083,3.249v0.668c1.644,0.449,2.851,1.947,2.851,3.73
				c0,1.785-1.207,3.283-2.851,3.73v16.179c0,1.786,1.387,3.249,3.083,3.249c1.693,0,3.081-1.462,3.081-3.249V12.045
				C22.853,10.258,21.465,8.796,19.771,8.796z"/>
			<path fill="#FFFFFF" d="M14.696,11.464c-2.751,0-4.981,2.229-4.981,4.979c0,2.751,2.23,4.981,4.981,4.981
				c2.75,0,4.979-2.229,4.979-4.981C19.676,13.693,17.446,11.464,14.696,11.464z M14.696,19.892c-1.903,0-3.446-1.544-3.446-3.449
				c0-1.903,1.543-3.448,3.446-3.448c1.902,0,3.448,1.545,3.448,3.448C18.145,18.348,16.599,19.892,14.696,19.892z"/>
		</g>
	</g>
	<g>
		<g>
			<path fill="none" stroke="#FFFFFF" stroke-width="3.0343" stroke-miterlimit="10" d="M54.829,15.889
				C64.148,17.273,86.71,26.44,75.44,50.854C63.248,77.271,88.588,81.373,88.588,81.373"/>
			<g>
				<path fill="none" stroke="#FFFFFF" stroke-width="1.0114" stroke-linecap="round" stroke-miterlimit="10" d="M50.286,12.163"/>
			</g>
		</g>
		
			<rect x="51.913" y="12.733" transform="matrix(0.2245 -0.9745 0.9745 0.2245 26.9387 65.1417)" fill="#FFFFFF" width="4.964" height="5.827"/>
	</g>
	<g>
		<g>
			<path fill="none" stroke="#FFFFFF" stroke-width="3.0343" stroke-miterlimit="10" d="M55.87,24.626
				c9.317,1.386,27.122,11.01,15.854,35.424C59.53,86.468,89.628,88.211,89.628,88.211"/>
			<g>
				<path fill="none" stroke="#FFFFFF" stroke-width="1.0114" stroke-linecap="round" stroke-miterlimit="10" d="M51.325,20.901"/>
			</g>
		</g>
		
			<rect x="52.954" y="21.472" transform="matrix(0.2245 -0.9745 0.9745 0.2245 19.2294 72.9333)" fill="#FFFFFF" width="4.964" height="5.828"/>
	</g>
	<g>
		<g>
			<path fill="#FFFFFF" d="M48.434,79.544c0,4.44-3.633,8.073-8.073,8.073h-1.111c-4.44,0-8.073-3.633-8.073-8.073V27.75
				c0-4.44,3.633-8.073,8.073-8.073h1.111c4.44,0,8.073,3.633,8.073,8.073V79.544z"/>
		</g>
		<g>
			<rect x="41.453" y="14.987" fill="#FFFFFF" width="4.12" height="1.867"/>
			<rect x="44.485" y="13.242" fill="#FFFFFF" width="2.063" height="5.356"/>
		</g>
		<g>
			<path fill="#FFFFFF" d="M39.805,8.796c-1.695,0-3.081,1.462-3.081,3.249v0.668c1.641,0.449,2.85,1.947,2.85,3.73
				c0,1.785-1.209,3.283-2.85,3.73v16.179c0,1.786,1.386,3.249,3.081,3.249s3.081-1.462,3.081-3.249V12.045
				C42.886,10.258,41.5,8.796,39.805,8.796z"/>
			<path fill="#FFFFFF" d="M34.73,11.464c-2.751,0-4.98,2.229-4.98,4.979c0,2.751,2.229,4.981,4.98,4.981
				c2.75,0,4.98-2.229,4.98-4.981C39.711,13.693,37.48,11.464,34.73,11.464z M34.73,19.892c-1.903,0-3.446-1.544-3.446-3.449
				c0-1.903,1.543-3.448,3.446-3.448s3.447,1.545,3.447,3.448C38.178,18.348,36.634,19.892,34.73,19.892z"/>
		</g>
	</g>
</g>
</svg>
