<?xml version="1.0" encoding="utf-8"?>
<!-- Generator: Adobe Illustrator 16.0.3, SVG Export Plug-In . SVG Version: 6.00 Build 0)  -->
<!DOCTYPE svg PUBLIC "-//W3C//DTD SVG 1.1//EN" "http://www.w3.org/Graphics/SVG/1.1/DTD/svg11.dtd">
<svg version="1.1" id="Слой_1" xmlns="http://www.w3.org/2000/svg" xmlns:xlink="http://www.w3.org/1999/xlink" x="0px" y="0px"
	 width="95px" height="95px" viewBox="0 0 95 95" enable-background="new 0 0 95 95" xml:space="preserve">
<g>
	<rect y="0" fill="#CDD0D5" width="95" height="94.999"/>
	<g>
		<g>
			<g>
				<path fill="#FFFFFF" d="M31.514,79.198c0,4.44-3.633,8.073-8.073,8.073h-1.111c-4.44,0-8.073-3.633-8.073-8.073V27.404
					c0-4.44,3.633-8.073,8.073-8.073h1.111c4.44,0,8.073,3.633,8.073,8.073V79.198z"/>
			</g>
			<g>
				<rect x="24.533" y="14.64" fill="#FFFFFF" width="4.121" height="1.868"/>
				<rect x="27.566" y="12.896" fill="#FFFFFF" width="2.061" height="5.356"/>
			</g>
			<g>
				<path fill="#FFFFFF" d="M22.884,8.45c-1.694,0-3.081,1.462-3.081,3.249v0.668c1.642,0.448,2.851,1.946,2.851,3.73
					c0,1.785-1.209,3.283-2.851,3.73v16.178c0,1.787,1.387,3.249,3.081,3.249c1.695,0,3.083-1.461,3.083-3.249V11.699
					C25.967,9.912,24.579,8.45,22.884,8.45z"/>
				<path fill="#FFFFFF" d="M17.811,11.117c-2.752,0-4.981,2.229-4.981,4.98c0,2.751,2.229,4.981,4.981,4.981
					c2.75,0,4.979-2.229,4.979-4.981C22.79,13.347,20.561,11.117,17.811,11.117z M17.811,19.546c-1.903,0-3.446-1.544-3.446-3.449
					c0-1.904,1.543-3.448,3.446-3.448c1.904,0,3.447,1.544,3.447,3.448C21.258,18.002,19.715,19.546,17.811,19.546z"/>
				<path fill="#FFFFFF" d="M19.131,17.83l-0.861-2.583c-0.558,0.194-1.006,0.551-1.324,1.004L19.131,17.83z"/>
			</g>
		</g>
		<path fill="#FFFFFF" d="M53.433,64.319v-5.982l-1.973,0.219v0.675H40.711v-0.675l-1.971-0.219v5.981
			c-1.349,0.675-2.327,1.952-2.327,3.449v14.984c0,1.497,0.979,2.773,2.327,3.23v1.513h14.692V85.98
			c1.348-0.456,2.324-1.732,2.324-3.229V67.767C55.757,66.27,54.78,64.993,53.433,64.319z M40.711,60.509H51.46v1.371H40.711V60.509
			z M51.46,63.212v1.144H40.711v-1.144H51.46z"/>
		<path fill="none" stroke="#FFFFFF" stroke-width="2.85" stroke-miterlimit="10" d="M46.25,59.299
			c0.186-3.278-1.056-15.801-1.294-20.101c-0.286-5.161,4.786-9.553,9.195-9.906c5.97-0.478,14.882,5.858,10.686,15.992
			c-3.667,8.856-10.844,22.008,6.572,30.875c7.336,3.623,17.472,3.551,17.472,3.551"/>
		<path fill="none" stroke="#FFFFFF" stroke-width="2.85" stroke-miterlimit="10" d="M28.945,15.68
			c15.089,0,21.759,0.05,28.46,1.134c8.791,1.422,24.372,11.081,14.724,31.737C60.563,73.309,88.671,71.142,88.671,71.142"/>
	</g>
</g>
</svg>
