<?xml version="1.0" encoding="UTF-8" standalone="no"?>
<!-- Generator: Adobe Illustrator 16.0.3, SVG Export Plug-In . SVG Version: 6.00 Build 0)  -->

<svg
   xmlns:dc="http://purl.org/dc/elements/1.1/"
   xmlns:cc="http://creativecommons.org/ns#"
   xmlns:rdf="http://www.w3.org/1999/02/22-rdf-syntax-ns#"
   xmlns:svg="http://www.w3.org/2000/svg"
   xmlns="http://www.w3.org/2000/svg"
   xmlns:sodipodi="http://sodipodi.sourceforge.net/DTD/sodipodi-0.dtd"
   xmlns:inkscape="http://www.inkscape.org/namespaces/inkscape"
   version="1.1"
   id="Слой_1"
   x="0px"
   y="0px"
   width="150px"
   height="150px"
   viewBox="0 0 150 150"
   enable-background="new 0 0 150 150"
   xml:space="preserve"
   inkscape:version="0.48.4 r9939"
   sodipodi:docname="rule5_150.svg"><metadata
   id="metadata27"><rdf:RDF><cc:Work
       rdf:about=""><dc:format>image/svg+xml</dc:format><dc:type
         rdf:resource="http://purl.org/dc/dcmitype/StillImage" /></cc:Work></rdf:RDF></metadata><defs
   id="defs25">
	
	
</defs><sodipodi:namedview
   pagecolor="#ffffff"
   bordercolor="#666666"
   borderopacity="1"
   objecttolerance="10"
   gridtolerance="10"
   guidetolerance="10"
   inkscape:pageopacity="0"
   inkscape:pageshadow="2"
   inkscape:window-width="640"
   inkscape:window-height="480"
   id="namedview23"
   showgrid="false"
   inkscape:zoom="1.806875"
   inkscape:cx="75"
   inkscape:cy="75"
   inkscape:window-x="0"
   inkscape:window-y="0"
   inkscape:window-maximized="0"
   inkscape:current-layer="Слой_1" />
<g
   id="g7">
		<path
   style="fill:#ffffff;stroke:#ffffff;stroke-width:1.27820003;stroke-linecap:round;stroke-miterlimit:10"
   inkscape:connector-curvature="0"
   id="path9"
   d="m 84.386,32.268 0.229,-3.11 -3.114,2.75 c -0.9,-0.298 -1.842,-0.311 -1.842,-0.311 l -3.235,-7.931 -1.257,8.574 -2.303,-1.926 -0.173,3.279 -9.316,-1.911 5.832,6.433 -3.76,1.867 3.021,2.065 -6.88,4.598 8.054,0.098 c 0.043,0.33 0.728,1.19 0.728,1.19 l -1.445,3.61 3.56,-1.389 -0.318,7.333 4.487,-5.387 1.043,0.17 2.355,3.143 1.5,-3.43 c 1.025,-0.152 2.182,-0.861 2.182,-0.861 l 3.417,1.984 -1.146,-3.621 c 0.145,-0.047 0.234,-0.227 0.234,-0.227 l 4.451,0.192 -2.33,-3.311 c 0.619,-1.144 0.703,-2.268 0.703,-2.268 l 6.621,-1.212 -5.763,-2.405 2.439,-2.196 -4.142,-0.61 C 88.059,36.216 86.753,35.21 86.753,35.21 l 4.016,-6.732 -6.383,3.79 z"
   stroke-miterlimit="10" />
		<circle
   style="fill:none;stroke:#ffffff;stroke-width:8.62759972;stroke-miterlimit:10"
   sodipodi:ry="61.831001"
   sodipodi:rx="61.831001"
   sodipodi:cy="74.901001"
   sodipodi:cx="75"
   id="circle11"
   r="61.831001"
   cy="74.901001"
   cx="75"
   stroke-miterlimit="10" />
		
			<rect
   style="fill:#ffffff;stroke:#ffffff;stroke-width:1.43789995;stroke-miterlimit:10"
   id="rect13"
   height="117.839"
   width="8.4919996"
   stroke-miterlimit="10"
   transform="matrix(0.7071,-0.7071,0.7071,0.7071,-32.1997,74.9393)"
   y="17.417999"
   x="70.113998" />
		<path
   style="fill:#ffffff;stroke:#ffffff;stroke-width:0.58459997;stroke-linecap:round;stroke-miterlimit:10"
   inkscape:connector-curvature="0"
   id="path15"
   d="m 96.244,54.954 -0.856,1.718 1.6,-0.076 c 2.301,-2.285 5.095,-4.057 8.197,-5.151 l 1.966,-2.146 -2.762,0.713 0.28,-1.473 -1.679,0.923 c -0.396,-0.408 -1.154,-0.412 -1.154,-0.412 l -0.393,-3.563 -1.28,3.144 -0.776,-1.196 -0.374,1.863 c -0.408,0.138 -0.756,0.394 -0.756,0.394 l -3.366,-1.996 1.904,3.473 -1.371,-0.067 0.841,1.242 -3.921,1.875 3.9,0.735 z"
   stroke-miterlimit="10" />
		<g
   id="g17">
			<path
   style="fill:#ffffff"
   inkscape:connector-curvature="0"
   id="path19"
   d="m 115.837,79.773 c -2.317,-2.101 -3.832,-4.609 -4.29,-7.443 -0.457,-2.832 0.189,-5.694 1.727,-8.417 l 15.029,-2.431 c -4.042,-5.973 -11.301,-9.394 -18.893,-8.17 -7.585,1.227 -13.396,6.767 -15.35,13.708 l -13.859,2.314 13.957,13.958 2.467,-0.412 c 4.042,5.973 11.303,9.399 18.893,8.171 7.586,-1.228 13.397,-6.764 15.353,-13.706 l -15.034,2.428 z" />
			<path
   style="fill:#ffffff"
   inkscape:connector-curvature="0"
   id="path21"
   d="m 58.188,73.012 -3.418,0.57 C 50.73,67.61 43.464,64.185 35.879,65.413 c -7.59,1.227 -13.4,6.766 -15.354,13.708 l 15.03,-2.43 c 2.316,2.096 3.833,4.61 4.293,7.442 0.457,2.832 -0.188,5.695 -1.727,8.416 l -15.03,2.432 c 4.041,5.975 11.303,9.398 18.892,8.171 7.584,-1.228 13.397,-6.767 15.351,-13.707 L 72.144,86.97 58.188,73.012 z" />
		</g>
	</g>
</svg>