<?xml version="1.0" encoding="utf-8"?>
<!-- Generator: Adobe Illustrator 16.0.3, SVG Export Plug-In . SVG Version: 6.00 Build 0)  -->
<!DOCTYPE svg PUBLIC "-//W3C//DTD SVG 1.1//EN" "http://www.w3.org/Graphics/SVG/1.1/DTD/svg11.dtd">
<svg version="1.1" id="Слой_1" xmlns="http://www.w3.org/2000/svg" xmlns:xlink="http://www.w3.org/1999/xlink" x="0px" y="0px"
	 width="95px" height="95px" viewBox="0 0 95 95" enable-background="new 0 0 95 95" xml:space="preserve">
<g>
	<rect x="-0.001" y="0" fill="#CDD0D5" width="95.001" height="95"/>
	<g>
		<path fill="#FFFFFF" d="M70.762,38.026c0-6.99-3.435-12.678-7.658-12.678c-4.22,0-7.653,5.688-7.653,12.678
			c0,6.987,3.434,12.672,7.653,12.672C67.327,50.698,70.762,45.014,70.762,38.026z"/>
		<path fill="#FFFFFF" d="M77.962,38.026c0-13.931-6.666-25.265-14.858-25.265H38.5h-0.44c-8.194,0-14.859,11.333-14.859,25.265
			c0,11.599,4.507,21.444,10.923,24.377L20.091,72.22c-0.005,0.003-0.008,0.009-0.012,0.012L19.8,72.427l-0.05,0.001l0.002,0.033
			l-3.438,2.408c-0.245,0.137-0.396,0.396-0.396,0.675c0,0.018,0.009,0.032,0.01,0.05v5.011c0,1.003,1.163,1.447,2.178,1.722
			c1.084,0.291,2.544,0.499,4.247,0.604h0.022c0.192,0,0.373-0.071,0.509-0.193c0.162-0.135,0.26-0.336,0.267-0.547
			c0.021-0.423,0.407-0.754,0.883-0.754c0.483,0,0.882,0.35,0.887,0.788v0.449l0.165-0.003c0.143,0.189,0.358,0.321,0.611,0.321
			h0.017h0.006c2.459-0.065,4.618-0.393,5.924-0.9c0.004,0,0.006-0.004,0.01-0.005c0.054-0.021,0.098-0.058,0.146-0.09
			c0.035-0.026,0.077-0.043,0.107-0.074c0.04-0.038,0.063-0.088,0.094-0.132c0.024-0.038,0.058-0.067,0.074-0.108
			c0.002-0.002,0-0.004,0.002-0.006c0.016-0.038,0.018-0.08,0.027-0.12c0.016-0.06,0.035-0.118,0.036-0.179
			c0-0.004,0.002-0.005,0.002-0.009v-4.689l18.876-13.205l12.525-0.19v-0.013C71.532,62.873,77.962,51.705,77.962,38.026z
			 M18.511,80.829c-0.646-0.175-0.919-0.325-1.028-0.398v-3.375c2.011,0.745,5.469,0.854,7.284,0.854
			c2.28,0,4.322-0.213,5.821-0.589v3.492c-1.05,0.311-2.553,0.521-4.275,0.601c-0.345-0.891-1.232-1.53-2.278-1.53
			c-1.009,0-1.887,0.581-2.254,1.449C20.481,81.224,19.33,81.047,18.511,80.829z M36.271,62.797l0.857-0.599
			C38.072,62.719,39.095,63,40.188,63c0.184,0,0.365-0.007,0.557-0.022c0.422-0.038,0.737-0.413,0.707-0.842
			c-0.037-0.403-0.369-0.708-0.832-0.708c-0.001,0-0.004,0-0.005,0c-0.708,0.058-1.376-0.042-2.01-0.264l2.097-1.466
			c0.965,0.62,2.716,0.993,4.865,0.993c1.055,0,2.158-0.091,3.279-0.27c0.424-0.07,0.705-0.458,0.643-0.893
			c-0.012-0.072-0.042-0.137-0.074-0.202c0.681,0.724,1.391,1.36,2.131,1.884L31.008,75.576c-1.319,0.487-3.639,0.778-6.241,0.778
			c-3.635,0-5.838-0.429-6.8-0.748l2.431-1.702c0.941,0.658,3.139,1.113,5.473,1.113c1.022,0,1.984-0.084,2.861-0.248
			c0.418-0.079,0.697-0.483,0.619-0.903c-0.067-0.368-0.388-0.636-0.761-0.636l-0.143,0.013c-0.813,0.151-1.679,0.227-2.568,0.227
			c-1.793,0-3.27-0.305-4.056-0.569l1.645-1.15c0.675,0.5,1.74,0.899,2.955,0.899c0.171,0,0.344-0.006,0.524-0.022
			c0.428-0.037,0.744-0.417,0.706-0.845c-0.036-0.402-0.365-0.718-0.844-0.704c-0.827,0.074-1.485-0.103-1.939-0.309l2.013-1.409
			c1.096,0.713,3.248,1.084,5.203,1.084c1.088,0,2.112-0.105,3.05-0.311c0.413-0.092,0.68-0.504,0.594-0.927
			c-0.08-0.36-0.394-0.611-0.76-0.611l-0.165,0.017c-0.855,0.189-1.763,0.284-2.694,0.284c-1.694,0-3.016-0.301-3.771-0.553
			l1.647-1.154c0.677,0.462,1.696,0.874,2.913,0.874c0.21,0,0.433-0.012,0.647-0.041c0.207-0.022,0.394-0.124,0.522-0.289
			c0.129-0.163,0.187-0.37,0.16-0.57c-0.042-0.392-0.373-0.688-0.77-0.688l-0.094,0.005c-0.79,0.093-1.459-0.068-1.96-0.285
			l1.976-1.383c0.956,0.596,2.715,1.112,4.848,1.112c1.118,0,2.237-0.145,3.327-0.43c0.411-0.11,0.659-0.537,0.551-0.954
			c-0.09-0.34-0.398-0.578-0.754-0.578l-0.197,0.026c-0.946,0.249-1.929,0.376-2.921,0.376c-1.118,0-2.056-0.162-2.773-0.359
			l-0.346-0.105c-0.1-0.032-0.203-0.065-0.292-0.098l0.375-0.261 M54.99,61.223c-0.266-0.082-0.526-0.176-0.786-0.288
			c-0.294-0.125-0.558-0.259-0.817-0.403L53.23,60.44c-1.2-0.692-2.34-1.692-3.38-2.963c-0.143-0.227-0.395-0.366-0.659-0.366
			H35.437c-0.062,0-0.116,0.02-0.175,0.034c-0.023,0.005-0.045,0.007-0.066,0.013c-0.065,0.023-0.122,0.056-0.178,0.092
			c-0.023,0.016-0.051,0.019-0.07,0.036c-0.01,0.009-0.015,0.019-0.022,0.028c-0.046,0.039-0.077,0.088-0.113,0.138
			c-0.023,0.032-0.05,0.063-0.069,0.101c-0.023,0.048-0.033,0.102-0.046,0.155c-0.013,0.046-0.025,0.089-0.027,0.136
			c-0.003,0.016-0.01,0.03-0.01,0.045c0,0.037,0.017,0.072,0.02,0.107c0.008,0.051,0.017,0.102,0.032,0.152
			c0.018,0.044,0.04,0.083,0.063,0.123c0.021,0.037,0.028,0.078,0.057,0.11c0.479,0.591,1.023,1.218,1.641,1.792l-0.478,0.923
			l-0.002,0.001c-6.23-1.841-10.899-11.694-10.899-23.07c0-12.889,5.815-23.374,12.967-23.374h0.44h18.972
			c-5.411,3.782-9.228,12.831-9.228,23.374c0,10.253,3.585,19.293,8.952,23.206L54.99,61.223z M38.172,59.571
			c-0.353-0.256-0.69-0.557-1.027-0.905h2.322L38.172,59.571z M42.177,58.667h6.64c0.1,0.117,0.203,0.221,0.306,0.335
			c-0.121-0.074-0.253-0.128-0.401-0.128l-0.123,0.011c-1.066,0.171-2.1,0.258-3.071,0.258c-1.591,0-2.696-0.231-3.369-0.463
			L42.177,58.667z M60.139,60.766c-5.892-2.534-10.004-11.876-10.004-22.739c0-12.889,5.818-23.374,12.969-23.374
			s12.968,10.485,12.968,23.374c0,12.864-5.797,23.333-12.93,23.371L60.139,60.766z M53.036,62.09
			c0.185,0.092,0.368,0.193,0.554,0.274c0.163,0.068,0.327,0.122,0.491,0.182l-1.778,0.027l0.693-0.483H53.036z"/>
		<path fill="#FFFFFF" d="M47.975,45.989c-0.47-2.302-0.731-4.701-0.776-7.138c-0.002-0.071-0.029-0.134-0.045-0.201
			c-0.013-0.05-0.013-0.105-0.033-0.152c-0.022-0.048-0.059-0.084-0.086-0.125c-0.039-0.061-0.07-0.124-0.121-0.174
			c-0.011-0.01-0.023-0.014-0.034-0.023c-0.168-0.151-0.384-0.25-0.628-0.25h-0.018h-0.001h-1.987
			c0.01-3.973,0.588-7.896,1.679-11.352c0.088-0.283,0.037-0.596-0.141-0.842c-0.178-0.24-0.462-0.385-0.762-0.385H31.273
			c-0.415,0-0.776,0.267-0.901,0.661c-1.148,3.628-1.757,7.747-1.767,11.917h-2.002c-0.003,0-0.004,0.002-0.006,0.002
			c0,0-0.003-0.002-0.004-0.002c-0.002,0-0.002,0-0.002,0c-0.044,0.002-0.081,0.021-0.123,0.028
			c-0.335,0.049-0.613,0.262-0.736,0.571c-0.011,0.027-0.01,0.058-0.018,0.087c-0.024,0.084-0.052,0.168-0.052,0.261
			c0,0.005,0.003,0.01,0.003,0.017c0,0,0,0,0,0.002c0.051,2.558,0.324,5.073,0.811,7.478c0.008,0.04,0.03,0.07,0.041,0.106
			c0.016,0.043,0.029,0.084,0.05,0.125c0.033,0.067,0.074,0.126,0.12,0.181c0.028,0.033,0.051,0.065,0.081,0.093
			c0.06,0.053,0.124,0.092,0.193,0.13c0.033,0.017,0.062,0.041,0.096,0.055c0.109,0.042,0.226,0.07,0.347,0.07h2.191
			c0.397,1.764,0.908,3.464,1.537,5.056v0.001c0.074,0.459,0.468,0.794,0.934,0.794h13.775c0.116,0,0.235-0.024,0.353-0.071
			c0.003,0,0.005-0.002,0.006-0.003c0.072-0.029,0.131-0.079,0.194-0.125c0.006-0.005,0.013-0.009,0.019-0.014
			c0.031-0.023,0.067-0.037,0.093-0.064c0.004-0.002,0.005-0.005,0.009-0.008c0.005-0.004,0.01-0.006,0.015-0.01
			c0.077-0.082,0.131-0.173,0.174-0.27c0.007-0.016,0.011-0.033,0.017-0.048c0.035-0.093,0.054-0.189,0.06-0.289
			c0-0.014,0.007-0.028,0.007-0.04c0-0.001,0.001-0.004,0.001-0.004c0-0.011-0.005-0.02-0.007-0.029
			c-0.004-0.105-0.021-0.208-0.06-0.308c-0.002-0.004-0.002-0.012-0.004-0.017c-0.001-0.003-0.001-0.007-0.003-0.011
			c-0.002-0.001-0.002-0.003-0.003-0.005c-0.571-1.417-1.046-2.938-1.427-4.536h1.741c0.015,0,0.025-0.008,0.042-0.01
			c0.057,0,0.108-0.005,0.172-0.018c0.028-0.004,0.051-0.023,0.078-0.032c0.052-0.017,0.099-0.038,0.146-0.062
			c0.076-0.04,0.146-0.084,0.209-0.142c0.013-0.013,0.024-0.025,0.038-0.039C47.923,46.611,48.041,46.308,47.975,45.989z
			 M38.146,51.091c-0.474-1.254-0.88-2.575-1.209-3.96h1.008c0.312,1.381,0.687,2.71,1.128,3.96H38.146z M38.36,27.24
			c-0.914,3.318-1.399,6.982-1.407,10.687h-1.057c0.011-3.724,0.524-7.396,1.485-10.687H38.36z M38.847,37.927
			c0.007-3.731,0.523-7.404,1.483-10.687h3.427c-0.911,3.318-1.394,6.996-1.401,10.687H38.847z M34.006,37.927H30.5
			c0.009-3.721,0.515-7.406,1.475-10.687h3.438C34.499,30.565,34.015,34.229,34.006,37.927z M34.997,47.131
			c0.313,1.373,0.687,2.699,1.13,3.96h-3.391c-0.474-1.257-0.854-2.593-1.18-3.96H34.997z M41.092,51.091
			c-0.472-1.25-0.876-2.574-1.206-3.96h3.46c0.311,1.376,0.686,2.703,1.13,3.96H41.092z"/>
	</g>
</g>
</svg>
