<?xml version="1.0" encoding="UTF-8" standalone="no"?>
<!-- Generator: Adobe Illustrator 16.0.3, SVG Export Plug-In . SVG Version: 6.00 Build 0)  -->

<svg
   xmlns:dc="http://purl.org/dc/elements/1.1/"
   xmlns:cc="http://creativecommons.org/ns#"
   xmlns:rdf="http://www.w3.org/1999/02/22-rdf-syntax-ns#"
   xmlns:svg="http://www.w3.org/2000/svg"
   xmlns="http://www.w3.org/2000/svg"
   xmlns:sodipodi="http://sodipodi.sourceforge.net/DTD/sodipodi-0.dtd"
   xmlns:inkscape="http://www.inkscape.org/namespaces/inkscape"
   version="1.1"
   id="Слой_1"
   x="0px"
   y="0px"
   width="150px"
   height="150px"
   viewBox="0 0 150 150"
   enable-background="new 0 0 150 150"
   xml:space="preserve"
   inkscape:version="0.48.4 r9939"
   sodipodi:docname="rule7_150.svg"><metadata
   id="metadata32"><rdf:RDF><cc:Work
       rdf:about=""><dc:format>image/svg+xml</dc:format><dc:type
         rdf:resource="http://purl.org/dc/dcmitype/StillImage" /></cc:Work></rdf:RDF></metadata><defs
   id="defs30">
	
	
</defs><sodipodi:namedview
   pagecolor="#ffffff"
   bordercolor="#666666"
   borderopacity="1"
   objecttolerance="10"
   gridtolerance="10"
   guidetolerance="10"
   inkscape:pageopacity="0"
   inkscape:pageshadow="2"
   inkscape:window-width="640"
   inkscape:window-height="480"
   id="namedview28"
   showgrid="false"
   inkscape:zoom="1.806875"
   inkscape:cx="75"
   inkscape:cy="75"
   inkscape:window-x="0"
   inkscape:window-y="0"
   inkscape:window-maximized="0"
   inkscape:current-layer="Слой_1" />
<g
   id="g7">
		<path
   style="fill:#ffffff;stroke:#ffffff;stroke-width:1.5;stroke-miterlimit:10"
   inkscape:connector-curvature="0"
   id="path9"
   d="m 124.255,87.25 c -7.792,0 -11.317,4.027 -14.729,7.922 -2.99,3.417 -6.083,6.949 -11.865,6.949 -6.599,0 -9.771,-4.255 -12.567,-8.016 C 82.463,90.584 79.984,87.25 75,87.25 c -4.984,0 -7.463,3.334 -10.093,6.855 -2.797,3.76 -5.969,8.016 -12.568,8.016 -5.781,0 -8.875,-3.532 -11.865,-6.949 -3.412,-3.895 -6.938,-7.922 -14.729,-7.922 -0.099,0 -0.192,-0.023 -0.279,-0.056 l -0.097,30.441 2.125,4.362 5.48,1.23 69.675,0.111 c 0,0 17.111,0.671 17.111,0.335 0,-0.336 3.579,-3.132 3.579,-3.132 l 0.671,-4.25 0.302,-29.055 c -0.02,0.004 -0.037,0.014 -0.057,0.014 z"
   stroke-miterlimit="10" />
		<g
   id="XMLID_1_">
			<g
   id="g12">
				<path
   style="fill:#ffffff"
   inkscape:connector-curvature="0"
   id="path14"
   d="m 53.127,31.477 c 0,-3.438 2.349,-5.578 6.135,-5.578 h 31.469 c 3.786,0 6.135,2.141 6.135,5.578 v 15.828 c 0,0.433 -0.354,0.781 -0.781,0.781 H 53.908 c -0.427,0 -0.781,-0.349 -0.781,-0.781 V 31.477 z M 90.731,27.461 H 59.262 c -2.906,0 -4.573,1.463 -4.573,4.016 V 46.524 H 95.304 V 31.477 c 0,-2.553 -1.666,-4.016 -4.573,-4.016 z" />
				<path
   style="fill:#ffffff"
   inkscape:connector-curvature="0"
   id="path16"
   d="m 60.049,54.195 h 29.896 c 0.432,0 0.781,0.354 0.781,0.781 v 4.677 c 5.537,1.474 34.308,9.526 34.308,17.386 v 38.849 c 0,5.604 -2.276,8.219 -7.156,8.219 H 32.116 c -4.88,0 -7.156,-2.615 -7.156,-8.219 V 77.04 c 0,-7.859 28.771,-15.912 34.308,-17.386 v -4.677 c 0,-0.427 0.348,-0.782 0.781,-0.782 z m 0.781,1.563 v 4.495 c 0,0.359 -0.24,0.667 -0.583,0.755 C 46.689,64.55 26.522,71.737 26.522,77.04 v 38.849 c 0,4.729 1.62,6.656 5.594,6.656 h 85.761 c 3.974,0 5.594,-1.927 5.594,-6.656 V 77.04 c 0,-5.302 -20.167,-12.49 -33.725,-16.032 -0.344,-0.088 -0.583,-0.396 -0.583,-0.755 V 55.758 H 60.83 z" />
			</g>
			<g
   id="g18">
				<path
   style="fill:none;stroke:#ffffff;stroke-width:1.5;stroke-miterlimit:10"
   inkscape:connector-curvature="0"
   id="path20"
   d="m 60.83,55.758 v 4.495 c 0,0.359 -0.24,0.667 -0.583,0.755 C 46.689,64.55 26.522,71.737 26.522,77.04 v 38.849 c 0,4.729 1.62,6.656 5.594,6.656 h 85.761 c 3.974,0 5.594,-1.927 5.594,-6.656 V 77.04 c 0,-5.302 -20.167,-12.49 -33.725,-16.032 -0.344,-0.088 -0.583,-0.396 -0.583,-0.755 V 55.758 H 60.83 z"
   stroke-miterlimit="10" />
				<path
   style="fill:none;stroke:#ffffff;stroke-width:1.5;stroke-miterlimit:10"
   inkscape:connector-curvature="0"
   id="path22"
   d="M 96.085,48.086 H 53.908 c -0.427,0 -0.781,-0.349 -0.781,-0.781 V 31.477 c 0,-3.438 2.349,-5.578 6.135,-5.578 h 31.469 c 3.786,0 6.135,2.141 6.135,5.578 v 15.828 c 0.001,0.432 -0.353,0.781 -0.781,0.781 z"
   stroke-miterlimit="10" />
				<path
   style="fill:none;stroke:#ffffff;stroke-width:1.5;stroke-miterlimit:10"
   inkscape:connector-curvature="0"
   id="path24"
   d="M 54.689,46.523 H 95.304 V 31.477 c 0,-2.552 -1.667,-4.016 -4.573,-4.016 H 59.262 c -2.906,0 -4.573,1.463 -4.573,4.016 v 15.046 z"
   stroke-miterlimit="10" />
				<path
   style="fill:none;stroke:#ffffff;stroke-width:1.5;stroke-miterlimit:10"
   inkscape:connector-curvature="0"
   id="path26"
   d="M 117.877,124.107 H 32.116 c -4.88,0 -7.156,-2.615 -7.156,-8.219 V 77.04 c 0,-7.859 28.771,-15.912 34.308,-17.386 v -4.677 c 0,-0.427 0.349,-0.781 0.781,-0.781 h 29.896 c 0.432,0 0.781,0.354 0.781,0.781 v 4.677 c 5.537,1.474 34.308,9.526 34.308,17.386 v 38.849 c 0,5.604 -2.277,8.218 -7.157,8.218 z"
   stroke-miterlimit="10" />
			</g>
		</g>
	</g>
</svg>