<?xml version="1.0" encoding="UTF-8" standalone="no"?>
<!-- Generator: Adobe Illustrator 16.0.3, SVG Export Plug-In . SVG Version: 6.00 Build 0)  -->

<svg
   xmlns:dc="http://purl.org/dc/elements/1.1/"
   xmlns:cc="http://creativecommons.org/ns#"
   xmlns:rdf="http://www.w3.org/1999/02/22-rdf-syntax-ns#"
   xmlns:svg="http://www.w3.org/2000/svg"
   xmlns="http://www.w3.org/2000/svg"
   xmlns:sodipodi="http://sodipodi.sourceforge.net/DTD/sodipodi-0.dtd"
   xmlns:inkscape="http://www.inkscape.org/namespaces/inkscape"
   version="1.1"
   id="Слой_1"
   x="0px"
   y="0px"
   width="95px"
   height="95px"
   viewBox="0 0 95 95"
   enable-background="new 0 0 95 95"
   xml:space="preserve"
   inkscape:version="0.48.4 r9939"
   sodipodi:docname="rule5_95_green.svg"><metadata
   id="metadata27"><rdf:RDF><cc:Work
       rdf:about=""><dc:format>image/svg+xml</dc:format><dc:type
         rdf:resource="http://purl.org/dc/dcmitype/StillImage" /></cc:Work></rdf:RDF></metadata><defs
   id="defs25">
	
	
</defs><sodipodi:namedview
   pagecolor="#ffffff"
   bordercolor="#666666"
   borderopacity="1"
   objecttolerance="10"
   gridtolerance="10"
   guidetolerance="10"
   inkscape:pageopacity="0"
   inkscape:pageshadow="2"
   inkscape:window-width="1920"
   inkscape:window-height="1137"
   id="namedview23"
   showgrid="false"
   inkscape:zoom="9.2284539"
   inkscape:cx="47.5"
   inkscape:cy="47.5"
   inkscape:window-x="-9"
   inkscape:window-y="-9"
   inkscape:window-maximized="1"
   inkscape:current-layer="Слой_1" />
<rect
   style="fill:#02c1a2"
   y="0"
   x="0"
   id="rect5"
   height="95"
   width="95" /><g
   id="g7">
		<path
   style="fill:#ffffff;stroke:#ffffff;stroke-width:0.80949998;stroke-linecap:round;stroke-miterlimit:10"
   inkscape:connector-curvature="0"
   id="path9"
   d="m 53.444,20.436 0.146,-1.97 -1.973,1.743 C 51.047,20.02 50.45,20.012 50.45,20.012 l -2.048,-5.022 -0.797,5.43 -1.458,-1.22 -0.108,2.077 -5.901,-1.21 3.693,4.074 -2.381,1.182 1.912,1.308 -4.356,2.913 5.101,0.062 c 0.027,0.208 0.461,0.753 0.461,0.753 l -0.915,2.286 2.254,-0.879 -0.201,4.644 2.841,-3.412 0.661,0.108 1.491,1.991 0.95,-2.173 c 0.65,-0.096 1.381,-0.545 1.381,-0.545 l 2.166,1.257 -0.727,-2.293 c 0.091,-0.03 0.148,-0.144 0.148,-0.144 l 2.818,0.122 -1.476,-2.097 c 0.394,-0.724 0.445,-1.437 0.445,-1.437 l 4.193,-0.768 -3.649,-1.523 1.545,-1.391 -2.622,-0.387 c -0.102,-0.78 -0.928,-1.417 -0.928,-1.417 l 2.543,-4.263 -4.042,2.398 z"
   stroke-miterlimit="10" />
		<circle
   style="fill:none;stroke:#ffffff;stroke-width:5.46409988;stroke-miterlimit:10"
   sodipodi:ry="39.159"
   sodipodi:rx="39.159"
   sodipodi:cy="47.438"
   sodipodi:cx="47.5"
   id="circle11"
   r="39.159"
   cy="47.438"
   cx="47.5"
   stroke-miterlimit="10" />
		
			<rect
   style="fill:#ffffff;stroke:#ffffff;stroke-width:0.91070002;stroke-miterlimit:10"
   id="rect13"
   height="74.632004"
   width="5.3779998"
   stroke-miterlimit="10"
   transform="matrix(0.7071,-0.7072,0.7072,0.7071,-20.3931,47.466)"
   y="11.032"
   x="44.405998" />
		<path
   style="fill:#ffffff;stroke:#ffffff;stroke-width:0.37020001;stroke-linecap:round;stroke-miterlimit:10"
   inkscape:connector-curvature="0"
   id="path15"
   d="m 60.954,34.805 -0.543,1.087 1.014,-0.048 c 1.457,-1.447 3.227,-2.569 5.191,-3.263 l 1.245,-1.359 -1.748,0.452 0.177,-0.933 -1.063,0.585 c -0.251,-0.258 -0.73,-0.261 -0.73,-0.261 l -0.25,-2.256 -0.811,1.991 -0.491,-0.757 -0.237,1.18 c -0.258,0.087 -0.479,0.25 -0.479,0.25 l -2.132,-1.265 1.206,2.2 -0.869,-0.042 0.534,0.786 -2.485,1.188 2.471,0.465 z"
   stroke-miterlimit="10" />
		<g
   id="g17">
			<path
   style="fill:#ffffff"
   inkscape:connector-curvature="0"
   id="path19"
   d="m 73.363,50.523 c -1.468,-1.331 -2.427,-2.92 -2.717,-4.715 -0.289,-1.793 0.119,-3.606 1.093,-5.331 l 9.52,-1.54 C 78.698,35.154 74.101,32.988 69.294,33.763 64.49,34.54 60.81,38.049 59.572,42.444 l -8.779,1.466 8.841,8.84 1.562,-0.261 c 2.561,3.783 7.159,5.952 11.967,5.175 4.805,-0.777 8.484,-4.284 9.723,-8.681 l -9.523,1.54 z" />
			<path
   style="fill:#ffffff"
   inkscape:connector-curvature="0"
   id="path21"
   d="m 36.853,46.241 -2.164,0.362 c -2.56,-3.783 -7.16,-5.952 -11.965,-5.175 -4.806,0.777 -8.486,4.285 -9.723,8.682 l 9.518,-1.539 c 1.467,1.327 2.428,2.92 2.72,4.713 0.29,1.793 -0.119,3.607 -1.094,5.331 l -9.519,1.54 c 2.559,3.784 7.157,5.953 11.964,5.175 4.805,-0.778 8.485,-4.286 9.723,-8.681 l 9.379,-1.567 -8.839,-8.841 z" />
		</g>
	</g>
</svg>