<?xml version="1.0" encoding="UTF-8" standalone="no"?>
<!-- Generator: Adobe Illustrator 16.0.3, SVG Export Plug-In . SVG Version: 6.00 Build 0)  -->

<svg
   xmlns:dc="http://purl.org/dc/elements/1.1/"
   xmlns:cc="http://creativecommons.org/ns#"
   xmlns:rdf="http://www.w3.org/1999/02/22-rdf-syntax-ns#"
   xmlns:svg="http://www.w3.org/2000/svg"
   xmlns="http://www.w3.org/2000/svg"
   xmlns:sodipodi="http://sodipodi.sourceforge.net/DTD/sodipodi-0.dtd"
   xmlns:inkscape="http://www.inkscape.org/namespaces/inkscape"
   version="1.1"
   id="Слой_1"
   x="0px"
   y="0px"
   width="150px"
   height="150px"
   viewBox="0 0 150 150"
   enable-background="new 0 0 150 150"
   xml:space="preserve"
   inkscape:version="0.48.4 r9939"
   sodipodi:docname="rule9_150.svg"><metadata
   id="metadata87"><rdf:RDF><cc:Work
       rdf:about=""><dc:format>image/svg+xml</dc:format><dc:type
         rdf:resource="http://purl.org/dc/dcmitype/StillImage" /></cc:Work></rdf:RDF></metadata><defs
   id="defs85">
	
	
	
	
	
	
	
	
	
	
	
	
</defs><sodipodi:namedview
   pagecolor="#ffffff"
   bordercolor="#666666"
   borderopacity="1"
   objecttolerance="10"
   gridtolerance="10"
   guidetolerance="10"
   inkscape:pageopacity="0"
   inkscape:pageshadow="2"
   inkscape:window-width="640"
   inkscape:window-height="480"
   id="namedview83"
   showgrid="false"
   inkscape:zoom="1.806875"
   inkscape:cx="75"
   inkscape:cy="75"
   inkscape:window-x="0"
   inkscape:window-y="0"
   inkscape:window-maximized="0"
   inkscape:current-layer="Слой_1" />
<g
   id="g7">
		<path
   style="fill:#ffffff"
   inkscape:connector-curvature="0"
   id="path9"
   d="M 138,43.5 V 12 H 12 V 137.999 H 138 V 66 h -6 v 65.999 H 29.44 l -3.64,1.627 c -1.026,0.46 -2.116,0.693 -3.236,0.693 -3.127,0 -5.973,-1.844 -7.248,-4.699 -1.575,-3.519 -0.36,-7.586 2.683,-9.727 V 18 h 114 V 43.5 H 138 z" />
		<path
   style="fill:#ffffff"
   inkscape:connector-curvature="0"
   id="path11"
   d="m 17.733,128.54 c 0.077,0.174 0.173,0.335 0.267,0.498 v -5.309 c -0.823,1.423 -0.987,3.2 -0.267,4.811 z" />
	</g><path
   style="fill:#ffffff"
   inkscape:connector-curvature="0"
   id="path13"
   d="m 61.424,105.17 c 0.477,0.213 0.782,0.687 0.782,1.208 v 19.964 c 0,2.918 2.373,5.292 5.291,5.292 2.918,0 5.291,-2.375 5.291,-5.292 v -24.253 c 0,-2.083 -1.229,-3.979 -3.132,-4.831 L 53.477,90.023 c -0.182,-0.081 -0.33,-0.203 -0.453,-0.345 l -8.918,7.748 17.318,7.744 z" /><g
   id="g15">
		
			<path
   style="fill:none;stroke:#ffffff;stroke-width:1.55999994;stroke-linecap:round;stroke-linejoin:round;stroke-miterlimit:10"
   inkscape:connector-curvature="0"
   id="path17"
   d="m 118.682,58.586 7.278,-2.093 -7.754,-0.574 c 0,0 9.244,-4.781 19.356,-1.106 10e-4,0 -12.409,6.204 -18.88,3.773 z"
   stroke-miterlimit="10" />
		<g
   id="g19">
			<g
   id="g21">
				<path
   style="fill:#ffffff"
   inkscape:connector-curvature="0"
   id="path23"
   d="m 114.599,58.745 c 0.022,0.161 0.172,0.274 0.332,0.253 l 0.322,-0.044 c 0.16,-0.021 0.274,-0.171 0.252,-0.332 l -0.167,-1.233 c -0.022,-0.161 -0.172,-0.274 -0.332,-0.252 l -0.324,0.045 c -0.16,0.022 -0.274,0.172 -0.252,0.333 l 0.169,1.23 z" />
			</g>
			
				<ellipse
   style="fill:#ffffff"
   sodipodi:ry="0.926"
   sodipodi:rx="0.55199999"
   sodipodi:cy="58.016998"
   sodipodi:cx="115.291"
   id="ellipse25"
   ry="0.926"
   rx="0.55199999"
   cy="58.016998"
   cx="115.291"
   transform="matrix(-0.991,0.134,-0.134,-0.991,237.3186,100.0566)" />
		</g>
		
			<rect
   style="fill:#ffffff"
   id="rect27"
   height="2.8210001"
   width="2.6919999"
   transform="matrix(-0.9906,0.1366,-0.1366,-0.9906,233.4944,100.3846)"
   y="56.791"
   x="111.958" />
		
			<rect
   style="fill:#ffffff"
   id="rect29"
   height="2.6849999"
   width="1.615"
   transform="matrix(-0.9906,0.137,-0.137,-0.9906,231.3859,102.0843)"
   y="57.660999"
   x="111.373" />
		<g
   id="g31">
			<path
   style="fill:#ffffff"
   inkscape:connector-curvature="0"
   id="path33"
   d="m 110.016,77.244 c 0.294,-0.04 0.501,-0.311 0.46,-0.605 L 108.39,61.416 c -0.041,-0.293 0.164,-0.564 0.455,-0.604 l 3.471,-0.476 c 0.293,-0.041 0.499,-0.312 0.46,-0.604 -0.041,-0.296 -0.311,-0.498 -0.604,-0.46 l -3.471,0.478 c -0.877,0.12 -1.495,0.933 -1.374,1.812 l 2.086,15.223 c 0.04,0.294 0.31,0.5 0.603,0.459 z" />
		</g>
		<g
   id="g35">
			<path
   style="fill:#ffffff"
   inkscape:connector-curvature="0"
   id="path37"
   d="m 107.165,77.654 c 0.292,-0.04 0.497,-0.309 0.456,-0.604 l -0.677,-4.934 0.754,-2.402 -1.106,-8.063 c -0.16,-1.172 0.597,-2.247 1.689,-2.396 l 4.073,-0.56 c 0.293,-0.041 0.497,-0.311 0.459,-0.605 -0.041,-0.292 -0.31,-0.498 -0.605,-0.457 l -4.073,0.558 c -1.677,0.231 -2.848,1.846 -2.604,3.605 l 1.104,8.061 -0.75,2.404 0.674,4.935 c 0.04,0.294 0.313,0.499 0.606,0.458 z" />
		</g>
		
			<rect
   style="fill:#ffffff"
   id="rect39"
   height="2.8729999"
   width="3.95"
   transform="matrix(-0.9908,0.135,-0.135,-0.9908,225.896,135.875)"
   y="74.158997"
   x="106.367" />
		
			<rect
   style="fill:#ffffff"
   id="rect41"
   height="11.4"
   width="4.2309999"
   transform="matrix(-0.9908,0.1354,-0.1354,-0.9908,228.2101,146.9184)"
   y="75.517998"
   x="106.995" />
		
			<rect
   style="fill:#ffffff"
   id="rect43"
   height="3.7750001"
   width="2.198"
   transform="matrix(-0.9907,0.1359,-0.1359,-0.9907,230.9096,159.6829)"
   y="85.837997"
   x="108.903" />
		<g
   id="g45">
			
				<line
   style="fill:none;stroke:#ffffff;stroke-width:1.07249999;stroke-miterlimit:10"
   id="line47"
   y2="68.202003"
   x2="105.215"
   y1="70.125999"
   x1="105.482"
   stroke-miterlimit="10" />
			
				<line
   style="fill:none;stroke:#ffffff;stroke-width:0.91159999;stroke-miterlimit:10"
   id="line49"
   y2="69.132004"
   x2="105.576"
   y1="68.936996"
   x1="107.003"
   stroke-miterlimit="10" />
		</g>
		<g
   id="g51">
			
				<line
   style="fill:none;stroke:#ffffff;stroke-width:1.07249999;stroke-miterlimit:10"
   id="line53"
   y2="73.162003"
   x2="104.725"
   y1="75.088997"
   x1="104.987"
   stroke-miterlimit="10" />
			
				<line
   style="fill:none;stroke:#ffffff;stroke-width:0.91159999;stroke-miterlimit:10"
   id="line55"
   y2="74.095001"
   x2="105.084"
   y1="73.900002"
   x1="106.509"
   stroke-miterlimit="10" />
		</g>
	</g><path
   style="fill:none;stroke:#ffffff;stroke-width:1.5;stroke-miterlimit:10"
   inkscape:connector-curvature="0"
   id="path57"
   d="m 108.545,86.814 c 0.327,4.418 2.744,18.224 5.853,23.461 3.107,5.237 7.903,25.688 -6.044,20.341 -12.828,-4.916 -17.68,1.507 -19.807,2.653"
   stroke-miterlimit="10" /><path
   style="fill:none;stroke:#ffffff;stroke-width:1.5;stroke-miterlimit:10"
   inkscape:connector-curvature="0"
   id="path59"
   d="m 111.221,86.536 c 0.327,4.418 2.744,18.224 5.853,23.461 3.109,5.237 7.904,25.688 -6.044,20.341 -12.828,-4.916 -17.68,1.507 -19.806,2.653"
   stroke-miterlimit="10" /><path
   style="fill:#ffffff"
   inkscape:connector-curvature="0"
   id="path61"
   d="m 92.604,47.839 0.222,4.257 2.113,-0.108 c 0.098,-0.603 0.224,-1.569 0.184,-2.303 -0.041,-0.691 -0.237,-1.46 -0.384,-1.957 l -2.135,0.111 z" /><path
   style="fill:#ffffff"
   inkscape:connector-curvature="0"
   id="path63"
   d="m 97.318,49.494 c 0,0 0,0 0,0 v -10e-4 c -0.063,-1.068 -0.485,-2.246 -0.504,-2.295 -0.11,-0.309 -0.454,-0.469 -0.757,-0.356 -0.309,0.112 -0.468,0.452 -0.358,0.759 0.005,0.01 0.383,1.068 0.436,1.962 l 0,0 c 0.053,0.904 -0.222,2.256 -0.223,2.269 -0.066,0.321 0.141,0.634 0.461,0.7 0.04,0.008 0.081,0.011 0.119,0.011 0.277,0 0.522,-0.193 0.58,-0.474 0.013,-0.061 0.306,-1.516 0.246,-2.575 z" /><g
   id="g65">
		<path
   style="fill:#ffffff"
   inkscape:connector-curvature="0"
   id="path67"
   d="m 71.979,48.391 c 1.167,1.202 3.995,2.25 7.697,1.908 4.595,-0.434 10.244,-0.818 11.508,-0.903 l -0.115,-2.229 c -0.011,-0.2 0.059,-0.394 0.191,-0.542 0.132,-0.148 0.319,-0.236 0.519,-0.247 l 1.998,-0.104 c -1.651,-4.531 -5.985,-7.773 -11.089,-7.773 -5.38,0 -9.911,3.599 -11.338,8.518 -0.009,0.566 0.32,1.055 0.629,1.372 z" />
		<path
   style="fill:#ffffff"
   inkscape:connector-curvature="0"
   id="path69"
   d="m 94.214,47.755 -1.609,0.083 0.222,4.257 1.538,-0.079 c 0.08,-0.558 0.136,-1.123 0.136,-1.703 C 94.5,49.435 94.396,48.58 94.214,47.755 z" />
		<path
   style="fill:#ffffff"
   inkscape:connector-curvature="0"
   id="path71"
   d="m 92.115,53.634 c -0.397,0 -0.728,-0.311 -0.748,-0.711 l -0.106,-2.028 c -1.305,0.087 -6.896,0.469 -11.444,0.897 -0.516,0.049 -1.028,0.073 -1.532,0.073 -3.091,0 -5.877,-0.894 -7.365,-2.414 -0.021,0.287 -0.044,0.573 -0.044,0.864 0,6.524 5.288,11.813 11.813,11.813 5.405,0 9.952,-3.634 11.356,-8.59 l -1.891,0.096 c -0.014,0 -0.027,0 -0.039,0 z" />
	</g><g
   id="g73">
		<path
   style="fill:#ffffff"
   inkscape:connector-curvature="0"
   id="path75"
   d="m 46.505,97.746 c 1.025,0 2.022,-0.217 2.96,-0.599 v -4.304 c 0,-2.917 -2.373,-5.29 -5.291,-5.29 -2.683,0 -4.882,2.013 -5.223,4.604 0.227,0.726 0.523,1.433 0.96,2.081 1.475,2.197 3.94,3.508 6.594,3.508 z" />
		<path
   style="fill:#ffffff"
   inkscape:connector-curvature="0"
   id="path77"
   d="m 42.432,99.567 c -1.334,-0.554 -2.54,-1.382 -3.55,-2.435 v 16.154 L 20.4,121.549 c -2.661,1.193 -3.858,4.329 -2.667,6.991 0.85,1.904 2.747,3.133 4.832,3.133 0.746,0 1.471,-0.155 2.156,-0.461 l 21.612,-9.666 c 1.902,-0.852 3.132,-2.748 3.132,-4.83 v -13.995 l -7,-3.13 c -0.013,-0.006 -0.021,-0.018 -0.033,-0.024 z" />
	</g><path
   style="fill:#ffffff"
   inkscape:connector-curvature="0"
   id="path79"
   d="m 74.162,74.922 c -0.487,-0.544 -0.442,-1.38 0.102,-1.869 0.543,-0.487 1.379,-0.443 1.867,0.102 l 3.439,3.837 c 2.933,-2.593 3.595,-7.011 1.351,-10.349 -0.061,-0.089 -0.132,-0.168 -0.194,-0.254 l -0.642,-0.716 c -0.035,-0.04 -0.048,-0.089 -0.078,-0.131 -1.479,-1.519 -3.513,-2.406 -5.678,-2.406 -1.578,0 -3.106,0.467 -4.422,1.353 L 42.066,83.223 c -1.761,1.184 -2.954,2.981 -3.36,5.062 -0.407,2.08 0.021,4.194 1.205,5.954 1.475,2.197 3.939,3.508 6.594,3.508 1.578,0 3.106,-0.468 4.419,-1.354 l 26.502,-17.83 -3.264,-3.641 z" /><path
   style="fill:#ffffff"
   inkscape:connector-curvature="0"
   id="path81"
   d="m 76.131,73.156 11.6,12.939 c 0.899,0.999 2.258,1.483 3.599,1.267 l 20.834,-3.417 c 1.046,-0.171 1.963,-0.74 2.581,-1.6 0.618,-0.861 0.864,-1.91 0.692,-2.956 -0.353,-2.159 -2.407,-3.632 -4.56,-3.275 L 92.905,79.06 c -0.453,0.073 -0.899,-0.087 -1.199,-0.422 l -11.377,-12.69 -4.481,6.997 c 0.098,0.063 0.201,0.119 0.283,0.211 z" />
</svg>