<?xml version="1.0" encoding="utf-8"?>
<!-- Generator: Adobe Illustrator 16.0.3, SVG Export Plug-In . SVG Version: 6.00 Build 0)  -->
<!DOCTYPE svg PUBLIC "-//W3C//DTD SVG 1.1//EN" "http://www.w3.org/Graphics/SVG/1.1/DTD/svg11.dtd">
<svg version="1.1" id="Слой_1" xmlns="http://www.w3.org/2000/svg" xmlns:xlink="http://www.w3.org/1999/xlink" x="0px" y="0px"
	 width="95px" height="95px" viewBox="0 0 95 95" enable-background="new 0 0 95 95" xml:space="preserve">
<g>
	<rect fill="#1A87CA" width="95" height="95.001"/>
	<g>
		
			<path fill="none" stroke="#FFFFFF" stroke-width="2.3891" stroke-linecap="round" stroke-linejoin="round" stroke-miterlimit="10" d="
			M37.562,23.026L25.544,19.75l11.657-2.478c0,0-14.051-3.949-25.198,1.63C12.003,18.902,29.31,27.059,37.562,23.026z"/>
		<g>
			<g>
				<path fill="#FFFFFF" d="M43.857,21.364c0,0.459-0.376,0.835-0.836,0.835H42.1c-0.46,0-0.836-0.376-0.836-0.835v-3.518
					c0-0.459,0.376-0.835,0.836-0.835h0.922c0.46,0,0.836,0.376,0.836,0.835V21.364z"/>
			</g>
			<ellipse fill="#FFFFFF" cx="41.634" cy="19.587" rx="1.565" ry="2.623"/>
		</g>
		<rect x="43.468" y="15.343" fill="#FFFFFF" width="7.63" height="7.991"/>
		<rect x="48.459" y="17.348" fill="#FFFFFF" width="4.571" height="7.61"/>
		<g>
			<path fill="#FFFFFF" d="M63.832,71.518c-0.84,0-1.52-0.68-1.52-1.519V26.471c0-0.838-0.682-1.52-1.518-1.52h-9.922
				c-0.84,0-1.519-0.68-1.519-1.519c0-0.839,0.679-1.519,1.519-1.519h9.922c2.512,0,4.556,2.044,4.556,4.557v43.528
				C65.351,70.838,64.671,71.518,63.832,71.518z"/>
		</g>
		<g>
			<path fill="#FFFFFF" d="M71.996,71.571c-0.839,0-1.52-0.68-1.52-1.519v-14.11l-3.038-6.453v-23.05
				c0-3.35-2.536-6.076-5.658-6.076H50.135c-0.84,0-1.52-0.68-1.52-1.519c0-0.838,0.68-1.519,1.52-1.519H61.78
				c4.795,0,8.696,4.088,8.696,9.114v23.05l3.039,6.453v14.11C73.516,70.891,72.836,71.571,71.996,71.571z"/>
		</g>
		<rect x="62.308" y="62.185" fill="#FFFFFF" width="11.191" height="8.128"/>
		<rect x="60.455" y="66.167" fill="#FFFFFF" width="14.896" height="14.33"/>
		<g>
			
				<line fill="none" stroke="#FFFFFF" stroke-width="3.038" stroke-miterlimit="10" x1="73.823" y1="49.797" x2="73.823" y2="44.29"/>
			
				<line fill="none" stroke="#FFFFFF" stroke-width="2.5823" stroke-miterlimit="10" x1="69.098" y1="47.043" x2="73.174" y2="47.043"/>
		</g>
		<g>
			
				<line fill="none" stroke="#FFFFFF" stroke-width="3.038" stroke-miterlimit="10" x1="77.113" y1="63.533" x2="77.113" y2="58.026"/>
			
				<line fill="none" stroke="#FFFFFF" stroke-width="2.5823" stroke-miterlimit="10" x1="72.386" y1="60.78" x2="76.462" y2="60.78"/>
		</g>
	</g>
</g>
</svg>
