<?xml version="1.0" encoding="utf-8"?>
<!-- Generator: Adobe Illustrator 16.0.3, SVG Export Plug-In . SVG Version: 6.00 Build 0)  -->
<!DOCTYPE svg PUBLIC "-//W3C//DTD SVG 1.1//EN" "http://www.w3.org/Graphics/SVG/1.1/DTD/svg11.dtd">
<svg version="1.1" id="Слой_1" xmlns="http://www.w3.org/2000/svg" xmlns:xlink="http://www.w3.org/1999/xlink" x="0px" y="0px"
	 width="95px" height="95px" viewBox="0 0 95 95" enable-background="new 0 0 95 95" xml:space="preserve">
<g>
	<rect fill="#1A87CA" width="95" height="95"/>
	<g>
		<path fill="#FFFFFF" d="M48.959,43.118c-0.39-0.219-0.91-0.339-1.459-0.339c-0.55,0-1.068,0.12-1.46,0.339
			c-0.811,0.457-1.343,2.177-1.186,3.834l0.23,2.456c0.159,1.677,1.243,3.043,2.415,3.043c1.172,0,2.256-1.366,2.414-3.043
			l0.232-2.456C50.303,45.295,49.77,43.575,48.959,43.118z"/>
		<path fill="#FFFFFF" d="M48.497,53.711h-1.994c-0.631,0-1.143,0.479-1.143,1.067v0.937v0.907c0,0.565,0.49,1.214,1.089,1.45
			c0.282,0.109,0.655,0.17,1.051,0.17c0.396,0,0.769-0.061,1.05-0.17c0.601-0.236,1.089-0.885,1.089-1.45v-0.907v-0.937
			C49.64,54.19,49.128,53.711,48.497,53.711z"/>
		<path fill="#FFFFFF" d="M77.311,20.974v12.739H50.676l-1.926-3.174c-0.266-0.438-0.739-0.705-1.25-0.705
			c-0.512,0-0.985,0.267-1.25,0.705l-1.923,3.174H17.69V20.974h-5.844v53.053h5.844V61.559h9.764
			c-0.223,0.435-0.225,0.952,0.019,1.382c0.258,0.458,0.744,0.744,1.273,0.744h37.508c0.004,0,0.006,0,0.007,0
			c0.806,0,1.461-0.655,1.461-1.462c0-0.243-0.075-0.462-0.181-0.665h9.769v12.467h5.843V20.974H77.311z M17.69,55.715V39.557
			h23.092l-9.798,16.158H17.69z M31.34,60.761l3.062-5.046L44.2,39.557l3.3-5.443l3.301,5.443l9.799,16.158l3.06,5.046H31.34z
			 M77.311,55.715H64.016L54.22,39.557h23.091V55.715z"/>
	</g>
</g>
</svg>
