<?xml version="1.0" encoding="UTF-8" standalone="no"?>
<!-- Generator: Adobe Illustrator 16.0.3, SVG Export Plug-In . SVG Version: 6.00 Build 0)  -->

<svg
   xmlns:dc="http://purl.org/dc/elements/1.1/"
   xmlns:cc="http://creativecommons.org/ns#"
   xmlns:rdf="http://www.w3.org/1999/02/22-rdf-syntax-ns#"
   xmlns:svg="http://www.w3.org/2000/svg"
   xmlns="http://www.w3.org/2000/svg"
   xmlns:sodipodi="http://sodipodi.sourceforge.net/DTD/sodipodi-0.dtd"
   xmlns:inkscape="http://www.inkscape.org/namespaces/inkscape"
   version="1.1"
   id="Слой_1"
   x="0px"
   y="0px"
   width="150px"
   height="150px"
   viewBox="0 0 150 150"
   enable-background="new 0 0 150 150"
   xml:space="preserve"
   inkscape:version="0.48.4 r9939"
   sodipodi:docname="rule8_150.svg"><metadata
   id="metadata19"><rdf:RDF><cc:Work
       rdf:about=""><dc:format>image/svg+xml</dc:format><dc:type
         rdf:resource="http://purl.org/dc/dcmitype/StillImage" /></cc:Work></rdf:RDF></metadata><defs
   id="defs17">
	
	
</defs><sodipodi:namedview
   pagecolor="#ffffff"
   bordercolor="#666666"
   borderopacity="1"
   objecttolerance="10"
   gridtolerance="10"
   guidetolerance="10"
   inkscape:pageopacity="0"
   inkscape:pageshadow="2"
   inkscape:window-width="640"
   inkscape:window-height="480"
   id="namedview15"
   showgrid="false"
   inkscape:zoom="1.806875"
   inkscape:cx="75"
   inkscape:cy="75"
   inkscape:window-x="0"
   inkscape:window-y="0"
   inkscape:window-maximized="0"
   inkscape:current-layer="Слой_1" />
<g
   id="g7">
		<path
   style="fill:#ffffff"
   inkscape:connector-curvature="0"
   id="path9"
   d="m 77.305,68.081 c -0.616,-0.347 -1.436,-0.537 -2.304,-0.537 -0.87,0 -1.687,0.19 -2.306,0.537 -1.28,0.721 -2.121,3.437 -1.872,6.053 l 0.364,3.878 c 0.251,2.648 1.963,4.805 3.813,4.805 1.852,0 3.563,-2.157 3.812,-4.805 l 0.367,-3.878 c 0.246,-2.616 -0.594,-5.332 -1.874,-6.053 z" />
		<path
   style="fill:#ffffff"
   inkscape:connector-curvature="0"
   id="path11"
   d="m 76.575,84.807 h -3.149 c -0.996,0 -1.805,0.756 -1.805,1.685 v 1.479 1.432 c 0,0.891 0.773,1.916 1.72,2.289 0.445,0.173 1.035,0.269 1.661,0.269 0.624,0 1.213,-0.096 1.659,-0.269 0.949,-0.373 1.72,-1.398 1.72,-2.289 v -1.432 -1.479 c -0.002,-0.929 -0.81,-1.685 -1.806,-1.685 z" />
		<path
   style="fill:#ffffff"
   inkscape:connector-curvature="0"
   id="path13"
   d="M 122.07,33.116 V 53.23 H 80.014 l -3.041,-5.012 c -0.419,-0.69 -1.166,-1.111 -1.972,-1.111 -0.808,0 -1.555,0.421 -1.974,1.111 L 69.989,53.23 H 27.933 V 33.116 h -9.229 v 83.768 h 9.229 V 97.199 H 43.35 c -0.352,0.686 -0.355,1.503 0.028,2.183 0.408,0.723 1.175,1.174 2.01,1.174 h 59.224 c 0.006,0 0.009,0 0.012,0 1.271,0 2.306,-1.034 2.306,-2.309 0,-0.384 -0.118,-0.729 -0.285,-1.049 h 15.425 v 19.685 h 9.226 V 33.116 H 122.07 z M 27.933,87.971 V 62.458 h 36.46 L 48.922,87.971 H 27.933 z m 21.551,7.968 4.834,-7.969 15.471,-25.513 5.212,-8.594 5.212,8.594 15.472,25.513 4.831,7.969 H 49.484 z M 122.07,87.971 H 101.078 L 85.61,62.458 h 36.46 v 25.513 z" />
	</g>
</svg>