<?xml version="1.0" encoding="UTF-8" standalone="no"?>
<!-- Generator: Adobe Illustrator 16.0.3, SVG Export Plug-In . SVG Version: 6.00 Build 0)  -->

<svg
   xmlns:dc="http://purl.org/dc/elements/1.1/"
   xmlns:cc="http://creativecommons.org/ns#"
   xmlns:rdf="http://www.w3.org/1999/02/22-rdf-syntax-ns#"
   xmlns:svg="http://www.w3.org/2000/svg"
   xmlns="http://www.w3.org/2000/svg"
   xmlns:sodipodi="http://sodipodi.sourceforge.net/DTD/sodipodi-0.dtd"
   xmlns:inkscape="http://www.inkscape.org/namespaces/inkscape"
   version="1.1"
   id="Слой_1"
   x="0px"
   y="0px"
   width="150px"
   height="150px"
   viewBox="0 0 150 150"
   enable-background="new 0 0 150 150"
   xml:space="preserve"
   inkscape:version="0.48.4 r9939"
   sodipodi:docname="rule2_150.svg"><metadata
   id="metadata25"><rdf:RDF><cc:Work
       rdf:about=""><dc:format>image/svg+xml</dc:format><dc:type
         rdf:resource="http://purl.org/dc/dcmitype/StillImage" /></cc:Work></rdf:RDF></metadata><defs
   id="defs23">
	
	
</defs><sodipodi:namedview
   pagecolor="#ffffff"
   bordercolor="#666666"
   borderopacity="1"
   objecttolerance="10"
   gridtolerance="10"
   guidetolerance="10"
   inkscape:pageopacity="0"
   inkscape:pageshadow="2"
   inkscape:window-width="640"
   inkscape:window-height="480"
   id="namedview21"
   showgrid="false"
   inkscape:zoom="1.806875"
   inkscape:cx="75"
   inkscape:cy="75"
   inkscape:window-x="0"
   inkscape:window-y="0"
   inkscape:window-maximized="0"
   inkscape:current-layer="Слой_1" />
<g
   id="g7">
		<path
   style="fill:#ffffff"
   inkscape:connector-curvature="0"
   id="path9"
   d="m 119.187,45.875 c -0.69,0 -1.381,0.036 -2.064,0.106 -2.519,-14.376 -15.268,-25.13 -29.947,-25.13 -8.242,0 -15.917,3.222 -21.679,9.086 -2.87,-1.548 -6.104,-2.363 -9.388,-2.363 -10.595,0 -19.273,8.364 -19.78,18.933 -1.622,-0.42 -3.296,-0.633 -4.988,-0.633 -10.919,0 -19.803,8.883 -19.803,19.802 0,10.919 8.885,19.804 19.804,19.804 h 87.845 c 10.919,0 19.802,-8.884 19.802,-19.803 0,-10.919 -8.883,-19.802 -19.802,-19.802 z" />
		<path
   style="fill:#ffffff"
   inkscape:connector-curvature="0"
   id="path11"
   d="m 44.915,94.055 0.331,-1.227 -1.228,0.33 c -1.143,0.308 -11.229,3.072 -13.515,5.359 -1.209,1.208 -1.875,2.816 -1.875,4.526 0,1.71 0.667,3.317 1.875,4.526 1.209,1.209 2.816,1.875 4.525,1.875 1.71,0 3.317,-0.666 4.526,-1.875 2.288,-2.285 5.053,-12.371 5.361,-13.514 z" />
		<path
   style="fill:#ffffff"
   inkscape:connector-curvature="0"
   id="path13"
   d="m 81.004,92.829 -1.227,0.33 c -1.143,0.308 -11.229,3.072 -13.515,5.359 -1.209,1.209 -1.875,2.816 -1.875,4.526 0,1.71 0.666,3.316 1.875,4.526 1.209,1.209 2.816,1.875 4.526,1.875 1.709,0 3.317,-0.666 4.525,-1.875 2.287,-2.286 5.051,-12.372 5.359,-13.514 l 0.332,-1.227 z" />
		<path
   style="fill:#ffffff"
   inkscape:connector-curvature="0"
   id="path15"
   d="m 103.874,98.518 c -1.209,1.209 -1.875,2.816 -1.875,4.526 0,1.71 0.666,3.316 1.875,4.526 1.209,1.209 2.817,1.875 4.527,1.875 1.71,0 3.317,-0.666 4.527,-1.875 2.286,-2.287 5.049,-12.372 5.357,-13.514 l 0.33,-1.227 -1.227,0.33 c -1.143,0.307 -11.229,3.072 -13.514,5.359 z" />
		<path
   style="fill:#ffffff"
   inkscape:connector-curvature="0"
   id="path17"
   d="m 39.347,119.802 c -1.209,1.209 -1.875,2.816 -1.875,4.526 0,1.709 0.666,3.316 1.875,4.525 1.208,1.209 2.816,1.875 4.525,1.875 1.71,0 3.318,-0.665 4.526,-1.875 2.287,-2.286 5.051,-12.372 5.358,-13.514 l 0.331,-1.227 -1.227,0.331 c -1.142,0.308 -11.227,3.073 -13.513,5.359 z" />
		<path
   style="fill:#ffffff"
   inkscape:connector-curvature="0"
   id="path19"
   d="m 77.321,119.802 c -2.495,2.495 -2.495,6.557 0,9.052 1.209,1.209 2.816,1.875 4.526,1.875 1.709,0 3.317,-0.665 4.526,-1.875 2.287,-2.286 5.051,-12.371 5.359,-13.514 l 0.33,-1.227 -1.227,0.331 c -1.142,0.307 -11.227,3.072 -13.514,5.358 z" />
	</g>
</svg>