<?xml version="1.0" encoding="utf-8"?>
<!-- Generator: Adobe Illustrator 16.0.3, SVG Export Plug-In . SVG Version: 6.00 Build 0)  -->
<!DOCTYPE svg PUBLIC "-//W3C//DTD SVG 1.1//EN" "http://www.w3.org/Graphics/SVG/1.1/DTD/svg11.dtd">
<svg version="1.1" id="Слой_1" xmlns="http://www.w3.org/2000/svg" xmlns:xlink="http://www.w3.org/1999/xlink" x="0px" y="0px"
	 width="95px" height="95px" viewBox="0 0 95 95" enable-background="new 0 0 95 95" xml:space="preserve">
<g>
	<rect fill="#CDD0D5" width="95" height="95"/>
	<g>
		<path fill="#FFFFFF" d="M75.485,29.054c-0.438,0-0.875,0.023-1.307,0.067c-1.595-9.105-9.67-15.916-18.967-15.916
			c-5.22,0-10.081,2.041-13.729,5.755c-1.818-0.98-3.866-1.496-5.946-1.496c-6.71,0-12.206,5.297-12.527,11.991
			c-1.027-0.266-2.087-0.401-3.159-0.401c-6.915,0-12.542,5.626-12.542,12.542c0,6.915,5.626,12.542,12.542,12.542h55.636
			c6.915,0,12.541-5.626,12.541-12.542C88.026,34.681,82.4,29.054,75.485,29.054z"/>
		<path fill="#FFFFFF" d="M28.446,59.568l0.209-0.776L27.878,59c-0.724,0.195-7.112,1.946-8.559,3.394
			c-0.766,0.765-1.188,1.783-1.188,2.866s0.422,2.101,1.188,2.867c0.766,0.766,1.783,1.187,2.866,1.187
			c1.083,0,2.101-0.421,2.866-1.187C26.5,66.68,28.251,60.292,28.446,59.568z"/>
		<path fill="#FFFFFF" d="M51.303,58.792L50.526,59c-0.724,0.195-7.112,1.946-8.559,3.394c-0.766,0.766-1.188,1.783-1.188,2.866
			s0.421,2.1,1.188,2.867c0.766,0.766,1.783,1.187,2.867,1.187c1.083,0,2.101-0.421,2.866-1.187c1.448-1.448,3.199-7.835,3.394-8.56
			L51.303,58.792z"/>
		<path fill="#FFFFFF" d="M65.787,62.395c-0.766,0.766-1.188,1.783-1.188,2.866s0.422,2.1,1.188,2.867
			c0.766,0.766,1.784,1.187,2.867,1.187c1.083,0,2.101-0.421,2.867-1.187c1.448-1.448,3.198-7.836,3.393-8.56l0.209-0.776L74.346,59
			C73.622,59.195,67.234,60.946,65.787,62.395z"/>
		<path fill="#FFFFFF" d="M24.919,75.875c-0.766,0.766-1.188,1.784-1.188,2.867s0.421,2.101,1.188,2.866
			c0.766,0.766,1.784,1.187,2.866,1.187c1.083,0,2.102-0.421,2.867-1.187c1.448-1.447,3.199-7.835,3.394-8.559l0.209-0.777
			l-0.777,0.209C32.755,72.676,26.367,74.427,24.919,75.875z"/>
		<path fill="#FFFFFF" d="M48.97,75.875c-1.58,1.581-1.58,4.153,0,5.733c0.766,0.766,1.784,1.187,2.867,1.187
			s2.101-0.421,2.866-1.187c1.448-1.448,3.199-7.835,3.394-8.559l0.209-0.777l-0.777,0.209
			C56.806,72.676,50.418,74.427,48.97,75.875z"/>
	</g>
</g>
</svg>
