<?xml version="1.0" encoding="utf-8"?>
<!-- Generator: Adobe Illustrator 16.0.3, SVG Export Plug-In . SVG Version: 6.00 Build 0)  -->
<!DOCTYPE svg PUBLIC "-//W3C//DTD SVG 1.1//EN" "http://www.w3.org/Graphics/SVG/1.1/DTD/svg11.dtd">
<svg version="1.1" id="Слой_1" xmlns="http://www.w3.org/2000/svg" xmlns:xlink="http://www.w3.org/1999/xlink" x="0px" y="0px"
	 width="95px" height="95px" viewBox="0 0 95 95" enable-background="new 0 0 95 95" xml:space="preserve">
<g>
	<rect fill="#CDD0D5" width="95" height="95"/>
	<g>
		<path fill="#FFFFFF" d="M87.399,27.55V7.6H7.601v79.799h79.799V41.8h-3.8v41.799H18.646L16.34,84.63
			c-0.649,0.292-1.339,0.439-2.05,0.439c-1.979,0-3.782-1.168-4.589-2.977c-0.997-2.229-0.229-4.805,1.699-6.16V11.4H83.6v16.15
			H87.399z"/>
		<path fill="#FFFFFF" d="M11.231,81.408c0.049,0.111,0.108,0.213,0.169,0.316v-3.362C10.879,79.263,10.774,80.389,11.231,81.408z"
			/>
	</g>
	<path fill="#FFFFFF" d="M38.902,66.608c0.302,0.135,0.495,0.435,0.495,0.765v12.644c0,1.849,1.503,3.353,3.351,3.353
		c1.849,0,3.351-1.504,3.351-3.353v-15.36c0-1.319-0.778-2.521-1.983-3.06l-10.246-4.582c-0.115-0.052-0.209-0.129-0.286-0.218
		l-5.649,4.907L38.902,66.608z"/>
	<g>
		
			<path fill="none" stroke="#FFFFFF" stroke-width="0.988" stroke-linecap="round" stroke-linejoin="round" stroke-miterlimit="10" d="
			M75.165,37.105l4.61-1.326l-4.912-0.363c0,0,5.855-3.028,12.259-0.701C87.122,34.715,79.264,38.644,75.165,37.105z"/>
		<g>
			<g>
				<path fill="#FFFFFF" d="M72.579,37.206c0.014,0.102,0.108,0.174,0.211,0.16l0.203-0.027c0.103-0.014,0.174-0.109,0.16-0.21
					l-0.106-0.781c-0.014-0.102-0.108-0.174-0.211-0.16l-0.204,0.028c-0.103,0.014-0.174,0.109-0.16,0.21L72.579,37.206z"/>
			</g>
			<path fill="#FFFFFF" d="M72.671,36.791c0.044,0.322,0.235,0.561,0.428,0.534c0.191-0.026,0.311-0.308,0.266-0.627
				c-0.044-0.322-0.234-0.561-0.425-0.534C72.745,36.191,72.628,36.471,72.671,36.791z"/>
		</g>
		
			<rect x="70.905" y="35.968" transform="matrix(-0.9906 0.1365 -0.1365 -0.9906 147.8763 63.5832)" fill="#FFFFFF" width="1.706" height="1.787"/>
		
			<rect x="70.537" y="36.518" transform="matrix(-0.9906 0.1367 -0.1367 -0.9906 146.538 64.6711)" fill="#FFFFFF" width="1.021" height="1.701"/>
		<g>
			<path fill="#FFFFFF" d="M69.677,48.921c0.187-0.025,0.317-0.196,0.291-0.383l-1.321-9.641c-0.025-0.186,0.104-0.357,0.289-0.382
				l2.198-0.302c0.185-0.025,0.315-0.198,0.29-0.382c-0.025-0.187-0.196-0.316-0.382-0.291l-2.199,0.302
				c-0.555,0.076-0.945,0.591-0.869,1.147l1.32,9.641C69.32,48.816,69.491,48.947,69.677,48.921z"/>
		</g>
		<g>
			<path fill="#FFFFFF" d="M67.871,49.181c0.186-0.025,0.315-0.196,0.289-0.382l-0.429-3.124l0.478-1.522l-0.7-5.107
				c-0.102-0.742,0.377-1.422,1.07-1.517l2.579-0.354c0.185-0.026,0.314-0.196,0.291-0.383c-0.026-0.185-0.196-0.315-0.384-0.289
				l-2.58,0.354c-1.062,0.146-1.804,1.169-1.649,2.283l0.699,5.105l-0.475,1.522l0.427,3.125
				C67.513,49.077,67.686,49.207,67.871,49.181z"/>
		</g>
		
			<rect x="67.365" y="46.967" transform="matrix(-0.9908 0.135 -0.135 -0.9908 143.0687 86.0505)" fill="#FFFFFF" width="2.502" height="1.819"/>
		
			<rect x="67.762" y="47.827" transform="matrix(-0.9908 0.1351 -0.1351 -0.9908 144.5227 93.0642)" fill="#FFFFFF" width="2.681" height="7.22"/>
		
			<rect x="68.972" y="54.364" transform="matrix(-0.9908 0.1353 -0.1353 -0.9908 146.214 101.1797)" fill="#FFFFFF" width="1.393" height="2.391"/>
		<g>
			
				<line fill="none" stroke="#FFFFFF" stroke-width="0.6792" stroke-miterlimit="10" x1="66.806" y1="44.414" x2="66.637" y2="43.194"/>
			
				<line fill="none" stroke="#FFFFFF" stroke-width="0.5773" stroke-miterlimit="10" x1="67.768" y1="43.66" x2="66.864" y2="43.783"/>
		</g>
		<g>
			
				<line fill="none" stroke="#FFFFFF" stroke-width="0.6792" stroke-miterlimit="10" x1="66.492" y1="47.557" x2="66.325" y2="46.335"/>
			
				<line fill="none" stroke="#FFFFFF" stroke-width="0.5773" stroke-miterlimit="10" x1="67.455" y1="46.803" x2="66.553" y2="46.927"/>
		</g>
	</g>
	<path fill="none" stroke="#FFFFFF" stroke-width="0.95" stroke-miterlimit="10" d="M68.745,54.982
		c0.208,2.798,1.738,11.542,3.706,14.858c1.969,3.317,5.006,16.269-3.828,12.883c-8.123-3.113-11.196,0.955-12.544,1.68"/>
	<path fill="none" stroke="#FFFFFF" stroke-width="0.95" stroke-miterlimit="10" d="M70.439,54.806
		c0.207,2.798,1.737,11.542,3.707,14.859c1.969,3.316,5.006,16.269-3.828,12.882c-8.124-3.113-11.196,0.955-12.543,1.68"/>
	<path fill="#FFFFFF" d="M58.649,30.298l0.141,2.696l1.339-0.068c0.062-0.382,0.142-0.994,0.115-1.459
		c-0.026-0.438-0.15-0.925-0.242-1.239L58.649,30.298z"/>
	<path fill="#FFFFFF" d="M61.635,31.346C61.635,31.346,61.635,31.346,61.635,31.346L61.635,31.346
		c-0.04-0.677-0.307-1.423-0.318-1.455c-0.07-0.195-0.288-0.297-0.479-0.226c-0.196,0.071-0.296,0.287-0.228,0.481
		c0.004,0.006,0.242,0.676,0.275,1.242l0,0c0.035,0.573-0.141,1.429-0.142,1.438c-0.041,0.203,0.091,0.401,0.293,0.443
		c0.026,0.005,0.052,0.007,0.076,0.007c0.175,0,0.331-0.123,0.367-0.3C61.486,32.938,61.673,32.017,61.635,31.346z"/>
	<g>
		<path fill="#FFFFFF" d="M45.587,30.647c0.739,0.761,2.53,1.426,4.875,1.208c2.91-0.275,6.487-0.518,7.288-0.571l-0.074-1.412
			c-0.006-0.126,0.037-0.249,0.122-0.343c0.084-0.094,0.202-0.15,0.328-0.156l1.266-0.066c-1.045-2.87-3.791-4.923-7.023-4.923
			c-3.407,0-6.276,2.279-7.181,5.395C45.183,30.137,45.391,30.447,45.587,30.647z"/>
		<path fill="#FFFFFF" d="M59.669,30.245l-1.02,0.054l0.141,2.696l0.975-0.05c0.05-0.353,0.086-0.711,0.086-1.079
			C59.851,31.309,59.783,30.767,59.669,30.245z"/>
		<path fill="#FFFFFF" d="M58.339,33.968c-0.251,0-0.46-0.197-0.474-0.45l-0.066-1.285c-0.826,0.055-4.368,0.297-7.248,0.568
			c-0.328,0.031-0.651,0.046-0.971,0.046c-1.958,0-3.722-0.566-4.665-1.529c-0.013,0.182-0.028,0.363-0.028,0.547
			c0,4.132,3.351,7.481,7.481,7.481c3.424,0,6.304-2.302,7.193-5.441l-1.198,0.061C58.355,33.968,58.347,33.968,58.339,33.968z"/>
	</g>
	<g>
		<path fill="#FFFFFF" d="M29.453,61.906c0.649,0,1.28-0.137,1.875-0.379v-2.726c0-1.847-1.503-3.35-3.351-3.35
			c-1.7,0-3.092,1.275-3.309,2.916c0.145,0.459,0.331,0.907,0.608,1.318C26.211,61.075,27.771,61.906,29.453,61.906z"/>
		<path fill="#FFFFFF" d="M26.873,63.059c-0.845-0.351-1.609-0.875-2.248-1.542v10.231l-11.704,5.233
			c-1.687,0.755-2.444,2.742-1.689,4.427c0.537,1.207,1.739,1.985,3.059,1.985c0.473,0,0.933-0.099,1.366-0.292l13.688-6.122
			c1.205-0.54,1.984-1.74,1.984-3.059v-8.864l-4.434-1.982C26.886,63.071,26.881,63.063,26.873,63.059z"/>
	</g>
	<path fill="#FFFFFF" d="M46.969,47.451c-0.309-0.345-0.279-0.875,0.064-1.184c0.345-0.308,0.874-0.28,1.183,0.065l2.179,2.43
		c1.857-1.643,2.276-4.44,0.855-6.554c-0.038-0.056-0.084-0.106-0.124-0.16l-0.405-0.454c-0.023-0.025-0.03-0.057-0.05-0.083
		c-0.937-0.962-2.225-1.523-3.596-1.523c-1,0-1.968,0.296-2.801,0.856L26.642,52.708c-1.114,0.749-1.871,1.888-2.127,3.206
		c-0.259,1.317,0.014,2.656,0.763,3.771c0.934,1.391,2.494,2.221,4.176,2.221c0.999,0,1.968-0.297,2.799-0.857l16.785-11.292
		L46.969,47.451z"/>
	<path fill="#FFFFFF" d="M48.216,46.332l7.348,8.194c0.569,0.633,1.429,0.939,2.277,0.803l13.196-2.164
		c0.661-0.108,1.242-0.468,1.634-1.014c0.392-0.545,0.548-1.209,0.439-1.872c-0.224-1.367-1.525-2.3-2.889-2.074L58.84,50.071
		c-0.287,0.046-0.57-0.055-0.76-0.268l-7.204-8.037l-2.839,4.432C48.1,46.238,48.165,46.274,48.216,46.332z"/>
</g>
</svg>
