<?xml version="1.0" encoding="UTF-8" standalone="no"?>
<!-- Generator: Adobe Illustrator 16.0.3, SVG Export Plug-In . SVG Version: 6.00 Build 0)  -->

<svg
   xmlns:dc="http://purl.org/dc/elements/1.1/"
   xmlns:cc="http://creativecommons.org/ns#"
   xmlns:rdf="http://www.w3.org/1999/02/22-rdf-syntax-ns#"
   xmlns:svg="http://www.w3.org/2000/svg"
   xmlns="http://www.w3.org/2000/svg"
   xmlns:sodipodi="http://sodipodi.sourceforge.net/DTD/sodipodi-0.dtd"
   xmlns:inkscape="http://www.inkscape.org/namespaces/inkscape"
   version="1.1"
   id="Слой_1"
   x="0px"
   y="0px"
   width="150px"
   height="150px"
   viewBox="0 0 150 150"
   enable-background="new 0 0 150 150"
   xml:space="preserve"
   inkscape:version="0.48.4 r9939"
   sodipodi:docname="rule12_150.svg"><metadata
   id="metadata51"><rdf:RDF><cc:Work
       rdf:about=""><dc:format>image/svg+xml</dc:format><dc:type
         rdf:resource="http://purl.org/dc/dcmitype/StillImage" /></cc:Work></rdf:RDF></metadata><defs
   id="defs49">
	
	
</defs><sodipodi:namedview
   pagecolor="#ffffff"
   bordercolor="#666666"
   borderopacity="1"
   objecttolerance="10"
   gridtolerance="10"
   guidetolerance="10"
   inkscape:pageopacity="0"
   inkscape:pageshadow="2"
   inkscape:window-width="640"
   inkscape:window-height="480"
   id="namedview47"
   showgrid="false"
   inkscape:zoom="1.806875"
   inkscape:cx="75"
   inkscape:cy="75"
   inkscape:window-x="0"
   inkscape:window-y="0"
   inkscape:window-maximized="0"
   inkscape:current-layer="Слой_1" />
<g
   id="g7">
		
			<path
   style="fill:none;stroke:#ffffff;stroke-width:3.77220011;stroke-linecap:round;stroke-linejoin:round;stroke-miterlimit:10"
   inkscape:connector-curvature="0"
   id="path9"
   d="M 59.309,36.356 40.332,31.185 58.739,27.272 c 0,0 -22.186,-6.236 -39.788,2.573 0,0.001 27.327,12.879 40.358,6.511 z"
   stroke-miterlimit="10" />
		<g
   id="g11">
			<g
   id="g13">
				<path
   style="fill:#ffffff"
   inkscape:connector-curvature="0"
   id="path15"
   d="m 69.248,33.731 c 0,0.726 -0.594,1.319 -1.319,1.319 h -1.456 c -0.726,0 -1.319,-0.594 -1.319,-1.319 v -5.553 c 0,-0.726 0.594,-1.319 1.319,-1.319 h 1.456 c 0.726,0 1.319,0.594 1.319,1.319 v 5.553 z" />
			</g>
			<ellipse
   style="fill:#ffffff"
   sodipodi:ry="4.1409998"
   sodipodi:rx="2.471"
   sodipodi:cy="30.927"
   sodipodi:cx="65.737999"
   id="ellipse17"
   ry="4.1409998"
   rx="2.471"
   cy="30.927"
   cx="65.737999" />
		</g>
		<rect
   style="fill:#ffffff"
   id="rect19"
   height="12.618"
   width="12.047"
   y="24.226"
   x="68.634003" />
		<rect
   style="fill:#ffffff"
   id="rect21"
   height="12.017"
   width="7.2189999"
   y="27.391001"
   x="76.514" />
		<g
   id="g23">
			<path
   style="fill:#ffffff"
   inkscape:connector-curvature="0"
   id="path25"
   d="m 100.787,112.923 c -1.325,0 -2.399,-1.074 -2.399,-2.398 V 41.796 c 0,-1.322 -1.075,-2.399 -2.396,-2.399 H 80.326 c -1.326,0 -2.397,-1.074 -2.397,-2.398 0,-1.325 1.071,-2.398 2.397,-2.398 h 15.665 c 3.967,0 7.193,3.228 7.193,7.195 v 68.729 c 0.001,1.324 -1.073,2.398 -2.397,2.398 z" />
		</g>
		<g
   id="g27">
			<path
   style="fill:#ffffff"
   inkscape:connector-curvature="0"
   id="path29"
   d="m 113.678,113.007 c -1.324,0 -2.398,-1.074 -2.398,-2.398 V 88.33 L 106.483,78.141 V 41.746 c 0,-5.29 -4.006,-9.593 -8.935,-9.593 H 79.16 c -1.325,0 -2.399,-1.074 -2.399,-2.399 0,-1.323 1.074,-2.398 2.399,-2.398 h 18.388 c 7.571,0 13.731,6.456 13.731,14.391 v 36.395 l 4.798,10.189 v 22.279 c 0,1.323 -1.072,2.397 -2.399,2.397 z" />
		</g>
		<rect
   style="fill:#ffffff"
   id="rect31"
   height="12.833"
   width="17.67"
   y="98.186996"
   x="98.380997" />
		<rect
   style="fill:#ffffff"
   id="rect33"
   height="22.625"
   width="23.521"
   y="104.475"
   x="95.455002" />
		<g
   id="g35">
			
				<line
   style="fill:none;stroke:#ffffff;stroke-width:4.79680014;stroke-miterlimit:10"
   id="line37"
   y2="69.931"
   x2="116.563"
   y1="78.625999"
   x1="116.563"
   stroke-miterlimit="10" />
			
				<line
   style="fill:none;stroke:#ffffff;stroke-width:4.07730007;stroke-miterlimit:10"
   id="line39"
   y2="74.278999"
   x2="115.538"
   y1="74.278999"
   x1="109.102"
   stroke-miterlimit="10" />
		</g>
		<g
   id="g41">
			
				<line
   style="fill:none;stroke:#ffffff;stroke-width:4.79680014;stroke-miterlimit:10"
   id="line43"
   y2="91.620003"
   x2="121.757"
   y1="100.315"
   x1="121.757"
   stroke-miterlimit="10" />
			
				<line
   style="fill:none;stroke:#ffffff;stroke-width:4.07730007;stroke-miterlimit:10"
   id="line45"
   y2="95.968002"
   x2="120.729"
   y1="95.968002"
   x1="114.294"
   stroke-miterlimit="10" />
		</g>
	</g>
</svg>