<?xml version="1.0" encoding="UTF-8" standalone="no"?>
<!-- Generator: Adobe Illustrator 16.0.3, SVG Export Plug-In . SVG Version: 6.00 Build 0)  -->

<svg
   xmlns:dc="http://purl.org/dc/elements/1.1/"
   xmlns:cc="http://creativecommons.org/ns#"
   xmlns:rdf="http://www.w3.org/1999/02/22-rdf-syntax-ns#"
   xmlns:svg="http://www.w3.org/2000/svg"
   xmlns="http://www.w3.org/2000/svg"
   xmlns:sodipodi="http://sodipodi.sourceforge.net/DTD/sodipodi-0.dtd"
   xmlns:inkscape="http://www.inkscape.org/namespaces/inkscape"
   version="1.1"
   id="Слой_1"
   x="0px"
   y="0px"
   width="150px"
   height="150px"
   viewBox="0 0 150 150"
   enable-background="new 0 0 150 150"
   xml:space="preserve"
   inkscape:version="0.48.4 r9939"
   sodipodi:docname="rule10_150.svg"><metadata
   id="metadata39"><rdf:RDF><cc:Work
       rdf:about=""><dc:format>image/svg+xml</dc:format><dc:type
         rdf:resource="http://purl.org/dc/dcmitype/StillImage" /></cc:Work></rdf:RDF></metadata><defs
   id="defs37">
	
	
</defs><sodipodi:namedview
   pagecolor="#ffffff"
   bordercolor="#666666"
   borderopacity="1"
   objecttolerance="10"
   gridtolerance="10"
   guidetolerance="10"
   inkscape:pageopacity="0"
   inkscape:pageshadow="2"
   inkscape:window-width="640"
   inkscape:window-height="480"
   id="namedview35"
   showgrid="false"
   inkscape:zoom="1.806875"
   inkscape:cx="75"
   inkscape:cy="75"
   inkscape:window-x="0"
   inkscape:window-y="0"
   inkscape:window-maximized="0"
   inkscape:current-layer="Слой_1" />
<g
   id="g7">
		<g
   id="g9">
			<g
   id="g11">
				<path
   style="fill:#ffffff"
   inkscape:connector-curvature="0"
   id="path13"
   d="m 49.758,125.051 c 0,7.011 -5.736,12.747 -12.747,12.747 h -1.755 c -7.011,0 -12.747,-5.736 -12.747,-12.747 V 43.269 c 0,-7.011 5.736,-12.747 12.747,-12.747 h 1.755 c 7.011,0 12.747,5.736 12.747,12.747 v 81.782 z" />
			</g>
			<g
   id="g15">
				<rect
   style="fill:#ffffff"
   id="rect17"
   height="2.948"
   width="6.506"
   y="23.115999"
   x="38.736" />
				<rect
   style="fill:#ffffff"
   id="rect19"
   height="8.4580002"
   width="3.2539999"
   y="20.361"
   x="43.526001" />
			</g>
			<g
   id="g21">
				<path
   style="fill:#ffffff"
   inkscape:connector-curvature="0"
   id="path23"
   d="m 36.133,13.342 c -2.676,0 -4.865,2.309 -4.865,5.129 v 1.055 c 2.592,0.708 4.499,3.073 4.499,5.89 0,2.818 -1.907,5.183 -4.499,5.89 V 56.85 c 0,2.821 2.189,5.129 4.865,5.129 2.677,0 4.866,-2.308 4.866,-5.129 V 18.471 c 0,-2.821 -2.189,-5.129 -4.866,-5.129 z" />
				<path
   style="fill:#ffffff"
   inkscape:connector-curvature="0"
   id="path25"
   d="m 28.122,17.553 c -4.345,0 -7.865,3.52 -7.865,7.863 0,4.344 3.521,7.864 7.865,7.864 4.342,0 7.861,-3.52 7.861,-7.864 0,-4.343 -3.519,-7.863 -7.861,-7.863 z m 0,13.309 c -3.007,0 -5.443,-2.438 -5.443,-5.446 0,-3.006 2.437,-5.445 5.443,-5.445 3.005,0 5.443,2.438 5.443,5.445 0,3.008 -2.438,5.446 -5.443,5.446 z" />
				<path
   style="fill:#ffffff"
   inkscape:connector-curvature="0"
   id="path27"
   d="m 30.205,28.151 -1.358,-4.079 c -0.88,0.307 -1.59,0.87 -2.092,1.586 l 3.45,2.493 z" />
			</g>
		</g>
		<path
   style="fill:#ffffff"
   inkscape:connector-curvature="0"
   id="path29"
   d="m 84.366,101.556 v -9.445 l -3.112,0.345 v 1.065 H 64.28 v -1.065 l -3.112,-0.345 v 9.444 c -2.129,1.066 -3.673,3.082 -3.673,5.445 v 23.66 c 0,2.363 1.544,4.38 3.673,5.101 v 2.389 h 23.198 v -2.391 c 2.129,-0.721 3.672,-2.736 3.672,-5.099 V 107 c 0,-2.363 -1.543,-4.379 -3.672,-5.444 z M 64.28,95.541 h 16.974 v 2.165 H 64.28 v -2.165 z m 16.974,4.269 v 1.805 H 64.28 V 99.81 h 16.974 z" />
		<path
   style="fill:none;stroke:#ffffff;stroke-width:4.5;stroke-miterlimit:10"
   inkscape:connector-curvature="0"
   id="path31"
   d="m 73.026,93.631 c 0.293,-5.176 -1.667,-24.949 -2.043,-31.738 -0.452,-8.149 7.559,-15.084 14.519,-15.641 9.426,-0.754 23.499,9.25 16.873,25.25 -5.79,13.983 -17.124,34.75 10.376,48.75 11.585,5.719 27.587,5.606 27.587,5.606"
   stroke-miterlimit="10" />
		<path
   style="fill:none;stroke:#ffffff;stroke-width:4.5;stroke-miterlimit:10"
   inkscape:connector-curvature="0"
   id="path33"
   d="m 45.702,24.757 c 23.825,0 34.357,0.079 44.938,1.79 13.881,2.245 38.483,17.496 23.248,50.111 -18.263,39.094 26.12,35.671 26.12,35.671"
   stroke-miterlimit="10" />
	</g>
</svg>