<?xml version="1.0" encoding="utf-8"?>
<!-- Generator: Adobe Illustrator 16.0.3, SVG Export Plug-In . SVG Version: 6.00 Build 0)  -->
<!DOCTYPE svg PUBLIC "-//W3C//DTD SVG 1.1//EN" "http://www.w3.org/Graphics/SVG/1.1/DTD/svg11.dtd">
<svg version="1.1" id="Слой_1" xmlns="http://www.w3.org/2000/svg" xmlns:xlink="http://www.w3.org/1999/xlink" x="0px" y="0px"
	 width="95px" height="95px" viewBox="0 0 95 95" enable-background="new 0 0 95 95" xml:space="preserve">
<g>
	<rect y="0" fill="#1A87CA" width="95" height="95.001"/>
	<g>
		<path fill="#FFFFFF" d="M61.9,69.352l-1.965,1.962l-2.789,2.789c-0.383,0.383-0.847,0.574-1.395,0.574s-1.011-0.191-1.394-0.574
			l-2.788-2.789l-7.422-7.422c-0.384-0.382-0.575-0.848-0.575-1.395c0-0.546,0.191-1.012,0.575-1.395l2.787-2.788
			c0.383-0.383,0.847-0.574,1.395-0.574s1.012,0.191,1.395,0.574l6.027,6.049l6.148-6.156l1.047-1.049V33.937
			c0-7.19-4.304-12.717-11.017-14.271v-3.979h3.086c0.476,0,0.86-0.385,0.86-0.863V8.951c0-0.477-0.385-0.862-0.86-0.862H42.665
			c-0.182,0-0.369,0.063-0.517,0.178L26.194,20.304c-0.346,0.259-0.442,0.732-0.236,1.11c0.213,0.375,0.667,0.536,1.065,0.386
			l15.807-6.113h0.93v4.031c-6.584,1.624-10.803,7.127-10.803,14.219v51.496c0,0.478,0.391,0.863,0.863,0.863h28.265
			c0.474,0,0.862-0.386,0.862-0.863V68.305L61.9,69.352z"/>
		<g>
			<path fill="#FFFFFF" d="M55.752,75.627c-0.793,0-1.507-0.294-2.064-0.852L43.476,64.564c-0.558-0.557-0.854-1.271-0.854-2.066
				c0-0.794,0.296-1.51,0.854-2.067l2.788-2.788c1.112-1.115,3.021-1.113,4.133,0.001l5.356,5.375l12.779-12.798
				c1.115-1.116,3.015-1.117,4.131,0l2.788,2.788c0.559,0.558,0.853,1.272,0.853,2.067c0,0.792-0.295,1.507-0.853,2.065
				L57.817,74.775C57.259,75.333,56.544,75.627,55.752,75.627z M48.33,58.691c-0.295,0-0.519,0.09-0.721,0.294l-2.79,2.79
				c-0.206,0.205-0.297,0.427-0.297,0.723c0,0.296,0.091,0.518,0.297,0.722L55.03,73.432c0.409,0.409,1.034,0.41,1.445-0.001
				l17.633-17.633c0.205-0.205,0.297-0.428,0.297-0.723c0-0.295-0.092-0.517-0.295-0.721l-2.79-2.79
				c-0.411-0.409-1.034-0.409-1.445,0L55.752,65.708l-6.7-6.723C48.849,58.782,48.625,58.691,48.33,58.691z"/>
		</g>
	</g>
</g>
</svg>
