<?xml version="1.0" encoding="UTF-8" standalone="no"?>
<!-- Generator: Adobe Illustrator 16.0.3, SVG Export Plug-In . SVG Version: 6.00 Build 0)  -->

<svg
   xmlns:dc="http://purl.org/dc/elements/1.1/"
   xmlns:cc="http://creativecommons.org/ns#"
   xmlns:rdf="http://www.w3.org/1999/02/22-rdf-syntax-ns#"
   xmlns:svg="http://www.w3.org/2000/svg"
   xmlns="http://www.w3.org/2000/svg"
   xmlns:sodipodi="http://sodipodi.sourceforge.net/DTD/sodipodi-0.dtd"
   xmlns:inkscape="http://www.inkscape.org/namespaces/inkscape"
   version="1.1"
   id="Слой_1"
   x="0px"
   y="0px"
   width="95px"
   height="95px"
   viewBox="0 0 95 95"
   enable-background="new 0 0 95 95"
   xml:space="preserve"
   inkscape:version="0.48.4 r9939"
   sodipodi:docname="rule2_95_green.svg"><metadata
   id="metadata25"><rdf:RDF><cc:Work
       rdf:about=""><dc:format>image/svg+xml</dc:format><dc:type
         rdf:resource="http://purl.org/dc/dcmitype/StillImage" /></cc:Work></rdf:RDF></metadata><defs
   id="defs23">
	
	
</defs><sodipodi:namedview
   pagecolor="#ffffff"
   bordercolor="#666666"
   borderopacity="1"
   objecttolerance="10"
   gridtolerance="10"
   guidetolerance="10"
   inkscape:pageopacity="0"
   inkscape:pageshadow="2"
   inkscape:window-width="1920"
   inkscape:window-height="1137"
   id="namedview21"
   showgrid="false"
   inkscape:zoom="9.2284539"
   inkscape:cx="47.5"
   inkscape:cy="47.5"
   inkscape:window-x="-9"
   inkscape:window-y="-9"
   inkscape:window-maximized="1"
   inkscape:current-layer="Слой_1" />
<rect
   style="fill:#02c1a2"
   y="0"
   x="0"
   id="rect5"
   height="95"
   width="95" /><g
   id="g7">
		<path
   style="fill:#ffffff"
   inkscape:connector-curvature="0"
   id="path9"
   d="m 75.485,29.054 c -0.438,0 -0.875,0.023 -1.307,0.067 -1.595,-9.105 -9.67,-15.916 -18.967,-15.916 -5.22,0 -10.081,2.041 -13.729,5.755 -1.818,-0.98 -3.866,-1.496 -5.946,-1.496 -6.71,0 -12.206,5.297 -12.527,11.991 -1.027,-0.266 -2.087,-0.401 -3.159,-0.401 -6.915,0 -12.542,5.626 -12.542,12.542 0,6.915 5.626,12.542 12.542,12.542 h 55.636 c 6.915,0 12.541,-5.626 12.541,-12.542 C 88.026,34.681 82.4,29.054 75.485,29.054 z" />
		<path
   style="fill:#ffffff"
   inkscape:connector-curvature="0"
   id="path11"
   d="M 28.446,59.568 28.655,58.792 27.878,59 c -0.724,0.195 -7.112,1.946 -8.559,3.394 -0.766,0.765 -1.188,1.783 -1.188,2.866 0,1.083 0.422,2.101 1.188,2.867 0.766,0.766 1.783,1.187 2.866,1.187 1.083,0 2.101,-0.421 2.866,-1.187 1.449,-1.447 3.2,-7.835 3.395,-8.559 z" />
		<path
   style="fill:#ffffff"
   inkscape:connector-curvature="0"
   id="path13"
   d="M 51.303,58.792 50.526,59 c -0.724,0.195 -7.112,1.946 -8.559,3.394 -0.766,0.766 -1.188,1.783 -1.188,2.866 0,1.083 0.421,2.1 1.188,2.867 0.766,0.766 1.783,1.187 2.867,1.187 1.083,0 2.101,-0.421 2.866,-1.187 1.448,-1.448 3.199,-7.835 3.394,-8.56 l 0.209,-0.775 z" />
		<path
   style="fill:#ffffff"
   inkscape:connector-curvature="0"
   id="path15"
   d="m 65.787,62.395 c -0.766,0.766 -1.188,1.783 -1.188,2.866 0,1.083 0.422,2.1 1.188,2.867 0.766,0.766 1.784,1.187 2.867,1.187 1.083,0 2.101,-0.421 2.867,-1.187 1.448,-1.448 3.198,-7.836 3.393,-8.56 L 75.123,58.792 74.346,59 c -0.724,0.195 -7.112,1.946 -8.559,3.395 z" />
		<path
   style="fill:#ffffff"
   inkscape:connector-curvature="0"
   id="path17"
   d="m 24.919,75.875 c -0.766,0.766 -1.188,1.784 -1.188,2.867 0,1.083 0.421,2.101 1.188,2.866 0.766,0.766 1.784,1.187 2.866,1.187 1.083,0 2.102,-0.421 2.867,-1.187 1.448,-1.447 3.199,-7.835 3.394,-8.559 l 0.209,-0.777 -0.777,0.209 c -0.723,0.195 -7.111,1.946 -8.559,3.394 z" />
		<path
   style="fill:#ffffff"
   inkscape:connector-curvature="0"
   id="path19"
   d="m 48.97,75.875 c -1.58,1.581 -1.58,4.153 0,5.733 0.766,0.766 1.784,1.187 2.867,1.187 1.083,0 2.101,-0.421 2.866,-1.187 1.448,-1.448 3.199,-7.835 3.394,-8.559 l 0.209,-0.777 -0.777,0.209 c -0.723,0.195 -7.111,1.946 -8.559,3.394 z" />
	</g>
</svg>