<?xml version="1.0" encoding="UTF-8" standalone="no"?>
<!-- Generator: Adobe Illustrator 16.0.3, SVG Export Plug-In . SVG Version: 6.00 Build 0)  -->

<svg
   xmlns:dc="http://purl.org/dc/elements/1.1/"
   xmlns:cc="http://creativecommons.org/ns#"
   xmlns:rdf="http://www.w3.org/1999/02/22-rdf-syntax-ns#"
   xmlns:svg="http://www.w3.org/2000/svg"
   xmlns="http://www.w3.org/2000/svg"
   xmlns:sodipodi="http://sodipodi.sourceforge.net/DTD/sodipodi-0.dtd"
   xmlns:inkscape="http://www.inkscape.org/namespaces/inkscape"
   version="1.1"
   id="Слой_1"
   x="0px"
   y="0px"
   width="150px"
   height="150px"
   viewBox="0 0 150 150"
   enable-background="new 0 0 150 150"
   xml:space="preserve"
   inkscape:version="0.48.4 r9939"
   sodipodi:docname="rule3_150.svg"><metadata
   id="metadata19"><rdf:RDF><cc:Work
       rdf:about=""><dc:format>image/svg+xml</dc:format><dc:type
         rdf:resource="http://purl.org/dc/dcmitype/StillImage" /></cc:Work></rdf:RDF></metadata><defs
   id="defs17">
	
	
</defs><sodipodi:namedview
   pagecolor="#ffffff"
   bordercolor="#666666"
   borderopacity="1"
   objecttolerance="10"
   gridtolerance="10"
   guidetolerance="10"
   inkscape:pageopacity="0"
   inkscape:pageshadow="2"
   inkscape:window-width="640"
   inkscape:window-height="480"
   id="namedview15"
   showgrid="false"
   inkscape:zoom="1.806875"
   inkscape:cx="75"
   inkscape:cy="75"
   inkscape:window-x="0"
   inkscape:window-y="0"
   inkscape:window-maximized="0"
   inkscape:current-layer="Слой_1" />
<g
   id="g7">
		<path
   style="fill:#ffffff"
   inkscape:connector-curvature="0"
   id="path9"
   d="m 111.729,60.042 c 0,-11.038 -5.424,-20.018 -12.092,-20.018 -6.664,0 -12.085,8.979 -12.085,20.018 0,11.032 5.421,20.008 12.085,20.008 6.669,0 12.092,-8.976 12.092,-20.008 z" />
		<path
   style="fill:#ffffff"
   inkscape:connector-curvature="0"
   id="path11"
   d="M 123.099,60.042 C 123.099,38.044 112.574,20.15 99.638,20.15 H 60.79 60.094 c -12.938,0 -23.461,17.895 -23.461,39.892 0,18.313 7.115,33.857 17.247,38.489 l -22.157,15.5 c -0.008,0.005 -0.011,0.014 -0.019,0.019 l -0.442,0.309 -0.077,0.003 0.001,0.052 -5.426,3.802 c -0.386,0.217 -0.624,0.626 -0.624,1.066 0,0.027 0.013,0.051 0.015,0.079 v 7.911 c 0,1.583 1.837,2.286 3.44,2.719 1.712,0.459 4.017,0.787 6.707,0.953 h 0.033 c 0.306,0 0.591,-0.112 0.803,-0.305 0.257,-0.214 0.411,-0.531 0.423,-0.865 0.031,-0.667 0.643,-1.19 1.394,-1.19 0.765,0 1.393,0.553 1.399,1.245 v 0.708 l 0.261,-0.006 c 0.225,0.299 0.566,0.507 0.966,0.507 h 0.026 0.009 c 3.882,-0.103 7.293,-0.621 9.353,-1.42 0.006,0 0.01,-0.006 0.017,-0.009 0.084,-0.035 0.153,-0.092 0.229,-0.143 0.057,-0.042 0.121,-0.068 0.171,-0.117 0.063,-0.06 0.1,-0.139 0.147,-0.208 0.04,-0.06 0.091,-0.106 0.118,-0.171 0.003,-0.003 0.001,-0.006 0.003,-0.009 0.025,-0.06 0.027,-0.127 0.042,-0.189 0.025,-0.095 0.057,-0.188 0.059,-0.283 0,-0.006 0.003,-0.008 0.003,-0.013 v -7.404 l 29.804,-20.85 19.776,-0.301 v -0.019 c 12.612,-0.63 22.765,-18.263 22.765,-39.86 z m -93.871,67.582 c -1.02,-0.277 -1.451,-0.513 -1.624,-0.629 v -5.329 c 3.175,1.176 8.635,1.348 11.501,1.348 3.602,0 6.824,-0.336 9.191,-0.93 v 5.514 c -1.657,0.491 -4.028,0.824 -6.748,0.949 -0.546,-1.406 -1.949,-2.416 -3.599,-2.416 -1.592,0 -2.979,0.917 -3.561,2.288 -2.049,-0.171 -3.867,-0.451 -5.16,-0.795 z m 28.041,-28.471 1.354,-0.946 c 1.491,0.824 3.105,1.266 4.833,1.266 0.289,0 0.576,-0.011 0.877,-0.035 0.667,-0.059 1.167,-0.651 1.119,-1.33 -0.061,-0.636 -0.583,-1.12 -1.315,-1.12 -0.003,0 -0.006,0 -0.009,0 -1.116,0.092 -2.171,-0.065 -3.172,-0.415 l 3.312,-2.317 c 1.522,0.98 4.287,1.568 7.681,1.568 1.666,0 3.407,-0.144 5.179,-0.426 0.668,-0.111 1.112,-0.724 1.014,-1.41 -0.018,-0.114 -0.065,-0.217 -0.116,-0.32 1.074,1.144 2.195,2.148 3.364,2.975 l -32.43,22.688 c -2.084,0.771 -5.744,1.228 -9.855,1.228 -5.738,0 -9.218,-0.677 -10.736,-1.18 l 3.839,-2.687 c 1.487,1.038 4.956,1.758 8.641,1.758 1.614,0 3.133,-0.134 4.518,-0.392 0.66,-0.124 1.103,-0.761 0.979,-1.426 -0.107,-0.581 -0.612,-1.003 -1.203,-1.003 l -0.225,0.021 c -1.284,0.239 -2.65,0.358 -4.056,0.358 -2.83,0 -5.162,-0.48 -6.402,-0.898 l 2.596,-1.817 c 1.065,0.79 2.747,1.421 4.665,1.421 0.271,0 0.545,-0.01 0.829,-0.036 0.676,-0.059 1.176,-0.659 1.114,-1.333 -0.056,-0.635 -0.577,-1.134 -1.333,-1.112 -1.306,0.117 -2.344,-0.162 -3.062,-0.488 l 3.178,-2.224 c 1.729,1.125 5.13,1.711 8.217,1.711 1.716,0 3.334,-0.166 4.815,-0.491 0.651,-0.145 1.071,-0.795 0.937,-1.462 -0.127,-0.569 -0.621,-0.965 -1.201,-0.965 l -0.258,0.027 c -1.354,0.299 -2.784,0.448 -4.255,0.448 -2.676,0 -4.762,-0.475 -5.955,-0.874 l 2.601,-1.822 c 1.07,0.73 2.679,1.38 4.6,1.38 0.332,0 0.683,-0.019 1.022,-0.064 0.328,-0.036 0.621,-0.196 0.825,-0.457 0.203,-0.257 0.294,-0.583 0.253,-0.9 -0.066,-0.619 -0.589,-1.085 -1.215,-1.085 l -0.147,0.008 c -1.248,0.146 -2.305,-0.108 -3.096,-0.45 l 3.119,-2.184 c 1.509,0.941 4.288,1.756 7.654,1.756 1.765,0 3.533,-0.229 5.252,-0.678 0.65,-0.174 1.042,-0.847 0.871,-1.506 -0.142,-0.537 -0.63,-0.911 -1.189,-0.911 l -0.313,0.041 c -1.493,0.394 -3.044,0.594 -4.61,0.594 -1.767,0 -3.247,-0.255 -4.38,-0.567 l -0.545,-0.166 c -0.158,-0.051 -0.322,-0.104 -0.462,-0.155 l 0.592,-0.412 m 31.248,-3.67 C 86.409,96.539 85.995,96.39 85.586,96.213 85.122,96.015 84.704,95.804 84.296,95.576 L 84.048,95.433 C 82.154,94.34 80.353,92.761 78.711,90.755 78.487,90.397 78.09,90.177 77.671,90.177 H 55.953 c -0.099,0 -0.185,0.032 -0.277,0.054 -0.035,0.008 -0.07,0.011 -0.104,0.021 -0.103,0.036 -0.191,0.087 -0.28,0.145 -0.037,0.024 -0.08,0.029 -0.111,0.056 -0.017,0.014 -0.022,0.03 -0.035,0.043 -0.072,0.063 -0.123,0.139 -0.179,0.217 -0.037,0.051 -0.079,0.1 -0.109,0.16 -0.037,0.076 -0.054,0.16 -0.072,0.245 -0.021,0.072 -0.04,0.141 -0.044,0.214 -0.004,0.025 -0.015,0.046 -0.015,0.071 0,0.059 0.025,0.113 0.031,0.17 0.012,0.081 0.024,0.16 0.05,0.239 0.027,0.07 0.063,0.133 0.102,0.195 0.032,0.057 0.045,0.122 0.088,0.174 0.756,0.933 1.617,1.922 2.591,2.829 l -0.755,1.456 -0.002,0.003 C 46.995,93.561 39.621,78.005 39.621,60.043 c 0,-20.351 9.185,-36.907 20.475,-36.907 h 0.696 29.954 c -8.542,5.971 -14.569,20.26 -14.569,36.907 0,16.188 5.66,30.462 14.134,36.64 L 86.827,96.667 z M 60.271,94.06 c -0.555,-0.404 -1.089,-0.879 -1.622,-1.429 h 3.666 l -2.044,1.429 z m 6.323,-1.429 h 10.485 c 0.156,0.185 0.321,0.35 0.481,0.529 -0.19,-0.116 -0.398,-0.201 -0.632,-0.201 l -0.194,0.017 c -1.685,0.271 -3.316,0.409 -4.852,0.409 -2.511,0 -4.256,-0.365 -5.32,-0.731 l 0.032,-0.023 z m 28.363,3.314 c -9.305,-4 -15.797,-18.751 -15.797,-35.903 0,-20.351 9.187,-36.907 20.478,-36.907 11.289,0 20.476,16.556 20.476,36.907 0,20.311 -9.154,36.841 -20.416,36.9 l -4.741,-0.997 z m -11.215,2.091 c 0.29,0.146 0.58,0.306 0.874,0.434 0.257,0.108 0.516,0.193 0.773,0.287 l -2.806,0.043 1.096,-0.764 h 0.063 z" />
		<path
   style="fill:#ffffff"
   inkscape:connector-curvature="0"
   id="path13"
   d="M 75.75,72.614 C 75.009,68.98 74.596,65.192 74.524,61.343 74.521,61.232 74.476,61.132 74.452,61.026 74.431,60.947 74.431,60.86 74.399,60.787 74.365,60.711 74.308,60.654 74.264,60.589 74.202,60.494 74.153,60.394 74.072,60.315 74.056,60.299 74.036,60.294 74.018,60.277 73.754,60.039 73.413,59.884 73.028,59.884 h -0.027 -0.003 -3.137 c 0.015,-6.273 0.927,-12.467 2.651,-17.924 0.138,-0.447 0.056,-0.941 -0.223,-1.329 -0.281,-0.38 -0.731,-0.607 -1.203,-0.607 H 49.379 c -0.655,0 -1.227,0.42 -1.423,1.043 -1.813,5.728 -2.774,12.231 -2.789,18.816 h -3.162 c -0.003,0 -0.006,0.003 -0.009,0.003 0,0 -0.003,-0.003 -0.006,-0.003 -0.003,0 -0.003,0 -0.003,0 -0.069,0.003 -0.129,0.033 -0.195,0.043 -0.527,0.078 -0.968,0.415 -1.16,0.901 -0.02,0.043 -0.017,0.091 -0.029,0.138 -0.039,0.133 -0.082,0.266 -0.082,0.412 0,0.008 0.006,0.017 0.006,0.027 0,0 0,0 0,0.003 0.08,4.038 0.511,8.011 1.279,11.807 0.012,0.063 0.047,0.111 0.064,0.169 0.023,0.068 0.046,0.133 0.077,0.198 0.055,0.105 0.119,0.198 0.191,0.284 0.045,0.052 0.08,0.104 0.128,0.147 0.093,0.084 0.195,0.146 0.304,0.206 0.054,0.027 0.099,0.065 0.153,0.087 0.173,0.067 0.354,0.111 0.547,0.111 h 3.461 c 0.627,2.784 1.433,5.468 2.426,7.982 v 0.003 c 0.118,0.724 0.738,1.253 1.474,1.253 h 21.75 c 0.185,0 0.373,-0.038 0.558,-0.111 0.004,0 0.007,-0.003 0.01,-0.006 0.113,-0.046 0.206,-0.125 0.305,-0.198 0.01,-0.008 0.021,-0.014 0.03,-0.022 0.049,-0.035 0.106,-0.057 0.146,-0.1 0.006,-0.003 0.009,-0.008 0.015,-0.014 0.007,-0.005 0.016,-0.009 0.023,-0.016 0.121,-0.128 0.207,-0.274 0.273,-0.427 0.012,-0.024 0.018,-0.051 0.027,-0.076 0.056,-0.146 0.086,-0.298 0.094,-0.456 0,-0.021 0.01,-0.043 0.01,-0.062 0,-0.003 0.003,-0.006 0.003,-0.007 0,-0.017 -0.009,-0.03 -0.011,-0.046 C 73.859,81.947 73.831,81.784 73.769,81.627 73.766,81.62 73.766,81.608 73.763,81.601 73.761,81.596 73.76,81.59 73.758,81.584 73.755,81.581 73.755,81.579 73.754,81.576 72.852,79.34 72.101,76.937 71.5,74.415 h 2.749 c 0.023,0 0.042,-0.014 0.067,-0.017 0.088,0 0.171,-0.007 0.272,-0.027 0.044,-0.007 0.078,-0.037 0.121,-0.051 0.081,-0.027 0.156,-0.06 0.23,-0.098 0.121,-0.062 0.229,-0.133 0.33,-0.223 0.021,-0.021 0.039,-0.04 0.061,-0.062 0.338,-0.34 0.525,-0.82 0.42,-1.323 z M 60.231,80.67 c -0.748,-1.979 -1.389,-4.066 -1.909,-6.252 h 1.591 c 0.492,2.181 1.086,4.278 1.781,6.252 H 60.231 z M 60.568,43.011 C 59.127,48.25 58.36,54.035 58.347,59.885 h -1.669 c 0.017,-5.879 0.828,-11.678 2.346,-16.874 h 1.544 z m 0.768,16.874 c 0.012,-5.891 0.826,-11.691 2.343,-16.874 h 5.412 c -1.439,5.239 -2.2,11.045 -2.212,16.874 h -5.543 z m -7.644,0 h -5.535 c 0.015,-5.875 0.813,-11.694 2.33,-16.874 h 5.428 c -1.443,5.25 -2.208,11.035 -2.223,16.874 z m 1.568,14.533 c 0.491,2.167 1.083,4.262 1.784,6.252 h -5.355 c -0.748,-1.985 -1.348,-4.094 -1.862,-6.252 h 5.433 z m 9.622,6.252 c -0.745,-1.974 -1.385,-4.063 -1.905,-6.252 h 5.464 c 0.491,2.172 1.083,4.267 1.784,6.252 h -5.343 z" />
	</g>
</svg>