<?xml version="1.0" encoding="UTF-8" standalone="no"?>
<!-- Generator: Adobe Illustrator 16.0.3, SVG Export Plug-In . SVG Version: 6.00 Build 0)  -->

<svg
   xmlns:dc="http://purl.org/dc/elements/1.1/"
   xmlns:cc="http://creativecommons.org/ns#"
   xmlns:rdf="http://www.w3.org/1999/02/22-rdf-syntax-ns#"
   xmlns:svg="http://www.w3.org/2000/svg"
   xmlns="http://www.w3.org/2000/svg"
   xmlns:sodipodi="http://sodipodi.sourceforge.net/DTD/sodipodi-0.dtd"
   xmlns:inkscape="http://www.inkscape.org/namespaces/inkscape"
   version="1.1"
   id="Слой_1"
   x="0px"
   y="0px"
   width="95px"
   height="95px"
   viewBox="0 0 95 95"
   enable-background="new 0 0 95 95"
   xml:space="preserve"
   inkscape:version="0.48.4 r9939"
   sodipodi:docname="rule3_95_green.svg"><metadata
   id="metadata19"><rdf:RDF><cc:Work
       rdf:about=""><dc:format>image/svg+xml</dc:format><dc:type
         rdf:resource="http://purl.org/dc/dcmitype/StillImage" /></cc:Work></rdf:RDF></metadata><defs
   id="defs17">
	
	
</defs><sodipodi:namedview
   pagecolor="#ffffff"
   bordercolor="#666666"
   borderopacity="1"
   objecttolerance="10"
   gridtolerance="10"
   guidetolerance="10"
   inkscape:pageopacity="0"
   inkscape:pageshadow="2"
   inkscape:window-width="1920"
   inkscape:window-height="1137"
   id="namedview15"
   showgrid="false"
   inkscape:zoom="1"
   inkscape:cx="25.665357"
   inkscape:cy="47.5"
   inkscape:window-x="-9"
   inkscape:window-y="-9"
   inkscape:window-maximized="1"
   inkscape:current-layer="Слой_1" />
<rect
   style="fill:#02c1a2"
   id="rect5"
   height="95"
   width="95.000999"
   y="0"
   x="-0.001" /><g
   id="g7">
		<path
   style="fill:#ffffff"
   inkscape:connector-curvature="0"
   id="path9"
   d="m 70.762,38.026 c 0,-6.99 -3.435,-12.678 -7.658,-12.678 -4.22,0 -7.653,5.688 -7.653,12.678 0,6.987 3.434,12.672 7.653,12.672 4.223,0 7.658,-5.684 7.658,-12.672 z" />
		<path
   style="fill:#ffffff"
   inkscape:connector-curvature="0"
   id="path11"
   d="m 77.962,38.026 c 0,-13.931 -6.666,-25.265 -14.858,-25.265 H 38.5 38.06 c -8.194,0 -14.859,11.333 -14.859,25.265 0,11.599 4.507,21.444 10.923,24.377 L 20.091,72.22 c -0.005,0.003 -0.008,0.009 -0.012,0.012 l -0.279,0.195 -0.05,10e-4 0.002,0.033 -3.438,2.408 c -0.245,0.137 -0.396,0.396 -0.396,0.675 0,0.018 0.009,0.032 0.01,0.05 v 5.011 c 0,1.003 1.163,1.447 2.178,1.722 1.084,0.291 2.544,0.499 4.247,0.604 h 0.022 c 0.192,0 0.373,-0.071 0.509,-0.193 0.162,-0.135 0.26,-0.336 0.267,-0.547 0.021,-0.423 0.407,-0.754 0.883,-0.754 0.483,0 0.882,0.35 0.887,0.788 v 0.449 l 0.165,-0.003 c 0.143,0.189 0.358,0.321 0.611,0.321 h 0.017 0.006 c 2.459,-0.065 4.618,-0.393 5.924,-0.9 0.004,0 0.006,-0.004 0.01,-0.005 0.054,-0.021 0.098,-0.058 0.146,-0.09 0.035,-0.026 0.077,-0.043 0.107,-0.074 0.04,-0.038 0.063,-0.088 0.094,-0.132 0.024,-0.038 0.058,-0.067 0.074,-0.108 0.002,-0.002 0,-0.004 0.002,-0.006 0.016,-0.038 0.018,-0.08 0.027,-0.12 0.016,-0.06 0.035,-0.118 0.036,-0.179 0,-0.004 0.002,-0.005 0.002,-0.009 V 76.68 L 51.018,63.475 63.543,63.285 V 63.272 C 71.532,62.873 77.962,51.705 77.962,38.026 z M 18.511,80.829 c -0.646,-0.175 -0.919,-0.325 -1.028,-0.398 v -3.375 c 2.011,0.745 5.469,0.854 7.284,0.854 2.28,0 4.322,-0.213 5.821,-0.589 v 3.492 c -1.05,0.311 -2.553,0.521 -4.275,0.601 -0.345,-0.891 -1.232,-1.53 -2.278,-1.53 -1.009,0 -1.887,0.581 -2.254,1.449 -1.3,-0.109 -2.451,-0.286 -3.27,-0.504 z m 17.76,-18.032 0.857,-0.599 c 0.944,0.521 1.967,0.802 3.06,0.802 0.184,0 0.365,-0.007 0.557,-0.022 0.422,-0.038 0.737,-0.413 0.707,-0.842 -0.037,-0.403 -0.369,-0.708 -0.832,-0.708 -10e-4,0 -0.004,0 -0.005,0 -0.708,0.058 -1.376,-0.042 -2.01,-0.264 l 2.097,-1.466 c 0.965,0.62 2.716,0.993 4.865,0.993 1.055,0 2.158,-0.091 3.279,-0.27 0.424,-0.07 0.705,-0.458 0.643,-0.893 -0.012,-0.072 -0.042,-0.137 -0.074,-0.202 0.681,0.724 1.391,1.36 2.131,1.884 L 31.008,75.576 c -1.319,0.487 -3.639,0.778 -6.241,0.778 -3.635,0 -5.838,-0.429 -6.8,-0.748 l 2.431,-1.702 c 0.941,0.658 3.139,1.113 5.473,1.113 1.022,0 1.984,-0.084 2.861,-0.248 0.418,-0.079 0.697,-0.483 0.619,-0.903 C 29.284,73.498 28.963,73.23 28.59,73.23 l -0.143,0.013 c -0.813,0.151 -1.679,0.227 -2.568,0.227 -1.793,0 -3.27,-0.305 -4.056,-0.569 l 1.645,-1.15 c 0.675,0.5 1.74,0.899 2.955,0.899 0.171,0 0.344,-0.006 0.524,-0.022 0.428,-0.037 0.744,-0.417 0.706,-0.845 -0.036,-0.402 -0.365,-0.718 -0.844,-0.704 -0.827,0.074 -1.485,-0.103 -1.939,-0.309 l 2.013,-1.409 c 1.096,0.713 3.248,1.084 5.203,1.084 1.088,0 2.112,-0.105 3.05,-0.311 0.413,-0.092 0.68,-0.504 0.594,-0.927 -0.08,-0.36 -0.394,-0.611 -0.76,-0.611 l -0.165,0.017 c -0.855,0.189 -1.763,0.284 -2.694,0.284 -1.694,0 -3.016,-0.301 -3.771,-0.553 l 1.647,-1.154 c 0.677,0.462 1.696,0.874 2.913,0.874 0.21,0 0.433,-0.012 0.647,-0.041 0.207,-0.022 0.394,-0.124 0.522,-0.289 0.129,-0.163 0.187,-0.37 0.16,-0.57 -0.042,-0.392 -0.373,-0.688 -0.77,-0.688 l -0.094,0.005 c -0.79,0.093 -1.459,-0.068 -1.96,-0.285 l 1.976,-1.383 c 0.956,0.596 2.715,1.112 4.848,1.112 1.118,0 2.237,-0.145 3.327,-0.43 0.411,-0.11 0.659,-0.537 0.551,-0.954 -0.09,-0.34 -0.398,-0.578 -0.754,-0.578 l -0.197,0.026 c -0.946,0.249 -1.929,0.376 -2.921,0.376 -1.118,0 -2.056,-0.162 -2.773,-0.359 l -0.346,-0.105 c -0.1,-0.032 -0.203,-0.065 -0.292,-0.098 l 0.375,-0.261 M 54.99,61.223 C 54.724,61.141 54.464,61.047 54.204,60.935 53.91,60.81 53.646,60.676 53.387,60.532 L 53.23,60.44 C 52.03,59.748 50.89,58.748 49.85,57.477 49.707,57.25 49.455,57.111 49.191,57.111 H 35.437 c -0.062,0 -0.116,0.02 -0.175,0.034 -0.023,0.005 -0.045,0.007 -0.066,0.013 -0.065,0.023 -0.122,0.056 -0.178,0.092 -0.023,0.016 -0.051,0.019 -0.07,0.036 -0.01,0.009 -0.015,0.019 -0.022,0.028 -0.046,0.039 -0.077,0.088 -0.113,0.138 -0.023,0.032 -0.05,0.063 -0.069,0.101 -0.023,0.048 -0.033,0.102 -0.046,0.155 -0.013,0.046 -0.025,0.089 -0.027,0.136 -0.003,0.016 -0.01,0.03 -0.01,0.045 0,0.037 0.017,0.072 0.02,0.107 0.008,0.051 0.017,0.102 0.032,0.152 0.018,0.044 0.04,0.083 0.063,0.123 0.021,0.037 0.028,0.078 0.057,0.11 0.479,0.591 1.023,1.218 1.641,1.792 l -0.478,0.923 -0.002,0.001 c -6.23,-1.841 -10.899,-11.694 -10.899,-23.07 0,-12.889 5.815,-23.374 12.967,-23.374 h 0.44 18.972 c -5.411,3.782 -9.228,12.831 -9.228,23.374 0,10.253 3.585,19.293 8.952,23.206 L 54.99,61.223 z M 38.172,59.571 c -0.353,-0.256 -0.69,-0.557 -1.027,-0.905 h 2.322 l -1.295,0.905 z m 4.005,-0.904 h 6.64 c 0.1,0.117 0.203,0.221 0.306,0.335 -0.121,-0.074 -0.253,-0.128 -0.401,-0.128 l -0.123,0.011 c -1.066,0.171 -2.1,0.258 -3.071,0.258 -1.591,0 -2.696,-0.231 -3.369,-0.463 l 0.018,-0.013 z m 17.962,2.099 C 54.247,58.232 50.135,48.89 50.135,38.027 c 0,-12.889 5.818,-23.374 12.969,-23.374 7.151,0 12.968,10.485 12.968,23.374 0,12.864 -5.797,23.333 -12.93,23.371 l -3.003,-0.632 z m -7.103,1.324 c 0.185,0.092 0.368,0.193 0.554,0.274 0.163,0.068 0.327,0.122 0.491,0.182 l -1.778,0.027 0.693,-0.483 h 0.04 z" />
		<path
   style="fill:#ffffff"
   inkscape:connector-curvature="0"
   id="path13"
   d="M 47.975,45.989 C 47.505,43.687 47.244,41.288 47.199,38.851 47.197,38.78 47.17,38.717 47.154,38.65 47.141,38.6 47.141,38.545 47.121,38.498 47.099,38.45 47.062,38.414 47.035,38.373 c -0.039,-0.061 -0.07,-0.124 -0.121,-0.174 -0.011,-0.01 -0.023,-0.014 -0.034,-0.023 -0.168,-0.151 -0.384,-0.25 -0.628,-0.25 h -0.018 -0.001 -1.987 c 0.01,-3.973 0.588,-7.896 1.679,-11.352 0.088,-0.283 0.037,-0.596 -0.141,-0.842 -0.178,-0.24 -0.462,-0.385 -0.762,-0.385 H 31.273 c -0.415,0 -0.776,0.267 -0.901,0.661 -1.148,3.628 -1.757,7.747 -1.767,11.917 h -2.002 c -0.003,0 -0.004,0.002 -0.006,0.002 0,0 -0.003,-0.002 -0.004,-0.002 -0.002,0 -0.002,0 -0.002,0 -0.044,0.002 -0.081,0.021 -0.123,0.028 -0.335,0.049 -0.613,0.262 -0.736,0.571 -0.011,0.027 -0.01,0.058 -0.018,0.087 -0.024,0.084 -0.052,0.168 -0.052,0.261 0,0.005 0.003,0.01 0.003,0.017 0,0 0,0 0,0.002 0.051,2.558 0.324,5.073 0.811,7.478 0.008,0.04 0.03,0.07 0.041,0.106 0.016,0.043 0.029,0.084 0.05,0.125 0.033,0.067 0.074,0.126 0.12,0.181 0.028,0.033 0.051,0.065 0.081,0.093 0.06,0.053 0.124,0.092 0.193,0.13 0.033,0.017 0.062,0.041 0.096,0.055 0.109,0.042 0.226,0.07 0.347,0.07 h 2.191 c 0.397,1.764 0.908,3.464 1.537,5.056 v 10e-4 c 0.074,0.459 0.468,0.794 0.934,0.794 h 13.775 c 0.116,0 0.235,-0.024 0.353,-0.071 0.003,0 0.005,-0.002 0.006,-0.003 0.072,-0.029 0.131,-0.079 0.194,-0.125 0.006,-0.005 0.013,-0.009 0.019,-0.014 0.031,-0.023 0.067,-0.037 0.093,-0.064 0.004,-0.002 0.005,-0.005 0.009,-0.008 0.005,-0.004 0.01,-0.006 0.015,-0.01 0.077,-0.082 0.131,-0.173 0.174,-0.27 0.007,-0.016 0.011,-0.033 0.017,-0.048 0.035,-0.093 0.054,-0.189 0.06,-0.289 0,-0.014 0.007,-0.028 0.007,-0.04 0,-10e-4 0.001,-0.004 0.001,-0.004 0,-0.011 -0.005,-0.02 -0.007,-0.029 C 46.778,51.9 46.761,51.797 46.722,51.697 46.72,51.693 46.72,51.685 46.718,51.68 46.717,51.677 46.717,51.673 46.715,51.669 46.713,51.668 46.713,51.666 46.712,51.664 46.141,50.247 45.666,48.726 45.285,47.128 h 1.741 c 0.015,0 0.025,-0.008 0.042,-0.01 0.057,0 0.108,-0.005 0.172,-0.018 0.028,-0.004 0.051,-0.023 0.078,-0.032 0.052,-0.017 0.099,-0.038 0.146,-0.062 0.076,-0.04 0.146,-0.084 0.209,-0.142 0.013,-0.013 0.024,-0.025 0.038,-0.039 0.212,-0.214 0.33,-0.517 0.264,-0.836 z m -9.829,5.102 c -0.474,-1.254 -0.88,-2.575 -1.209,-3.96 h 1.008 c 0.312,1.381 0.687,2.71 1.128,3.96 H 38.146 z M 38.36,27.24 c -0.914,3.318 -1.399,6.982 -1.407,10.687 h -1.057 c 0.011,-3.724 0.524,-7.396 1.485,-10.687 h 0.979 z m 0.487,10.687 C 38.854,34.196 39.37,30.523 40.33,27.24 h 3.427 c -0.911,3.318 -1.394,6.996 -1.401,10.687 h -3.509 z m -4.841,0 H 30.5 c 0.009,-3.721 0.515,-7.406 1.475,-10.687 h 3.438 c -0.914,3.325 -1.398,6.989 -1.407,10.687 z m 0.991,9.204 c 0.313,1.373 0.687,2.699 1.13,3.96 h -3.391 c -0.474,-1.257 -0.854,-2.593 -1.18,-3.96 h 3.441 z m 6.095,3.96 c -0.472,-1.25 -0.876,-2.574 -1.206,-3.96 h 3.46 c 0.311,1.376 0.686,2.703 1.13,3.96 h -3.384 z" />
	</g>
</svg>