<?xml version="1.0" encoding="UTF-8" standalone="no"?>
<!-- Generator: Adobe Illustrator 16.0.3, SVG Export Plug-In . SVG Version: 6.00 Build 0)  -->

<svg
   xmlns:dc="http://purl.org/dc/elements/1.1/"
   xmlns:cc="http://creativecommons.org/ns#"
   xmlns:rdf="http://www.w3.org/1999/02/22-rdf-syntax-ns#"
   xmlns:svg="http://www.w3.org/2000/svg"
   xmlns="http://www.w3.org/2000/svg"
   xmlns:sodipodi="http://sodipodi.sourceforge.net/DTD/sodipodi-0.dtd"
   xmlns:inkscape="http://www.inkscape.org/namespaces/inkscape"
   version="1.1"
   id="Слой_1"
   x="0px"
   y="0px"
   width="150px"
   height="150px"
   viewBox="0 0 150 150"
   enable-background="new 0 0 150 150"
   xml:space="preserve"
   inkscape:version="0.48.4 r9939"
   sodipodi:docname="rule6_150.svg"><metadata
   id="metadata75"><rdf:RDF><cc:Work
       rdf:about=""><dc:format>image/svg+xml</dc:format><dc:type
         rdf:resource="http://purl.org/dc/dcmitype/StillImage" /></cc:Work></rdf:RDF></metadata><defs
   id="defs73">
	
	
	
	
	
</defs><sodipodi:namedview
   pagecolor="#ffffff"
   bordercolor="#666666"
   borderopacity="1"
   objecttolerance="10"
   gridtolerance="10"
   guidetolerance="10"
   inkscape:pageopacity="0"
   inkscape:pageshadow="2"
   inkscape:window-width="640"
   inkscape:window-height="480"
   id="namedview71"
   showgrid="false"
   inkscape:zoom="1.806875"
   inkscape:cx="75"
   inkscape:cy="75"
   inkscape:window-x="0"
   inkscape:window-y="0"
   inkscape:window-maximized="0"
   inkscape:current-layer="Слой_1" />
<g
   id="g7">
		<g
   id="g9">
			<path
   style="fill:#ffffff"
   inkscape:connector-curvature="0"
   id="path11"
   d="m 44.841,125.597 c 0,7.011 -5.736,12.747 -12.747,12.747 h -1.755 c -7.011,0 -12.747,-5.736 -12.747,-12.747 V 43.815 c 0,-7.011 5.736,-12.747 12.747,-12.747 h 1.755 c 7.011,0 12.747,5.736 12.747,12.747 v 81.782 z" />
		</g>
		<g
   id="g13">
			<rect
   style="fill:#ffffff"
   id="rect15"
   height="2.948"
   width="6.506"
   y="23.662001"
   x="33.818001" />
			<rect
   style="fill:#ffffff"
   id="rect17"
   height="8.4580002"
   width="3.253"
   y="20.908001"
   x="38.609001" />
		</g>
		<g
   id="g19">
			<path
   style="fill:#ffffff"
   inkscape:connector-curvature="0"
   id="path21"
   d="m 25.329,28.562 -1.356,-4.079 c -0.881,0.306 -1.592,0.87 -2.093,1.585 l 3.449,2.494 z" />
			<path
   style="fill:#ffffff"
   inkscape:connector-curvature="0"
   id="path23"
   d="m 57.132,28.73 -1.358,-4.079 c -0.88,0.306 -1.591,0.87 -2.092,1.586 l 3.45,2.493 z" />
			<path
   style="fill:#ffffff"
   inkscape:connector-curvature="0"
   id="path25"
   d="m 31.216,13.888 c -2.676,0 -4.866,2.309 -4.866,5.129 v 1.055 c 2.594,0.708 4.501,3.074 4.501,5.891 0,2.818 -1.907,5.183 -4.501,5.89 v 25.544 c 0,2.821 2.19,5.129 4.866,5.129 2.676,0 4.867,-2.308 4.867,-5.129 v -38.38 c 0,-2.821 -2.191,-5.129 -4.867,-5.129 z" />
			<path
   style="fill:#ffffff"
   inkscape:connector-curvature="0"
   id="path27"
   d="m 23.204,18.1 c -4.344,0 -7.864,3.52 -7.864,7.863 0,4.344 3.521,7.864 7.864,7.864 4.342,0 7.862,-3.521 7.862,-7.864 0,-4.343 -3.52,-7.863 -7.862,-7.863 z m 0,13.308 c -3.007,0 -5.442,-2.438 -5.442,-5.445 0,-3.007 2.436,-5.445 5.442,-5.445 3.005,0 5.443,2.438 5.443,5.445 0,3.007 -2.438,5.445 -5.443,5.445 z" />
		</g>
	</g><g
   id="g29">
		<g
   id="g31">
			<path
   style="fill:none;stroke:#ffffff;stroke-width:4.79110003;stroke-miterlimit:10"
   inkscape:connector-curvature="0"
   id="path33"
   d="m 86.572,25.085 c 14.713,2.187 50.34,16.661 32.545,55.209 -19.251,41.711 20.76,48.189 20.76,48.189"
   stroke-miterlimit="10" />
			<g
   id="g35">
				<path
   style="fill:none;stroke:#ffffff;stroke-width:1.597;stroke-linecap:round;stroke-miterlimit:10"
   inkscape:connector-curvature="0"
   id="path37"
   d="M 79.397,19.203"
   stroke-miterlimit="10" />
			</g>
		</g>
		
			<rect
   style="fill:#ffffff"
   id="rect39"
   height="9.2019997"
   width="7.8390002"
   transform="matrix(0.2244,-0.9745,0.9745,0.2244,42.5441,102.8589)"
   y="20.103001"
   x="81.968002" />
	</g><g
   id="g41">
		<g
   id="g43">
			<path
   style="fill:none;stroke:#ffffff;stroke-width:4.79110003;stroke-miterlimit:10"
   inkscape:connector-curvature="0"
   id="path45"
   d="m 88.216,38.884 c 14.713,2.188 42.826,17.384 25.033,55.934 -19.254,41.711 28.271,44.465 28.271,44.465"
   stroke-miterlimit="10" />
			<g
   id="g47">
				<path
   style="fill:none;stroke:#ffffff;stroke-width:1.597;stroke-linecap:round;stroke-miterlimit:10"
   inkscape:connector-curvature="0"
   id="path49"
   d="M 81.041,33.001"
   stroke-miterlimit="10" />
			</g>
		</g>
		<polygon
   style="fill:#ffffff"
   id="polygon51"
   points="82.167,41.291 83.928,33.652 92.895,35.714 91.135,43.353 " />
	</g><g
   id="g53">
		<g
   id="g55">
			<path
   style="fill:#ffffff"
   inkscape:connector-curvature="0"
   id="path57"
   d="m 76.474,125.597 c 0,7.011 -5.736,12.747 -12.747,12.747 h -1.755 c -7.011,0 -12.747,-5.736 -12.747,-12.747 V 43.815 c 0,-7.011 5.736,-12.747 12.747,-12.747 h 1.755 c 7.011,0 12.747,5.736 12.747,12.747 v 81.782 z" />
		</g>
		<g
   id="g59">
			<rect
   style="fill:#ffffff"
   id="rect61"
   height="2.948"
   width="6.5050001"
   y="23.662001"
   x="65.452003" />
			<rect
   style="fill:#ffffff"
   id="rect63"
   height="8.4580002"
   width="3.2539999"
   y="20.908001"
   x="70.241997" />
		</g>
		<g
   id="g65">
			<path
   style="fill:#ffffff"
   inkscape:connector-curvature="0"
   id="path67"
   d="m 62.85,13.888 c -2.677,0 -4.866,2.309 -4.866,5.129 v 1.055 c 2.593,0.708 4.5,3.074 4.5,5.891 0,2.818 -1.907,5.183 -4.5,5.89 v 25.544 c 0,2.821 2.189,5.129 4.866,5.129 2.677,0 4.866,-2.308 4.866,-5.129 v -38.38 c 0,-2.821 -2.19,-5.129 -4.866,-5.129 z" />
			<path
   style="fill:#ffffff"
   inkscape:connector-curvature="0"
   id="path69"
   d="m 54.838,18.1 c -4.345,0 -7.865,3.52 -7.865,7.863 0,4.344 3.521,7.864 7.865,7.864 4.342,0 7.862,-3.521 7.862,-7.864 0,-4.343 -3.52,-7.863 -7.862,-7.863 z m 0,13.308 c -3.007,0 -5.443,-2.438 -5.443,-5.445 0,-3.007 2.437,-5.445 5.443,-5.445 3.004,0 5.442,2.438 5.442,5.445 0,3.007 -2.438,5.445 -5.442,5.445 z" />
		</g>
	</g>
</svg>