<?xml version="1.0" encoding="utf-8"?>
<!-- Generator: Adobe Illustrator 16.0.3, SVG Export Plug-In . SVG Version: 6.00 Build 0)  -->
<!DOCTYPE svg PUBLIC "-//W3C//DTD SVG 1.1//EN" "http://www.w3.org/Graphics/SVG/1.1/DTD/svg11.dtd">
<svg version="1.1" id="Слой_1" xmlns="http://www.w3.org/2000/svg" xmlns:xlink="http://www.w3.org/1999/xlink" x="0px" y="0px"
	 width="95px" height="95px" viewBox="0 0 95 95" enable-background="new 0 0 95 95" xml:space="preserve">
<g>
	<rect fill="#1A87CA" width="95" height="95"/>
	<g>
		<path fill="#FFFFFF" stroke="#FFFFFF" stroke-width="0.8095" stroke-linecap="round" stroke-miterlimit="10" d="M53.444,20.436
			l0.146-1.97l-1.973,1.743c-0.57-0.189-1.167-0.197-1.167-0.197l-2.048-5.022l-0.797,5.43l-1.458-1.22l-0.108,2.077l-5.901-1.21
			l3.693,4.074l-2.381,1.182l1.912,1.308l-4.356,2.913l5.101,0.062c0.027,0.208,0.461,0.753,0.461,0.753l-0.915,2.286l2.254-0.879
			l-0.201,4.644l2.841-3.412l0.661,0.108l1.491,1.991l0.95-2.173c0.65-0.096,1.381-0.545,1.381-0.545l2.166,1.257l-0.727-2.293
			c0.091-0.03,0.148-0.144,0.148-0.144l2.818,0.122l-1.476-2.097c0.394-0.724,0.445-1.437,0.445-1.437l4.193-0.768l-3.649-1.523
			l1.545-1.391l-2.622-0.387c-0.102-0.78-0.928-1.417-0.928-1.417l2.543-4.263L53.444,20.436z"/>
		<circle fill="none" stroke="#FFFFFF" stroke-width="5.4641" stroke-miterlimit="10" cx="47.5" cy="47.438" r="39.159"/>
		
			<rect x="44.406" y="11.032" transform="matrix(0.7071 -0.7072 0.7072 0.7071 -20.3931 47.466)" fill="#FFFFFF" stroke="#FFFFFF" stroke-width="0.9107" stroke-miterlimit="10" width="5.378" height="74.632"/>
		<path fill="#FFFFFF" stroke="#FFFFFF" stroke-width="0.3702" stroke-linecap="round" stroke-miterlimit="10" d="M60.954,34.805
			l-0.543,1.087l1.014-0.048c1.457-1.447,3.227-2.569,5.191-3.263l1.245-1.359l-1.748,0.452l0.177-0.933l-1.063,0.585
			c-0.251-0.258-0.73-0.261-0.73-0.261l-0.25-2.256l-0.811,1.991l-0.491-0.757l-0.237,1.18c-0.258,0.087-0.479,0.25-0.479,0.25
			l-2.132-1.265l1.206,2.2l-0.869-0.042l0.534,0.786l-2.485,1.188L60.954,34.805z"/>
		<g>
			<path fill="#FFFFFF" d="M73.363,50.523c-1.468-1.331-2.427-2.92-2.717-4.715c-0.289-1.793,0.119-3.606,1.093-5.331l9.52-1.54
				c-2.561-3.783-7.158-5.949-11.965-5.174c-4.804,0.777-8.484,4.286-9.722,8.681l-8.779,1.466l8.841,8.84l1.562-0.261
				c2.561,3.783,7.159,5.952,11.967,5.175c4.805-0.777,8.484-4.284,9.723-8.681L73.363,50.523z"/>
			<path fill="#FFFFFF" d="M36.853,46.241l-2.164,0.362c-2.56-3.783-7.16-5.952-11.965-5.175c-4.806,0.777-8.486,4.285-9.723,8.682
				l9.518-1.539c1.467,1.327,2.428,2.92,2.72,4.713c0.29,1.793-0.119,3.607-1.094,5.331l-9.519,1.54
				c2.559,3.784,7.157,5.953,11.964,5.175c4.805-0.778,8.485-4.286,9.723-8.681l9.379-1.567L36.853,46.241z"/>
		</g>
	</g>
</g>
</svg>
