<?xml version="1.0" encoding="utf-8"?>
<!-- Generator: Adobe Illustrator 16.0.3, SVG Export Plug-In . SVG Version: 6.00 Build 0)  -->
<!DOCTYPE svg PUBLIC "-//W3C//DTD SVG 1.1//EN" "http://www.w3.org/Graphics/SVG/1.1/DTD/svg11.dtd">
<svg version="1.1" id="Слой_1" xmlns="http://www.w3.org/2000/svg" xmlns:xlink="http://www.w3.org/1999/xlink" x="0px" y="0px"
	 width="412px" height="517px" viewBox="0 0 412 517" enable-background="new 0 0 412 517" xml:space="preserve">
<rect x="1" y="1" fill="#E6E6E6" width="95" height="95"/>
<rect x="106" y="1" fill="#E6E6E6" width="95" height="95"/>
<rect x="211" y="1" fill="#E6E6E6" width="95" height="95"/>
<rect x="316" y="1" fill="#E6E6E6" width="95" height="95"/>
<rect x="1" y="106" fill="#E6E6E6" width="95" height="95"/>
<rect x="106" y="106" fill="#E6E6E6" width="95" height="95"/>
<rect x="211" y="106" fill="#E6E6E6" width="95" height="95"/>
<rect x="316" y="106" fill="#E6E6E6" width="95" height="95"/>
<rect x="1" y="211" fill="#E6E6E6" width="95" height="95"/>
<rect x="106" y="211" fill="#E6E6E6" width="95" height="95"/>
<rect x="211" y="211" fill="#E6E6E6" width="95" height="95"/>
<rect x="316" y="211" fill="#E6E6E6" width="95" height="95"/>
<rect x="1" y="316" fill="#E6E6E6" width="95" height="95"/>
<rect x="106" y="316" fill="#E6E6E6" width="95" height="95"/>
<rect x="211" y="316" fill="#E6E6E6" width="95" height="95"/>
<rect x="316" y="316" fill="#E6E6E6" width="95" height="95"/>
<rect x="1" y="421" fill="#E6E6E6" width="95" height="95"/>
<rect x="106" y="421" fill="#E6E6E6" width="95" height="95"/>
<rect x="211" y="421" fill="#E6E6E6" width="95" height="95"/>
<rect x="316" y="421" fill="#E6E6E6" width="95" height="95"/>
</svg>
