<?xml version="1.0" encoding="utf-8"?>
<!-- Generator: Adobe Illustrator 16.0.0, SVG Export Plug-In . SVG Version: 6.00 Build 0)  -->
<!DOCTYPE svg PUBLIC "-//W3C//DTD SVG 1.1//EN" "http://www.w3.org/Graphics/SVG/1.1/DTD/svg11.dtd">
<svg version="1.1" id="Слой_1" xmlns="http://www.w3.org/2000/svg" xmlns:xlink="http://www.w3.org/1999/xlink" x="0px" y="0px"
	 width="670px" height="500px" viewBox="0 0 670 500" enable-background="new 0 0 670 500" xml:space="preserve">
<image display="none" overflow="visible" width="1018" height="685" xlink:href="F551F60F.png"  transform="matrix(0.9999 0 0 0.9999 -174 -92)">
</image>
<rect x="509.942" y="340.037" fill="#F95288" width="160" height="160"/>
<rect x="339.942" y="340.037" fill="#008DB3" width="160" height="160"/>
<rect x="169.942" y="340.037" fill="#1074C0" width="160" height="160"/>
<rect x="-0.058" y="340.037" fill="#0161B7" width="160" height="160"/>
<rect x="509.942" y="0.037" fill="#01C0A1" width="160" height="160"/>
<rect x="339.942" y="0.037" fill="#0195DF" width="160" height="160"/>
<rect x="-0.058" y="170.037" fill="#00A489" width="670" height="160"/>
<rect x="-0.058" y="0.037" fill="#0A76C1" width="330" height="160"/>
<g>
	<path fill="#FFFFFF" d="M254.808,107.611v-2.577h0.154l0,0c0.868,0,1.515-0.195,1.942-0.587c0.427-0.39,0.64-0.979,0.64-1.769l0,0
		c0-0.793-0.213-1.385-0.64-1.777c-0.427-0.395-1.074-0.592-1.942-0.592l0,0h-0.154v-2.437c0.64,0.006,1.21,0.041,1.71,0.103
		c0.563,0.07,1.04,0.175,1.43,0.315l0,0c0.393,0.141,0.749,0.348,1.066,0.621c0.317,0.272,0.596,0.61,0.837,1.012
		c0.241,0.4,0.423,0.831,0.543,1.29c0.122,0.46,0.183,0.947,0.183,1.466c0,0.708-0.11,1.358-0.331,1.948
		c-0.221,0.589-0.553,1.118-0.995,1.586l0,0c-0.443,0.469-1.006,0.819-1.688,1.051c-0.678,0.231-1.473,0.347-2.389,0.347v0.002
		H254.808L254.808,107.611z M254.808,80.737v-2.482l2.055-2.874v-0.905l-0.001-0.084h0.086h1.657h0.085v0.084v9.225v0.084h-0.085
		h-1.657h-0.085v-0.084v-4.778c0-0.408,0.003-0.757,0.011-1.043c0.002-0.091,0.003-0.175,0.008-0.253
		c-0.109,0.202-0.221,0.399-0.337,0.595c-0.183,0.308-0.378,0.604-0.582,0.892L254.808,80.737L254.808,80.737z M266.622,83.785
		h-5.995h-0.085v-0.084v-9.225v-0.084h0.085h5.935h0.084v0.084v1.373v0.085h-0.084h-4.188v2.331h3.348h0.084v0.085v1.337v0.085
		h-0.084h-3.348v2.411h4.249h0.083v0.084v1.433v0.084H266.622L266.622,83.785z M266.419,66.158h-8.872h-0.084v-0.085V52.421v-0.085
		h0.084h8.783h0.085v0.085v2.031v0.085h-0.085h-6.237v3.531h4.995h0.084v0.084v1.98v0.084h-0.084h-4.995v3.651h6.326h0.086v0.085
		v2.12v0.085H266.419L266.419,66.158z M262.313,107.525V92.029v-0.083h0.086h2.791h0.084v0.083v15.496v0.083h-0.084h-2.791h-0.086
		V107.525z M254.808,78.254v2.482l-1.532,2.153v0.811v0.084h-0.085h-1.664h-0.083v-0.084v-9.225v-0.084h0.083h1.664h0.085v0.084
		v5.176l0,0c0,0.207-0.004,0.429-0.013,0.666c-0.003,0.107-0.009,0.214-0.013,0.324c0.099-0.19,0.206-0.379,0.316-0.568
		c0.183-0.309,0.382-0.614,0.596-0.915L254.808,78.254L254.808,78.254z M254.808,97.872v2.437h-2.736v4.725h2.736v2.577h-5.615
		h-0.085v-0.085V92.029v-0.083h0.085h2.793h0.085v0.083v5.84h2.515L254.808,97.872L254.808,97.872z M232.996,105.887V93.706
		c0.524-0.625,1.131-1.105,1.825-1.437c0.782-0.376,1.67-0.564,2.663-0.564c0.776,0,1.488,0.121,2.137,0.361
		c0.651,0.24,1.236,0.603,1.755,1.083l0.001,0.001c0.517,0.479,0.94,1.063,1.266,1.75c0.326,0.685,0.555,1.471,0.69,2.361
		l0.013,0.087l-0.088,0.01l-2.588,0.275l-0.077,0.009l-0.015-0.075c-0.235-1.154-0.611-2.018-1.127-2.591
		c-0.509-0.565-1.159-0.849-1.948-0.849c-0.507,0-0.958,0.118-1.349,0.353c-0.394,0.235-0.732,0.591-1.013,1.063
		c-0.284,0.477-0.498,1.066-0.641,1.761c-0.143,0.698-0.215,1.508-0.215,2.425c0,0.932,0.078,1.75,0.231,2.451
		c0.153,0.699,0.381,1.284,0.685,1.752h0.001c0.3,0.468,0.653,0.82,1.052,1.053c0.396,0.23,0.843,0.346,1.34,0.346
		c0.397,0,0.765-0.077,1.1-0.232c0.337-0.157,0.646-0.391,0.926-0.705c0.282-0.314,0.5-0.659,0.66-1.034
		c0.159-0.376,0.258-0.782,0.296-1.221l0.006-0.087l0.087,0.011l2.588,0.286l0.084,0.008l-0.01,0.084
		c-0.085,0.784-0.278,1.501-0.583,2.149c-0.304,0.646-0.72,1.225-1.244,1.731l0,0c-0.524,0.51-1.13,0.894-1.82,1.15
		c-0.688,0.253-1.457,0.382-2.308,0.382c-0.713,0-1.362-0.091-1.945-0.271c-0.584-0.182-1.102-0.455-1.551-0.818
		C233.559,106.503,233.264,106.212,232.996,105.887L232.996,105.887z M232.996,83.927v-1.509c0.32-0.001,0.607-0.078,0.862-0.23
		c0.255-0.154,0.48-0.388,0.671-0.7c0.193-0.317,0.339-0.682,0.435-1.093c0.098-0.413,0.147-0.875,0.147-1.384
		c0-0.546-0.05-1.024-0.153-1.433c-0.1-0.405-0.251-0.745-0.452-1.016c-0.2-0.269-0.425-0.471-0.677-0.604
		c-0.25-0.133-0.527-0.199-0.831-0.199h-0.002V74.25c0.595,0,1.14,0.109,1.63,0.327c0.491,0.218,0.93,0.544,1.312,0.978l0,0
		c0.382,0.436,0.67,0.943,0.861,1.523c0.19,0.579,0.286,1.23,0.286,1.955l0,0c0,1.352-0.362,2.504-1.084,3.455l0.001,0
		c-0.362,0.479-0.791,0.839-1.285,1.08c-0.495,0.24-1.055,0.36-1.678,0.36H232.996L232.996,83.927z M232.996,66.158V52.336h0.999
		h0.084v0.085v11.447h4.061V52.421v-0.085h0.084h2.461h0.085v0.085v11.447h1.687h0.083v0.085v4.991v0.084h-0.083h-1.699h-0.076
		l-0.008-0.075l-0.293-2.795H232.996L232.996,66.158z M249.413,82.183h1.112h0.085v0.084v3.373v0.084h-0.085h-1.149H249.3
		l-0.009-0.076l-0.195-1.864h-10.473h-0.085v-0.084v-9.225v-0.084h0.085h1.663h0.083v0.084v7.708h2.688v-7.708v-0.084h0.085h1.664
		h0.084v0.084v7.708h2.689v-7.708v-0.084h0.084h1.662h0.085v0.084V82.183L249.413,82.183z M246.557,64.86v1.213v0.085h-0.084h-2.462
		h-0.084v-0.085V52.421v-0.085h0.084h2.462h0.084v0.085v7.66c0,0.308-0.006,0.637-0.018,0.984c-0.007,0.217-0.017,0.44-0.028,0.669
		c0.17-0.338,0.355-0.675,0.553-1.009c0.27-0.455,0.563-0.905,0.879-1.352l4.005-5.6v-1.352v-0.085h0.085h2.45h0.087v0.085v13.651
		v0.085h-0.087h-2.45h-0.085v-0.085v-7.07l0,0c0-0.92,0.013-1.619,0.036-2.099c-0.186,0.355-0.379,0.702-0.583,1.04
		c-0.271,0.454-0.558,0.892-0.858,1.317L246.557,64.86z M232.996,52.336v13.822h-8.154h-0.084v-0.085V52.421v-0.085h0.084h2.461
		h0.084v0.085v11.447h4.061V52.421v-0.085h0.085H232.996L232.996,52.336z M232.996,74.25v1.509c-0.329,0-0.621,0.075-0.875,0.225
		c-0.258,0.151-0.48,0.379-0.668,0.682c-0.189,0.309-0.333,0.667-0.428,1.076c-0.097,0.411-0.146,0.872-0.146,1.385
		c0,0.54,0.054,1.015,0.157,1.426c0.104,0.407,0.259,0.753,0.465,1.034v0c0.203,0.279,0.43,0.488,0.678,0.626
		c0.246,0.137,0.516,0.206,0.809,0.206h0.009v1.509c-0.606-0.005-1.149-0.114-1.628-0.326c-0.492-0.218-0.916-0.545-1.272-0.979
		c-0.352-0.431-0.621-0.904-0.806-1.417c-0.176-0.489-0.276-1.014-0.298-1.575h-1.455v4.072v0.084h-0.085h-1.663h-0.085v-0.084
		v-9.225v-0.084h0.085h1.663h0.085v0.084v3.632h1.463c0.086-0.558,0.237-1.064,0.447-1.518c0.219-0.475,0.51-0.894,0.865-1.254
		v-0.001c0.357-0.361,0.759-0.632,1.207-0.814c0.447-0.181,0.938-0.271,1.476-0.271H232.996L232.996,74.25z M232.996,93.706v12.181
		c-0.105-0.127-0.206-0.26-0.303-0.397c-0.344-0.488-0.636-1.041-0.877-1.657c-0.241-0.613-0.42-1.257-0.539-1.933
		c-0.12-0.678-0.181-1.387-0.181-2.127c0-1.188,0.142-2.267,0.423-3.236c0.284-0.97,0.707-1.83,1.272-2.577
		C232.858,93.871,232.927,93.787,232.996,93.706L232.996,93.706z M217.415,104.156v-3.972c0.059-0.086,0.118-0.172,0.178-0.256
		l4.549-6.36v-1.539v-0.083h0.085h2.782h0.086v0.083v15.496v0.085h-0.086h-2.782h-0.085v-0.085V99.5c0-0.69,0.006-1.276,0.018-1.754
		c0.006-0.26,0.015-0.488,0.023-0.68c-0.217,0.418-0.445,0.827-0.683,1.226c-0.308,0.515-0.633,1.012-0.975,1.495L217.415,104.156
		L217.415,104.156z M217.415,77.729v-1c0.026,0.156,0.038,0.316,0.038,0.482h-0.001C217.452,77.392,217.441,77.564,217.415,77.729
		L217.415,77.729z M217.415,74.466l0.023,0.048l3.261,6.5l-0.122,0.291c-0.066,0.158-0.136,0.296-0.21,0.409
		c-0.073,0.112-0.15,0.202-0.232,0.271v0c-0.077,0.064-0.185,0.113-0.318,0.146c-0.139,0.035-0.308,0.052-0.506,0.052h-0.62h-0.086
		v0.084v1.433v0.084h0.086h0.62c0.375,0,0.706-0.041,0.997-0.122c0.291-0.082,0.539-0.206,0.741-0.371
		c0.2-0.163,0.398-0.401,0.593-0.711c0.191-0.306,0.38-0.684,0.566-1.133h0.001l2.878-6.941l0.049-0.117h-0.127h-1.562h-0.057
		l-0.021,0.054l-1.796,4.491l-2.186-4.498l-0.023-0.048h-0.053h-1.797h-0.099V74.466L217.415,74.466z M217.415,66.309v-2.277
		c0.112-0.045,0.219-0.1,0.323-0.163c0.386-0.232,0.724-0.582,1.009-1.048c0.289-0.474,0.505-1.017,0.649-1.629
		c0.146-0.616,0.217-1.302,0.217-2.058c0-1.616-0.301-2.833-0.902-3.647c-0.3-0.404-0.638-0.707-1.015-0.909
		c-0.091-0.048-0.185-0.09-0.281-0.127v-2.253c0.505,0.076,0.979,0.211,1.423,0.409c0.723,0.321,1.366,0.8,1.929,1.439
		c0.561,0.639,0.984,1.385,1.266,2.24c0.28,0.852,0.421,1.812,0.421,2.878c0,0.995-0.133,1.917-0.397,2.765
		c-0.266,0.849-0.666,1.624-1.197,2.325c-0.532,0.703-1.163,1.233-1.889,1.586C218.493,66.072,217.975,66.229,217.415,66.309z
		 M217.415,52.197v2.253c-0.3-0.114-0.623-0.172-0.969-0.172c-0.495,0-0.935,0.112-1.319,0.339
		c-0.387,0.227-0.721,0.568-1.001,1.023l0,0c-0.101,0.164-0.192,0.338-0.275,0.521v-3.442c0.138-0.071,0.277-0.136,0.421-0.194
		c0.658-0.266,1.38-0.4,2.168-0.4v0C216.777,52.125,217.101,52.149,217.415,52.197L217.415,52.197z M217.415,64.031v2.277
		c-0.291,0.041-0.594,0.061-0.907,0.061v-0.001c-0.917,0-1.738-0.16-2.458-0.479c-0.068-0.03-0.133-0.061-0.2-0.094v-3.408
		c0.102,0.21,0.217,0.404,0.346,0.581v0c0.306,0.417,0.645,0.73,1.017,0.938c0.372,0.207,0.777,0.31,1.216,0.31
		C216.784,64.216,217.114,64.154,217.415,64.031L217.415,64.031z M217.415,74.391v0.075l-0.038-0.075H217.415L217.415,74.391z
		 M217.415,76.729c-0.032-0.203-0.088-0.398-0.164-0.584c-0.134-0.33-0.335-0.635-0.603-0.914c-0.269-0.28-0.612-0.493-1.024-0.632
		c-0.407-0.139-0.886-0.208-1.432-0.208h-0.342v1.549h0.044c0.319,0,0.586,0.032,0.805,0.097c0.211,0.063,0.374,0.156,0.49,0.279
		c0.116,0.128,0.204,0.269,0.262,0.42v0c0.059,0.151,0.088,0.317,0.088,0.495c0,0.199-0.032,0.378-0.094,0.535
		c-0.063,0.156-0.158,0.294-0.284,0.411c-0.127,0.117-0.282,0.206-0.465,0.266c-0.188,0.06-0.405,0.09-0.652,0.09l0,0h-0.193v1.596
		h0.53c0.442,0,0.847-0.068,1.215-0.203l0,0c0.367-0.134,0.697-0.336,0.987-0.605c0.29-0.269,0.507-0.58,0.653-0.934
		c0.084-0.205,0.146-0.424,0.18-0.659V76.729L217.415,76.729z M217.415,100.184v3.972l-1.416,1.99v1.379v0.085h-0.083h-2.065V91.946
		h2.065h0.083v0.083v8.697c0,0.349-0.007,0.721-0.019,1.115c-0.01,0.263-0.022,0.533-0.037,0.811c0.202-0.4,0.419-0.797,0.654-1.191
		C216.85,101.031,217.124,100.605,217.415,100.184z M213.85,52.719v3.442c-0.15,0.331-0.273,0.692-0.364,1.083
		c-0.143,0.612-0.215,1.298-0.215,2.059h0.001c0,0.802,0.077,1.511,0.232,2.123c0.089,0.351,0.205,0.673,0.346,0.961v3.408
		c-0.638-0.318-1.195-0.767-1.667-1.345c-0.52-0.635-0.916-1.331-1.188-2.086c-0.263-0.731-0.412-1.517-0.441-2.358h-2.232v6.067
		v0.085h-0.086h-2.46h-0.086v-0.085V52.421v-0.085h0.086h2.46h0.086v0.085v5.415h2.241c0.128-0.835,0.349-1.593,0.664-2.271
		c0.324-0.699,0.748-1.315,1.271-1.845v0C212.909,53.306,213.36,52.973,213.85,52.719L213.85,52.719z M213.85,74.391v1.549h-1.688
		v2.594h1.688v1.596h-1.688v3.571v0.084h-0.085h-1.662h-0.086v-0.084v-9.225v-0.084h0.086H213.85L213.85,74.391z M213.85,91.946
		v15.665h-0.729h-0.085v-0.085V92.029v-0.083h0.085H213.85L213.85,91.946z M200.904,107.611v-2.5h0.777l0,0
		c0.373,0,0.706-0.047,1-0.143c0.29-0.097,0.542-0.241,0.755-0.434l0,0c0.21-0.19,0.369-0.416,0.475-0.675
		c0.105-0.261,0.159-0.557,0.159-0.887c0-0.314-0.054-0.599-0.161-0.854c-0.107-0.256-0.27-0.483-0.486-0.684
		c-0.216-0.2-0.468-0.35-0.755-0.451c-0.289-0.1-0.613-0.15-0.972-0.15h-0.791V98.45h0.574c0.337,0,0.64-0.049,0.904-0.15
		c0.264-0.099,0.492-0.25,0.685-0.447c0.195-0.2,0.341-0.429,0.439-0.683c0.097-0.255,0.146-0.54,0.146-0.851
		c0-0.341-0.056-0.638-0.167-0.89c-0.109-0.247-0.273-0.451-0.492-0.611l0,0c-0.223-0.163-0.466-0.286-0.728-0.369
		c-0.263-0.082-0.545-0.123-0.846-0.123l0,0h-0.515v-2.38h0.561l0,0c0.515,0,0.987,0.026,1.412,0.078
		c0.429,0.054,0.815,0.135,1.156,0.242c0.346,0.109,0.67,0.278,0.972,0.507l0,0c0.296,0.226,0.572,0.51,0.818,0.853l0,0
		c0.251,0.346,0.443,0.72,0.569,1.125c0.125,0.403,0.188,0.835,0.188,1.296l0,0c0,0.436-0.064,0.845-0.191,1.225
		c-0.128,0.382-0.32,0.735-0.574,1.059l0,0c-0.258,0.325-0.563,0.591-0.916,0.797c-0.252,0.148-0.532,0.265-0.835,0.353
		c0.404,0.097,0.768,0.232,1.092,0.406c0.422,0.227,0.777,0.52,1.065,0.877c0.287,0.355,0.5,0.743,0.645,1.163
		c0.143,0.423,0.215,0.877,0.215,1.364c0,0.608-0.101,1.169-0.3,1.68c-0.199,0.514-0.5,0.977-0.897,1.393
		c-0.404,0.417-0.913,0.729-1.53,0.936c-0.61,0.208-1.328,0.309-2.15,0.309v0.002H200.904L200.904,107.611z M200.904,64.706v-8.367
		l3.258,9.708l0.037,0.112h-0.117h-2.63h-0.061l-0.02-0.058L200.904,64.706L200.904,64.706z M203.062,82.89v0.811v0.084h-0.085
		h-1.663h-0.083v-0.084v-9.225v-0.084h0.083h1.663h0.085v0.084v5.176l0,0c0,0.207-0.004,0.429-0.012,0.666
		c-0.003,0.107-0.009,0.214-0.013,0.324c0.099-0.19,0.204-0.38,0.315-0.568c0.183-0.309,0.382-0.614,0.595-0.915l2.701-3.777v-0.905
		v-0.084h0.086h1.655h0.084v0.084v9.225v0.084h-0.084h-1.655h-0.086v-0.084v-4.778c0-0.546,0.006-0.979,0.019-1.296
		c-0.108,0.202-0.22,0.399-0.336,0.595c-0.185,0.308-0.378,0.604-0.583,0.892L203.062,82.89z M200.904,56.338v8.367l-0.605-1.797
		h-2.588v-2.14h1.874l-1.874-5.73v-2.702h1.789h0.062l0.019,0.058L200.904,56.338L200.904,56.338z M200.904,91.946v2.38h-2.748
		v4.124h2.748v2.383h-2.748v4.278h2.748v2.5h-3.193V91.946H200.904L200.904,91.946z M197.711,80.678v-6.101l2.873,9.098l0.036,0.11
		h-0.115h-1.786h-0.062l-0.02-0.06L197.711,80.678z M197.711,52.336v2.702v-0.002l-1.875,5.733h1.875v2.14h-2.54l-1.049,3.19
		l-0.021,0.059h-0.062h-1.59v-1.889l3.94-11.875l0.02-0.059h0.06H197.711L197.711,52.336z M197.711,74.578v6.101l-1.372-4.517
		l-2.258,7.563l-0.017,0.061h-0.063h-1.446h-0.104v-0.038l0.023-0.072l2.926-9.225l0.019-0.06h0.063h2.109h0.061l0.019,0.06
		L197.711,74.578L197.711,74.578z M197.711,91.946v15.665h-2.287h-0.086v-0.085V92.029v-0.083h0.086H197.711L197.711,91.946z
		 M192.451,79.531c0.008-0.147,0.013-0.299,0.013-0.453c0-0.15-0.004-0.296-0.013-0.441V79.531z M192.451,64.269v1.889h-0.51h-0.117
		l0.038-0.111L192.451,64.269L192.451,64.269z M192.451,78.637v0.894c-0.03,0.543-0.118,1.044-0.263,1.502
		c-0.185,0.585-0.461,1.102-0.829,1.549c-0.37,0.448-0.802,0.785-1.292,1.009c-0.481,0.22-1.02,0.332-1.616,0.336v-1.509
		c0.279-0.002,0.535-0.062,0.771-0.176c0.243-0.118,0.464-0.297,0.664-0.535c0.197-0.238,0.348-0.575,0.449-1.01
		c0.102-0.443,0.153-0.987,0.153-1.632c0-0.523-0.043-0.99-0.127-1.398c-0.084-0.407-0.208-0.757-0.376-1.048
		c-0.162-0.287-0.37-0.502-0.622-0.645c-0.253-0.143-0.552-0.214-0.897-0.214l0,0l-0.015,0V74.25h0.04
		c1.227,0,2.195,0.462,2.909,1.388c0.354,0.458,0.621,0.977,0.798,1.552C192.336,77.637,192.42,78.121,192.451,78.637
		L192.451,78.637z M192.451,83.747l-0.012,0.038h0.012V83.747L192.451,83.747z M188.452,99.923v-6.481
		c0.396,0.436,0.698,0.908,0.902,1.415c0.224,0.548,0.335,1.138,0.335,1.77h-0.001c0,0.72-0.12,1.371-0.361,1.956
		C189.122,99.078,188.83,99.526,188.452,99.923L188.452,99.923z M188.452,66.158V52.336h1.861h0.084v0.085v13.651v0.085h-0.084
		H188.452z M188.452,52.336v13.822h-0.598h-0.086v-0.085v-5.673c-0.438,0.435-0.923,0.767-1.456,0.995
		c-0.592,0.255-1.243,0.383-1.95,0.383c-0.23,0-0.453-0.014-0.667-0.043v-2.433c0.104,0.078,0.223,0.141,0.358,0.19
		c0.246,0.091,0.546,0.136,0.9,0.136v0c0.553,0,1.065-0.1,1.538-0.3c0.463-0.197,0.89-0.491,1.278-0.88v-6.026v-0.085h0.086H188.452
		L188.452,52.336z M188.452,74.25v1.509c-0.675,0.004-1.18,0.276-1.517,0.819c-0.346,0.559-0.52,1.404-0.52,2.536l0,0
		c0,0.549,0.044,1.032,0.133,1.448c0.088,0.412,0.221,0.757,0.397,1.036v0c0.174,0.275,0.384,0.48,0.629,0.617
		c0.247,0.136,0.533,0.204,0.856,0.204h0.021v1.509h-0.034c-0.625,0-1.182-0.118-1.669-0.353c-0.49-0.236-0.911-0.589-1.26-1.06
		c-0.347-0.468-0.608-0.992-0.781-1.568c-0.172-0.576-0.258-1.206-0.258-1.89c0-0.679,0.092-1.305,0.275-1.874
		c0.185-0.571,0.461-1.087,0.83-1.546c0.372-0.461,0.803-0.809,1.293-1.04C187.326,74.37,187.86,74.254,188.452,74.25L188.452,74.25
		z M188.452,93.441v6.481c-0.066,0.07-0.136,0.138-0.208,0.205l0,0c-0.481,0.447-1.027,0.783-1.638,1.007
		c-0.609,0.223-1.284,0.333-2.021,0.333l0,0h-0.89v-2.564h0.325l0,0c0.421,0,0.793-0.052,1.112-0.155
		c0.318-0.101,0.586-0.255,0.803-0.458c0.22-0.204,0.383-0.44,0.492-0.711c0.108-0.271,0.163-0.578,0.163-0.92
		c0-0.309-0.051-0.593-0.152-0.855l0,0c-0.101-0.262-0.251-0.503-0.453-0.722c-0.2-0.216-0.484-0.378-0.849-0.487
		c-0.372-0.11-0.829-0.164-1.369-0.164h-0.073v-2.486h0.574c0.913,0,1.71,0.115,2.389,0.346c0.684,0.232,1.25,0.581,1.698,1.046
		L188.452,93.441L188.452,93.441z M183.694,77.959v-1.437c0.054,0.22,0.08,0.449,0.08,0.689
		C183.774,77.475,183.748,77.725,183.694,77.959z M183.694,59.301v2.433c-0.167-0.022-0.33-0.055-0.488-0.095
		c-0.361-0.093-0.697-0.232-1.008-0.419c-0.31-0.185-0.579-0.401-0.806-0.646c-0.224-0.245-0.408-0.521-0.548-0.826
		c-0.141-0.304-0.245-0.668-0.315-1.092c-0.069-0.421-0.104-0.904-0.104-1.445l0,0v-4.79v-0.085h0.085h2.461h0.085v0.085v4.908
		c0,0.413,0.036,0.767,0.108,1.062c0.071,0.29,0.176,0.525,0.317,0.702l0.001,0.001C183.544,59.171,183.615,59.241,183.694,59.301
		L183.694,59.301z M183.694,76.522v1.437c-0.035,0.15-0.082,0.293-0.138,0.43c-0.145,0.353-0.363,0.664-0.654,0.933l0,0
		c-0.289,0.269-0.619,0.472-0.986,0.605h-0.001c-0.366,0.135-0.77,0.203-1.213,0.203h-0.529v-1.596h0.193
		c0.247,0,0.465-0.03,0.652-0.091c0.184-0.059,0.338-0.148,0.464-0.265l0,0c0.126-0.117,0.223-0.255,0.285-0.411
		c0.063-0.157,0.094-0.336,0.094-0.535c0-0.178-0.03-0.344-0.087-0.495l0,0c-0.058-0.152-0.146-0.292-0.265-0.42
		c-0.114-0.124-0.277-0.216-0.488-0.279c-0.218-0.064-0.488-0.097-0.805-0.097h-0.043v-1.549h0.342c0.546,0,1.023,0.07,1.432,0.208
		c0.413,0.14,0.754,0.352,1.024,0.632c0.268,0.28,0.469,0.584,0.603,0.915C183.623,76.268,183.665,76.394,183.694,76.522
		L183.694,76.522z M183.694,91.946v2.486h-2.896v4.472h2.896v2.564h-2.896v6.058v0.083h-0.085h-0.542V91.946H183.694z
		 M180.172,74.391v1.549h-1.689v2.594h1.689v1.596h-1.688v3.571v0.084h-0.086h-1.663h-0.085v-0.084v-9.225v-0.084h0.085H180.172
		L180.172,74.391z M180.172,91.946v15.663h-2.251h-0.085v-0.083V92.029v-0.083h0.085H180.172L180.172,91.946z M162.857,107.611
		V91.946h8.984h0.085v0.083v2.306v0.083h-0.085h-7.093v4.031h5.682h0.084v0.086v2.248v0.083h-0.084h-5.682v4.167h7.192h0.085v0.085
		v2.407v0.085h-0.085H162.857L162.857,107.611z M162.857,83.785v-9.394h0.084v0.084v3.708h3.352v-3.708v-0.083l0.084-0.001h1.661
		h0.083v0.084v9.225v0.084h-0.083h-1.661h-0.084v-0.084v-3.923h-3.352v3.923v0.084H162.857L162.857,83.785z M162.857,66.158v-2.29
		h0.222c0.748,0,1.307-0.165,1.675-0.494c0.367-0.327,0.551-0.821,0.551-1.485c0-0.273-0.042-0.522-0.124-0.748
		c-0.081-0.225-0.203-0.427-0.366-0.607l-0.001,0c-0.158-0.177-0.398-0.311-0.723-0.4c-0.329-0.091-0.739-0.136-1.233-0.138v-2.118
		c0.531,0.005,1.013,0.03,1.443,0.076c0.478,0.052,0.893,0.132,1.243,0.236v0.001c0.357,0.105,0.681,0.271,0.973,0.498
		c0.291,0.225,0.55,0.511,0.777,0.857l0,0c0.227,0.343,0.397,0.718,0.511,1.125c0.113,0.406,0.17,0.843,0.17,1.311l0,0
		c0,0.62-0.099,1.182-0.294,1.685c-0.195,0.504-0.49,0.95-0.883,1.336c-0.394,0.386-0.875,0.675-1.447,0.868
		c-0.568,0.191-1.226,0.287-1.969,0.287H162.857L162.857,66.158z M162.857,54.486v-2.15h3.559l0.086,0v0.085v1.98v0.085h-0.086
		H162.857L162.857,54.486z M173.28,83.785h-1.784h-0.085v-0.084v-7.714h-2.368h-0.085v-0.085v-1.425v-0.084h0.085h6.689h0.084v0.084
		v1.425v0.085h-0.084h-2.367v7.714v0.084H173.28L173.28,83.785z M172.975,62.096l-4.833-9.637l-0.063-0.123h0.137h2.661l0.051,0
		l0.023,0.048l3.277,6.738l2.69-6.732l0.021-0.054h0.058h2.31h0.127l-0.048,0.117l-4.262,10.272
		c-0.273,0.662-0.553,1.219-0.836,1.671c-0.284,0.455-0.574,0.803-0.868,1.042c-0.294,0.24-0.655,0.421-1.082,0.54
		c-0.424,0.118-0.912,0.178-1.462,0.178h-0.917h-0.086v-0.085v-2.12v-0.085h0.086h0.917c0.296,0,0.549-0.026,0.758-0.078
		c0.205-0.051,0.368-0.127,0.488-0.227l0,0c0.122-0.104,0.24-0.24,0.35-0.409c0.111-0.171,0.217-0.376,0.316-0.614l0,0
		L172.975,62.096z M162.857,52.336v2.15h-2.445v3.391h2.278l0.167,0.001v2.118l-0.028-0.001h-2.417v3.873h2.445v2.29h-4.992h-0.086
		v-0.085V52.421v-0.085h0.086H162.857L162.857,52.336z M162.857,74.391v9.394h-0.002h-1.663h-0.084v-0.084v-9.225v-0.084h0.084
		h1.663H162.857L162.857,74.391z M162.857,91.946v15.665h-0.987l-0.084-0.002v-0.083V92.029v-0.083h0.084H162.857L162.857,91.946z
		 M155.731,104.256v-1.951l0.364,0.042l0.083,0.008l-0.008,0.084C156.1,103.091,155.954,103.698,155.731,104.256L155.731,104.256z
		 M155.731,97.395V95.5c0.195,0.534,0.34,1.12,0.438,1.76l0.014,0.087l-0.088,0.01L155.731,97.395L155.731,97.395z M155.731,83.927
		v-1.509c0.278-0.002,0.536-0.062,0.77-0.176c0.243-0.118,0.464-0.297,0.664-0.535c0.199-0.238,0.348-0.575,0.449-1.01
		c0.103-0.442,0.153-0.987,0.153-1.632c0-0.523-0.043-0.99-0.126-1.398c-0.084-0.407-0.21-0.757-0.375-1.048
		c-0.165-0.288-0.372-0.503-0.623-0.645h-0.001c-0.253-0.143-0.551-0.214-0.897-0.214l-0.014,0V74.25h0.04
		c1.227,0,2.194,0.462,2.909,1.388c0.354,0.458,0.62,0.977,0.797,1.55c0.177,0.574,0.265,1.204,0.265,1.89
		c0,0.719-0.092,1.372-0.275,1.955c-0.185,0.585-0.461,1.102-0.829,1.549c-0.37,0.448-0.8,0.785-1.292,1.009
		C156.865,83.811,156.326,83.923,155.731,83.927z M149.712,52.125l0.058,0v0c0.9,0,1.706,0.171,2.418,0.511l0,0
		c0.713,0.339,1.33,0.85,1.854,1.531c0.522,0.674,0.913,1.436,1.173,2.281c0.26,0.845,0.391,1.772,0.391,2.784
		c0,1.061-0.135,2.022-0.406,2.881c-0.269,0.862-0.677,1.623-1.217,2.281v0.001c-0.544,0.657-1.177,1.152-1.897,1.481
		c-0.708,0.323-1.499,0.488-2.375,0.494v-2.153c0.419-0.004,0.805-0.093,1.16-0.266c0.365-0.178,0.696-0.445,0.995-0.802
		c0.298-0.357,0.523-0.861,0.674-1.512c0.151-0.659,0.229-1.467,0.229-2.425l0,0c0-0.776-0.063-1.469-0.189-2.076
		c-0.125-0.607-0.313-1.129-0.562-1.566c-0.244-0.431-0.557-0.755-0.936-0.969c-0.38-0.215-0.831-0.322-1.349-0.322h-0.021V52.125
		L149.712,52.125z M155.731,74.25v1.509c-0.674,0.004-1.181,0.276-1.518,0.819v0.001c-0.347,0.558-0.52,1.404-0.52,2.535l0,0
		c0,0.549,0.044,1.032,0.133,1.448c0.088,0.412,0.22,0.757,0.397,1.036v0c0.173,0.275,0.384,0.48,0.631,0.617
		c0.247,0.136,0.531,0.204,0.855,0.204h0.021v1.509h-0.034c-0.625,0-1.182-0.118-1.671-0.353c-0.49-0.236-0.911-0.59-1.26-1.06
		c-0.348-0.468-0.608-0.992-0.781-1.568c-0.172-0.576-0.259-1.205-0.259-1.89c0-1.362,0.369-2.503,1.106-3.42
		c0.372-0.461,0.802-0.809,1.292-1.04C154.604,74.37,155.14,74.255,155.731,74.25L155.731,74.25z M155.731,95.5v1.895l-2.226,0.236
		l-0.077,0.009l-0.015-0.075c-0.234-1.155-0.611-2.021-1.127-2.591c-0.51-0.566-1.159-0.849-1.948-0.849l0,0
		c-0.22,0-0.427,0.024-0.626,0.066v-2.462c0.199-0.017,0.4-0.025,0.606-0.025l0,0c0.776,0,1.489,0.121,2.137,0.36l0,0
		c0.65,0.241,1.237,0.604,1.757,1.084v0.001c0.518,0.479,0.939,1.063,1.266,1.75C155.571,95.091,155.655,95.292,155.731,95.5
		L155.731,95.5z M155.731,102.305v1.951c-0.045,0.113-0.095,0.223-0.146,0.333c-0.304,0.646-0.719,1.225-1.243,1.73
		c-0.524,0.51-1.13,0.894-1.82,1.15c-0.688,0.253-1.457,0.382-2.307,0.382c-0.172,0-0.338-0.006-0.502-0.017v-2.595
		c0.227,0.059,0.466,0.089,0.719,0.089c0.397,0,0.763-0.077,1.099-0.232c0.337-0.157,0.646-0.391,0.927-0.704
		c0.28-0.315,0.5-0.661,0.66-1.035c0.158-0.376,0.258-0.782,0.294-1.221l0.009-0.087l0.085,0.011L155.731,102.305L155.731,102.305z
		 M149.712,83.785v-4.351l1.761,4.233l0.049,0.118h-0.127H149.712L149.712,83.785z M149.712,76.417v-2.026h1.297h0.166l-0.097,0.134
		L149.712,76.417z M149.661,66.37c-0.917,0-1.736-0.174-2.453-0.52c-0.72-0.346-1.337-0.866-1.851-1.557
		c-0.511-0.689-0.895-1.459-1.148-2.308c-0.254-0.847-0.382-1.776-0.382-2.784c0-1.002,0.136-1.923,0.407-2.763
		c0.271-0.84,0.678-1.599,1.221-2.274c0.545-0.679,1.179-1.189,1.898-1.529c0.704-0.333,1.492-0.502,2.359-0.51v2.152
		c-1.013,0.005-1.772,0.416-2.279,1.232c-0.519,0.834-0.777,2.092-0.777,3.773c0,0.817,0.066,1.535,0.199,2.154
		c0.131,0.614,0.33,1.129,0.594,1.545h0c0.26,0.413,0.575,0.722,0.946,0.926c0.372,0.206,0.8,0.308,1.286,0.308v0h0.031v2.153
		H149.661L149.661,66.37z M149.712,74.391v2.026l-0.796,1.103l0.796,1.915v4.351h-0.177h-0.056l-0.022-0.052l-1.888-4.561
		l-1.678,2.224v2.304v0.084h-0.085h-1.663h-0.084v-0.084v-9.225v-0.084h0.084h1.663h0.085v0.084v4.562l0.118-0.18
		c0.077-0.115,0.14-0.205,0.188-0.268l0,0l3.063-4.164l0.026-0.034h0.042H149.712L149.712,74.391z M149.712,91.729v2.462
		c-0.259,0.059-0.5,0.153-0.723,0.286c-0.393,0.235-0.731,0.591-1.011,1.063c-0.284,0.477-0.499,1.066-0.641,1.761
		c-0.144,0.697-0.215,1.508-0.215,2.425c0,0.932,0.077,1.75,0.23,2.451c0.152,0.699,0.381,1.284,0.685,1.752l0,0
		c0.303,0.469,0.654,0.82,1.053,1.053c0.196,0.113,0.403,0.199,0.622,0.257v2.595c-0.52-0.033-1.001-0.119-1.445-0.255
		c-0.584-0.182-1.101-0.455-1.551-0.818c-0.448-0.359-0.844-0.783-1.188-1.272c-0.343-0.488-0.635-1.041-0.876-1.657
		c-0.24-0.614-0.42-1.259-0.54-1.936c-0.12-0.675-0.179-1.385-0.179-2.125h0c0-1.188,0.141-2.267,0.424-3.236
		c0.282-0.97,0.706-1.83,1.272-2.577c0.568-0.751,1.244-1.314,2.027-1.689C148.275,91.97,148.961,91.791,149.712,91.729z"/>
	<path fill-rule="evenodd" clip-rule="evenodd" fill="#FFFFFF" d="M97.845,42.447c20.729,0,37.541,16.812,37.541,37.541
		c0,20.729-16.812,37.539-37.541,37.539v-4.585c18.198,0,32.954-14.756,32.954-32.954c0-18.197-14.756-32.954-32.954-32.954V42.447
		L97.845,42.447z M97.845,109.372c16.227,0,29.385-13.158,29.385-29.384c0-16.226-13.158-29.386-29.385-29.386v1.986
		c0.79,0,1.584,0.035,2.386,0.105c4.722,0.415,9.057,2,12.744,4.447c0.807,0.535,0.297,1.173-0.399,0.756
		c-3.063-1.541-6.463-2.541-10.09-2.859c-1.57-0.137-3.12-0.141-4.64-0.021V109.372z M97.845,117.527
		c-20.729,0-37.54-16.81-37.54-37.539c0-20.729,16.812-37.541,37.54-37.541v4.586c-5.426,0-10.544,1.311-15.058,3.635
		c-1.1-0.564-2.348-0.879-3.668-0.879c-4.443,0-8.046,3.604-8.046,8.047c0,0.846,0.131,1.66,0.373,2.425
		c-4.116,5.5-6.555,12.328-6.555,19.725c0,18.198,14.758,32.954,32.954,32.954V117.527L97.845,117.527z M97.845,50.602
		c-4.326,0-8.432,0.934-12.13,2.614c0.381,0.542,0.698,1.132,0.937,1.761c3.438-1.542,7.233-2.393,11.194-2.389V50.602
		L97.845,50.602z M97.845,55.016c-3.806,0.3-7.424,1.374-10.677,3.079c-0.137,4.325-3.69,7.791-8.049,7.791
		c-0.383,0-0.76-0.028-1.131-0.08c-3.129,4.064-5.173,9.044-5.653,14.532c-0.257,2.95-0.046,5.833,0.577,8.575
		c0.136,0.602-0.727,0.812-0.944,0.093c-1.243-3.551-1.768-7.416-1.418-11.403c0.416-4.752,2.024-9.117,4.501-12.823
		c-0.576-0.338-1.106-0.744-1.579-1.209c-3.164,4.688-5.012,10.337-5.012,16.418c0,16.227,13.158,29.384,29.385,29.384V55.016z"/>
	<g>
		<path fill-rule="evenodd" clip-rule="evenodd" fill="#FFFFFF" d="M77.787,54.268c0,0.771,0.619,1.415,1.379,1.415
			c0.748,0,1.367-0.644,1.367-1.415c0-0.785-0.619-1.416-1.367-1.416C78.406,52.852,77.787,53.483,77.787,54.268z"/>
		<rect x="75.091" y="52.839" fill-rule="evenodd" clip-rule="evenodd" fill="#FFFFFF" width="2.696" height="2.844"/>
		<rect x="80.533" y="52.839" fill-rule="evenodd" clip-rule="evenodd" fill="#FFFFFF" width="2.696" height="2.844"/>
		<rect x="77.787" y="55.683" fill-rule="evenodd" clip-rule="evenodd" fill="#FFFFFF" width="2.746" height="6.948"/>
	</g>
</g>
</svg>
